<?xml version="1.0" encoding="UTF-8"?>
<svg width="874px" height="2197px" viewBox="0 0 874 2197" version="1.1" xmlns="http://www.w3.org/2000/svg" xmlns:xlink="http://www.w3.org/1999/xlink">
    <!-- Generator: Sketch 49 (51002) - http://www.bohemiancoding.com/sketch -->
    <title>freezing rain</title>
    <desc>Created with Sketch.</desc>
    <defs>
        <linearGradient x1="95.7920102%" y1="97.5648942%" x2="13.7061619%" y2="4.63601112%" id="linearGradient-1">
            <stop stop-color="#8AB6D0" offset="0%"></stop>
            <stop stop-color="#6EB9F9" offset="100%"></stop>
        </linearGradient>
        <rect id="path-2" x="0" y="0" width="874" height="2197"></rect>
    </defs>
    <g id="Page-1" stroke="none" stroke-width="1" fill="none" fill-rule="evenodd">
        <g id="freezing-rain">
            <g id="Group-16">
                <g id="night-rainy-copy-8">
                    <g id="Group-5-Copy-3">
                        <g id="with-content-copy-7">
                            <g id="Shape">
                                <g id="fluffy-cloud-silhouette">
                                    <mask id="mask-3" fill="white">
                                        <use xlink:href="#path-2"></use>
                                    </mask>
                                    <use id="Mask" fill="url(#linearGradient-1)" xlink:href="#path-2"></use>
                                    <g mask="url(#mask-3)" id="Group">
                                        <g transform="translate(-251.000000, 148.000000)">
                                            <g>
                                                <path d="M923.306006,394.515629 C895.14972,359.475717 859.428139,336.933074 816.185297,326.878893 C829.941981,305.754192 836.800947,282.621474 836.800947,257.480737 C836.800947,221.940582 824.226176,191.601898 799.090724,166.454115 C773.949987,141.31514 743.609541,128.740369 708.069386,128.740369 C675.886495,128.740369 648.056072,139.134503 624.595729,159.922773 C604.823799,112.315135 573.382466,73.7594295 530.30872,44.2556577 C487.224407,14.7589316 439.194028,0 386.221106,0 C315.149602,0 254.463426,25.1513049 204.173146,75.4415848 C153.879344,125.719535 128.740369,186.409234 128.740369,257.486022 C128.740369,262.516635 129.0768,269.719078 129.746139,279.107443 C90.8575257,297.213071 59.5077866,324.618992 35.7057288,361.34106 C11.9054324,398.04199 0,438.533495 0,482.789153 C0,544.810485 22.0476843,597.867954 66.1307229,641.949231 C110.215523,686.042839 163.272992,708.087 225.296086,708.087 L772.456304,708.087 C825.755088,708.087 871.264876,689.213393 908.98743,651.508454 C946.704699,613.792945 965.565976,568.283157 965.565976,514.972043 C965.560692,469.714138 951.472861,429.544973 923.306006,394.515629 Z" id="Shape" fill="#FFFFFF" fill-rule="nonzero" opacity="0.300000012"></path>
                                                <path d="M804.370974,405.813352 C782.616673,378.740576 755.017221,361.323526 721.606642,353.555396 C732.235425,337.233886 737.534847,319.360928 737.534847,299.936521 C737.534847,272.477244 727.819241,249.036763 708.398917,229.606912 C688.97451,210.183866 665.532668,200.46826 638.073391,200.46826 C613.208027,200.46826 591.705495,208.499048 573.579406,224.560622 C558.303082,187.777684 534.010665,157.988513 500.730735,135.193108 C467.442639,112.403146 430.33308,101 389.404781,101 C334.493032,101 287.605265,120.432572 248.749647,159.288191 C209.891306,198.134283 190.46826,245.024772 190.46826,299.940604 C190.46826,303.82739 190.728196,309.392191 191.245346,316.645893 C161.19896,330.634787 136.977311,351.809336 118.587203,380.18179 C100.198456,408.537913 91,439.822736 91,474.015843 C91,521.935187 108.034632,562.92881 142.094369,596.987187 C176.155468,631.05509 217.149091,648.087 265.069796,648.087 L687.82045,648.087 C729.000519,648.087 764.162602,633.504745 793.308058,604.372898 C822.449432,575.232885 837.02216,540.070803 837.02216,498.881207 C837.018077,463.913736 826.133441,432.877962 804.370974,405.813352 Z" id="Shape" fill="#FFFFFF" fill-rule="nonzero" opacity="0.5"></path>
                                                <path d="M675.183,420.065 C659.198,400.172 638.918,387.374 614.368,381.666 C622.178,369.673 626.072,356.54 626.072,342.267 C626.072,322.09 618.933,304.866 604.663,290.589 C590.39,276.317 573.165,269.178 552.988,269.178 C534.717,269.178 518.917,275.079 505.598,286.881 C494.373,259.853 476.523,237.964 452.069,221.214 C427.609,204.468 400.341,196.089 370.267,196.089 C329.918,196.089 295.465,210.368 266.914,238.919 C238.361,267.463 224.089,301.918 224.089,342.27 C224.089,345.126 224.28,349.215 224.66,354.545 C202.582,364.824 184.784,380.383 171.271,401.231 C157.759,422.067 151,445.055 151,470.18 C151,505.391 163.517,535.513 188.544,560.539 C213.572,585.572 243.694,598.087 278.906,598.087 L589.542,598.087 C619.801,598.087 645.638,587.372 667.054,565.966 C688.467,544.554 699.175,518.717 699.175,488.451 C699.172,462.757 691.174,439.952 675.183,420.065 Z" id="Shape" fill="#FFFFFF" fill-rule="nonzero"></path>
                                                <g id="Group-9" opacity="0.5" transform="translate(900.000000, 801.000000)" fill="#FFFFFF" fill-rule="nonzero">
                                                    <path d="M167.850389,71.9929807 C162.731779,65.6229768 156.237853,61.5248864 148.376615,59.6971087 C150.877481,55.8567901 152.124392,51.6514283 152.124392,47.0810233 C152.124392,40.6200787 149.838389,35.1047242 145.268945,30.5330383 C140.69854,25.9629535 135.182865,23.6769505 128.72192,23.6769505 C122.871302,23.6769505 117.811932,25.5665294 113.54701,29.3456872 C109.952615,20.6909611 104.236807,13.6818113 96.4063101,8.31823781 C88.5738918,2.95594521 79.8423145,0.272877636 70.2122185,0.272877636 C57.2919304,0.272877636 46.2596202,4.84520392 37.1172091,13.987615 C27.9741576,23.1277846 23.4040728,34.1607352 23.4040728,47.0819839 C23.4040728,47.9965132 23.4652336,49.3058656 23.5869146,51.0126027 C16.5172445,54.3040756 10.8180875,59.286275 6.49104462,65.9620827 C2.16432197,72.6340478 0,79.9951121 0,88.0404723 C0,99.3155042 4.00811038,108.96097 12.0220896,116.974629 C20.0363891,124.99053 29.6818554,128.998 40.9572075,128.998 L140.426999,128.998 C150.116334,128.998 158.389686,125.566914 165.247375,118.712427 C172.104103,111.856019 175.532948,103.582667 175.532948,93.8910902 C175.531987,85.6635287 172.970921,78.3610634 167.850389,71.9929807 Z" id="Shape-Copy"></path>
                                                    <path d="M142.900472,76.2373014 C139.413014,71.8972322 134.988513,69.1050839 129.632423,67.8597657 C131.336336,65.2432448 132.185892,62.3780093 132.185892,59.2640592 C132.185892,54.8620295 130.628372,51.1042578 127.515076,47.9894351 C124.401126,44.8757032 120.643136,43.3181828 116.241107,43.3181828 C112.25491,43.3181828 108.807813,44.6056079 105.901998,47.1804582 C103.453032,41.2837412 99.5586859,36.5082033 94.2235402,32.8538445 C88.8870855,29.2003584 82.9380075,27.3723063 76.3767426,27.3723063 C67.573774,27.3723063 60.0571398,30.4875654 53.8281488,36.7165563 C47.5987215,42.9440201 44.4849896,50.4610907 44.4849896,59.2647138 C44.4849896,59.8878092 44.5266602,60.7799091 44.6095651,61.9427588 C39.7927929,64.1853352 35.9097912,67.5798527 32.9616509,72.1282749 C30.0137287,76.6740791 28.5391132,81.6893866 28.5391132,87.1709248 C28.5391132,94.8529325 31.2699555,101.42467 36.730113,106.884609 C42.1904886,112.346075 48.7622257,115.076481 56.4444515,115.076481 L124.216117,115.076481 C130.817744,115.076481 136.45462,112.738783 141.126963,108.068621 C145.798651,103.397151 148.134823,97.7602749 148.134823,91.1571212 C148.134169,85.5514439 146.389239,80.5760617 142.900472,76.2373014 Z" id="Shape-Copy"></path>
                                                </g>
                                            </g>
                                        </g>
                                    </g>
                                </g>
                            </g>
                        </g>
                    </g>
                </g>
            </g>
            <path d="M357,913 L426,997" id="Path-3-Copy-17" stroke="#FFFFFF" stroke-width="6" opacity="0.300000012" stroke-linecap="round"></path>
            <path d="M280,878 L349,962" id="Path-3-Copy-24" stroke="#FFFFFF" stroke-width="6" opacity="0.100000001" stroke-linecap="round"></path>
            <path d="M256,1123 L325,1207" id="Path-3-Copy-26" stroke="#FFFFFF" stroke-width="6" opacity="0.100000001" stroke-linecap="round"></path>
            <path d="M477,1147 L546,1231" id="Path-3-Copy-27" stroke="#FFFFFF" stroke-width="6" opacity="0.100000001" stroke-linecap="round"></path>
            <path d="M707,1147 L776,1231" id="Path-3-Copy-27" stroke="#FFFFFF" stroke-width="6" opacity="0.100000001" stroke-linecap="round"></path>
            <path d="M347,1087 L416,1171" id="Path-3-Copy-27" stroke="#FFFFFF" stroke-width="6" opacity="0.300000012" stroke-linecap="round"></path>
            <path d="M657,1257 L726,1341" id="Path-3-Copy-27" stroke="#FFFFFF" stroke-width="6" opacity="0.300000012" stroke-linecap="round"></path>
            <path d="M467,1261 L536,1345" id="Path-3-Copy-28" stroke="#FFFFFF" stroke-width="6" opacity="0.5" stroke-linecap="round"></path>
            <path d="M187,1176 L256,1260" id="Path-3-Copy-29" stroke="#FFFFFF" stroke-width="6" opacity="0.100000001" stroke-linecap="round"></path>
            <path d="M217,935 L286,1019" id="Path-3-Copy-30" stroke="#FFFFFF" stroke-width="6" opacity="0.100000001" stroke-linecap="round"></path>
            <path d="M536,992 L605,1076" id="Path-3-Copy-31" stroke="#FFFFFF" stroke-width="6" opacity="0.400000006" stroke-linecap="round"></path>
            <path d="M445,934 L484,978" id="Path-3-Copy-31" stroke="#FFFFFF" stroke-width="6" opacity="0.100000001" stroke-linecap="round"></path>
            <path d="M106,1116 L175,1200" id="Path-3-Copy-32" stroke="#FFFFFF" stroke-width="6" opacity="0.200000003" stroke-linecap="round"></path>
            <path d="M96,906 L165,990" id="Path-3-Copy-32" stroke="#FFFFFF" stroke-width="6" opacity="0.300000012" stroke-linecap="round"></path>
            <path d="M546,905 L615,989" id="Path-3-Copy-32" stroke="#FFFFFF" stroke-width="6" opacity="0.5" stroke-linecap="round"></path>
            <path d="M465.978889,1063.44065 L458.689826,1059.26039 L464.843531,1055.62304 C465.832836,1055.14998 466.139017,1053.83148 465.576399,1052.86213 C465.003659,1051.86943 463.767462,1051.66007 462.829058,1052.20288 L454.624344,1056.97254 L441.584741,1049.44187 L454.624247,1041.98881 L462.828962,1046.75072 C463.085206,1046.93682 463.41491,1047.04542 463.781537,1047.04542 C464.476904,1047.04542 465.099775,1046.71972 465.576303,1046.09922 C466.125713,1045.11426 465.83274,1043.81136 464.843435,1043.33831 L458.68973,1039.70095 L465.978793,1035.52079 C466.928861,1034.97789 467.255576,1033.76024 466.711661,1032.75978 C466.192136,1031.79808 464.906676,1031.46463 463.92759,1032.03078 L456.601797,1036.24979 L456.492378,1028.97508 C456.475218,1027.85052 455.613263,1026.94307 454.477905,1026.94307 C453.34274,1026.94307 452.454949,1027.92028 452.463529,1028.97508 L452.536218,1038.5764 L439.570172,1046.02946 L439.570172,1030.90613 L447.738253,1026.28382 C448.691791,1025.74867 449.107296,1024.50002 448.543907,1023.52291 C447.971841,1022.53021 446.797536,1022.23542 445.796566,1022.79391 L439.570172,1026.28392 L439.570172,1018.03191 C439.570172,1016.90735 438.654327,1016 437.518969,1016 C436.383611,1016 435.504496,1016.90735 435.504496,1018.03191 L435.504496,1026.36133 L429.057818,1022.79382 C428.053667,1022.24317 426.9105,1022.55337 426.347111,1023.52282 C425.775141,1024.51552 426.130682,1025.73317 427.116034,1026.28373 L435.504496,1030.97589 L435.504496,1045.95187 L422.244801,1038.3592 L422.318262,1028.97498 C422.428452,1027.92028 421.475878,1026.94298 420.340519,1026.94298 C419.205065,1026.94298 418.264348,1027.85043 418.252586,1028.97498 L418.179126,1036.0325 L411.03708,1031.96084 C410.039967,1031.38694 408.809264,1031.72814 408.289643,1032.68209 C407.745728,1033.69029 408.027037,1034.87694 409.022608,1035.45084 L416.238114,1039.59226 L409.937681,1043.33821 C408.949051,1043.81136 408.640363,1045.12977 409.242121,1046.09922 C409.629668,1046.72747 410.193925,1047.04542 410.963524,1047.04542 C411.365917,1047.04542 411.701116,1046.94457 412.025421,1046.75072 L420.266963,1041.91896 L433.490024,1049.44187 L420.266963,1057.04229 L412.025421,1052.20288 C411.036116,1051.62898 409.760875,1051.90043 409.242025,1052.86213 C408.69811,1053.86258 408.993494,1055.06473 409.937488,1055.62304 L416.238018,1059.33015 L409.022415,1063.5104 C408.029254,1064.08431 407.707262,1065.29421 408.28945,1066.27916 C408.696664,1066.96166 409.242121,1067.29521 410.011045,1067.29521 C410.193925,1067.29521 410.560359,1067.18661 411.03708,1067.00051 L418.179126,1062.92885 L418.252586,1069.98636 C418.264348,1071.11092 419.205065,1071.97952 420.267059,1071.97952 C421.475878,1071.97952 422.326842,1071.04107 422.318262,1069.90877 L422.244801,1060.5323 L435.504496,1053.00948 L435.504496,1067.90786 L427.116034,1072.59992 C426.115064,1073.15832 425.764923,1074.37598 426.347111,1075.36093 C426.754228,1076.05118 427.299685,1076.38463 428.068513,1076.38463 C428.435044,1076.38463 428.772556,1076.32263 429.057818,1076.15968 L435.504496,1072.52998 L435.504496,1080.99909 C435.504496,1082.12365 436.383611,1083 437.518969,1083 C438.654327,1083 439.570172,1082.12365 439.570172,1080.99909 L439.570172,1072.66958 L445.796566,1076.15968 C446.081634,1076.32253 446.419244,1076.38463 446.74914,1076.38463 C447.554602,1076.38463 448.148551,1076.05893 448.543907,1075.36093 C449.100258,1074.38373 448.740861,1073.15823 447.738253,1072.59992 L439.570172,1068.05521 L439.570172,1052.93188 L452.536218,1060.38495 L452.463529,1069.90877 C452.454081,1071.04107 453.342643,1071.97952 454.478001,1071.97952 C455.61336,1071.97952 456.475218,1071.11092 456.492378,1069.98636 L456.601797,1062.6729 L463.92759,1066.93066 C464.210441,1067.09351 464.586998,1067.14786 464.990259,1067.14786 C465.759279,1067.14786 466.323343,1066.82991 466.711565,1066.20166 C467.312744,1065.2322 466.928957,1063.98355 465.978889,1063.44065 Z" id="Shape" fill="#FFFFFF" fill-rule="nonzero" opacity="0.600000024"></path>
            <path d="M443.567326,1299.82594 L440.47874,1298.07897 L443.086242,1296.55888 C443.505439,1296.36119 443.635177,1295.81017 443.396779,1295.40507 C443.154093,1294.99021 442.63028,1294.90272 442.232652,1295.12956 L438.756078,1297.12285 L433.230822,1293.97571 L438.756037,1290.86099 L442.232611,1292.85105 C442.341189,1292.92882 442.480894,1292.9742 442.636244,1292.9742 C442.930891,1292.9742 443.19482,1292.83809 443.396739,1292.57878 C443.62954,1292.16716 443.505398,1291.62266 443.086201,1291.42496 L440.478699,1289.90487 L443.567285,1288.15794 C443.969856,1287.93106 444.108295,1287.42219 443.877823,1287.00409 C443.657685,1286.60218 443.112998,1286.46283 442.698131,1286.69943 L439.593982,1288.4626 L439.547618,1285.42242 C439.540346,1284.95246 439.175112,1284.57322 438.694028,1284.57322 C438.213025,1284.57322 437.836843,1284.98161 437.840478,1285.42242 L437.871279,1289.43491 L432.377191,1292.54963 L432.377191,1286.22943 L435.838243,1284.29772 C436.242285,1284.07407 436.418346,1283.55225 436.179621,1283.1439 C435.937221,1282.72904 435.439634,1282.60585 435.015494,1282.83925 L432.377191,1284.29776 L432.377191,1280.84915 C432.377191,1280.37919 431.989122,1280 431.508038,1280 C431.026954,1280 430.654448,1280.37919 430.654448,1280.84915 L430.654448,1284.33011 L427.922804,1282.83921 C427.497316,1282.60908 427.012924,1282.73872 426.774199,1283.14386 C426.53184,1283.55873 426.682492,1284.06759 427.100015,1284.29768 L430.654448,1286.25858 L430.654448,1292.5172 L425.035933,1289.34414 L425.06706,1285.42238 C425.113751,1284.98161 424.710118,1284.57318 424.229034,1284.57318 C423.747909,1284.57318 423.3493,1284.95242 423.344316,1285.42238 L423.313189,1288.37179 L420.286899,1286.6702 C419.864393,1286.43036 419.342909,1286.57295 419.12273,1286.97162 C418.892257,1287.39296 419.011456,1287.88887 419.433308,1288.12871 L422.490726,1289.85945 L419.821051,1291.42492 C419.40214,1291.62266 419.27134,1292.17363 419.526323,1292.57878 C419.690537,1292.84133 419.929629,1292.9742 420.25573,1292.9742 C420.426236,1292.9742 420.56827,1292.93206 420.705687,1292.85105 L424.197866,1290.8318 L429.800858,1293.97571 L424.197866,1297.152 L420.705687,1295.12956 C420.28649,1294.88972 419.746134,1295.00316 419.526282,1295.40507 C419.295809,1295.82317 419.420972,1296.32556 419.82097,1296.55888 L422.490685,1298.10812 L419.433227,1299.85509 C419.012396,1300.09493 418.875959,1300.60056 419.122648,1301.01219 C419.295196,1301.29741 419.526323,1301.4368 419.852138,1301.4368 C419.929629,1301.4368 420.084898,1301.39142 420.286899,1301.31364 L423.313189,1299.61206 L423.344316,1302.56147 C423.3493,1303.03143 423.747909,1303.39443 424.197906,1303.39443 C424.710118,1303.39443 425.070696,1303.00224 425.06706,1302.52904 L425.035933,1298.61051 L430.654448,1295.46665 L430.654448,1301.69284 L427.100015,1303.6537 C426.675875,1303.88706 426.52751,1304.39593 426.774199,1304.80755 C426.946707,1305.09601 427.177833,1305.23537 427.503607,1305.23537 C427.658917,1305.23537 427.801931,1305.20946 427.922804,1305.14136 L430.654448,1303.62447 L430.654448,1307.1638 C430.654448,1307.63376 431.026954,1308 431.508038,1308 C431.989122,1308 432.377191,1307.63376 432.377191,1307.1638 L432.377191,1303.68281 L435.015494,1305.14136 C435.136286,1305.20942 435.27934,1305.23537 435.419127,1305.23537 C435.760424,1305.23537 436.012098,1305.09925 436.179621,1304.80755 C436.415364,1304.39917 436.263077,1303.88702 435.838243,1303.6537 L432.377191,1301.75442 L432.377191,1295.43422 L437.871279,1298.54893 L437.840478,1302.52904 C437.836475,1303.00224 438.212984,1303.39443 438.694068,1303.39443 C439.175152,1303.39443 439.540346,1303.03143 439.547618,1302.56147 L439.593982,1299.50509 L442.698131,1301.28445 C442.817984,1301.35251 442.977542,1301.37522 443.148415,1301.37522 C443.474271,1301.37522 443.713281,1301.24235 443.877782,1300.9798 C444.132519,1300.57465 443.969897,1300.05283 443.567326,1299.82594 Z" id="Shape-Copy-28" fill="#FFFFFF" fill-rule="nonzero" opacity="0.600000024"></path>
            <path d="M234.221187,1083.11154 L228.661732,1079.92955 L233.355235,1077.16082 C234.10979,1076.80073 234.343318,1075.7971 233.914203,1075.05923 C233.477367,1074.30359 232.534505,1074.14423 231.818773,1074.55741 L225.56094,1078.18805 L215.61548,1072.45575 L225.560867,1066.78252 L231.8187,1070.40726 C232.01414,1070.54892 232.265609,1070.63159 232.54524,1070.63159 C233.075605,1070.63159 233.550676,1070.38366 233.914129,1069.91134 C234.333171,1069.1616 234.109717,1068.16984 233.355162,1067.80976 L228.661658,1065.04102 L234.221113,1061.85911 C234.945741,1061.44585 235.194931,1060.51899 234.780081,1059.75745 C234.383833,1059.02541 233.403397,1058.77158 232.656636,1059.20253 L227.069167,1062.41402 L226.985712,1056.87655 C226.972624,1056.02055 226.315201,1055.3298 225.44925,1055.3298 C224.583446,1055.3298 223.906317,1056.07364 223.912861,1056.87655 L223.968302,1064.18502 L214.078945,1069.85825 L214.078945,1058.34646 L220.308837,1054.82798 C221.036112,1054.42063 221.353022,1053.47017 220.923319,1052.7264 C220.486997,1051.97076 219.591341,1051.74636 218.827889,1052.17149 L214.078945,1054.82806 L214.078945,1048.54668 C214.078945,1047.69067 213.380419,1047 212.514468,1047 C211.648517,1047 210.978006,1047.69067 210.978006,1048.54668 L210.978006,1054.88698 L206.061048,1052.17141 C205.295169,1051.75226 204.423262,1051.98838 203.993559,1052.72632 C203.557311,1053.48196 203.828486,1054.40883 204.580026,1054.82791 L210.978006,1058.39955 L210.978006,1069.79918 L200.864679,1064.01969 L200.920708,1056.87648 C201.004752,1056.07364 200.278212,1055.32973 199.412261,1055.32973 C198.546236,1055.32973 197.82874,1056.02047 197.819769,1056.87648 L197.76374,1062.24862 L192.316417,1059.14929 C191.555907,1058.71244 190.617235,1058.97217 190.220914,1059.69831 C189.806063,1060.46575 190.020621,1061.36902 190.779955,1061.80587 L196.283307,1064.95828 L191.477893,1067.80968 C190.723853,1068.16984 190.488413,1069.1734 190.947381,1069.91134 C191.242967,1070.38956 191.673333,1070.63159 192.260315,1070.63159 C192.567225,1070.63159 192.822885,1070.55482 193.070237,1070.40726 L199.356158,1066.72936 L209.441544,1072.45575 L199.356158,1078.24115 L193.070237,1074.55741 C192.315682,1074.12056 191.34304,1074.32719 190.947307,1075.05923 C190.532457,1075.82077 190.757749,1076.73584 191.477745,1077.16082 L196.283234,1079.98265 L190.779808,1083.16464 C190.022312,1083.60149 189.776725,1084.52246 190.220767,1085.2722 C190.531354,1085.79171 190.947381,1086.04561 191.533848,1086.04561 C191.673333,1086.04561 191.952816,1085.96294 192.316417,1085.82128 L197.76374,1082.72196 L197.819769,1088.0941 C197.82874,1088.9501 198.546236,1089.61128 199.356231,1089.61128 C200.278212,1089.61128 200.927252,1088.89693 200.920708,1088.03503 L200.864679,1080.89772 L210.978006,1075.17139 L210.978006,1086.51195 L204.580026,1090.08352 C203.816575,1090.50857 203.549517,1091.43544 203.993559,1092.18518 C204.304072,1092.7106 204.720099,1092.96442 205.306493,1092.96442 C205.58605,1092.96442 205.843475,1092.91722 206.061048,1092.79319 L210.978006,1090.03028 L210.978006,1096.47692 C210.978006,1097.33293 211.648517,1098 212.514468,1098 C213.380419,1098 214.078945,1097.33293 214.078945,1096.47692 L214.078945,1090.13655 L218.827889,1092.79319 C219.045314,1092.91715 219.302813,1092.96442 219.554429,1092.96442 C220.168764,1092.96442 220.621776,1092.7165 220.923319,1092.18518 C221.347655,1091.44134 221.073538,1090.5085 220.308837,1090.08352 L214.078945,1086.62412 L214.078945,1075.11233 L223.968302,1080.78556 L223.912861,1088.03503 C223.905655,1088.89693 224.583372,1089.61128 225.449323,1089.61128 C226.315274,1089.61128 226.972624,1088.9501 226.985712,1088.0941 L227.069167,1082.52713 L232.656636,1085.76811 C232.87237,1085.89207 233.159575,1085.93344 233.467147,1085.93344 C234.053688,1085.93344 234.483906,1085.69142 234.780007,1085.2132 C235.238534,1084.47526 234.945815,1083.52479 234.221187,1083.11154 Z" id="Shape-Copy-24" fill="#FFFFFF" fill-rule="nonzero" opacity="0.600000024"></path>
            <path d="M234.221187,1284.11154 L228.661732,1280.92955 L233.355235,1278.16082 C234.10979,1277.80073 234.343318,1276.7971 233.914203,1276.05923 C233.477367,1275.30359 232.534505,1275.14423 231.818773,1275.55741 L225.56094,1279.18805 L215.61548,1273.45575 L225.560867,1267.78252 L231.8187,1271.40726 C232.01414,1271.54892 232.265609,1271.63159 232.54524,1271.63159 C233.075605,1271.63159 233.550676,1271.38366 233.914129,1270.91134 C234.333171,1270.1616 234.109717,1269.16984 233.355162,1268.80976 L228.661658,1266.04102 L234.221113,1262.85911 C234.945741,1262.44585 235.194931,1261.51899 234.780081,1260.75745 C234.383833,1260.02541 233.403397,1259.77158 232.656636,1260.20253 L227.069167,1263.41402 L226.985712,1257.87655 C226.972624,1257.02055 226.315201,1256.3298 225.44925,1256.3298 C224.583446,1256.3298 223.906317,1257.07364 223.912861,1257.87655 L223.968302,1265.18502 L214.078945,1270.85825 L214.078945,1259.34646 L220.308837,1255.82798 C221.036112,1255.42063 221.353022,1254.47017 220.923319,1253.7264 C220.486997,1252.97076 219.591341,1252.74636 218.827889,1253.17149 L214.078945,1255.82806 L214.078945,1249.54668 C214.078945,1248.69067 213.380419,1248 212.514468,1248 C211.648517,1248 210.978006,1248.69067 210.978006,1249.54668 L210.978006,1255.88698 L206.061048,1253.17141 C205.295169,1252.75226 204.423262,1252.98838 203.993559,1253.72632 C203.557311,1254.48196 203.828486,1255.40883 204.580026,1255.82791 L210.978006,1259.39955 L210.978006,1270.79918 L200.864679,1265.01969 L200.920708,1257.87648 C201.004752,1257.07364 200.278212,1256.32973 199.412261,1256.32973 C198.546236,1256.32973 197.82874,1257.02047 197.819769,1257.87648 L197.76374,1263.24862 L192.316417,1260.14929 C191.555907,1259.71244 190.617235,1259.97217 190.220914,1260.69831 C189.806063,1261.46575 190.020621,1262.36902 190.779955,1262.80587 L196.283307,1265.95828 L191.477893,1268.80968 C190.723853,1269.16984 190.488413,1270.1734 190.947381,1270.91134 C191.242967,1271.38956 191.673333,1271.63159 192.260315,1271.63159 C192.567225,1271.63159 192.822885,1271.55482 193.070237,1271.40726 L199.356158,1267.72936 L209.441544,1273.45575 L199.356158,1279.24115 L193.070237,1275.55741 C192.315682,1275.12056 191.34304,1275.32719 190.947307,1276.05923 C190.532457,1276.82077 190.757749,1277.73584 191.477745,1278.16082 L196.283234,1280.98265 L190.779808,1284.16464 C190.022312,1284.60149 189.776725,1285.52246 190.220767,1286.2722 C190.531354,1286.79171 190.947381,1287.04561 191.533848,1287.04561 C191.673333,1287.04561 191.952816,1286.96294 192.316417,1286.82128 L197.76374,1283.72196 L197.819769,1289.0941 C197.82874,1289.9501 198.546236,1290.61128 199.356231,1290.61128 C200.278212,1290.61128 200.927252,1289.89693 200.920708,1289.03503 L200.864679,1281.89772 L210.978006,1276.17139 L210.978006,1287.51195 L204.580026,1291.08352 C203.816575,1291.50857 203.549517,1292.43544 203.993559,1293.18518 C204.304072,1293.7106 204.720099,1293.96442 205.306493,1293.96442 C205.58605,1293.96442 205.843475,1293.91722 206.061048,1293.79319 L210.978006,1291.03028 L210.978006,1297.47692 C210.978006,1298.33293 211.648517,1299 212.514468,1299 C213.380419,1299 214.078945,1298.33293 214.078945,1297.47692 L214.078945,1291.13655 L218.827889,1293.79319 C219.045314,1293.91715 219.302813,1293.96442 219.554429,1293.96442 C220.168764,1293.96442 220.621776,1293.7165 220.923319,1293.18518 C221.347655,1292.44134 221.073538,1291.5085 220.308837,1291.08352 L214.078945,1287.62412 L214.078945,1276.11233 L223.968302,1281.78556 L223.912861,1289.03503 C223.905655,1289.89693 224.583372,1290.61128 225.449323,1290.61128 C226.315274,1290.61128 226.972624,1289.9501 226.985712,1289.0941 L227.069167,1283.52713 L232.656636,1286.76811 C232.87237,1286.89207 233.159575,1286.93344 233.467147,1286.93344 C234.053688,1286.93344 234.483906,1286.69142 234.780007,1286.2132 C235.238534,1285.47526 234.945815,1284.52479 234.221187,1284.11154 Z" id="Shape-Copy-25" fill="#FFFFFF" fill-rule="nonzero" opacity="0.600000024"></path>
            <path d="M591.221187,1310.11154 L585.661732,1306.92955 L590.355235,1304.16082 C591.10979,1303.80073 591.343318,1302.7971 590.914203,1302.05923 C590.477367,1301.30359 589.534505,1301.14423 588.818773,1301.55741 L582.56094,1305.18805 L572.61548,1299.45575 L582.560867,1293.78252 L588.8187,1297.40726 C589.01414,1297.54892 589.265609,1297.63159 589.54524,1297.63159 C590.075605,1297.63159 590.550676,1297.38366 590.914129,1296.91134 C591.333171,1296.1616 591.109717,1295.16984 590.355162,1294.80976 L585.661658,1292.04102 L591.221113,1288.85911 C591.945741,1288.44585 592.194931,1287.51899 591.780081,1286.75745 C591.383833,1286.02541 590.403397,1285.77158 589.656636,1286.20253 L584.069167,1289.41402 L583.985712,1283.87655 C583.972624,1283.02055 583.315201,1282.3298 582.44925,1282.3298 C581.583446,1282.3298 580.906317,1283.07364 580.912861,1283.87655 L580.968302,1291.18502 L571.078945,1296.85825 L571.078945,1285.34646 L577.308837,1281.82798 C578.036112,1281.42063 578.353022,1280.47017 577.923319,1279.7264 C577.486997,1278.97076 576.591341,1278.74636 575.827889,1279.17149 L571.078945,1281.82806 L571.078945,1275.54668 C571.078945,1274.69067 570.380419,1274 569.514468,1274 C568.648517,1274 567.978006,1274.69067 567.978006,1275.54668 L567.978006,1281.88698 L563.061048,1279.17141 C562.295169,1278.75226 561.423262,1278.98838 560.993559,1279.72632 C560.557311,1280.48196 560.828486,1281.40883 561.580026,1281.82791 L567.978006,1285.39955 L567.978006,1296.79918 L557.864679,1291.01969 L557.920708,1283.87648 C558.004752,1283.07364 557.278212,1282.32973 556.412261,1282.32973 C555.546236,1282.32973 554.82874,1283.02047 554.819769,1283.87648 L554.76374,1289.24862 L549.316417,1286.14929 C548.555907,1285.71244 547.617235,1285.97217 547.220914,1286.69831 C546.806063,1287.46575 547.020621,1288.36902 547.779955,1288.80587 L553.283307,1291.95828 L548.477893,1294.80968 C547.723853,1295.16984 547.488413,1296.1734 547.947381,1296.91134 C548.242967,1297.38956 548.673333,1297.63159 549.260315,1297.63159 C549.567225,1297.63159 549.822885,1297.55482 550.070237,1297.40726 L556.356158,1293.72936 L566.441544,1299.45575 L556.356158,1305.24115 L550.070237,1301.55741 C549.315682,1301.12056 548.34304,1301.32719 547.947307,1302.05923 C547.532457,1302.82077 547.757749,1303.73584 548.477745,1304.16082 L553.283234,1306.98265 L547.779808,1310.16464 C547.022312,1310.60149 546.776725,1311.52246 547.220767,1312.2722 C547.531354,1312.79171 547.947381,1313.04561 548.533848,1313.04561 C548.673333,1313.04561 548.952816,1312.96294 549.316417,1312.82128 L554.76374,1309.72196 L554.819769,1315.0941 C554.82874,1315.9501 555.546236,1316.61128 556.356231,1316.61128 C557.278212,1316.61128 557.927252,1315.89693 557.920708,1315.03503 L557.864679,1307.89772 L567.978006,1302.17139 L567.978006,1313.51195 L561.580026,1317.08352 C560.816575,1317.50857 560.549517,1318.43544 560.993559,1319.18518 C561.304072,1319.7106 561.720099,1319.96442 562.306493,1319.96442 C562.58605,1319.96442 562.843475,1319.91722 563.061048,1319.79319 L567.978006,1317.03028 L567.978006,1323.47692 C567.978006,1324.33293 568.648517,1325 569.514468,1325 C570.380419,1325 571.078945,1324.33293 571.078945,1323.47692 L571.078945,1317.13655 L575.827889,1319.79319 C576.045314,1319.91715 576.302813,1319.96442 576.554429,1319.96442 C577.168764,1319.96442 577.621776,1319.7165 577.923319,1319.18518 C578.347655,1318.44134 578.073538,1317.5085 577.308837,1317.08352 L571.078945,1313.62412 L571.078945,1302.11233 L580.968302,1307.78556 L580.912861,1315.03503 C580.905655,1315.89693 581.583372,1316.61128 582.449323,1316.61128 C583.315274,1316.61128 583.972624,1315.9501 583.985712,1315.0941 L584.069167,1309.52713 L589.656636,1312.76811 C589.87237,1312.89207 590.159575,1312.93344 590.467147,1312.93344 C591.053688,1312.93344 591.483906,1312.69142 591.780007,1312.2132 C592.238534,1311.47526 591.945815,1310.52479 591.221187,1310.11154 Z" id="Shape-Copy-26" fill="#FFFFFF" fill-rule="nonzero" opacity="0.870000005"></path>
            <path d="M636.221187,1135.11154 L630.661732,1131.92955 L635.355235,1129.16082 C636.10979,1128.80073 636.343318,1127.7971 635.914203,1127.05923 C635.477367,1126.30359 634.534505,1126.14423 633.818773,1126.55741 L627.56094,1130.18805 L617.61548,1124.45575 L627.560867,1118.78252 L633.8187,1122.40726 C634.01414,1122.54892 634.265609,1122.63159 634.54524,1122.63159 C635.075605,1122.63159 635.550676,1122.38366 635.914129,1121.91134 C636.333171,1121.1616 636.109717,1120.16984 635.355162,1119.80976 L630.661658,1117.04102 L636.221113,1113.85911 C636.945741,1113.44585 637.194931,1112.51899 636.780081,1111.75745 C636.383833,1111.02541 635.403397,1110.77158 634.656636,1111.20253 L629.069167,1114.41402 L628.985712,1108.87655 C628.972624,1108.02055 628.315201,1107.3298 627.44925,1107.3298 C626.583446,1107.3298 625.906317,1108.07364 625.912861,1108.87655 L625.968302,1116.18502 L616.078945,1121.85825 L616.078945,1110.34646 L622.308837,1106.82798 C623.036112,1106.42063 623.353022,1105.47017 622.923319,1104.7264 C622.486997,1103.97076 621.591341,1103.74636 620.827889,1104.17149 L616.078945,1106.82806 L616.078945,1100.54668 C616.078945,1099.69067 615.380419,1099 614.514468,1099 C613.648517,1099 612.978006,1099.69067 612.978006,1100.54668 L612.978006,1106.88698 L608.061048,1104.17141 C607.295169,1103.75226 606.423262,1103.98838 605.993559,1104.72632 C605.557311,1105.48196 605.828486,1106.40883 606.580026,1106.82791 L612.978006,1110.39955 L612.978006,1121.79918 L602.864679,1116.01969 L602.920708,1108.87648 C603.004752,1108.07364 602.278212,1107.32973 601.412261,1107.32973 C600.546236,1107.32973 599.82874,1108.02047 599.819769,1108.87648 L599.76374,1114.24862 L594.316417,1111.14929 C593.555907,1110.71244 592.617235,1110.97217 592.220914,1111.69831 C591.806063,1112.46575 592.020621,1113.36902 592.779955,1113.80587 L598.283307,1116.95828 L593.477893,1119.80968 C592.723853,1120.16984 592.488413,1121.1734 592.947381,1121.91134 C593.242967,1122.38956 593.673333,1122.63159 594.260315,1122.63159 C594.567225,1122.63159 594.822885,1122.55482 595.070237,1122.40726 L601.356158,1118.72936 L611.441544,1124.45575 L601.356158,1130.24115 L595.070237,1126.55741 C594.315682,1126.12056 593.34304,1126.32719 592.947307,1127.05923 C592.532457,1127.82077 592.757749,1128.73584 593.477745,1129.16082 L598.283234,1131.98265 L592.779808,1135.16464 C592.022312,1135.60149 591.776725,1136.52246 592.220767,1137.2722 C592.531354,1137.79171 592.947381,1138.04561 593.533848,1138.04561 C593.673333,1138.04561 593.952816,1137.96294 594.316417,1137.82128 L599.76374,1134.72196 L599.819769,1140.0941 C599.82874,1140.9501 600.546236,1141.61128 601.356231,1141.61128 C602.278212,1141.61128 602.927252,1140.89693 602.920708,1140.03503 L602.864679,1132.89772 L612.978006,1127.17139 L612.978006,1138.51195 L606.580026,1142.08352 C605.816575,1142.50857 605.549517,1143.43544 605.993559,1144.18518 C606.304072,1144.7106 606.720099,1144.96442 607.306493,1144.96442 C607.58605,1144.96442 607.843475,1144.91722 608.061048,1144.79319 L612.978006,1142.03028 L612.978006,1148.47692 C612.978006,1149.33293 613.648517,1150 614.514468,1150 C615.380419,1150 616.078945,1149.33293 616.078945,1148.47692 L616.078945,1142.13655 L620.827889,1144.79319 C621.045314,1144.91715 621.302813,1144.96442 621.554429,1144.96442 C622.168764,1144.96442 622.621776,1144.7165 622.923319,1144.18518 C623.347655,1143.44134 623.073538,1142.5085 622.308837,1142.08352 L616.078945,1138.62412 L616.078945,1127.11233 L625.968302,1132.78556 L625.912861,1140.03503 C625.905655,1140.89693 626.583372,1141.61128 627.449323,1141.61128 C628.315274,1141.61128 628.972624,1140.9501 628.985712,1140.0941 L629.069167,1134.52713 L634.656636,1137.76811 C634.87237,1137.89207 635.159575,1137.93344 635.467147,1137.93344 C636.053688,1137.93344 636.483906,1137.69142 636.780007,1137.2132 C637.238534,1136.47526 636.945815,1135.52479 636.221187,1135.11154 Z" id="Shape-Copy-27" fill="#FFFFFF" fill-rule="nonzero" opacity="0.300000012"></path>
        </g>
    </g>
</svg>