<?xml version="1.0" encoding="UTF-8"?>
<svg width="874px" height="2197px" viewBox="0 0 874 2197" version="1.1" xmlns="http://www.w3.org/2000/svg" xmlns:xlink="http://www.w3.org/1999/xlink">
    <!-- Generator: Sketch 49 (51002) - http://www.bohemiancoding.com/sketch -->
    <title>freezing fog</title>
    <desc>Created with Sketch.</desc>
    <defs>
        <linearGradient x1="97.3261511%" y1="97.0418398%" x2="13.4566583%" y2="4.25447427%" id="linearGradient-1">
            <stop stop-color="#ADCFFF" offset="0%"></stop>
            <stop stop-color="#A8CADD" offset="100%"></stop>
        </linearGradient>
        <rect id="path-2" x="0" y="0" width="874" height="2197"></rect>
    </defs>
    <g id="Page-1" stroke="none" stroke-width="1" fill="none" fill-rule="evenodd">
        <g id="freezing-fog">
            <g id="Group-30-Copy">
                <g id="Group-24-Copy-4">
                    <g id="night-rainy-copy-3">
                        <g id="Group-5-Copy-3">
                            <g id="with-content-copy-7">
                                <g id="Shape">
                                    <g id="fluffy-cloud-silhouette">
                                        <mask id="mask-3" fill="white">
                                            <use xlink:href="#path-2"></use>
                                        </mask>
                                        <use id="Mask" fill="url(#linearGradient-1)" xlink:href="#path-2"></use>
                                        <path d="M418.47277,1145.27926 L413.384563,1142.34684 L417.680221,1139.79526 C418.370816,1139.46342 418.584549,1138.5385 418.191808,1137.85851 C417.792,1137.16213 416.92906,1137.01527 416.273998,1137.39605 L410.546611,1140.74193 L401.444179,1135.45922 L410.546543,1130.23095 L416.27393,1133.5714 C416.452804,1133.70195 416.682957,1133.77813 416.938885,1133.77813 C417.424293,1133.77813 417.859095,1133.54965 418.19174,1133.11438 C418.575262,1132.42344 418.370749,1131.50946 417.680154,1131.17762 L413.384496,1128.62604 L418.472703,1125.69369 C419.135908,1125.31285 419.363975,1124.45867 418.984289,1123.75686 C418.621629,1123.08224 417.7243,1122.84832 417.040839,1123.24547 L411.926993,1126.20508 L411.850611,1121.10192 C411.838633,1120.31305 411.236936,1119.67648 410.444388,1119.67648 C409.651974,1119.67648 409.032242,1120.36198 409.038231,1121.10192 L409.088973,1127.83717 L400.037889,1133.06545 L400.037889,1122.45654 L405.739703,1119.21403 C406.405331,1118.83862 406.695378,1117.9627 406.302098,1117.27727 C405.902762,1116.58089 405.083025,1116.3741 404.384288,1116.76588 L400.037889,1119.21409 L400.037889,1113.42537 C400.037889,1112.6365 399.398574,1112 398.606025,1112 C397.813476,1112 397.199801,1112.6365 397.199801,1113.42537 L397.199801,1119.26839 L392.69963,1116.76581 C391.998672,1116.37953 391.200672,1116.59714 390.807392,1117.2772 C390.408123,1117.97357 390.656312,1118.82775 391.344148,1119.21396 L397.199801,1122.50547 L397.199801,1133.01101 L387.943733,1127.68481 L387.995012,1121.10185 C388.071932,1120.36198 387.406977,1119.67642 386.614429,1119.67642 C385.821813,1119.67642 385.165135,1120.31299 385.156925,1121.10185 L385.105645,1126.05265 L380.120066,1123.19641 C379.42402,1122.79382 378.564915,1123.03317 378.202188,1123.70236 C377.822503,1124.40961 378.018873,1125.24203 378.713842,1125.64462 L383.750702,1128.54979 L379.352619,1131.17755 C378.662495,1131.50946 378.447012,1132.43431 378.867076,1133.11438 C379.137607,1133.55509 379.531492,1133.77813 380.068719,1133.77813 C380.349613,1133.77813 380.583603,1133.70738 380.809988,1133.5714 L386.563082,1130.18196 L395.793578,1135.45922 L386.563082,1140.79086 L380.809988,1137.39605 C380.119393,1136.99346 379.229197,1137.18388 378.867009,1137.85851 C378.487323,1138.56032 378.693519,1139.40362 379.352484,1139.79526 L383.750634,1142.39577 L378.713708,1145.32819 C378.020421,1145.73078 377.795651,1146.57952 378.202054,1147.27045 C378.486313,1147.74922 378.867076,1147.98321 379.403831,1147.98321 C379.531492,1147.98321 379.787286,1147.90702 380.120066,1147.77648 L385.105645,1144.92024 L385.156925,1149.87103 C385.165135,1150.6599 385.821813,1151.26922 386.563149,1151.26922 C387.406977,1151.26922 388.001002,1150.6109 387.995012,1149.8166 L387.943733,1143.23907 L397.199801,1137.96187 L397.199801,1148.41298 L391.344148,1151.70442 C390.64541,1152.09614 390.40099,1152.95031 390.807392,1153.64125 C391.091585,1154.12545 391.472347,1154.35937 392.009035,1154.35937 C392.264896,1154.35937 392.5005,1154.31587 392.69963,1154.20157 L397.199801,1151.65536 L397.199801,1157.59638 C397.199801,1158.38524 397.813476,1159 398.606025,1159 C399.398574,1159 400.037889,1158.38524 400.037889,1157.59638 L400.037889,1151.75329 L404.384288,1154.20157 C404.583283,1154.31581 404.818955,1154.35937 405.049243,1154.35937 C405.611503,1154.35937 406.026116,1154.13089 406.302098,1153.64125 C406.690465,1152.95575 406.439584,1152.09607 405.739703,1151.70442 L400.037889,1148.51634 L400.037889,1137.90744 L409.088973,1143.13571 L409.038231,1149.8166 C409.031636,1150.6109 409.651906,1151.26922 410.444455,1151.26922 C411.237004,1151.26922 411.838633,1150.6599 411.850611,1149.87103 L411.926993,1144.74069 L417.040839,1147.72748 C417.238286,1147.84172 417.501146,1147.87984 417.782646,1147.87984 C418.319469,1147.87984 418.71322,1147.6568 418.984222,1147.21609 C419.403882,1146.53602 419.135975,1145.6601 418.47277,1145.27926 Z" id="Shape-Copy-15" fill="#FFFFFF" fill-rule="nonzero" opacity="0.800000012" mask="url(#mask-3)"></path>
                                        <path d="M198.650196,1267.20252 L194.796876,1264.98179 L198.049996,1263.04947 C198.572986,1262.79816 198.734847,1262.09772 198.437423,1261.58275 C198.134647,1261.05539 197.481138,1260.94417 196.985057,1261.23253 L192.647683,1263.76638 L185.754374,1259.76577 L192.647632,1255.80638 L196.985006,1258.33611 C197.120468,1258.43497 197.294764,1258.49267 197.488579,1258.49267 C197.856181,1258.49267 198.185458,1258.31964 198.437372,1257.99 C198.727814,1257.46676 198.572935,1256.7746 198.049945,1256.52329 L194.796825,1254.59097 L198.650145,1252.37029 C199.152393,1252.08187 199.32511,1251.435 199.037572,1250.90352 C198.762928,1250.39262 198.083377,1250.21548 197.565789,1250.51624 L193.693052,1252.75756 L193.635208,1248.89292 C193.626137,1248.29551 193.17047,1247.81343 192.570269,1247.81343 C191.970171,1247.81343 191.500845,1248.33257 191.505381,1248.89292 L191.543808,1253.99356 L184.689384,1257.95295 L184.689384,1249.91878 L189.007392,1247.46321 C189.511475,1247.17892 189.731128,1246.51558 189.433296,1245.9965 C189.130877,1245.46913 188.510087,1245.31252 187.980931,1245.60922 L184.689384,1247.46326 L184.689384,1243.07944 C184.689384,1242.48203 184.205228,1242 183.605028,1242 C183.004828,1242 182.540089,1242.48203 182.540089,1243.07944 L182.540089,1247.50438 L179.132091,1245.60917 C178.601252,1245.31664 177.996924,1245.48143 177.699091,1245.99645 C177.396723,1246.52381 177.584678,1247.17068 178.105578,1247.46316 L182.540089,1249.95584 L182.540089,1257.91173 L175.53043,1253.87817 L175.569264,1248.89287 C175.627516,1248.33257 175.123943,1247.81338 174.523743,1247.81338 C173.923491,1247.81338 173.426187,1248.29546 173.419969,1248.89287 L173.381135,1252.64213 L169.605535,1250.47909 C169.078416,1250.17421 168.427813,1250.35547 168.153118,1250.86225 C167.86558,1251.39785 168.014293,1252.02825 168.540596,1252.33313 L172.35503,1254.53323 L169.024344,1256.52324 C168.50171,1256.7746 168.338524,1257.47499 168.65664,1257.99 C168.861514,1258.32376 169.159805,1258.49267 169.566649,1258.49267 C169.779372,1258.49267 169.956573,1258.43909 170.128015,1258.33611 L174.484857,1255.76927 L181.47515,1259.76577 L174.484857,1263.80344 L170.128015,1261.23253 C169.605025,1260.92765 168.930876,1261.07186 168.656589,1261.58275 C168.369052,1262.11424 168.525205,1262.75287 169.024242,1263.04947 L172.354979,1265.01885 L168.540494,1267.23958 C168.015465,1267.54446 167.845246,1268.18721 168.153016,1268.71046 C168.368287,1269.07304 168.65664,1269.25023 169.063127,1269.25023 C169.159805,1269.25023 169.353519,1269.19254 169.605535,1269.09367 L173.381135,1266.93063 L173.419969,1270.67989 C173.426187,1271.2773 173.923491,1271.73874 174.484908,1271.73874 C175.123943,1271.73874 175.5738,1271.24019 175.569264,1270.63867 L175.53043,1265.65748 L182.540089,1261.66103 L182.540089,1269.5757 L178.105578,1272.06832 C177.576422,1272.36497 177.391321,1273.01184 177.699091,1273.53509 C177.914311,1273.90178 178.202664,1274.07892 178.6091,1274.07892 C178.802865,1274.07892 178.981289,1274.04599 179.132091,1273.95942 L182.540089,1272.03117 L182.540089,1276.53033 C182.540089,1277.12774 183.004828,1277.59329 183.605028,1277.59329 C184.205228,1277.59329 184.689384,1277.12774 184.689384,1276.53033 L184.689384,1272.10533 L187.980931,1273.95942 C188.13163,1274.04594 188.310106,1274.07892 188.484504,1274.07892 C188.910306,1274.07892 189.224294,1273.9059 189.433296,1273.53509 C189.727408,1273.01596 189.537415,1272.36492 189.007392,1272.06832 L184.689384,1269.65398 L184.689384,1261.61981 L191.543808,1265.5792 L191.505381,1270.63867 C191.500387,1271.24019 191.97012,1271.73874 192.57032,1271.73874 C193.170521,1271.73874 193.626137,1271.2773 193.635208,1270.67989 L193.693052,1266.79466 L197.565789,1269.05657 C197.715317,1269.14308 197.914381,1269.17195 198.127563,1269.17195 C198.534101,1269.17195 198.83229,1269.00304 199.037521,1268.66929 C199.355331,1268.15427 199.152444,1267.49094 198.650196,1267.20252 Z" id="Shape-Copy-15" fill="#FFFFFF" fill-rule="nonzero" opacity="0.600000024" mask="url(#mask-3)"></path>
                                        <path d="M748.650196,1407.20252 L744.796876,1404.98179 L748.049996,1403.04947 C748.572986,1402.79816 748.734847,1402.09772 748.437423,1401.58275 C748.134647,1401.05539 747.481138,1400.94417 746.985057,1401.23253 L742.647683,1403.76638 L735.754374,1399.76577 L742.647632,1395.80638 L746.985006,1398.33611 C747.120468,1398.43497 747.294764,1398.49267 747.488579,1398.49267 C747.856181,1398.49267 748.185458,1398.31964 748.437372,1397.99 C748.727814,1397.46676 748.572935,1396.7746 748.049945,1396.52329 L744.796825,1394.59097 L748.650145,1392.37029 C749.152393,1392.08187 749.32511,1391.435 749.037572,1390.90352 C748.762928,1390.39262 748.083377,1390.21548 747.565789,1390.51624 L743.693052,1392.75756 L743.635208,1388.89292 C743.626137,1388.29551 743.17047,1387.81343 742.570269,1387.81343 C741.970171,1387.81343 741.500845,1388.33257 741.505381,1388.89292 L741.543808,1393.99356 L734.689384,1397.95295 L734.689384,1389.91878 L739.007392,1387.46321 C739.511475,1387.17892 739.731128,1386.51558 739.433296,1385.9965 C739.130877,1385.46913 738.510087,1385.31252 737.980931,1385.60922 L734.689384,1387.46326 L734.689384,1383.07944 C734.689384,1382.48203 734.205228,1382 733.605028,1382 C733.004828,1382 732.540089,1382.48203 732.540089,1383.07944 L732.540089,1387.50438 L729.132091,1385.60917 C728.601252,1385.31664 727.996924,1385.48143 727.699091,1385.99645 C727.396723,1386.52381 727.584678,1387.17068 728.105578,1387.46316 L732.540089,1389.95584 L732.540089,1397.91173 L725.53043,1393.87817 L725.569264,1388.89287 C725.627516,1388.33257 725.123943,1387.81338 724.523743,1387.81338 C723.923491,1387.81338 723.426187,1388.29546 723.419969,1388.89287 L723.381135,1392.64213 L719.605535,1390.47909 C719.078416,1390.17421 718.427813,1390.35547 718.153118,1390.86225 C717.86558,1391.39785 718.014293,1392.02825 718.540596,1392.33313 L722.35503,1394.53323 L719.024344,1396.52324 C718.50171,1396.7746 718.338524,1397.47499 718.65664,1397.99 C718.861514,1398.32376 719.159805,1398.49267 719.566649,1398.49267 C719.779372,1398.49267 719.956573,1398.43909 720.128015,1398.33611 L724.484857,1395.76927 L731.47515,1399.76577 L724.484857,1403.80344 L720.128015,1401.23253 C719.605025,1400.92765 718.930876,1401.07186 718.656589,1401.58275 C718.369052,1402.11424 718.525205,1402.75287 719.024242,1403.04947 L722.354979,1405.01885 L718.540494,1407.23958 C718.015465,1407.54446 717.845246,1408.18721 718.153016,1408.71046 C718.368287,1409.07304 718.65664,1409.25023 719.063127,1409.25023 C719.159805,1409.25023 719.353519,1409.19254 719.605535,1409.09367 L723.381135,1406.93063 L723.419969,1410.67989 C723.426187,1411.2773 723.923491,1411.73874 724.484908,1411.73874 C725.123943,1411.73874 725.5738,1411.24019 725.569264,1410.63867 L725.53043,1405.65748 L732.540089,1401.66103 L732.540089,1409.5757 L728.105578,1412.06832 C727.576422,1412.36497 727.391321,1413.01184 727.699091,1413.53509 C727.914311,1413.90178 728.202664,1414.07892 728.6091,1414.07892 C728.802865,1414.07892 728.981289,1414.04599 729.132091,1413.95942 L732.540089,1412.03117 L732.540089,1416.53033 C732.540089,1417.12774 733.004828,1417.59329 733.605028,1417.59329 C734.205228,1417.59329 734.689384,1417.12774 734.689384,1416.53033 L734.689384,1412.10533 L737.980931,1413.95942 C738.13163,1414.04594 738.310106,1414.07892 738.484504,1414.07892 C738.910306,1414.07892 739.224294,1413.9059 739.433296,1413.53509 C739.727408,1413.01596 739.537415,1412.36492 739.007392,1412.06832 L734.689384,1409.65398 L734.689384,1401.61981 L741.543808,1405.5792 L741.505381,1410.63867 C741.500387,1411.24019 741.97012,1411.73874 742.57032,1411.73874 C743.170521,1411.73874 743.626137,1411.2773 743.635208,1410.67989 L743.693052,1406.79466 L747.565789,1409.05657 C747.715317,1409.14308 747.914381,1409.17195 748.127563,1409.17195 C748.534101,1409.17195 748.83229,1409.00304 749.037521,1408.66929 C749.355331,1408.15427 749.152444,1407.49094 748.650196,1407.20252 Z" id="Shape-Copy-15" fill="#FFFFFF" fill-rule="nonzero" opacity="0.300000012" mask="url(#mask-3)"></path>
                                        <path d="M708.304055,923.363166 L701.979867,919.718429 L707.318988,916.547043 C708.177335,916.134592 708.442987,914.985001 707.954844,914.139826 C707.457919,913.274296 706.385361,913.091763 705.571177,913.565031 L698.452544,917.723663 L687.139031,911.157731 L698.45246,904.659455 L705.571093,908.81133 C705.793417,908.973591 706.079477,909.068278 706.397573,909.068278 C707.000892,909.068278 707.541312,908.784301 707.954761,908.243292 C708.431444,907.384519 708.177252,906.248527 707.318904,905.836076 L701.979783,902.66469 L708.303971,899.020036 C709.128276,898.546685 709.411744,897.485023 708.939828,896.612736 C708.489074,895.774235 707.373774,895.4835 706.524292,895.977124 L700.168236,899.655648 L700.073301,893.312876 C700.058412,892.332386 699.310557,891.541188 698.32549,891.541188 C697.34059,891.541188 696.570318,892.393203 696.577762,893.312876 L696.640829,901.6842 L685.391136,908.182476 L685.391136,894.996551 L692.477985,890.966392 C693.305301,890.499798 693.665804,889.411107 693.176992,888.559175 C692.680652,887.693645 691.661793,887.436614 690.793324,887.923563 L685.391136,890.966476 L685.391136,883.771605 C685.391136,882.791115 684.596525,882 683.611457,882 C682.62639,882 681.863646,882.791115 681.863646,883.771605 L681.863646,891.033966 L676.270333,887.92348 C675.399104,887.443371 674.407262,887.713834 673.91845,888.559092 C673.422194,889.424622 673.730671,890.486284 674.585589,890.966309 L681.863646,895.057367 L681.863646,908.114818 L670.359176,901.494826 L670.422912,893.312792 C670.518516,892.393203 669.692037,891.541104 668.706969,891.541104 C667.721818,891.541104 666.905626,892.332303 666.895422,893.312792 L666.831686,899.466191 L660.635053,895.91614 C659.76993,895.41576 658.70214,895.713252 658.251302,896.544995 C657.779386,897.42404 658.023458,898.458672 658.887242,898.959052 L665.147611,902.569919 L659.681185,905.835992 C658.823422,906.248527 658.555597,907.398034 659.077698,908.243292 C659.413944,908.791058 659.903509,909.068278 660.571233,909.068278 C660.920361,909.068278 661.211189,908.980349 661.492565,908.81133 L668.643149,904.598555 L680.115835,911.157731 L668.643149,917.78448 L661.492565,913.565031 C660.634217,913.06465 659.527783,913.301326 659.077615,914.139826 C658.605699,915.012114 658.861982,916.06026 659.681018,916.547043 L665.147527,919.779245 L658.887075,923.423983 C658.025381,923.924363 657.746013,924.979267 658.251135,925.83804 C658.604444,926.433108 659.077698,926.723926 659.744837,926.723926 C659.903509,926.723926 660.221437,926.629239 660.635053,926.466978 L666.831686,922.916928 L666.895422,929.070326 C666.905626,930.050815 667.721818,930.808144 668.643233,930.808144 C669.692037,930.808144 670.430356,929.989915 670.422912,929.002669 L670.359176,920.827392 L681.863646,914.2683 L681.863646,927.258094 L674.585589,931.349069 C673.717121,931.835935 673.413328,932.897596 673.91845,933.756369 C674.271676,934.358194 674.74493,934.648929 675.411986,934.648929 C675.729997,934.648929 676.022833,934.59487 676.270333,934.452798 L681.863646,931.288086 L681.863646,938.672247 C681.863646,939.652736 682.62639,940.416822 683.611457,940.416822 C684.596525,940.416822 685.391136,939.652736 685.391136,938.672247 L685.391136,931.409802 L690.793324,934.452798 C691.040658,934.594786 691.333577,934.648929 691.619804,934.648929 C692.318644,934.648929 692.833971,934.364951 693.176992,933.756369 C693.659698,932.904354 693.347875,931.835851 692.477985,931.349069 L685.391136,927.386567 L685.391136,914.200643 L696.640829,920.698918 L696.577762,929.002669 C696.569565,929.989915 697.340506,930.808144 698.325573,930.808144 C699.310641,930.808144 700.058412,930.050815 700.073301,929.070326 L700.168236,922.693767 L706.524292,926.406078 C706.769702,926.548067 707.096413,926.595452 707.446293,926.595452 C708.113516,926.595452 708.602913,926.318232 708.939744,925.770466 C709.461344,924.925208 709.12836,923.836517 708.304055,923.363166 Z" id="Shape-Copy-15" fill="#FFFFFF" fill-rule="nonzero" opacity="0.800000012" mask="url(#mask-3)"></path>
                                        <g id="Group-28" mask="url(#mask-3)">
                                            <g transform="translate(-374.000000, 269.000000)">
                                                <path d="M51,101.5 C23.1096201,101.5 0.5,78.8903799 0.5,51 C0.5,23.1096201 23.1096201,0.5 51,0.5 L677.086303,0.5 C704.976683,0.5 727.586303,23.1096201 727.586303,51 C727.586303,78.8903799 704.976683,101.5 677.086303,101.5 C582.761131,101.5 512.017251,101.5 464.854665,101.5 C445.545635,101.5 424.209597,101.5 400.84655,101.5 C342.237426,101.5 225.621909,101.5 51,101.5 Z" id="Path-5" stroke="none" fill="#FFFFFF" fill-rule="nonzero" opacity="0.5"></path>
                                                <path d="M98.9899951,102.545273 L725.076298,102.545273" id="Path-5" stroke="#FFFFFF" stroke-width="151" fill="none" opacity="0.300000012" stroke-linecap="round"></path>
                                                <path d="M369,263 L995.086303,263" id="Path-5" stroke="#FFFFFF" stroke-width="111" fill="none" stroke-linecap="round"></path>
                                                <path d="M379,356 L1071.95263,356" id="Path-5" stroke="#FFFFFF" stroke-width="150" fill="none" opacity="0.200000003" stroke-linecap="round"></path>
                                                <path d="M225,508 L851.086303,508" id="Path-5-Copy" stroke="#FFFFFF" stroke-width="91" fill="none" opacity="0.699999988" stroke-linecap="round"></path>
                                                <path d="M248,578 L874.086303,578" id="Path-5-Copy-2" stroke="#FFFFFF" stroke-width="151" fill="none" opacity="0.100000001" stroke-linecap="round"></path>
                                                <g id="Group-29" stroke="none" stroke-width="1" fill="none" fill-rule="evenodd" transform="translate(873.000000, 830.000000)" stroke-linecap="round">
                                                    <path d="M0,73.6964286 L187.74094,73.6964286" id="Path-5-Copy-3" stroke="#FFFFFF" stroke-width="45.3" opacity="0.300000012"></path>
                                                    <path d="M131,143.696429 L318.74094,143.696429" id="Path-5-Copy-3" stroke="#FFFFFF" stroke-width="45.3" opacity="0.699999988"></path>
                                                    <path d="M82.9850746,0.303571429 L270.726015,0.303571429" id="Path-5-Copy-3" stroke="#FFFFFF" stroke-width="45.3" opacity="0.400000006"></path>
                                                </g>
                                            </g>
                                        </g>
                                    </g>
                                </g>
                            </g>
                        </g>
                    </g>
                </g>
            </g>
            <g id="Group-14-Copy" transform="translate(106.000000, 281.000000)" fill="#FFFFFF">
                <circle id="Oval-6" opacity="0.699999988" cx="9.5" cy="899.5" r="9.5"></circle>
                <circle id="Oval-6" cx="99.5" cy="819.5" r="9.5"></circle>
                <circle id="Oval-6-Copy-3" opacity="0.300000012" cx="228.5" cy="741.5" r="4.5"></circle>
                <circle id="Oval-6" opacity="0.5" cx="596" cy="496" r="26"></circle>
                <circle id="Oval-6" cx="677" cy="687" r="7"></circle>
                <circle id="Oval-6-Copy-2" opacity="0.400000006" cx="709.5" cy="444.5" r="12.5"></circle>
                <circle id="Oval-6" opacity="0.900000036" cx="456.5" cy="716.5" r="6.5"></circle>
                <circle id="Oval-6-Copy-5" opacity="0.900000036" cx="205.5" cy="945.5" r="6.5"></circle>
                <circle id="Oval-6-Copy-5" opacity="0.900000036" cx="405.5" cy="1045.5" r="6.5"></circle>
                <circle id="Oval-6" opacity="0.699999988" cx="676.5" cy="196.5" r="6.5"></circle>
                <circle id="Oval-6" opacity="0.800000012" cx="566.5" cy="6.5" r="6.5"></circle>
                <circle id="Oval-6" opacity="0.800000012" cx="480.5" cy="117.5" r="15.5"></circle>
            </g>
        </g>
    </g>
</svg>