<?xml version="1.0" encoding="UTF-8"?>
<svg width="874px" height="2197px" viewBox="0 0 874 2197" version="1.1" xmlns="http://www.w3.org/2000/svg" xmlns:xlink="http://www.w3.org/1999/xlink">
    <!-- Generator: Sketch 49 (51002) - http://www.bohemiancoding.com/sketch -->
    <title>rain/snow</title>
    <desc>Created with Sketch.</desc>
    <defs>
        <linearGradient x1="0%" y1="0%" x2="97.2955198%" y2="97.2955198%" id="linearGradient-1">
            <stop stop-color="#40CEDE" offset="0%"></stop>
            <stop stop-color="#75CDFD" offset="100%"></stop>
        </linearGradient>
        <rect id="path-2" x="0" y="0" width="874" height="2197"></rect>
        <path d="M184.978889,48.1487215 L177.689826,43.9060715 L183.843531,40.2144252 C184.832836,39.7343121 185.139017,38.3961327 184.576399,37.4123087 C184.003659,36.4047898 182.767462,36.1923126 181.829058,36.7432191 L173.624344,41.5840682 L160.584741,33.9410055 L173.624247,26.3766993 L181.828962,31.2096825 C182.085206,31.3985619 182.41491,31.5087821 182.781537,31.5087821 C183.476904,31.5087821 184.099775,31.1782187 184.576303,30.5484587 C185.125713,29.5488058 184.83274,28.2264554 183.843435,27.7463423 L177.68973,24.0546959 L184.978793,19.8121431 C185.928861,19.2611395 186.255576,18.0253144 185.711661,17.0099295 C185.192136,16.0338743 183.906676,15.6954451 182.92759,16.2700465 L175.601797,20.5520261 L175.492378,13.1687334 C175.475218,12.0273965 174.613263,11.1064029 173.477905,11.1064029 C172.34274,11.1064029 171.454949,12.0981899 171.463529,13.1687334 L171.536218,22.9133591 L158.570172,30.4776654 L158.570172,15.1286125 L166.738253,10.4373132 C167.691791,9.89417553 168.107296,8.62688669 167.543907,7.63519676 C166.971841,6.62767785 165.797536,6.32848115 164.796566,6.89531372 L158.570172,10.4374103 L158.570172,2.06223339 C158.570172,0.920896556 157.654327,0 156.518969,0 C155.383611,0 154.504496,0.920896556 154.504496,2.06223339 L154.504496,10.5159725 L148.057818,6.89521661 C147.053667,6.33634708 145.9105,6.65117853 145.347111,7.63509965 C144.775141,8.64261855 145.130682,9.87844367 146.116034,10.4372161 L154.504496,15.1994059 L154.504496,30.3989089 L141.244801,22.6929188 L141.318262,13.1686362 C141.428452,12.0981899 140.475878,11.1063057 139.340519,11.1063057 L139.267059,11.1063057 C138.205065,11.1063057 137.264348,12.0272994 137.252586,13.1686362 L137.179126,20.3314887 L130.03708,16.1990589 C129.039967,15.6165916 127.809264,15.9628867 127.289643,16.931076 C126.745728,17.9543268 127.027037,19.1586882 128.022608,19.7411555 L135.238114,23.9443787 L128.937681,27.7462452 C127.949051,28.2264554 127.640363,29.5645376 128.242121,30.5484587 C128.629668,31.1860847 129.193925,31.5087821 129.963524,31.5087821 C130.365917,31.5087821 130.701116,31.4064278 131.025421,31.2096825 L139.266963,26.3058088 L152.490024,33.9410055 L139.266963,41.6548616 L131.025421,36.7432191 C130.036116,36.1607517 128.760875,36.4362535 128.242025,37.4123087 C127.69811,38.4276936 127.993494,39.6477868 128.937488,40.2144252 L135.238018,43.9768649 L128.022415,48.2195149 C127.029254,48.8019822 126.707262,50.0299414 127.28945,51.0295944 C127.696664,51.7222818 128.242121,52.0608082 129.011045,52.0608082 C129.193925,52.0608082 129.560359,51.950588 130.03708,51.7617086 L137.179126,47.6292787 L137.252586,54.7921312 C137.264348,55.9334681 138.205065,56.815035 139.267059,56.815035 L139.340519,56.815035 C140.475878,56.815035 141.326842,55.8625776 141.318262,54.7133748 L141.244801,45.1969582 L154.504496,37.5618585 L154.504496,52.6826051 L146.116034,57.4446979 C145.115064,58.0114333 144.764923,59.2472584 145.347111,60.2469114 C145.754228,60.9474648 146.299685,61.285894 147.068513,61.285894 C147.435044,61.285894 147.772556,61.2229666 148.057818,61.0575878 L154.504496,57.3737103 L154.504496,65.9692303 C154.504496,67.1105672 155.383611,68 156.518969,68 C157.654327,68 158.570172,67.1105672 158.570172,65.9692303 L158.570172,57.5153941 L164.796566,61.0575878 C165.081634,61.2228695 165.419244,61.285894 165.74914,61.285894 C166.554602,61.285894 167.148551,60.9553307 167.543907,60.2469114 C168.100258,59.2551244 167.740861,58.0113362 166.738253,57.4446979 L158.570172,52.8321549 L158.570172,37.4831021 L171.536218,45.0474084 L171.463529,54.7133748 C171.454081,55.8625776 172.342643,56.815035 173.478001,56.815035 C174.61336,56.815035 175.475218,55.9334681 175.492378,54.7921312 L175.601797,47.3695088 L182.92759,51.6908181 C183.210441,51.8560997 183.586998,51.9112584 183.990259,51.9112584 C184.759279,51.9112584 185.323343,51.588561 185.711565,50.950935 C186.312744,49.9670139 185.928957,48.6997251 184.978889,48.1487215 Z" id="path-4"></path>
    </defs>
    <g id="Page-1" stroke="none" stroke-width="1" fill="none" fill-rule="evenodd">
        <g id="rain/snow">
            <g id="flurries-copy">
                <g id="snow">
                    <g id="Group-6-Copy-2">
                        <g id="with-content-copy-4">
                            <g id="Shape">
                                <g id="fluffy-cloud-silhouette">
                                    <mask id="mask-3" fill="white">
                                        <use xlink:href="#path-2"></use>
                                    </mask>
                                    <use id="Mask" fill="url(#linearGradient-1)" xlink:href="#path-2"></use>
                                    <g id="snowflake" mask="url(#mask-3)" fill="#FFFFFF" fill-rule="nonzero">
                                        <g transform="translate(-211.000000, 89.000000)" id="Shape">
                                            <path d="M558.544502,520.345648 L512.4628,493.704302 L551.36673,470.522934 C557.621149,467.508107 559.556838,459.105128 555.999949,452.927292 C552.379066,446.600665 544.563783,445.266433 538.631166,448.725802 L486.760682,479.123487 L404.323869,431.129549 L486.760072,383.630156 L538.630556,413.978447 C540.250538,415.164499 542.334938,415.856617 544.652767,415.856617 C549.048901,415.856617 552.986711,413.780874 555.99934,409.826351 C559.472731,403.549119 557.62054,395.245536 551.36612,392.230708 L512.462191,369.049341 L558.543893,342.408604 C564.550257,338.948626 566.615763,331.188371 563.177112,324.812352 C559.892658,318.683299 551.765935,316.558163 545.576119,320.166321 L499.262208,347.054635 L498.570455,300.691899 C498.461969,293.524975 493.012664,287.741677 485.834891,287.741677 C478.658337,287.741677 473.045693,293.969516 473.099937,300.691899 L473.55948,361.882417 L391.587696,409.38181 L391.587696,312.998788 L443.22658,283.540187 C449.254885,280.129602 451.881717,272.171774 448.319952,265.944544 C444.703335,259.617918 437.279335,257.739139 430.951169,261.298514 L391.587696,283.540797 L391.587696,230.949613 C391.587696,223.782689 385.797695,218 378.619923,218 C371.44215,218 365.884359,223.782689 365.884359,230.949613 L365.884359,284.034121 L325.128238,261.297904 C318.77996,257.788532 311.55282,259.765489 307.991055,265.943935 C304.375047,272.270561 306.622786,280.030815 312.852218,283.539577 L365.884359,313.443328 L365.884359,408.887266 L282.056118,360.498181 L282.520537,300.691289 C283.217165,293.969516 277.194955,287.741067 270.017182,287.741067 L269.552763,287.741067 C262.8388,287.741067 256.891555,293.524365 256.817199,300.691289 L256.35278,345.669789 L211.200526,319.720561 C204.896738,316.063009 197.116196,318.237539 193.831133,324.317198 C190.392482,330.742611 192.170926,338.305292 198.464962,341.962844 L244.081635,368.356613 L204.250087,392.230098 C197.999933,395.245536 196.048398,403.647905 199.852734,409.826351 C202.302818,413.830267 205.870068,415.856617 210.735497,415.856617 C213.279441,415.856617 215.398581,415.213892 217.448851,413.978447 L269.552154,383.185005 L353.148795,431.129549 L269.552154,479.568028 L217.448851,448.725802 C211.194431,445.06825 203.132312,446.798239 199.852124,452.927292 C196.413473,459.303311 198.280901,466.964779 204.248868,470.522934 L244.081026,494.148843 L198.463743,520.790189 C192.184944,524.447741 190.149302,532.158602 193.829914,538.435835 C196.404331,542.785505 199.852734,544.911251 204.713896,544.911251 C205.870068,544.911251 208.186678,544.219134 211.200526,543.033082 L256.35278,517.083853 L256.817199,562.062353 C256.891555,569.229277 262.8388,574.764999 269.552763,574.764999 L270.017182,574.764999 C277.194955,574.764999 282.57478,568.784127 282.520537,561.567809 L282.056118,501.810311 L365.884359,453.866376 L365.884359,548.81577 L312.852218,578.718912 C306.524051,582.277677 304.310443,590.037932 307.991055,596.315164 C310.564863,600.714227 314.013265,602.839364 318.873818,602.839364 C321.191038,602.839364 323.324805,602.444217 325.128238,601.405735 L365.884359,578.273151 L365.884359,632.247961 C365.884359,639.414885 371.44215,645 378.619923,645 C385.797695,645 391.587696,639.414885 391.587696,632.247961 L391.587696,579.162842 L430.951169,601.405735 C432.753383,602.443607 434.88776,602.839364 436.973379,602.839364 C442.065532,602.839364 445.8205,600.763621 448.319952,596.315164 C451.837225,590.087325 449.565107,582.277067 443.22658,578.718912 L391.587696,549.754855 L391.587696,453.371832 L473.55948,500.871226 L473.099937,561.567809 C473.040208,568.784127 478.657728,574.764999 485.835501,574.764999 C493.013273,574.764999 498.461969,569.229277 498.570455,562.062353 L499.262208,515.452651 L545.576119,542.587931 C547.364315,543.625803 549.74492,543.972166 552.294349,543.972166 C557.156121,543.972166 560.722152,541.945817 563.176503,537.941901 C566.977181,531.763455 564.550866,523.805627 558.544502,520.345648 Z"></path>
                                            <path d="M743.898628,613.18813 L650.376246,559.156735 L729.331406,512.142532 C742.024692,506.028151 745.953154,488.986043 738.734481,476.456755 C731.385932,463.625706 715.52489,460.919746 703.484698,467.935702 L598.214038,529.585339 L430.9093,432.248688 L598.212801,335.915023 L703.483461,397.464485 C706.771198,399.869921 711.001469,401.273607 715.705481,401.273607 C724.627394,401.273607 732.619142,397.063786 738.733244,389.043607 C745.782459,376.312732 742.023455,359.472211 729.330169,353.35783 L650.375009,306.343627 L743.897391,252.313469 C756.08725,245.296276 760.279176,229.55768 753.300466,216.626455 C746.634698,204.196106 730.141589,199.88611 717.579416,207.203827 L623.585767,261.736097 L622.181862,167.707692 C621.96169,153.172432 610.902376,141.443307 596.335154,141.443307 C581.770406,141.443307 570.379598,154.074007 570.489684,167.707692 L571.422322,291.808367 L405.061356,388.142032 L405.061356,192.66733 L509.861987,132.922253 C522.096375,126.005235 527.427506,109.865939 520.198938,97.2364763 C512.859047,84.4054267 497.792109,80.5950688 484.949155,87.8138482 L405.061356,132.92349 L405.061356,26.2631488 C405.061356,11.7278885 393.310604,0 378.743382,0 C364.17616,0 352.896674,11.7278885 352.896674,26.2631488 L352.896674,133.924003 L270.18251,87.8126115 C257.298738,80.6952437 242.631325,84.7047148 235.402757,97.2352396 C228.064103,110.066289 232.625869,125.804886 245.268442,132.921017 L352.896674,193.568905 L352.896674,387.139046 L182.768046,289.000995 L183.71058,167.706456 C185.124381,154.074007 172.902361,141.44207 158.335139,141.44207 L157.392605,141.44207 C143.76668,141.44207 131.696802,153.171195 131.545898,167.706456 L130.603364,258.927489 L38.9672867,206.299779 C26.1738097,198.881887 10.3832725,203.292058 3.71626673,215.622233 C-3.26244321,228.653632 0.346893124,243.991529 13.1205793,251.409421 L105.699191,304.938705 L24.8614363,353.356593 C12.1768084,359.472211 8.2161864,376.513082 15.9370491,389.043607 C20.9094727,397.163961 28.1491731,401.273607 38.0235157,401.273607 C43.1864252,401.273607 47.4872006,399.970096 51.6482038,397.464485 L157.391368,335.012212 L327.049967,432.248688 L157.391368,530.486914 L51.6482038,467.935702 C38.9549175,460.517809 22.5929226,464.026405 15.9358122,476.456755 C8.95710225,489.38798 12.7470291,504.926226 24.8589624,512.142532 L105.697954,560.058309 L13.1181055,614.089704 C0.375342313,621.507597 -3.75597481,637.146018 3.71379289,649.876893 C8.93854843,658.698471 15.9370491,663.009704 25.8027334,663.009704 C28.1491731,663.009704 32.8507109,661.606018 38.9672867,659.200583 L130.603364,606.572873 L131.545898,697.793906 C131.696802,712.329167 143.76668,723.55618 157.392605,723.55618 L158.335139,723.55618 C172.902361,723.55618 183.820666,711.426355 183.71058,696.79092 L182.768046,575.596555 L352.896674,478.361316 L352.896674,670.928471 L245.268442,731.575123 C232.425488,738.792665 227.93299,754.531262 235.402757,767.262136 C240.626276,776.18389 247.624777,780.493886 257.489224,780.493886 C262.191999,780.493886 266.52246,779.692486 270.18251,777.586339 L352.896674,730.671075 L352.896674,840.137551 C352.896674,854.672811 364.17616,866 378.743382,866 C393.310604,866 405.061356,854.672811 405.061356,840.137551 L405.061356,732.47546 L484.949155,777.586339 C488.606731,779.691249 492.938429,780.493886 497.171174,780.493886 C507.505651,780.493886 515.126324,776.284065 520.198938,767.262136 C527.337211,754.631437 522.725968,738.791429 509.861987,731.575123 L405.061356,672.833032 L405.061356,477.35833 L571.422322,573.691995 L570.489684,696.79092 C570.368465,711.426355 581.769169,723.55618 596.336391,723.55618 C610.903613,723.55618 621.96169,712.329167 622.181862,697.793906 L623.585767,603.264627 L717.579416,658.297771 C721.208543,660.402682 726.039958,661.105143 731.214,661.105143 C741.080921,661.105143 748.318147,656.995497 753.29923,648.875143 C761.012671,636.344619 756.088487,620.205322 743.898628,613.18813 Z" opacity="0.229999989"></path>
                                            <path d="M633.844616,558.382007 L568.490137,520.634901 L623.664879,487.790106 C632.535089,483.518512 635.280341,471.612651 630.235853,462.859511 C625.100605,453.895556 614.016733,452.005134 605.602913,456.906581 L532.038608,499.975901 L415.124201,431.975123 L532.037743,364.675045 L605.602049,407.674381 C607.899556,409.354852 610.855716,410.335487 614.142932,410.335487 C620.377664,410.335487 625.962386,407.394446 630.234988,401.791434 C635.161058,392.897463 632.534224,381.132434 623.664015,376.86084 L568.489273,344.016045 L633.843751,306.269802 C642.36216,301.367491 645.291525,290.372282 640.414725,281.338344 C635.756612,272.654323 624.231044,269.643298 615.452459,274.755561 L549.768654,312.852585 L548.787589,247.162995 C548.63373,237.008454 540.905359,228.814319 530.725623,228.814319 C520.547615,228.814319 512.587592,237.638307 512.664521,247.162995 L513.31626,333.861504 L397.06137,401.161581 L397.06137,264.600156 L470.297214,222.861389 C478.84674,218.029062 482.572194,206.753918 477.52079,197.930795 C472.391593,188.96684 461.862649,186.304869 452.887851,191.348012 L397.06137,222.862253 L397.06137,148.347812 C397.06137,138.193271 388.849814,130 378.670078,130 C368.490341,130 360.608112,138.193271 360.608112,148.347812 L360.608112,223.561226 L302.806536,191.347148 C293.803213,186.374853 283.553463,189.175927 278.502059,197.929931 C273.373726,206.893886 276.561539,217.889094 285.396309,222.860525 L360.608112,265.230008 L360.608112,400.460881 L241.720338,331.900233 L242.378992,247.162131 C243.366971,237.638307 234.826089,228.813455 224.646352,228.813455 C214.465751,228.813455 206.031187,237.00759 205.925733,247.162131 L205.26708,310.890451 L141.230772,274.12398 C132.290549,268.941734 121.255946,272.022742 116.596968,280.636779 C111.720168,289.740701 114.242413,300.455975 123.168806,305.638221 L187.863767,343.034546 L131.373448,376.859976 C122.509289,381.132434 119.741562,393.03743 125.136987,401.791434 C128.611772,407.46443 133.670954,410.335487 140.571255,410.335487 C144.179153,410.335487 147.184583,409.424836 150.092338,407.674381 L223.986835,364.044328 L342.546146,431.975123 L223.986835,500.605754 L150.092338,456.906581 C141.222129,451.724335 129.788185,454.175491 125.136122,462.859511 C120.259322,471.89345 122.907765,482.748692 131.371719,487.790106 L187.862903,521.264754 L123.167078,559.01186 C114.262293,564.194106 111.375283,575.119331 116.59524,584.013303 C120.246357,590.176184 125.136987,593.188073 132.031236,593.188073 C133.670954,593.188073 136.956441,592.207438 141.230772,590.526966 L205.26708,553.760495 L205.925733,617.488814 C206.031187,627.643355 214.465751,635.486708 223.987699,635.486708 C234.826089,635.486708 242.455921,627.012639 242.378992,616.788114 L241.720338,532.119995 L360.608112,464.190065 L360.608112,598.720237 L285.396309,641.088856 C276.42151,646.131135 273.282102,657.126343 278.502059,666.020315 C282.152312,672.253179 287.042942,675.264204 293.936327,675.264204 C297.222678,675.264204 300.248853,674.704335 302.806536,673.23295 L360.608112,640.457275 L360.608112,716.932123 C360.608112,727.086664 368.490341,735 378.670078,735 C388.849814,735 397.06137,727.086664 397.06137,716.932123 L397.06137,641.717845 L452.887851,673.23295 C455.443805,674.703471 458.470844,675.264204 461.428733,675.264204 C468.650581,675.264204 473.975991,672.323163 477.52079,666.020315 C482.509094,657.196327 479.286707,646.130271 470.297214,641.088856 L397.06137,600.05079 L397.06137,463.489364 L513.31626,530.789442 L512.664521,616.788114 C512.579813,627.012639 520.546751,635.486708 530.726487,635.486708 C540.906224,635.486708 548.63373,627.643355 548.787589,617.488814 L549.768654,551.449306 L615.452459,589.896249 C617.988533,591.36677 621.364779,591.857519 624.980457,591.857519 C631.875571,591.857519 636.933025,588.986462 640.413861,583.313466 C645.804099,574.559462 642.363025,563.284319 633.844616,558.382007 Z" opacity="0.600000024"></path>
                                        </g>
                                    </g>
                                </g>
                            </g>
                            <g id="snowflake-copy" transform="translate(609.000000, 398.000000)" fill-rule="nonzero">
                                <path d="M47.1692657,420.943819 L41.2391807,417.512264 L46.2455845,414.526373 C47.0504428,414.138047 47.2995395,413.055696 46.8418165,412.259956 C46.3758583,411.445051 45.3701383,411.273194 44.6066916,411.71878 L37.9316695,415.634173 L27.3231789,409.452284 L37.9315911,403.334095 L44.6066131,407.243126 C44.8150826,407.395896 45.0833164,407.485044 45.3815893,407.485044 C45.9473116,407.485044 46.4540539,407.217677 46.8417381,406.708312 C47.288716,405.899769 47.0503644,404.830221 46.2455061,404.441895 L41.2391023,401.456004 L47.1691873,398.024527 C47.9421242,397.578863 48.2079266,396.579298 47.7654193,395.758031 C47.3427549,394.968575 46.2969568,394.694845 45.5004121,395.159596 L39.540445,398.622962 L39.4514258,392.651181 C39.4374651,391.728041 38.7362141,390.98312 37.8125329,390.98312 C36.8890086,390.98312 36.166738,391.785301 36.1737184,392.651181 L36.2328553,400.532864 L25.6842075,406.651053 L25.6842075,394.236378 L32.3294258,390.441944 C33.1051863,390.002642 33.4432236,388.977629 32.9848732,388.175527 C32.519464,387.360622 31.5640967,387.118624 30.7497483,387.577092 L25.6842075,390.442023 L25.6842075,383.667983 C25.6842075,382.744843 24.9391136,382 24.0154324,382 C23.0917512,382 22.3765395,382.744843 22.3765395,383.667983 L22.3765395,390.505566 L17.131784,387.577013 C16.3148473,387.124987 15.3848132,387.37963 14.9264628,388.175448 C14.4611321,388.990353 14.7503854,389.989918 15.552028,390.441866 L22.3765395,394.293637 L22.3765395,406.587353 L11.588991,400.354567 L11.6487554,392.651103 C11.7384019,391.785301 10.9634258,390.983041 10.0397446,390.983041 C9.11598501,390.983041 8.35065589,391.727963 8.34108732,392.651103 L8.28132294,398.444586 L2.47084513,395.10218 C1.65963391,394.631067 0.658384518,394.911158 0.235641748,395.694253 C-0.20686562,396.521882 0.0219958652,397.495998 0.83195219,397.967111 L6.70219438,401.366777 L1.57641868,404.441816 C0.772109382,404.830221 0.52097351,405.912494 1.01053944,406.708312 C1.32583182,407.224039 1.78488812,407.485044 2.41100232,407.485044 C2.73837307,407.485044 3.01107745,407.402258 3.27491913,407.243126 L9.97990182,403.276757 L20.7376465,409.452284 L9.97990182,415.691432 L3.27491913,411.71878 C2.47006082,411.247667 1.43257633,411.470499 1.01046101,412.259956 C0.567953644,413.081223 0.808266046,414.068063 1.57626182,414.526373 L6.70211595,417.569523 L0.831795328,421.001078 C0.0237997768,421.472191 -0.238159565,422.465394 0.235484886,423.273937 C0.566777179,423.834199 1.01053944,424.108007 1.63610463,424.108007 C1.78488812,424.108007 2.08300413,424.018858 2.47084513,423.866088 L8.28132294,420.523681 L8.34108732,426.317165 C8.35065589,427.240305 9.11598501,427.953337 9.97998025,427.953337 C10.9634258,427.953337 11.6557357,427.182967 11.6487554,426.253465 L11.588991,418.556363 L22.3765395,412.380915 L22.3765395,424.610931 L15.552028,428.462623 C14.7376795,428.921012 14.4528184,429.920577 14.9264628,430.72912 C15.2576767,431.295744 15.7014389,431.569473 16.3269257,431.569473 C16.6251201,431.569473 16.8997069,431.518576 17.131784,431.384814 L22.3765395,428.405207 L22.3765395,435.357466 C22.3765395,436.280606 23.0917512,437 24.0154324,437 C24.9391136,437 25.6842075,436.280606 25.6842075,435.357466 L25.6842075,428.519804 L30.7497483,431.384814 C30.9816685,431.518497 31.2563337,431.569473 31.5247244,431.569473 C32.1800149,431.569473 32.6632279,431.302106 32.9848732,430.72912 C33.4374982,429.926939 33.1451076,428.920934 32.3294258,428.462623 L25.6842075,424.73189 L25.6842075,412.317215 L36.2328553,418.435404 L36.1737184,426.253465 C36.1660322,427.182967 36.8889301,427.953337 37.8126113,427.953337 C38.7362925,427.953337 39.4374651,427.240305 39.4514258,426.317165 L39.540445,420.313573 L45.5004121,423.80875 C45.7305285,423.942434 46.0368798,423.987047 46.3649564,423.987047 C46.9906,423.987047 47.4494994,423.726042 47.7653408,423.210315 C48.2544362,422.414497 47.9422026,421.389484 47.1692657,420.943819 Z" id="Shape" fill="#FFFFFF" opacity="0.400000006"></path>
                                <g id="Shape-Copy-4" opacity="0.200000003">
                                    <use fill="#FFFFFF" fill-rule="evenodd" xlink:href="#path-4"></use>
                                    <path stroke-opacity="0.252660779" stroke="#FFFFFF" stroke-width="4" d="M185.983858,46.4195486 C187.910405,47.538032 188.601177,50.0575987 187.419841,51.9910275 C186.665736,53.2295904 185.451521,53.9112584 183.990259,53.9112584 C183.220111,53.9112584 182.540678,53.7811529 181.911451,53.4134501 L177.550836,50.8412285 L177.492152,54.8221979 C177.45864,57.0510783 175.711832,58.815035 173.478001,58.815035 C171.220517,58.815035 169.445097,56.9472167 169.463585,54.698335 L169.527561,46.1910391 L160.570172,40.9653569 L160.570172,51.6647031 L167.722297,55.7035323 C169.679091,56.809442 170.386759,59.2670398 169.290345,61.2215663 C168.541883,62.5627006 167.280514,63.285894 165.74914,63.285894 C165.060731,63.285894 164.392051,63.1349024 163.807603,62.7959646 L160.570172,60.9541906 L160.570172,65.9692303 C160.570172,68.2163478 158.757907,70 156.518969,70 C154.276027,70 152.504496,68.2121743 152.504496,65.9692303 L152.504496,60.8200772 L149.060923,62.7878421 C148.454402,63.1394695 147.787313,63.285894 147.068513,63.285894 C145.57404,63.285894 144.377439,62.5588034 143.618844,61.2534369 C142.475728,59.2906361 143.160481,56.8197734 145.128655,55.7054216 L152.504496,51.5181891 L152.504496,41.0213487 L143.253747,46.3480471 L143.318206,54.6984431 C143.334978,56.9449027 141.602872,58.815035 139.340519,58.815035 L139.267059,58.815035 C137.08977,58.815035 135.275562,57.031963 135.252692,54.8126416 L135.214377,51.0767517 L130.910975,53.5667258 L130.773775,53.6210851 C130.047747,53.9087411 129.530429,54.0608082 129.011045,54.0608082 C127.521747,54.0608082 126.327099,53.3390089 125.561183,52.0361198 C124.425144,50.0854699 125.065282,47.635226 127.008698,46.4954562 L131.314811,43.9635362 L127.908174,41.9292175 C126.031175,40.8025376 125.440819,38.4060701 126.476034,36.4735457 C127.543683,34.4650956 130.091094,33.8722213 132.049307,35.0251799 L139.277814,39.3330931 L148.505713,33.9498701 L139.28214,28.6240385 L132.062783,32.9196184 C131.420395,33.3093338 130.726297,33.5087821 129.963524,33.5087821 C128.501406,33.5087821 127.286432,32.8267744 126.535923,31.5919559 C125.352627,29.6571751 125.961301,27.0417714 127.967701,25.9956426 L131.316796,23.9747002 L127.012645,21.4674158 C125.081785,20.3377499 124.479963,17.9557724 125.527402,15.985292 C126.591112,14.003325 129.085783,13.327121 131.03871,14.4679501 L135.214377,16.8840157 L135.252693,13.1480275 C135.275514,10.9334341 137.085411,9.10630574 139.267059,9.10630574 L139.340519,9.10630574 C141.596554,9.10630574 143.479294,11.0298906 143.317609,13.261002 L143.253698,21.5471878 L152.504496,26.9233719 L152.504496,16.3638102 L145.129467,12.1769529 C143.17798,11.070306 142.493176,8.61118205 143.611498,6.64129502 C144.721628,4.70252678 147.073961,4.05874881 149.03721,5.15143011 L152.504496,7.09882025 L152.504496,2.06223339 C152.504496,-0.1775516 154.272241,-2 156.518969,-2 C158.76128,-2 160.570172,-0.181303808 160.570172,2.06223339 L160.570172,6.99866254 L163.811046,5.15498323 C165.771455,4.04483599 168.165368,4.67912727 169.282873,6.64727224 C170.390504,8.59694753 169.644261,11.0837369 167.734341,12.1716162 L160.570172,16.2863239 L160.570172,26.9954106 L169.527631,21.7696875 L169.463593,13.1847621 C169.446033,10.9937459 171.239476,9.10640285 173.477905,9.10640285 C175.716678,9.10640285 177.458691,10.9131545 177.492158,13.1390969 L177.550802,17.0962285 L181.915293,14.5451537 C183.863752,13.4016516 186.416827,14.0781453 187.474651,16.0655418 C188.518697,18.014575 187.882184,20.4403032 185.984871,21.5406703 L181.620855,24.0807183 L184.810349,25.9941161 C186.790853,27.023692 187.399027,29.5648975 186.32903,31.5117594 L186.258958,31.6392555 L186.171173,31.7552688 C185.329996,32.8669334 184.127909,33.5087821 182.781537,33.5087821 C182.044383,33.5087821 181.335579,33.2954555 180.744248,32.8919212 L173.616527,28.6933404 L164.555081,33.9499467 L173.621012,39.2638722 L180.816514,35.0184714 C182.722409,33.8995817 185.190608,34.4458003 186.312557,36.4194553 C187.419883,38.3557854 186.797519,40.9330885 184.810583,41.9665691 L181.620918,43.880069 L185.983858,46.4195486 Z"></path>
                                    <use stroke-opacity="0.435575181" stroke="#FFFFFF" stroke-width="2" xlink:href="#path-4"></use>
                                </g>
                            </g>
                        </g>
                    </g>
                    <g id="Group-14-Copy" transform="translate(134.000000, 292.000000)" fill="#FFFFFF">
                        <circle id="Oval-6" opacity="0.699999988" cx="155.5" cy="769.5" r="9.5"></circle>
                        <circle id="Oval-6-Copy-3" opacity="0.300000012" cx="4.5" cy="941.5" r="4.5"></circle>
                        <circle id="Oval-6" cx="330" cy="594" r="4"></circle>
                        <circle id="Oval-6" opacity="0.600000024" cx="533" cy="727" r="7"></circle>
                        <circle id="Oval-6-Copy" opacity="0.400000006" cx="685" cy="930" r="7"></circle>
                        <circle id="Oval-6-Copy-2" opacity="0.400000006" cx="685" cy="7" r="7"></circle>
                        <circle id="Oval-6" opacity="0.900000036" cx="332.5" cy="836.5" r="6.5"></circle>
                        <circle id="Oval-6" opacity="0.699999988" cx="552.5" cy="316.5" r="6.5"></circle>
                        <circle id="Oval-6" opacity="0.300000012" cx="471.5" cy="139.5" r="5.5"></circle>
                    </g>
                </g>
            </g>
            <g id="Group-25" transform="translate(45.000000, 117.000000)">
                <path d="M128,916 L176.224602,1007.58516" id="Path-3-Copy-12" stroke="#FFFFFF" stroke-width="10" opacity="0.300000012" stroke-linecap="round"></path>
                <path d="M196,1250 L226.122294,1304.07069" id="Path-3-Copy-22" stroke="#FFFFFF" stroke-width="10" opacity="0.100000001" stroke-linecap="round"></path>
                <path d="M0,897 L54,1008" id="Path-3-Copy-13" stroke="#FFFFFF" stroke-width="10" opacity="0.400000006" stroke-linecap="round"></path>
                <path d="M255,1071 L305,1170" id="Path-3-Copy-15" stroke="#FFFFFF" stroke-width="10" opacity="0.100000001" stroke-linecap="round"></path>
                <path d="M451,871 L536.657714,1024.31252" id="Path-3-Copy-16" stroke="#FFFFFF" stroke-width="10" opacity="0.699999988" stroke-linecap="round"></path>
                <path d="M502,728 L551,806" id="Path-3-Copy-46" stroke="#FFFFFF" stroke-width="10" opacity="0.200000003" stroke-linecap="round"></path>
                <path d="M303,815 L360,926" id="Path-3-Copy-19" stroke="#FFFFFF" stroke-width="10" opacity="0.5" stroke-linecap="round"></path>
                <path d="M321,1079 L378,1190" id="Path-3-Copy-38" stroke="#FFFFFF" stroke-width="10" opacity="0.5" stroke-linecap="round"></path>
                <path d="M665,815 L721.93407,908.544823" id="Path-3-Copy-42" stroke="#FFFFFF" stroke-width="10" opacity="0.5" stroke-linecap="round"></path>
                <path d="M523,414 L592.659063,523.587784" id="Path-3-Copy-44" stroke="#FFFFFF" stroke-width="10" opacity="0.300000012" stroke-linecap="round"></path>
                <path d="M522,100 L591.659063,209.587784" id="Path-3-Copy-47" stroke="#FFFFFF" stroke-width="10" opacity="0.300000012" stroke-linecap="round"></path>
                <path d="M382,0 L451.659063,109.587784" id="Path-3-Copy-47" stroke="#FFFFFF" stroke-width="10" opacity="0.300000012" stroke-linecap="round"></path>
                <path d="M659,100 L728.659063,209.587784" id="Path-3-Copy-48" stroke="#FFFFFF" stroke-width="10" opacity="0.300000012" stroke-linecap="round"></path>
                <path d="M659,359 L728.659063,468.587784" id="Path-3-Copy-49" stroke="#FFFFFF" stroke-width="10" opacity="0.300000012" stroke-linecap="round"></path>
                <path d="M696,588 L742.453008,668.482678" id="Path-3-Copy-45" stroke="#FFFFFF" stroke-width="10" opacity="0.300000012" stroke-linecap="round"></path>
                <path d="M430,1254 L482,1355" id="Path-3-Copy-20" stroke="#FFFFFF" stroke-width="10" opacity="0.100000001" stroke-linecap="round"></path>
                <path d="M650,1113 L702,1214" id="Path-3-Copy-43" stroke="#FFFFFF" stroke-width="10" opacity="0.100000001" stroke-linecap="round"></path>
                <path d="M590.362171,1264.43432 L580.510538,1258.75665 L588.827662,1253.81636 C590.164771,1253.17386 590.578595,1251.38306 589.818181,1250.06647 C589.044086,1248.71817 587.373286,1248.43383 586.104974,1249.17107 L575.015778,1255.64927 L557.391922,1245.42105 L575.015648,1235.29823 L586.104844,1241.7659 C586.451173,1242.01866 586.89679,1242.16616 587.392309,1242.16616 C588.332143,1242.16616 589.173992,1241.72379 589.818051,1240.88103 C590.560614,1239.54325 590.164641,1237.77364 588.827532,1237.13113 L580.510407,1232.19084 L590.362041,1226.51331 C591.646119,1225.77594 592.087696,1224.12211 591.35256,1222.76329 C590.650389,1221.4571 588.913007,1221.0042 587.58971,1221.77315 L577.688432,1227.50345 L577.540545,1217.62286 C577.517352,1216.09549 576.352366,1214.86298 574.817857,1214.86298 C573.283609,1214.86298 572.083702,1216.19022 572.095299,1217.62286 L572.193543,1230.66347 L554.669103,1240.78629 L554.669103,1220.24564 L565.708786,1213.96758 C566.997555,1213.24073 567.559135,1211.5448 566.797679,1210.21769 C566.024496,1208.86939 564.437347,1208.469 563.084472,1209.22755 L554.669103,1213.96771 L554.669103,1202.75975 C554.669103,1201.23238 553.431281,1200 551.896772,1200 C550.362263,1200 549.174083,1201.23238 549.174083,1202.75975 L549.174083,1214.07285 L540.460986,1209.22742 C539.103811,1208.47952 537.558748,1208.90084 536.797292,1210.21756 C536.024239,1211.56586 536.504775,1213.21968 537.836541,1213.96745 L549.174083,1220.34038 L549.174083,1240.68089 L531.252759,1230.36846 L531.352045,1217.62273 C531.500975,1216.19022 530.213509,1214.86285 528.679,1214.86285 L528.579714,1214.86285 C527.144361,1214.86285 525.872922,1216.09536 525.857025,1217.62273 L525.757739,1227.20832 L516.104808,1221.67815 C514.757145,1220.89867 513.093772,1221.3621 512.391471,1222.65776 C511.656335,1224.02711 512.036542,1225.63883 513.38212,1226.41831 L523.134337,1232.04321 L514.6189,1237.131 C513.282703,1237.77364 512.865492,1239.56431 513.678806,1240.88103 C514.202601,1241.73432 514.96523,1242.16616 516.005392,1242.16616 C516.549252,1242.16616 517.002295,1242.02919 517.440614,1241.7659 L528.579583,1235.20336 L546.451395,1245.42105 L528.579583,1255.74401 L517.440614,1249.17107 C516.103505,1248.39159 514.379935,1248.76028 513.678676,1250.06647 C512.94354,1251.4253 513.34277,1253.05807 514.618639,1253.81636 L523.134207,1258.85139 L513.381859,1264.52906 C512.039539,1265.30853 511.604346,1266.95183 512.39121,1268.2896 C512.941585,1269.21658 513.678806,1269.66961 514.718056,1269.66961 C514.96523,1269.66961 515.460489,1269.52211 516.104808,1269.26935 L525.757739,1263.73918 L525.857025,1273.32476 C525.872922,1274.85214 527.144361,1276.03189 528.579714,1276.03189 L528.679,1276.03189 C530.213509,1276.03189 531.363642,1274.75727 531.352045,1273.21937 L531.252759,1260.48416 L549.174083,1250.2666 L549.174083,1270.50172 L537.836541,1276.87452 C536.483667,1277.63295 536.010427,1279.28677 536.797292,1280.62454 C537.347536,1281.56205 538.084757,1282.01495 539.123877,1282.01495 C539.619266,1282.01495 540.075437,1281.93073 540.460986,1281.70942 L549.174083,1276.77952 L549.174083,1288.28235 C549.174083,1289.80973 550.362263,1291 551.896772,1291 C553.431281,1291 554.669103,1289.80973 554.669103,1288.28235 L554.669103,1276.96913 L563.084472,1281.70942 C563.469761,1281.9306 563.926061,1282.01495 564.371938,1282.01495 C565.46057,1282.01495 566.263331,1281.57257 566.797679,1280.62454 C567.549624,1279.2973 567.063876,1277.63282 565.708786,1276.87452 L554.669103,1270.70185 L554.669103,1250.16121 L572.193543,1260.28403 L572.095299,1273.21937 C572.08253,1274.75727 573.283478,1276.03189 574.817987,1276.03189 C576.352496,1276.03189 577.517352,1274.85214 577.540545,1273.32476 L577.688432,1263.39155 L587.58971,1269.17448 C587.972001,1269.39566 588.480942,1269.46948 589.025975,1269.46948 C590.065355,1269.46948 590.827723,1269.03763 591.352429,1268.18434 C592.164962,1266.86762 591.646249,1265.17169 590.362171,1264.43432 Z" id="Shape-Copy-13" fill="#FFFFFF" fill-rule="nonzero" opacity="0.300000012"></path>
                <path d="M178.065424,1162.63374 L171.394078,1158.78893 L177.026283,1155.44345 C177.931748,1155.00836 178.211982,1153.79566 177.697044,1152.9041 C177.172841,1151.99105 176.041406,1151.7985 175.182528,1152.29775 L167.673128,1156.68466 L155.738576,1149.7583 L167.67304,1142.90331 L175.18244,1147.2831 C175.416968,1147.45427 175.718731,1147.55415 176.054288,1147.55415 C176.690726,1147.55415 177.260811,1147.25459 177.696955,1146.68388 C178.199806,1145.77797 177.93166,1144.57961 177.026194,1144.14452 L171.39399,1140.79905 L178.065336,1136.95433 C178.93489,1136.45499 179.233917,1135.33505 178.736097,1134.41488 C178.260599,1133.53035 177.084076,1133.22366 176.187964,1133.74438 L169.483001,1137.62483 L169.382854,1130.93388 C169.367148,1129.89957 168.578241,1129.06494 167.5391,1129.06494 C166.500135,1129.06494 165.68758,1129.96372 165.695433,1130.93388 L165.761962,1139.76474 L153.894733,1146.61973 L153.894733,1132.70998 L161.370604,1128.45859 C162.243335,1127.96638 162.623627,1126.81793 162.107982,1125.91923 C161.584397,1125.00619 160.509609,1124.73505 159.593467,1125.24873 L153.894733,1128.45868 L153.894733,1120.86885 C153.894733,1119.83454 153.056503,1119 152.017361,1119 C150.97822,1119 150.173607,1119.83454 150.173607,1120.86885 L150.173607,1128.52987 L144.273257,1125.24864 C143.354203,1124.74218 142.307915,1125.02749 141.792271,1125.91914 C141.268774,1126.83219 141.594184,1127.95213 142.496032,1128.4585 L150.173607,1132.77413 L150.173607,1146.54835 L138.037615,1139.56497 L138.10485,1130.93379 C138.205702,1129.96372 137.333854,1129.06485 136.294713,1129.06485 L136.227478,1129.06485 C135.255483,1129.06485 134.394488,1129.89948 134.383723,1130.93379 L134.316488,1137.42497 L127.779701,1133.68005 C126.867088,1133.1522 125.740683,1133.46602 125.265097,1134.34342 C124.767276,1135.27072 125.024745,1136.36215 125.935946,1136.89 L132.539969,1140.69908 L126.773471,1144.14443 C125.868623,1144.57961 125.586095,1145.79222 126.136857,1146.68388 C126.491561,1147.26171 127.007999,1147.55415 127.712378,1147.55415 C128.08067,1147.55415 128.387462,1147.4614 128.684284,1147.2831 L136.22739,1142.83907 L148.329852,1149.7583 L136.22739,1156.74882 L128.684284,1152.29775 C127.778818,1151.7699 126.611648,1152.01957 126.136769,1152.9041 C125.638948,1153.82427 125.909299,1154.92995 126.773295,1155.44345 L132.53988,1158.85308 L125.93577,1162.69789 C125.026775,1163.22574 124.73207,1164.33855 125.26492,1165.24447 C125.637624,1165.8722 126.136857,1166.17898 126.840618,1166.17898 C127.007999,1166.17898 127.34338,1166.0791 127.779701,1165.90793 L134.316488,1162.163 L134.383723,1168.65418 C134.394488,1169.6885 135.255483,1170.4874 136.227478,1170.4874 L136.294713,1170.4874 C137.333854,1170.4874 138.112703,1169.62425 138.10485,1168.58281 L138.037615,1159.95877 L150.173607,1153.03962 L150.173607,1166.74247 L142.496032,1171.05802 C141.579889,1171.57161 141.259421,1172.69155 141.792271,1173.59746 C142.164886,1174.23232 142.664119,1174.53902 143.367791,1174.53902 C143.70326,1174.53902 144.01217,1174.48199 144.273257,1174.33212 L150.173607,1170.99368 L150.173607,1178.78319 C150.173607,1179.8175 150.97822,1180.62353 152.017361,1180.62353 C153.056503,1180.62353 153.894733,1179.8175 153.894733,1178.78319 L153.894733,1171.12208 L159.593467,1174.33212 C159.854377,1174.4819 160.163375,1174.53902 160.465315,1174.53902 C161.202517,1174.53902 161.746131,1174.23945 162.107982,1173.59746 C162.617185,1172.69867 162.288246,1171.57152 161.370604,1171.05802 L153.894733,1166.878 L153.894733,1152.96825 L165.761962,1159.82324 L165.695433,1168.58281 C165.686786,1169.62425 166.500046,1170.4874 167.539188,1170.4874 C168.578329,1170.4874 169.367148,1169.6885 169.382854,1168.65418 L169.483001,1161.92759 L176.187964,1165.84369 C176.446845,1165.99347 176.79149,1166.04346 177.160576,1166.04346 C177.864425,1166.04346 178.380687,1165.75102 178.736008,1165.17318 C179.286241,1164.28153 178.934978,1163.13307 178.065424,1162.63374 Z" id="Shape-Copy-14" fill="#FFFFFF" fill-rule="nonzero" opacity="0.600000024"></path>
                <path d="M41.8429686,1123.47235 L37.3368173,1120.87538 L41.141082,1118.61568 C41.7526776,1118.3218 41.9419611,1117.50268 41.5941467,1116.90048 C41.2400745,1116.28376 40.4758483,1116.1537 39.8957205,1116.49092 L34.8235066,1119.45405 L26.7623297,1114.77565 L34.823447,1110.14546 L39.8956609,1113.10378 C40.0540726,1113.2194 40.2578981,1113.28686 40.4845496,1113.28686 C40.9144305,1113.28686 41.2994937,1113.08452 41.5940871,1112.69904 C41.9337365,1112.08714 41.752618,1111.27772 41.1410224,1110.98383 L37.3367577,1108.72414 L41.842909,1106.12723 C42.4302481,1105.78995 42.632226,1105.03349 42.2959737,1104.41196 C41.9747996,1103.81451 41.1801188,1103.60735 40.5748407,1103.95907 L36.0459824,1106.58012 L35.9783386,1102.06072 C35.9677302,1101.3621 35.4348637,1100.79835 34.7329771,1100.79835 C34.0312097,1100.79835 33.482371,1101.40543 33.4876752,1102.06072 L33.5326121,1108.02551 L25.5169085,1112.65571 L25.5169085,1103.26039 L30.5664752,1100.38879 C31.1559598,1100.05633 31.4128276,1099.28061 31.0645364,1098.67359 C30.7108814,1098.05687 29.9849171,1097.87373 29.3661102,1098.2207 L25.5169085,1100.38885 L25.5169085,1095.26232 C25.5169085,1094.56369 24.9507268,1094 24.2488402,1094 C23.5469536,1094 23.0034786,1094.56369 23.0034786,1095.26232 L23.0034786,1100.43694 L19.0180953,1098.22064 C18.3973217,1097.87855 17.6906077,1098.07126 17.3423165,1098.67353 C16.988721,1099.29024 17.2085188,1100.0467 17.8176708,1100.38873 L23.0034786,1103.30372 L23.0034786,1112.6075 L14.8062393,1107.89058 L14.851653,1102.06066 C14.9197736,1101.40543 14.330885,1100.79829 13.6289984,1100.79829 L13.5835847,1100.79829 C12.9270522,1100.79829 12.3454941,1101.36204 12.3382231,1102.06066 L12.2928094,1106.44512 L7.87754512,1103.91562 C7.26112216,1103.55908 6.50029305,1103.77105 6.17905939,1104.36369 C5.84280701,1104.99004 6.01671421,1105.72724 6.6321836,1106.08377 L11.0928616,1108.65661 L7.19788859,1110.98377 C6.58671027,1111.27772 6.39587721,1112.09677 6.76788843,1112.69904 C7.00747272,1113.08934 7.35630029,1113.28686 7.83207178,1113.28686 C8.08083417,1113.28686 8.2880567,1113.22421 8.48854465,1113.10378 L13.5835251,1110.10207 L21.7581171,1114.77565 L13.5835251,1119.49739 L8.48854465,1116.49092 C7.87694914,1116.13438 7.08858571,1116.30302 6.76782884,1116.90048 C6.43157646,1117.522 6.61418498,1118.26884 7.1977694,1118.61568 L11.092802,1120.91871 L6.63206441,1123.51568 C6.01808497,1123.87222 5.81902738,1124.62386 6.17894019,1125.23576 C6.43068249,1125.65976 6.76788843,1125.86698 7.24324273,1125.86698 C7.35630029,1125.86698 7.5828326,1125.79951 7.87754512,1125.6839 L12.2928094,1123.15439 L12.3382231,1127.53885 C12.3454941,1128.23748 12.9270522,1128.77709 13.5835847,1128.77709 L13.6289984,1128.77709 C14.330885,1128.77709 14.8569573,1128.19408 14.851653,1127.49064 L14.8062393,1121.66554 L23.0034786,1116.99202 L23.0034786,1126.24759 L17.8176708,1129.16252 C17.1988639,1129.50942 16.9824037,1130.26588 17.3423165,1130.87778 C17.5939992,1131.3066 17.9312051,1131.51375 18.4064998,1131.51375 C18.6330917,1131.51375 18.8417446,1131.47523 19.0180953,1131.374 L23.0034786,1129.11906 L23.0034786,1134.38047 C23.0034786,1135.0791 23.5469536,1135.62353 24.2488402,1135.62353 C24.9507268,1135.62353 25.5169085,1135.0791 25.5169085,1134.38047 L25.5169085,1129.20579 L29.3661102,1131.374 C29.5423418,1131.47518 29.7510543,1131.51375 29.9549989,1131.51375 C30.4529409,1131.51375 30.8201246,1131.31141 31.0645364,1130.87778 C31.4084769,1130.2707 31.1862953,1129.50936 30.5664752,1129.16252 L25.5169085,1126.33913 L25.5169085,1116.94381 L33.5326121,1121.574 L33.4876752,1127.49064 C33.4818346,1128.19408 34.0311501,1128.77709 34.7330367,1128.77709 C35.4349233,1128.77709 35.9677302,1128.23748 35.9783386,1127.53885 L36.0459824,1122.99538 L40.5748407,1125.6405 C40.7497014,1125.74167 40.9824915,1125.77544 41.2317903,1125.77544 C41.7072042,1125.77544 42.0559126,1125.57791 42.2959141,1125.18761 C42.6675677,1124.58535 42.4303077,1123.80962 41.8429686,1123.47235 Z" id="Shape-Copy-14" fill="#FFFFFF" fill-rule="nonzero" opacity="0.600000024"></path>
                <path d="M330.47277,1323.27926 L325.384563,1320.34684 L329.680221,1317.79526 C330.370816,1317.46342 330.584549,1316.5385 330.191808,1315.85851 C329.792,1315.16213 328.92906,1315.01527 328.273998,1315.39605 L322.546611,1318.74193 L313.444179,1313.45922 L322.546543,1308.23095 L328.27393,1311.5714 C328.452804,1311.70195 328.682957,1311.77813 328.938885,1311.77813 C329.424293,1311.77813 329.859095,1311.54965 330.19174,1311.11438 C330.575262,1310.42344 330.370749,1309.50946 329.680154,1309.17762 L325.384496,1306.62604 L330.472703,1303.69369 C331.135908,1303.31285 331.363975,1302.45867 330.984289,1301.75686 C330.621629,1301.08224 329.7243,1300.84832 329.040839,1301.24547 L323.926993,1304.20508 L323.850611,1299.10192 C323.838633,1298.31305 323.236936,1297.67648 322.444388,1297.67648 C321.651974,1297.67648 321.032242,1298.36198 321.038231,1299.10192 L321.088973,1305.83717 L312.037889,1311.06545 L312.037889,1300.45654 L317.739703,1297.21403 C318.405331,1296.83862 318.695378,1295.9627 318.302098,1295.27727 C317.902762,1294.58089 317.083025,1294.3741 316.384288,1294.76588 L312.037889,1297.21409 L312.037889,1291.42537 C312.037889,1290.6365 311.398574,1290 310.606025,1290 C309.813476,1290 309.199801,1290.6365 309.199801,1291.42537 L309.199801,1297.26839 L304.69963,1294.76581 C303.998672,1294.37953 303.200672,1294.59714 302.807392,1295.2772 C302.408123,1295.97357 302.656312,1296.82775 303.344148,1297.21396 L309.199801,1300.50547 L309.199801,1311.01101 L299.943733,1305.68481 L299.995012,1299.10185 C300.071932,1298.36198 299.406977,1297.67642 298.614429,1297.67642 C297.821813,1297.67642 297.165135,1298.31299 297.156925,1299.10185 L297.105645,1304.05265 L292.120066,1301.19641 C291.42402,1300.79382 290.564915,1301.03317 290.202188,1301.70236 C289.822503,1302.40961 290.018873,1303.24203 290.713842,1303.64462 L295.750702,1306.54979 L291.352619,1309.17755 C290.662495,1309.50946 290.447012,1310.43431 290.867076,1311.11438 C291.137607,1311.55509 291.531492,1311.77813 292.068719,1311.77813 C292.349613,1311.77813 292.583603,1311.70738 292.809988,1311.5714 L298.563082,1308.18196 L307.793578,1313.45922 L298.563082,1318.79086 L292.809988,1315.39605 C292.119393,1314.99346 291.229197,1315.18388 290.867009,1315.85851 C290.487323,1316.56032 290.693519,1317.40362 291.352484,1317.79526 L295.750634,1320.39577 L290.713708,1323.32819 C290.020421,1323.73078 289.795651,1324.57952 290.202054,1325.27045 C290.486313,1325.74922 290.867076,1325.98321 291.403831,1325.98321 C291.531492,1325.98321 291.787286,1325.90702 292.120066,1325.77648 L297.105645,1322.92024 L297.156925,1327.87103 C297.165135,1328.6599 297.821813,1329.26922 298.563149,1329.26922 C299.406977,1329.26922 300.001002,1328.6109 299.995012,1327.8166 L299.943733,1321.23907 L309.199801,1315.96187 L309.199801,1326.41298 L303.344148,1329.70442 C302.64541,1330.09614 302.40099,1330.95031 302.807392,1331.64125 C303.091585,1332.12545 303.472347,1332.35937 304.009035,1332.35937 C304.264896,1332.35937 304.5005,1332.31587 304.69963,1332.20157 L309.199801,1329.65536 L309.199801,1335.59638 C309.199801,1336.38524 309.813476,1337 310.606025,1337 C311.398574,1337 312.037889,1336.38524 312.037889,1335.59638 L312.037889,1329.75329 L316.384288,1332.20157 C316.583283,1332.31581 316.818955,1332.35937 317.049243,1332.35937 C317.611503,1332.35937 318.026116,1332.13089 318.302098,1331.64125 C318.690465,1330.95575 318.439584,1330.09607 317.739703,1329.70442 L312.037889,1326.51634 L312.037889,1315.90744 L321.088973,1321.13571 L321.038231,1327.8166 C321.031636,1328.6109 321.651906,1329.26922 322.444455,1329.26922 C323.237004,1329.26922 323.838633,1328.6599 323.850611,1327.87103 L323.926993,1322.74069 L329.040839,1325.72748 C329.238286,1325.84172 329.501146,1325.87984 329.782646,1325.87984 C330.319469,1325.87984 330.71322,1325.6568 330.984222,1325.21609 C331.403882,1324.53602 331.135975,1323.6601 330.47277,1323.27926 Z" id="Shape-Copy-15" fill="#FFFFFF" fill-rule="nonzero" opacity="0.300000012"></path>
            </g>
        </g>
    </g>
</svg>