<?xml version="1.0" encoding="UTF-8"?>
<svg width="874px" height="2197px" viewBox="0 0 874 2197" version="1.1" xmlns="http://www.w3.org/2000/svg" xmlns:xlink="http://www.w3.org/1999/xlink">
    <!-- Generator: Sketch 49 (51002) - http://www.bohemiancoding.com/sketch -->
    <title> snow shower</title>
    <desc>Created with Sketch.</desc>
    <defs>
        <linearGradient x1="0%" y1="0%" x2="95.6368737%" y2="95.6368737%" id="linearGradient-1">
            <stop stop-color="#C4F0F5" offset="0%"></stop>
            <stop stop-color="#4D9ECA" offset="100%"></stop>
        </linearGradient>
        <linearGradient x1="0%" y1="0%" x2="93.7646471%" y2="93.7646471%" id="linearGradient-2">
            <stop stop-color="#B1E5EB" offset="0%"></stop>
            <stop stop-color="#309FDC" offset="100%"></stop>
        </linearGradient>
        <rect id="path-3" x="0" y="0" width="874" height="2197"></rect>
    </defs>
    <g id="Page-1" stroke="none" stroke-width="1" fill="none" fill-rule="evenodd">
        <g id="-snow-shower">
            <g id="Group-14-Copy" transform="translate(53.000000, 759.000000)" fill="#FFFFFF">
                <circle id="Oval-6" opacity="0.699999988" cx="9.5" cy="419.5" r="9.5"></circle>
                <circle id="Oval-6-Copy-3" opacity="0.300000012" cx="78.5" cy="631.5" r="4.5"></circle>
                <circle id="Oval-6" cx="404" cy="284" r="4"></circle>
                <circle id="Oval-6" opacity="0.600000024" cx="607" cy="417" r="7"></circle>
                <circle id="Oval-6-Copy" opacity="0.400000006" cx="759" cy="620" r="7"></circle>
                <circle id="Oval-6-Copy-2" opacity="0.400000006" cx="654" cy="249" r="7"></circle>
                <circle id="Oval-6" opacity="0.900000036" cx="406.5" cy="526.5" r="6.5"></circle>
                <circle id="Oval-6" opacity="0.699999988" cx="626.5" cy="6.5" r="6.5"></circle>
                <circle id="Oval-6" opacity="0.300000012" cx="190.5" cy="127.5" r="5.5"></circle>
            </g>
            <g id="Group-24-Copy-3">
                <g id="night-rainy-copy-3">
                    <g id="Group-5-Copy-3">
                        <g id="with-content-copy-7">
                            <g id="Shape">
                                <g id="fluffy-cloud-silhouette">
                                    <mask id="mask-4" fill="white">
                                        <use xlink:href="#path-3"></use>
                                    </mask>
                                    <use id="Mask" fill="url(#linearGradient-2)" xlink:href="#path-3"></use>
                                    <g mask="url(#mask-4)" id="Group">
                                        <g transform="translate(-57.000000, 182.000000)">
                                            <g>
                                                <path d="M634.129311,271.070416 C614.79149,246.994605 590.257802,231.505628 560.558489,224.597433 C570.006621,210.082719 574.717379,194.188303 574.717379,176.914184 C574.717379,152.494658 566.080989,131.649046 548.817885,114.370086 C531.551153,97.0971772 510.713244,88.4570921 486.30416,88.4570921 C464.200855,88.4570921 445.086837,95.5988685 428.974204,109.882421 C415.394784,77.1713667 393.800783,50.679866 364.217606,30.4079196 C334.627171,10.1408143 301.639764,0 265.257804,0 C216.445684,0 174.766238,17.2813805 140.226724,51.8356696 C105.684791,86.3814868 88.4192681,128.081183 88.4192681,176.917815 C88.4192681,180.374333 88.65033,185.323109 89.1100342,191.773823 C62.4012189,204.214142 40.8701248,223.044662 24.5228007,248.276277 C8.17668641,273.493368 0,301.31495 0,331.72287 C0,374.337527 15.1424151,410.793143 45.4187771,441.081246 C75.6963489,471.377821 112.136377,486.524294 154.734022,486.524294 L530.525287,486.524294 C567.13105,486.524294 598.387308,473.556299 624.29527,447.649357 C650.199603,421.735153 663.153584,390.465524 663.153584,353.83563 C663.149955,322.739069 653.474391,295.138965 634.129311,271.070416 Z" id="Shape" fill="#FFFFFF" fill-rule="nonzero" opacity="0.300000012"></path>
                                                <path d="M552.444377,278.833045 C537.503458,260.231428 518.548073,248.264229 495.601588,242.926772 C502.901468,231.712315 506.541126,219.431863 506.541126,206.085416 C506.541126,187.218235 499.868419,171.112356 486.530483,157.762169 C473.189742,144.416656 457.089815,137.741095 438.230702,137.741095 C421.153097,137.741095 406.385094,143.259023 393.936042,154.294879 C383.444217,129.021441 366.760113,108.553397 343.903358,92.8907481 C321.040995,77.2318392 295.554039,69.3967742 267.444362,69.3967742 C229.730809,69.3967742 197.528152,82.7488321 170.841997,109.446402 C144.153973,136.137427 130.814168,168.35573 130.814168,206.088221 C130.814168,208.75882 130.992692,212.582376 131.347872,217.566372 C110.711925,227.178095 94.0764248,241.72706 81.4460439,261.221682 C68.8165978,280.705082 62.4990706,302.200783 62.4990706,325.694757 C62.4990706,358.619983 74.1985065,386.78657 97.5908355,410.18797 C120.984099,433.595917 149.138642,445.298487 182.050724,445.298487 L472.39713,445.298487 C500.679725,445.298487 524.829147,435.279067 544.846334,415.262669 C564.860716,395.24066 574.869309,371.080907 574.869309,342.779668 C574.866505,318.753632 567.390904,297.429052 552.444377,278.833045 Z" id="Shape" fill="#FFFFFF" fill-rule="nonzero" opacity="0.5"></path>
                                                <path d="M463.717692,288.625306 C452.739147,274.95689 438.810783,266.163426 421.94977,262.241477 C427.313701,254.001126 429.988112,244.977484 429.988112,235.170552 C429.988112,221.307 425.085025,209.472445 415.284347,199.662765 C405.481608,189.856519 393.651427,184.951335 379.793803,184.951335 C367.245226,184.951335 356.393739,189.005894 347.24621,197.11501 C339.536847,178.544158 327.277414,163.504297 310.482334,151.995426 C293.683133,140.489303 274.955389,134.732119 254.300477,134.732119 C226.588664,134.732119 202.926241,144.543174 183.317329,164.160474 C163.707044,183.772965 153.904992,207.446884 153.904992,235.172613 C153.904992,237.134961 154.036171,239.9445 154.297156,243.606726 C139.13392,250.669394 126.910201,261.359932 117.629432,275.684526 C108.34935,290.000874 103.707249,305.795855 103.707249,323.059161 C103.707249,347.252526 112.303962,367.949255 129.49258,385.144539 C146.681885,402.344632 167.369764,410.943648 191.55347,410.943648 L404.899199,410.943648 C425.68117,410.943648 443.426099,403.581406 458.134671,388.873413 C472.841183,374.161297 480.195469,356.408777 480.195469,335.613106 C480.193409,317.958842 474.700359,302.2896 463.717692,288.625306 Z" id="Shape" fill="#FFFFFF" fill-rule="nonzero"></path>
                                            </g>
                                        </g>
                                    </g>
                                </g>
                            </g>
                        </g>
                    </g>
                </g>
                <path d="M592.065424,838.633738 L585.394078,834.788928 L591.026283,831.443453 C591.931748,831.008361 592.211982,829.795665 591.697044,828.904096 C591.172841,827.991053 590.041406,827.798501 589.182528,828.297748 L581.673128,832.684663 L569.738576,825.758302 L581.67304,818.903313 L589.18244,823.2831 C589.416968,823.454268 589.718731,823.554152 590.054288,823.554152 C590.690726,823.554152 591.260811,823.254586 591.696955,822.68388 C592.199806,821.777966 591.93166,820.579615 591.026194,820.144523 L585.39399,816.799048 L592.065336,812.954326 C592.93489,812.454991 593.233917,811.335051 592.736097,810.414881 C592.260599,809.530352 591.084076,809.223658 590.187964,809.744378 L583.483001,813.624829 L583.382854,806.93388 C583.367148,805.899568 582.578241,805.064937 581.5391,805.064937 C580.500135,805.064937 579.68758,805.963723 579.695433,806.93388 L579.761962,815.764736 L567.894733,822.619725 L567.894733,808.709978 L575.370604,804.458589 C576.243335,803.966383 576.623627,802.817929 576.107982,801.919232 C575.584397,801.00619 574.509609,800.735049 573.593467,801.248729 L567.894733,804.458677 L567.894733,796.868854 C567.894733,795.834543 567.056503,795 566.017361,795 C564.97822,795 564.173607,795.834543 564.173607,796.868854 L564.173607,804.529873 L558.273257,801.248641 C557.354203,800.742178 556.307915,801.027487 555.792271,801.919144 C555.268774,802.832186 555.594184,803.952126 556.496032,804.458501 L564.173607,808.774133 L564.173607,822.548354 L552.037615,815.564967 L552.10485,806.933792 C552.205702,805.963723 551.333854,805.064849 550.294713,805.064849 L550.227478,805.064849 C549.255483,805.064849 548.394488,805.89948 548.383723,806.933792 L548.316488,813.424972 L541.779701,809.680047 C540.867088,809.152198 539.740683,809.466021 539.265097,810.343421 C538.767276,811.27072 539.024745,812.362147 539.935946,812.889995 L546.539969,816.699075 L540.773471,820.144435 C539.868623,820.579615 539.586095,821.792223 540.136857,822.68388 C540.491561,823.261715 541.007999,823.554152 541.712378,823.554152 C542.08067,823.554152 542.387462,823.461396 542.684284,823.2831 L550.22739,818.83907 L562.329852,825.758302 L550.22739,832.748817 L542.684284,828.297748 C541.778818,827.769899 540.611648,828.019567 540.136769,828.904096 C539.638948,829.824266 539.909299,830.929949 540.773295,831.443453 L546.53988,834.853083 L539.93577,838.697893 C539.026775,839.225741 538.73207,840.338552 539.26492,841.244466 C539.637624,841.872199 540.136857,842.178982 540.840618,842.178982 C541.007999,842.178982 541.34338,842.079097 541.779701,841.907929 L548.316488,838.163004 L548.383723,844.654184 C548.394488,845.688496 549.255483,846.487397 550.227478,846.487397 L550.294713,846.487397 C551.333854,846.487397 552.112703,845.624253 552.10485,844.582813 L552.037615,835.958766 L564.173607,829.039622 L564.173607,842.742472 L556.496032,847.058015 C555.579889,847.571607 555.259421,848.691547 555.792271,849.597461 C556.164886,850.232322 556.664119,850.539016 557.367791,850.539016 C557.70326,850.539016 558.01217,850.481989 558.273257,850.332119 L564.173607,846.993684 L564.173607,854.783188 C564.173607,855.8175 564.97822,856.623529 566.017361,856.623529 C567.056503,856.623529 567.894733,855.8175 567.894733,854.783188 L567.894733,847.122082 L573.593467,850.332119 C573.854377,850.481901 574.163375,850.539016 574.465315,850.539016 C575.202517,850.539016 575.746131,850.23945 576.107982,849.597461 C576.617185,848.698675 576.288246,847.571519 575.370604,847.058015 L567.894733,842.877998 L567.894733,828.968251 L579.761962,835.82324 L579.695433,844.582813 C579.686786,845.624253 580.500046,846.487397 581.539188,846.487397 C582.578329,846.487397 583.367148,845.688496 583.382854,844.654184 L583.483001,837.927593 L590.187964,841.843686 C590.446845,841.993469 590.79149,842.043455 591.160576,842.043455 C591.864425,842.043455 592.380687,841.751018 592.736008,841.173183 C593.286241,840.281526 592.934978,839.133073 592.065424,838.633738 Z" id="Shape" fill="#FFFFFF" fill-rule="nonzero" opacity="0.200000003"></path>
                <path d="M362.065424,778.633738 L355.394078,774.788928 L361.026283,771.443453 C361.931748,771.008361 362.211982,769.795665 361.697044,768.904096 C361.172841,767.991053 360.041406,767.798501 359.182528,768.297748 L351.673128,772.684663 L339.738576,765.758302 L351.67304,758.903313 L359.18244,763.2831 C359.416968,763.454268 359.718731,763.554152 360.054288,763.554152 C360.690726,763.554152 361.260811,763.254586 361.696955,762.68388 C362.199806,761.777966 361.93166,760.579615 361.026194,760.144523 L355.39399,756.799048 L362.065336,752.954326 C362.93489,752.454991 363.233917,751.335051 362.736097,750.414881 C362.260599,749.530352 361.084076,749.223658 360.187964,749.744378 L353.483001,753.624829 L353.382854,746.93388 C353.367148,745.899568 352.578241,745.064937 351.5391,745.064937 C350.500135,745.064937 349.68758,745.963723 349.695433,746.93388 L349.761962,755.764736 L337.894733,762.619725 L337.894733,748.709978 L345.370604,744.458589 C346.243335,743.966383 346.623627,742.817929 346.107982,741.919232 C345.584397,741.00619 344.509609,740.735049 343.593467,741.248729 L337.894733,744.458677 L337.894733,736.868854 C337.894733,735.834543 337.056503,735 336.017361,735 C334.97822,735 334.173607,735.834543 334.173607,736.868854 L334.173607,744.529873 L328.273257,741.248641 C327.354203,740.742178 326.307915,741.027487 325.792271,741.919144 C325.268774,742.832186 325.594184,743.952126 326.496032,744.458501 L334.173607,748.774133 L334.173607,762.548354 L322.037615,755.564967 L322.10485,746.933792 C322.205702,745.963723 321.333854,745.064849 320.294713,745.064849 L320.227478,745.064849 C319.255483,745.064849 318.394488,745.89948 318.383723,746.933792 L318.316488,753.424972 L311.779701,749.680047 C310.867088,749.152198 309.740683,749.466021 309.265097,750.343421 C308.767276,751.27072 309.024745,752.362147 309.935946,752.889995 L316.539969,756.699075 L310.773471,760.144435 C309.868623,760.579615 309.586095,761.792223 310.136857,762.68388 C310.491561,763.261715 311.007999,763.554152 311.712378,763.554152 C312.08067,763.554152 312.387462,763.461396 312.684284,763.2831 L320.22739,758.83907 L332.329852,765.758302 L320.22739,772.748817 L312.684284,768.297748 C311.778818,767.769899 310.611648,768.019567 310.136769,768.904096 C309.638948,769.824266 309.909299,770.929949 310.773295,771.443453 L316.53988,774.853083 L309.93577,778.697893 C309.026775,779.225741 308.73207,780.338552 309.26492,781.244466 C309.637624,781.872199 310.136857,782.178982 310.840618,782.178982 C311.007999,782.178982 311.34338,782.079097 311.779701,781.907929 L318.316488,778.163004 L318.383723,784.654184 C318.394488,785.688496 319.255483,786.487397 320.227478,786.487397 L320.294713,786.487397 C321.333854,786.487397 322.112703,785.624253 322.10485,784.582813 L322.037615,775.958766 L334.173607,769.039622 L334.173607,782.742472 L326.496032,787.058015 C325.579889,787.571607 325.259421,788.691547 325.792271,789.597461 C326.164886,790.232322 326.664119,790.539016 327.367791,790.539016 C327.70326,790.539016 328.01217,790.481989 328.273257,790.332119 L334.173607,786.993684 L334.173607,794.783188 C334.173607,795.8175 334.97822,796.623529 336.017361,796.623529 C337.056503,796.623529 337.894733,795.8175 337.894733,794.783188 L337.894733,787.122082 L343.593467,790.332119 C343.854377,790.481901 344.163375,790.539016 344.465315,790.539016 C345.202517,790.539016 345.746131,790.23945 346.107982,789.597461 C346.617185,788.698675 346.288246,787.571519 345.370604,787.058015 L337.894733,782.877998 L337.894733,768.968251 L349.761962,775.82324 L349.695433,784.582813 C349.686786,785.624253 350.500046,786.487397 351.539188,786.487397 C352.578329,786.487397 353.367148,785.688496 353.382854,784.654184 L353.483001,777.927593 L360.187964,781.843686 C360.446845,781.993469 360.79149,782.043455 361.160576,782.043455 C361.864425,782.043455 362.380687,781.751018 362.736008,781.173183 C363.286241,780.281526 362.934978,779.133073 362.065424,778.633738 Z" id="Shape" fill="#FFFFFF" fill-rule="nonzero" opacity="0.400000006"></path>
                <path d="M502.362171,1189.43432 L492.510538,1183.75665 L500.827662,1178.81636 C502.164771,1178.17386 502.578595,1176.38306 501.818181,1175.06647 C501.044086,1173.71817 499.373286,1173.43383 498.104974,1174.17107 L487.015778,1180.64927 L469.391922,1170.42105 L487.015648,1160.29823 L498.104844,1166.7659 C498.451173,1167.01866 498.89679,1167.16616 499.392309,1167.16616 C500.332143,1167.16616 501.173992,1166.72379 501.818051,1165.88103 C502.560614,1164.54325 502.164641,1162.77364 500.827532,1162.13113 L492.510407,1157.19084 L502.362041,1151.51331 C503.646119,1150.77594 504.087696,1149.12211 503.35256,1147.76329 C502.650389,1146.4571 500.913007,1146.0042 499.58971,1146.77315 L489.688432,1152.50345 L489.540545,1142.62286 C489.517352,1141.09549 488.352366,1139.86298 486.817857,1139.86298 C485.283609,1139.86298 484.083702,1141.19022 484.095299,1142.62286 L484.193543,1155.66347 L466.669103,1165.78629 L466.669103,1145.24564 L477.708786,1138.96758 C478.997555,1138.24073 479.559135,1136.5448 478.797679,1135.21769 C478.024496,1133.86939 476.437347,1133.469 475.084472,1134.22755 L466.669103,1138.96771 L466.669103,1127.75975 C466.669103,1126.23238 465.431281,1125 463.896772,1125 C462.362263,1125 461.174083,1126.23238 461.174083,1127.75975 L461.174083,1139.07285 L452.460986,1134.22742 C451.103811,1133.47952 449.558748,1133.90084 448.797292,1135.21756 C448.024239,1136.56586 448.504775,1138.21968 449.836541,1138.96745 L461.174083,1145.34038 L461.174083,1165.68089 L443.252759,1155.36846 L443.352045,1142.62273 C443.500975,1141.19022 442.213509,1139.86285 440.679,1139.86285 C439.144361,1139.86285 437.872922,1141.09536 437.857025,1142.62273 L437.757739,1152.20832 L428.104808,1146.67815 C426.757145,1145.89867 425.093772,1146.3621 424.391471,1147.65776 C423.656335,1149.02711 424.036542,1150.63883 425.38212,1151.41831 L435.134337,1157.04321 L426.6189,1162.131 C425.282703,1162.77364 424.865492,1164.56431 425.678806,1165.88103 C426.202601,1166.73432 426.96523,1167.16616 428.005392,1167.16616 C428.549252,1167.16616 429.002295,1167.02919 429.440614,1166.7659 L440.579583,1160.20336 L458.451395,1170.42105 L440.579583,1180.74401 L429.440614,1174.17107 C428.103505,1173.39159 426.379935,1173.76028 425.678676,1175.06647 C424.94354,1176.4253 425.34277,1178.05807 426.618639,1178.81636 L435.134207,1183.85139 L425.381859,1189.52906 C424.039539,1190.30853 423.604346,1191.95183 424.39121,1193.2896 C424.941585,1194.21658 425.678806,1194.66961 426.718056,1194.66961 C426.96523,1194.66961 427.460489,1194.52211 428.104808,1194.26935 L437.757739,1188.73918 L437.857025,1198.32476 C437.872922,1199.85214 439.144361,1201.03189 440.579714,1201.03189 C442.213509,1201.03189 443.363642,1199.75727 443.352045,1198.21937 L443.252759,1185.48416 L461.174083,1175.2666 L461.174083,1195.50172 L449.836541,1201.87452 C448.483667,1202.63295 448.010427,1204.28677 448.797292,1205.62454 C449.347536,1206.56205 450.084757,1207.01495 451.123877,1207.01495 C451.619266,1207.01495 452.075437,1206.93073 452.460986,1206.70942 L461.174083,1201.77952 L461.174083,1213.28235 C461.174083,1214.80973 462.362263,1216 463.896772,1216 C465.431281,1216 466.669103,1214.80973 466.669103,1213.28235 L466.669103,1201.96913 L475.084472,1206.70942 C475.469761,1206.9306 475.926061,1207.01495 476.371938,1207.01495 C477.46057,1207.01495 478.263331,1206.57257 478.797679,1205.62454 C479.549624,1204.2973 479.063876,1202.63282 477.708786,1201.87452 L466.669103,1195.70185 L466.669103,1175.16121 L484.193543,1185.28403 L484.095299,1198.21937 C484.08253,1199.75727 485.283478,1201.03189 486.817987,1201.03189 C488.352496,1201.03189 489.517352,1199.85214 489.540545,1198.32476 L489.688432,1188.39155 L499.58971,1194.17448 C499.972001,1194.39566 500.480942,1194.46948 501.025975,1194.46948 C502.065355,1194.46948 502.827723,1194.03763 503.352429,1193.18434 C504.164962,1191.86762 503.646249,1190.17169 502.362171,1189.43432 Z" id="Shape-Copy-13" fill="#FFFFFF" fill-rule="nonzero" opacity="0.100000001"></path>
                <path d="M270.065424,1031.63374 L263.394078,1027.78893 L269.026283,1024.44345 C269.931748,1024.00836 270.211982,1022.79566 269.697044,1021.9041 C269.172841,1020.99105 268.041406,1020.7985 267.182528,1021.29775 L259.673128,1025.68466 L247.738576,1018.7583 L259.67304,1011.90331 L267.18244,1016.2831 C267.416968,1016.45427 267.718731,1016.55415 268.054288,1016.55415 C268.690726,1016.55415 269.260811,1016.25459 269.696955,1015.68388 C270.199806,1014.77797 269.93166,1013.57961 269.026194,1013.14452 L263.39399,1009.79905 L270.065336,1005.95433 C270.93489,1005.45499 271.233917,1004.33505 270.736097,1003.41488 C270.260599,1002.53035 269.084076,1002.22366 268.187964,1002.74438 L261.483001,1006.62483 L261.382854,999.93388 C261.367148,998.899568 260.578241,998.064937 259.5391,998.064937 C258.500135,998.064937 257.68758,998.963723 257.695433,999.93388 L257.761962,1008.76474 L245.894733,1015.61973 L245.894733,1001.70998 L253.370604,997.458589 C254.243335,996.966383 254.623627,995.817929 254.107982,994.919232 C253.584397,994.00619 252.509609,993.735049 251.593467,994.248729 L245.894733,997.458677 L245.894733,989.868854 C245.894733,988.834543 245.056503,988 244.017361,988 C242.97822,988 242.173607,988.834543 242.173607,989.868854 L242.173607,997.529873 L236.273257,994.248641 C235.354203,993.742178 234.307915,994.027487 233.792271,994.919144 C233.268774,995.832186 233.594184,996.952126 234.496032,997.458501 L242.173607,1001.77413 L242.173607,1015.54835 L230.037615,1008.56497 L230.10485,999.933792 C230.205702,998.963723 229.333854,998.064849 228.294713,998.064849 L228.227478,998.064849 C227.255483,998.064849 226.394488,998.89948 226.383723,999.933792 L226.316488,1006.42497 L219.779701,1002.68005 C218.867088,1002.1522 217.740683,1002.46602 217.265097,1003.34342 C216.767276,1004.27072 217.024745,1005.36215 217.935946,1005.89 L224.539969,1009.69908 L218.773471,1013.14443 C217.868623,1013.57961 217.586095,1014.79222 218.136857,1015.68388 C218.491561,1016.26171 219.007999,1016.55415 219.712378,1016.55415 C220.08067,1016.55415 220.387462,1016.4614 220.684284,1016.2831 L228.22739,1011.83907 L240.329852,1018.7583 L228.22739,1025.74882 L220.684284,1021.29775 C219.778818,1020.7699 218.611648,1021.01957 218.136769,1021.9041 C217.638948,1022.82427 217.909299,1023.92995 218.773295,1024.44345 L224.53988,1027.85308 L217.93577,1031.69789 C217.026775,1032.22574 216.73207,1033.33855 217.26492,1034.24447 C217.637624,1034.8722 218.136857,1035.17898 218.840618,1035.17898 C219.007999,1035.17898 219.34338,1035.0791 219.779701,1034.90793 L226.316488,1031.163 L226.383723,1037.65418 C226.394488,1038.6885 227.255483,1039.4874 228.227478,1039.4874 L228.294713,1039.4874 C229.333854,1039.4874 230.112703,1038.62425 230.10485,1037.58281 L230.037615,1028.95877 L242.173607,1022.03962 L242.173607,1035.74247 L234.496032,1040.05802 C233.579889,1040.57161 233.259421,1041.69155 233.792271,1042.59746 C234.164886,1043.23232 234.664119,1043.53902 235.367791,1043.53902 C235.70326,1043.53902 236.01217,1043.48199 236.273257,1043.33212 L242.173607,1039.99368 L242.173607,1047.78319 C242.173607,1048.8175 242.97822,1049.62353 244.017361,1049.62353 C245.056503,1049.62353 245.894733,1048.8175 245.894733,1047.78319 L245.894733,1040.12208 L251.593467,1043.33212 C251.854377,1043.4819 252.163375,1043.53902 252.465315,1043.53902 C253.202517,1043.53902 253.746131,1043.23945 254.107982,1042.59746 C254.617185,1041.69867 254.288246,1040.57152 253.370604,1040.05802 L245.894733,1035.878 L245.894733,1021.96825 L257.761962,1028.82324 L257.695433,1037.58281 C257.686786,1038.62425 258.500046,1039.4874 259.539188,1039.4874 C260.578329,1039.4874 261.367148,1038.6885 261.382854,1037.65418 L261.483001,1030.92759 L268.187964,1034.84369 C268.446845,1034.99347 268.79149,1035.04346 269.160576,1035.04346 C269.864425,1035.04346 270.380687,1034.75102 270.736008,1034.17318 C271.286241,1033.28153 270.934978,1032.13307 270.065424,1031.63374 Z" id="Shape-Copy-14" fill="#FFFFFF" fill-rule="nonzero" opacity="0.600000024"></path>
                <path d="M143.842969,792.472349 L139.336817,789.875377 L143.141082,787.615681 C143.752678,787.321799 143.941961,786.502685 143.594147,785.900475 C143.240074,785.283762 142.475848,785.153703 141.895721,785.490919 L136.823507,788.454054 L128.76233,783.775654 L136.823447,779.145461 L141.895661,782.103781 C142.054073,782.219397 142.257898,782.286863 142.48455,782.286863 C142.914431,782.286863 143.299494,782.084522 143.594087,781.699039 C143.933737,781.087141 143.752618,780.277716 143.141022,779.983834 L139.336758,777.724137 L143.842909,775.127225 C144.430248,774.78995 144.632226,774.033488 144.295974,773.41196 C143.9748,772.814506 143.180119,772.60735 142.574841,772.95907 L138.045982,775.580116 L137.978339,771.060723 C137.96773,770.362098 137.434864,769.798348 136.732977,769.798348 C136.03121,769.798348 135.482371,770.405432 135.487675,771.060723 L135.532612,777.025513 L127.516909,781.655706 L127.516909,772.260386 L132.566475,769.388791 C133.15596,769.056331 133.412828,768.28061 133.064536,767.673586 C132.710881,767.056873 131.984917,766.873731 131.36611,767.220695 L127.516909,769.388851 L127.516909,764.262315 C127.516909,763.563691 126.950727,763 126.24884,763 C125.546954,763 125.003479,763.563691 125.003479,764.262315 L125.003479,769.43694 L121.018095,767.220636 C120.397322,766.878546 119.690608,767.071258 119.342316,767.673526 C118.988721,768.29024 119.208519,769.046701 119.817671,769.388732 L125.003479,772.303719 L125.003479,781.607498 L116.806239,776.890579 L116.851653,771.060663 C116.919774,770.405432 116.330885,769.798289 115.628998,769.798289 L115.583585,769.798289 C114.927052,769.798289 114.345494,770.362039 114.338223,771.060663 L114.292809,775.445122 L109.877545,772.915618 C109.261122,772.559083 108.500293,772.771054 108.179059,773.363693 C107.842807,773.990036 108.016714,774.727239 108.632184,775.083773 L113.092862,777.656611 L109.197889,779.983774 C108.58671,780.277716 108.395877,781.096771 108.767888,781.699039 C109.007473,782.089337 109.3563,782.286863 109.832072,782.286863 C110.080834,782.286863 110.288057,782.224211 110.488545,782.103781 L115.583525,779.102068 L123.758117,783.775654 L115.583525,788.497388 L110.488545,785.490919 C109.876949,785.134384 109.088586,785.303022 108.767829,785.900475 C108.431576,786.522003 108.614185,787.268836 109.197769,787.615681 L113.092802,789.918711 L108.632064,792.515682 C108.018085,792.872217 107.819027,793.623864 108.17894,794.235762 C108.430682,794.659763 108.767888,794.866979 109.243243,794.866979 C109.3563,794.866979 109.582833,794.799512 109.877545,794.683897 L114.292809,792.154392 L114.338223,796.538851 C114.345494,797.237476 114.927052,797.777092 115.583585,797.777092 L115.628998,797.777092 C116.330885,797.777092 116.856957,797.194083 116.851653,796.490644 L116.806239,790.665543 L125.003479,785.992017 L125.003479,795.247588 L119.817671,798.162516 C119.198864,798.509421 118.982404,799.265882 119.342316,799.877781 C119.593999,800.306597 119.931205,800.513753 120.4065,800.513753 C120.633092,800.513753 120.841745,800.475235 121.018095,800.374004 L125.003479,798.119063 L125.003479,803.380474 C125.003479,804.079098 125.546954,804.623529 126.24884,804.623529 C126.950727,804.623529 127.516909,804.079098 127.516909,803.380474 L127.516909,798.20579 L131.36611,800.374004 C131.542342,800.475175 131.751054,800.513753 131.954999,800.513753 C132.452941,800.513753 132.820125,800.311412 133.064536,799.877781 C133.408477,799.270697 133.186295,798.509361 132.566475,798.162516 L127.516909,795.339129 L127.516909,785.943809 L135.532612,790.574002 L135.487675,796.490644 C135.481835,797.194083 136.03115,797.777092 136.733037,797.777092 C137.434923,797.777092 137.96773,797.237476 137.978339,796.538851 L138.045982,791.995384 L142.574841,794.640504 C142.749701,794.741675 142.982492,794.775438 143.23179,794.775438 C143.707204,794.775438 144.055913,794.577912 144.295914,794.187614 C144.667568,793.585345 144.430308,792.809624 143.842969,792.472349 Z" id="Shape-Copy-14" fill="#FFFFFF" fill-rule="nonzero" opacity="0.600000024"></path>
                <path d="M462.47277,972.279263 L457.384563,969.346844 L461.680221,966.795264 C462.370816,966.463422 462.584549,965.538504 462.191808,964.858508 C461.792,964.162134 460.92906,964.015275 460.273998,964.396048 L454.546611,967.741929 L445.444179,962.459224 L454.546543,957.230954 L460.27393,960.571398 C460.452804,960.701947 460.682957,960.778129 460.938885,960.778129 C461.424293,960.778129 461.859095,960.549651 462.19174,960.114376 C462.575262,959.423439 462.370749,958.509462 461.680154,958.177619 L457.384496,955.62604 L462.472703,952.693687 C463.135908,952.312846 463.363975,951.458673 462.984289,950.756863 C462.621629,950.082237 461.7243,949.848322 461.040839,950.245473 L455.926993,953.205077 L455.850611,948.101919 C455.838633,947.313053 455.236936,946.676484 454.444388,946.676484 C453.651974,946.676484 453.032242,947.361984 453.038231,948.101919 L453.088973,954.837175 L444.037889,960.065445 L444.037889,949.456541 L449.739703,946.214025 C450.405331,945.838621 450.695378,944.962701 450.302098,944.277268 C449.902762,943.580895 449.083025,943.374097 448.384288,943.765879 L444.037889,946.214092 L444.037889,940.425367 C444.037889,939.636502 443.398574,939 442.606025,939 C441.813476,939 441.199801,939.636502 441.199801,940.425367 L441.199801,946.268393 L436.69963,943.765811 C435.998672,943.379534 435.200672,943.597138 434.807392,944.277201 C434.408123,944.973575 434.656312,945.827748 435.344148,946.213958 L441.199801,949.505472 L441.199801,960.011011 L431.943733,954.684812 L431.995012,948.101852 C432.071932,947.361984 431.406977,946.676417 430.614429,946.676417 C429.821813,946.676417 429.165135,947.312986 429.156925,948.101852 L429.105645,953.052647 L424.120066,950.196408 C423.42402,949.793821 422.564915,950.033172 422.202188,950.702361 C421.822503,951.409608 422.018873,952.242034 422.713842,952.644622 L427.750702,955.549791 L423.352619,958.177552 C422.662495,958.509462 422.447012,959.434313 422.867076,960.114376 C423.137607,960.555088 423.531492,960.778129 424.068719,960.778129 C424.349613,960.778129 424.583603,960.707384 424.809988,960.571398 L430.563082,957.181956 L439.793578,962.459224 L430.563082,967.79086 L424.809988,964.396048 C424.119393,963.993461 423.229197,964.183881 422.867009,964.858508 C422.487323,965.560318 422.693519,966.403617 423.352484,966.795264 L427.750634,969.395774 L422.713708,972.328194 C422.020421,972.730782 421.795651,973.579518 422.202054,974.270455 C422.486313,974.749224 422.867076,974.983206 423.403831,974.983206 C423.531492,974.983206 423.787286,974.907024 424.120066,974.776475 L429.105645,971.920237 L429.156925,976.871032 C429.165135,977.659897 429.821813,978.269215 430.563149,978.269215 C431.406977,978.269215 432.001002,977.610899 431.995012,976.816597 L431.943733,970.239074 L441.199801,964.961873 L441.199801,975.412977 L435.344148,978.704424 C434.64541,979.096138 434.40099,979.950311 434.807392,980.641248 C435.091585,981.125454 435.472347,981.359368 436.009035,981.359368 C436.264896,981.359368 436.5005,981.315874 436.69963,981.201568 L441.199801,978.655359 L441.199801,984.59638 C441.199801,985.385245 441.813476,986 442.606025,986 C443.398574,986 444.037889,985.385245 444.037889,984.59638 L444.037889,978.753287 L448.384288,981.201568 C448.583283,981.315807 448.818955,981.359368 449.049243,981.359368 C449.611503,981.359368 450.026116,981.13089 450.302098,980.641248 C450.690465,979.955748 450.439584,979.096071 449.739703,978.704424 L444.037889,975.516342 L444.037889,964.907438 L453.088973,970.135709 L453.038231,976.816597 C453.031636,977.610899 453.651906,978.269215 454.444455,978.269215 C455.237004,978.269215 455.838633,977.659897 455.850611,976.871032 L455.926993,971.74069 L461.040839,974.727477 C461.238286,974.841716 461.501146,974.87984 461.782646,974.87984 C462.319469,974.87984 462.71322,974.6568 462.984222,974.216087 C463.403882,973.536024 463.135975,972.660104 462.47277,972.279263 Z" id="Shape-Copy-15" fill="#FFFFFF" fill-rule="nonzero" opacity="0.300000012"></path>
            </g>
            <g id="Group-14-Copy" transform="translate(53.000000, 759.000000)" fill="#FFFFFF">
                <circle id="Oval-6" opacity="0.699999988" cx="9.5" cy="419.5" r="9.5"></circle>
                <circle id="Oval-6-Copy-3" opacity="0.300000012" cx="188.5" cy="471.5" r="4.5"></circle>
                <circle id="Oval-6" cx="404" cy="284" r="4"></circle>
                <circle id="Oval-6" opacity="0.600000024" cx="607" cy="417" r="7"></circle>
                <circle id="Oval-6-Copy" opacity="0.400000006" cx="599" cy="620" r="7"></circle>
                <circle id="Oval-6-Copy-2" opacity="0.400000006" cx="654" cy="249" r="7"></circle>
                <circle id="Oval-6" opacity="0.900000036" cx="406.5" cy="526.5" r="6.5"></circle>
                <circle id="Oval-6-Copy-5" opacity="0.900000036" cx="25.5" cy="235.5" r="6.5"></circle>
                <circle id="Oval-6" opacity="0.699999988" cx="626.5" cy="6.5" r="6.5"></circle>
                <circle id="Oval-6" opacity="0.300000012" cx="190.5" cy="127.5" r="5.5"></circle>
            </g>
        </g>
    </g>
</svg>