<?xml version="1.0" encoding="UTF-8"?>
<svg width="874px" height="2197px" viewBox="0 0 874 2197" version="1.1" xmlns="http://www.w3.org/2000/svg" xmlns:xlink="http://www.w3.org/1999/xlink">
    <!-- Generator: Sketch 49 (51002) - http://www.bohemiancoding.com/sketch -->
    <title>night clear</title>
    <desc>Created with Sketch.</desc>
    <defs>
        <linearGradient x1="2.92315934%" y1="2.92315934%" x2="98.1086575%" y2="98.1086575%" id="linearGradient-1">
            <stop stop-color="#ABA8E4" offset="0%"></stop>
            <stop stop-color="#4D3F89" offset="100%"></stop>
        </linearGradient>
        <rect id="path-2" x="0" y="0" width="874" height="2197"></rect>
        <path d="M528.76533,657.922539 C534.854852,664.092345 536.485193,673.399272 532.762356,681.21868 C486.69256,777.742754 395.710718,842.069822 289.46092,853.267218 C122.051714,870.910049 -28.4210978,748.731218 -46.0165143,580.870895 C-63.6119309,413.010571 58.2385495,262.13228 225.647755,244.489449 C235.119166,243.491282 244.596897,242.943816 254.21295,243.325545 C262.63818,243.668637 269.963379,249.133749 272.680377,257.09515 C275.397374,265.056551 272.967463,273.88864 266.539536,279.325952 C209.808884,327.240913 180.56781,400.038515 188.331745,474.106477 C201.230513,597.160757 311.584478,686.801572 434.34853,673.863781 C460.010386,671.159343 483.943077,664.451718 505.560732,654.007817 C513.272954,650.281665 522.639586,651.797584 528.76533,657.922539 Z" id="path-4"></path>
    </defs>
    <g id="Page-1" stroke="none" stroke-width="1" fill="none" fill-rule="evenodd">
        <g id="night-clear">
            <g id="Shape">
                <mask id="mask-3" fill="white">
                    <use xlink:href="#path-2"></use>
                </mask>
                <use id="Mask" fill="url(#linearGradient-1)" xlink:href="#path-2"></use>
                <g opacity="0.900000036" mask="url(#mask-3)" fill-rule="nonzero" transform="translate(243.518710, 549.082351) rotate(-1.000000) translate(-243.518710, -549.082351) ">
                    <use fill="#FFFFFF" fill-rule="evenodd" xlink:href="#path-4"></use>
                    <path stroke-opacity="0.1" stroke="#FFFFFF" stroke-width="111" d="M568.265913,618.935953 C590.723946,641.690071 596.66461,676.108276 582.849754,705.124802 C528.471684,819.056123 420.731773,895.240271 295.277711,908.461556 C97.3408577,929.321618 -80.4253553,784.981469 -101.214098,586.656803 C-122.000318,388.356209 21.9182808,210.152626 219.830964,189.295112 C232.787365,187.929669 244.576952,187.399312 256.47115,187.871505 C287.779494,189.146443 315.083207,209.508046 325.205879,239.169704 C335.297331,268.739879 326.257059,301.504445 302.351032,321.726267 C259.667251,357.777179 237.68114,412.528827 243.529329,468.320568 C253.236401,560.926062 336.31086,628.388367 428.531739,618.669443 C447.85047,616.633491 465.590352,611.680677 481.416341,604.03484 C510.37485,590.043567 545.174451,595.845748 568.007229,618.675586 L568.137002,618.805341 L568.265913,618.935953 Z"></path>
                    <path stroke-opacity="0.4" stroke="#FFFFFF" stroke-width="51" d="M546.914247,640.009783 C560.532279,653.807354 564.130446,674.653925 555.775485,692.202574 C505.889786,796.721613 407.210136,866.499144 292.1335,878.626779 C110.698077,897.747797 -52.3149458,765.386739 -71.3775664,583.529285 C-90.4390276,401.682892 41.5508585,238.249737 222.975176,219.129889 C234.589694,217.905864 244.974257,217.438712 255.250502,217.846662 C274.188681,218.617862 290.693816,230.926481 296.813715,248.859134 C302.920023,266.751958 297.449403,286.579072 282.993467,298.807178 C232.71334,341.273997 206.809541,405.781799 213.692797,471.448086 C225.125904,580.519956 322.952799,659.962277 431.675951,648.50422 C454.383223,646.111158 475.476504,640.222106 494.467363,631.04726 C511.960436,622.5955 533.008298,626.104837 546.795392,639.890155 L546.914247,640.009783 Z"></path>
                </g>
            </g>
            <path d="M572.333333,235.333333 C557.626667,235.333333 545.666667,223.373333 545.666667,208.666667 C545.666667,204.986667 542.68,202 539,202 C535.32,202 532.333333,204.986667 532.333333,208.666667 C532.333333,223.373333 520.373333,235.333333 505.666667,235.333333 C501.986667,235.333333 499,238.32 499,242 C499,245.68 501.986667,248.666667 505.666667,248.666667 C520.373333,248.666667 532.333333,260.626667 532.333333,275.333333 C532.333333,279.013333 535.32,282 539,282 C542.68,282 545.666667,279.013333 545.666667,275.333333 C545.666667,260.626667 557.626667,248.666667 572.333333,248.666667 C576.013333,248.666667 579,245.68 579,242 C579,238.32 576.013333,235.333333 572.333333,235.333333 Z" id="Shape" fill="#FFFFFF" fill-rule="nonzero" opacity="0.600000024"></path>
            <path d="M585.5,416.5 C575.573,416.5 567.5,408.427 567.5,398.5 C567.5,396.016 565.484,394 563,394 C560.516,394 558.5,396.016 558.5,398.5 C558.5,408.427 550.427,416.5 540.5,416.5 C538.016,416.5 536,418.516 536,421 C536,423.484 538.016,425.5 540.5,425.5 C550.427,425.5 558.5,433.573 558.5,443.5 C558.5,445.984 560.516,448 563,448 C565.484,448 567.5,445.984 567.5,443.5 C567.5,433.573 575.573,425.5 585.5,425.5 C587.984,425.5 590,423.484 590,421 C590,418.516 587.984,416.5 585.5,416.5 Z" id="Shape-Copy-2" fill="#FFFFFF" fill-rule="nonzero" opacity="0.300000012"></path>
            <path d="M717.764576,327.264576 C708.389076,327.264576 700.764576,319.640076 700.764576,310.264576 C700.764576,307.918576 698.860576,306.014576 696.514576,306.014576 C694.168576,306.014576 692.264576,307.918576 692.264576,310.264576 C692.264576,319.640076 684.640076,327.264576 675.264576,327.264576 C672.918576,327.264576 671.014576,329.168576 671.014576,331.514576 C671.014576,333.860576 672.918576,335.764576 675.264576,335.764576 C684.640076,335.764576 692.264576,343.389076 692.264576,352.764576 C692.264576,355.110576 694.168576,357.014576 696.514576,357.014576 C698.860576,357.014576 700.764576,355.110576 700.764576,352.764576 C700.764576,343.389076 708.389076,335.764576 717.764576,335.764576 C720.110576,335.764576 722.014576,333.860576 722.014576,331.514576 C722.014576,329.168576 720.110576,327.264576 717.764576,327.264576 Z" id="Shape" fill="#FFFFFF" fill-rule="nonzero" opacity="0.5" transform="translate(696.514576, 331.514576) rotate(35.000000) translate(-696.514576, -331.514576) "></path>
            <circle id="Oval" fill="#FFFFFF" opacity="0.699999988" cx="769" cy="1163" r="8"></circle>
            <circle id="Oval" fill="#FFFFFF" opacity="0.900000036" cx="285" cy="1077" r="8"></circle>
            <circle id="Oval-Copy-2" fill="#FFFFFF" cx="614.5" cy="1036.5" r="4.5"></circle>
            <circle id="Oval-Copy-8" fill="#FFFFFF" cx="787.5" cy="791.5" r="4.5"></circle>
            <circle id="Oval-Copy-3" fill="#FFFFFF" opacity="0.699999988" cx="443" cy="1185" r="10"></circle>
            <circle id="Oval-Copy-4" fill="#FFFFFF" opacity="0.300000012" cx="75" cy="1015" r="10"></circle>
            <circle id="Oval-Copy-5" fill="#FFFFFF" opacity="0.400000006" cx="161" cy="1225" r="10"></circle>
            <circle id="Oval-Copy-6" fill="#FFFFFF" opacity="0.200000003" cx="746" cy="1403" r="10"></circle>
            <circle id="Oval-Copy-7" fill="#FFFFFF" opacity="0.100000001" cx="308.5" cy="1310.5" r="7.5"></circle>
        </g>
    </g>
</svg>