<?xml version="1.0" encoding="UTF-8"?>
<svg width="874px" height="2197px" viewBox="0 0 874 2197" version="1.1" xmlns="http://www.w3.org/2000/svg" xmlns:xlink="http://www.w3.org/1999/xlink">
    <!-- Generator: Sketch 49 (51002) - http://www.bohemiancoding.com/sketch -->
    <title>haze</title>
    <desc>Created with Sketch.</desc>
    <defs>
        <linearGradient x1="2.92315934%" y1="2.92315934%" x2="98.1086575%" y2="98.1086575%" id="linearGradient-1">
            <stop stop-color="#ABA8E4" offset="0%"></stop>
            <stop stop-color="#4D3F89" offset="100%"></stop>
        </linearGradient>
        <rect id="path-2" x="0" y="0" width="874" height="2197"></rect>
    </defs>
    <g id="Page-1" stroke="none" stroke-width="1" fill="none" fill-rule="evenodd">
        <g id="haze">
            <g id="Group-24-Copy-5">
                <g id="night-rainy-copy-3">
                    <g id="Group-5-Copy-3">
                        <g id="with-content-copy-7">
                            <g id="Shape">
                                <g id="fluffy-cloud-silhouette">
                                    <mask id="mask-3" fill="white">
                                        <use xlink:href="#path-2"></use>
                                    </mask>
                                    <use id="Mask" fill="url(#linearGradient-1)" xlink:href="#path-2"></use>
                                    <g id="haze" mask="url(#mask-3)" fill="#FFFFFF" fill-rule="nonzero">
                                        <g transform="translate(-133.000000, 245.000000)" id="Shape">
                                            <path d="M605.570798,28.2389394 L546.931308,9.64073328 C494.013825,-7.28275289 435.596118,-1.72973399 386.936874,24.7572847 C339.830113,50.451015 281.234979,50.4950866 234.083861,24.7572847 C185.51333,-1.72973399 127.184336,-7.28275289 74.0450704,9.64073328 L15.4499367,28.2389394 C3.73978129,31.940952 -2.69193285,44.3250656 1.07838234,55.9599624 C4.80434088,67.506716 17.2242027,73.8970949 28.9343581,70.1950823 L87.5294917,51.5528045 C129.180385,38.4194741 174.779021,42.6503456 212.748313,63.3639876 C242.910834,79.8026864 276.710601,88 310.510368,88 C344.310134,88 378.065544,79.8026864 408.228066,63.4080592 C446.241714,42.6503456 491.84035,38.3754025 533.40253,51.5968761 L592.04202,70.1950823 C603.929602,73.985238 616.216394,67.4626444 619.942353,55.9158908 C623.668311,44.3250656 617.236597,31.940952 605.570798,28.2389394 Z"></path>
                                            <path d="M605.570798,161.26012 L546.931308,142.668505 C494.013825,125.839129 435.596118,131.302068 386.936874,157.779699 C339.830113,183.464323 281.234979,183.508379 234.083861,157.779699 C185.468973,131.258012 127.13998,125.706961 74.0450704,142.668505 L15.4499367,161.26012 C3.73978129,164.96082 -2.69193285,177.340545 1.07838234,188.971318 C4.80434088,200.513979 17.2242027,206.858037 28.9343581,203.201393 L87.5294917,184.565722 C129.180385,171.437046 174.779021,175.666418 212.748313,196.372719 C242.910834,212.805592 276.710601,221 310.510368,221 C344.310134,221 378.065544,212.805592 408.228066,196.416775 C446.241714,175.666418 491.84035,171.39299 533.40253,184.609778 L592.04202,203.201393 C603.929602,206.990205 616.216394,200.513979 619.942353,188.927262 C623.668311,177.340545 617.236597,164.96082 605.570798,161.26012 Z"></path>
                                            <path d="M605.568079,294.266146 L547.00698,275.720459 C493.902712,258.672523 435.696529,264.267065 386.939979,290.786077 C339.824914,316.424058 281.219451,316.424058 234.060021,290.786077 C185.392199,264.267065 127.097288,258.760626 74.037384,275.676407 L15.4319214,294.266146 C3.76406628,297.966473 -2.66878162,310.344949 1.05783372,321.974549 C4.78444905,333.516046 17.2065002,339.815412 28.9187198,336.24724 L87.5241824,317.6575 C129.049325,304.353943 174.700363,308.715043 212.720712,329.375203 C242.88855,345.806418 276.694275,354 310.5,354 C344.305725,354 378.067085,345.806418 408.234924,329.419255 C446.255273,308.715043 491.861946,304.309892 533.431453,317.6575 L592.036916,336.24724 C603.837864,339.859464 616.171186,333.516046 619.942166,321.974549 C623.668782,310.344949 617.235934,297.966473 605.568079,294.266146 Z"></path>
                                            <path d="M605.569181,428.238917 L547.012266,409.698448 C493.911791,392.699349 435.709767,398.248278 386.956699,424.759827 C339.889361,450.390593 281.243723,450.434632 234.087662,424.759827 C185.467678,398.292317 127.088209,392.875505 74.0320952,409.654409 L15.4308191,428.238917 C3.7637974,431.938203 -2.66859097,444.313195 1.05775815,455.939522 C4.78410727,467.477771 17.205271,473.731326 28.916654,470.208196 L87.5179301,451.623689 C129.084467,438.411953 174.687883,442.683748 212.749877,463.382133 C242.915561,479.808724 276.718871,488 310.522181,488 C344.325491,488 378.084439,479.808724 408.250123,463.382133 C446.267756,442.683748 491.871171,438.323875 533.437709,451.623689 L592.038985,470.208196 C603.83909,473.819404 616.171531,467.477771 619.942242,455.939522 C623.668591,444.313195 617.236203,431.938203 605.569181,428.238917 Z"></path>
                                        </g>
                                    </g>
                                    <g id="Group-27" opacity="0.200000003" mask="url(#mask-3)" fill="#FFFFFF" fill-rule="nonzero">
                                        <g transform="translate(-233.000000, 275.000000)" id="Shape">
                                            <path d="M811.328348,38.8285417 L732.764651,13.2560083 C661.867154,-10.0137852 583.600597,-2.37838424 518.408179,34.0412665 C455.295739,69.3701457 376.791469,69.4307441 313.619601,34.0412665 C248.546039,-2.37838424 170.398338,-10.0137852 99.2037014,13.2560083 L20.6994321,38.8285417 C5.01046383,43.9188091 -3.60658314,60.9469652 1.44478922,76.9449483 C6.43673367,92.8217344 23.0765485,101.608505 38.7655168,96.5182381 L117.269786,70.8851062 C173.072594,52.8267769 234.164485,58.6442253 285.034776,87.1254829 C325.445755,109.728694 370.729823,121 416.01389,121 C461.297958,121 506.522597,109.728694 546.933576,87.1860813 C597.863295,58.6442253 658.955187,52.7661785 714.639138,70.9457046 L793.202836,96.5182381 C809.129516,101.729702 825.591047,92.761136 830.582991,76.8843498 C835.574936,60.9469652 826.957889,43.9188091 811.328348,38.8285417 Z"></path>
                                            <path d="M841.328348,191.857665 L762.764651,166.294194 C691.867154,143.153802 613.600597,150.665343 548.408179,187.072086 C485.295739,222.388444 406.791469,222.449021 343.619601,187.072086 C278.486612,150.604766 200.33891,142.972071 129.203701,166.294194 L50.6994321,191.857665 C35.0104638,196.946128 26.3934169,213.968249 31.4447892,229.960562 C36.4367337,245.831721 53.0765485,254.554801 68.7655168,249.526915 L147.269786,223.902868 C203.072594,205.850939 264.164485,211.666325 315.034776,240.137489 C355.445755,262.732689 400.729823,274 446.01389,274 C491.297958,274 536.522597,262.732689 576.933576,240.198066 C627.863295,211.666325 688.955187,205.790362 744.639138,223.963445 L823.202836,249.526915 C839.129516,254.736532 855.591047,245.831721 860.582991,229.899985 C865.574936,213.968249 856.957889,196.946128 841.328348,191.857665 Z"></path>
                                            <path d="M831.324704,344.865951 L752.866035,319.365631 C681.718287,295.924718 603.735125,303.617214 538.412339,340.080855 C475.288773,375.33308 396.770665,375.33308 333.587661,340.080855 C268.383752,303.617214 190.281713,296.04586 119.193403,319.30506 L40.6752957,344.865951 C25.0430002,349.953901 16.4244343,366.974305 21.4172587,382.965005 C26.4100831,398.834563 43.0528311,407.496192 58.744565,402.589954 L137.262673,377.029063 C192.897002,358.736672 254.059101,364.733184 304.997798,393.140905 C345.4159,415.733825 390.70795,427 436,427 C481.29205,427 526.524662,415.733825 566.942764,393.201475 C617.881461,364.733184 678.984121,358.676101 734.677889,377.029063 L813.195997,402.589954 C829.006607,407.556763 845.530479,398.834563 850.582741,382.965005 C855.575566,366.974305 846.957,349.953901 831.324704,344.865951 Z"></path>
                                            <path d="M811.326181,478.828511 L732.873117,453.335367 C661.730451,429.961605 583.75286,437.591382 518.43474,474.044762 C455.375118,509.287066 376.803185,509.34762 313.624694,474.044762 C248.484877,437.651936 170.269549,430.20382 99.1863175,453.274813 L20.6738188,478.828511 C5.04263999,483.915029 -3.57531029,500.930643 1.41715746,516.916843 C6.40962521,532.781935 23.0511844,541.380573 38.7417973,536.53627 L117.254296,510.982572 C172.944085,492.816436 234.042381,498.690153 285.036873,527.150433 C325.452088,549.736996 370.740903,561 416.029717,561 C461.318532,561 506.547912,549.736996 546.963127,527.150433 C597.898185,498.690153 658.996481,492.695328 714.68627,510.982572 L793.198769,536.53627 C809.00825,541.501681 825.530941,532.781935 830.582843,516.916843 C835.57531,500.930643 826.95736,483.915029 811.326181,478.828511 Z"></path>
                                        </g>
                                    </g>
                                </g>
                            </g>
                        </g>
                    </g>
                </g>
            </g>
            <g id="Group-27" transform="translate(410.000000, 998.000000)" fill="#FFFFFF" fill-rule="nonzero">
                <path d="M338.776062,15.4030579 L307.520552,5.25858179 C279.314938,-3.97241067 248.177641,-0.943491269 222.241716,13.5039735 C197.133281,27.5187355 165.901414,27.5427745 140.769336,13.5039735 C114.880696,-0.943491269 83.7906848,-3.97241067 55.4668571,5.25858179 L24.2349904,15.4030579 C17.9933456,17.4223375 14.5651694,24.1773085 16.5747899,30.5236158 C18.5607678,36.8218451 25.1806942,40.3075063 31.422339,38.2882267 L62.6542057,28.1197116 C84.8546015,20.9560768 109.159188,23.2638249 129.397249,34.562175 C145.474213,43.528738 163.489869,48 181.505526,48 C199.521183,48 217.513197,43.528738 233.590161,34.5862141 C253.851864,23.2638249 278.15645,20.9320377 300.309561,28.1437506 L331.56507,38.2882267 C337.901286,40.3555844 344.450284,36.797806 346.436262,30.4995768 C348.42224,24.1773085 344.994064,17.4223375 338.776062,15.4030579 Z" id="Shape" opacity="0.200000003"></path>
                <path d="M380.776062,86.4146108 L349.520552,76.27373 C321.314938,67.0940702 290.177641,70.0738551 264.241716,84.5161994 C239.133281,98.5259944 207.901414,98.5500249 182.769336,84.5161994 C156.857053,70.0498246 125.767042,67.0219787 97.4668571,76.27373 L66.2349904,86.4146108 C59.9933456,88.4331747 56.5651694,95.1857517 58.5747899,101.52981 C60.5607678,107.825807 67.1806942,111.286202 73.422339,109.291669 L104.654206,99.1267574 C126.854602,91.9656616 151.159188,94.2725918 171.397249,105.566938 C187.474213,114.530323 205.489869,119 223.505526,119 C241.521183,119 259.513197,114.530323 275.590161,105.590968 C295.851864,94.2725918 320.15645,91.9416311 342.309561,99.150788 L373.56507,109.291669 C379.901286,111.358294 386.450284,107.825807 388.436262,101.505779 C390.42224,95.1857517 386.994064,88.4331747 380.776062,86.4146108 Z" id="Shape" opacity="0.600000024"></path>
                <path d="M352.774612,167.417898 L321.560887,157.302068 C293.255713,148.003194 262.231161,151.054763 236.24337,165.519678 C211.130509,179.504032 179.893137,179.504032 154.75663,165.519678 C128.816132,151.054763 97.7442872,148.05125 69.4627603,157.27804 L38.2253881,167.417898 C32.0062898,169.436258 28.5775093,176.188154 30.5638373,182.531572 C32.5501653,188.826934 39.1712585,192.262952 45.4140036,190.316676 L76.6513758,180.176818 C98.7847447,172.920333 123.117263,175.299114 143.382537,186.568293 C159.462335,195.530774 177.481168,200 195.5,200 C213.518832,200 231.514018,195.530774 247.593816,186.592321 C267.859091,175.299114 292.167962,172.896305 314.324977,180.176818 L345.56235,190.316676 C351.852388,192.28698 358.426188,188.826934 360.436163,182.531572 C362.422491,176.188154 358.99371,169.436258 352.774612,167.417898 Z" id="Shape" opacity="0.300000012"></path>
                <path d="M322.7752,240.403046 L291.563704,230.290063 C263.260552,221.017827 232.238217,224.044515 206.252282,238.50536 C181.164861,252.485778 149.906075,252.5098 124.771363,238.50536 C98.8563633,224.068536 67.7394479,221.113912 39.4599412,230.266041 L8.2248005,240.403046 C2.00614644,242.420838 -1.42238907,249.170834 0.563797018,255.512467 C2.5499831,261.806057 9.17060339,265.217087 15.4129025,263.29538 L46.6480433,253.158376 C68.8034762,245.951975 93.1106106,248.282044 113.398083,259.572073 C129.476732,268.532031 147.494277,273 165.511823,273 C183.529368,273 201.523268,268.532031 217.601917,259.572073 C237.865744,248.282044 262.172879,245.903932 284.328312,253.158376 L315.563452,263.29538 C321.853042,265.265129 328.426372,261.806057 330.436203,255.512467 C332.422389,249.170834 328.993854,242.420838 322.7752,240.403046 Z" id="Shape" opacity="0.5"></path>
            </g>
        </g>
    </g>
</svg>