<?xml version="1.0" encoding="UTF-8"?>
<svg width="874px" height="2197px" viewBox="0 0 874 2197" version="1.1" xmlns="http://www.w3.org/2000/svg" xmlns:xlink="http://www.w3.org/1999/xlink">
    <!-- Generator: Sketch 49 (51002) - http://www.bohemiancoding.com/sketch -->
    <title>heavy sleet</title>
    <desc>Created with Sketch.</desc>
    <defs>
        <linearGradient x1="2.92315934%" y1="2.92315934%" x2="98.1086575%" y2="98.1086575%" id="linearGradient-1">
            <stop stop-color="#ABA8E4" offset="0%"></stop>
            <stop stop-color="#4D3F89" offset="100%"></stop>
        </linearGradient>
        <rect id="path-2" x="0" y="0" width="874" height="2197"></rect>
    </defs>
    <g id="Page-1" stroke="none" stroke-width="1" fill="none" fill-rule="evenodd">
        <g id="heavy-sleet">
            <g id="Group-24">
                <g id="night-rainy-copy-3">
                    <g id="Group-5-Copy-3">
                        <g id="with-content-copy-7">
                            <g id="Shape">
                                <g id="fluffy-cloud-silhouette">
                                    <mask id="mask-3" fill="white">
                                        <use xlink:href="#path-2"></use>
                                    </mask>
                                    <use id="Mask" fill="url(#linearGradient-1)" xlink:href="#path-2"></use>
                                    <g id="Group-21" mask="url(#mask-3)" stroke="#FFFFFF" stroke-linecap="round" stroke-width="10">
                                        <g transform="translate(62.000000, 710.000000)">
                                            <path d="M112,67 L169,177" id="Path-3-Copy-12" opacity="0.300000012"></path>
                                            <path d="M186,379 L216.122294,433.070693" id="Path-3-Copy-22" opacity="0.100000001"></path>
                                            <path d="M0,26 L54,137" id="Path-3-Copy-13" opacity="0.400000006"></path>
                                            <path d="M245,220 L295,319" id="Path-3-Copy-15" opacity="0.100000001"></path>
                                            <path d="M201,0 L287.128959,150.74827" id="Path-3-Copy-16" opacity="0.699999988"></path>
                                            <path d="M394,204 L451,315" id="Path-3-Copy-19" opacity="0.5"></path>
                                            <path d="M400,403 L452,504" id="Path-3-Copy-20" opacity="0.100000001"></path>
                                            <path d="M400,0 L457,99" id="Path-3-Copy-21" opacity="0.5"></path>
                                        </g>
                                    </g>
                                    <g mask="url(#mask-3)" id="Group">
                                        <g transform="translate(-57.000000, 182.000000)">
                                            <g>
                                                <path d="M634.129311,271.070416 C614.79149,246.994605 590.257802,231.505628 560.558489,224.597433 C570.006621,210.082719 574.717379,194.188303 574.717379,176.914184 C574.717379,152.494658 566.080989,131.649046 548.817885,114.370086 C531.551153,97.0971772 510.713244,88.4570921 486.30416,88.4570921 C464.200855,88.4570921 445.086837,95.5988685 428.974204,109.882421 C415.394784,77.1713667 393.800783,50.679866 364.217606,30.4079196 C334.627171,10.1408143 301.639764,0 265.257804,0 C216.445684,0 174.766238,17.2813805 140.226724,51.8356696 C105.684791,86.3814868 88.4192681,128.081183 88.4192681,176.917815 C88.4192681,180.374333 88.65033,185.323109 89.1100342,191.773823 C62.4012189,204.214142 40.8701248,223.044662 24.5228007,248.276277 C8.17668641,273.493368 0,301.31495 0,331.72287 C0,374.337527 15.1424151,410.793143 45.4187771,441.081246 C75.6963489,471.377821 112.136377,486.524294 154.734022,486.524294 L530.525287,486.524294 C567.13105,486.524294 598.387308,473.556299 624.29527,447.649357 C650.199603,421.735153 663.153584,390.465524 663.153584,353.83563 C663.149955,322.739069 653.474391,295.138965 634.129311,271.070416 Z" id="Shape" fill="#FFFFFF" fill-rule="nonzero" opacity="0.300000012"></path>
                                                <path d="M552.444377,278.833045 C537.503458,260.231428 518.548073,248.264229 495.601588,242.926772 C502.901468,231.712315 506.541126,219.431863 506.541126,206.085416 C506.541126,187.218235 499.868419,171.112356 486.530483,157.762169 C473.189742,144.416656 457.089815,137.741095 438.230702,137.741095 C421.153097,137.741095 406.385094,143.259023 393.936042,154.294879 C383.444217,129.021441 366.760113,108.553397 343.903358,92.8907481 C321.040995,77.2318392 295.554039,69.3967742 267.444362,69.3967742 C229.730809,69.3967742 197.528152,82.7488321 170.841997,109.446402 C144.153973,136.137427 130.814168,168.35573 130.814168,206.088221 C130.814168,208.75882 130.992692,212.582376 131.347872,217.566372 C110.711925,227.178095 94.0764248,241.72706 81.4460439,261.221682 C68.8165978,280.705082 62.4990706,302.200783 62.4990706,325.694757 C62.4990706,358.619983 74.1985065,386.78657 97.5908355,410.18797 C120.984099,433.595917 149.138642,445.298487 182.050724,445.298487 L472.39713,445.298487 C500.679725,445.298487 524.829147,435.279067 544.846334,415.262669 C564.860716,395.24066 574.869309,371.080907 574.869309,342.779668 C574.866505,318.753632 567.390904,297.429052 552.444377,278.833045 Z" id="Shape" fill="#FFFFFF" fill-rule="nonzero" opacity="0.5"></path>
                                                <path d="M463.717692,288.625306 C452.739147,274.95689 438.810783,266.163426 421.94977,262.241477 C427.313701,254.001126 429.988112,244.977484 429.988112,235.170552 C429.988112,221.307 425.085025,209.472445 415.284347,199.662765 C405.481608,189.856519 393.651427,184.951335 379.793803,184.951335 C367.245226,184.951335 356.393739,189.005894 347.24621,197.11501 C339.536847,178.544158 327.277414,163.504297 310.482334,151.995426 C293.683133,140.489303 274.955389,134.732119 254.300477,134.732119 C226.588664,134.732119 202.926241,144.543174 183.317329,164.160474 C163.707044,183.772965 153.904992,207.446884 153.904992,235.172613 C153.904992,237.134961 154.036171,239.9445 154.297156,243.606726 C139.13392,250.669394 126.910201,261.359932 117.629432,275.684526 C108.34935,290.000874 103.707249,305.795855 103.707249,323.059161 C103.707249,347.252526 112.303962,367.949255 129.49258,385.144539 C146.681885,402.344632 167.369764,410.943648 191.55347,410.943648 L404.899199,410.943648 C425.68117,410.943648 443.426099,403.581406 458.134671,388.873413 C472.841183,374.161297 480.195469,356.408777 480.195469,335.613106 C480.193409,317.958842 474.700359,302.2896 463.717692,288.625306 Z" id="Shape" fill="#FFFFFF" fill-rule="nonzero"></path>
                                            </g>
                                        </g>
                                    </g>
                                </g>
                            </g>
                        </g>
                    </g>
                </g>
                <path d="M432.065424,838.633738 L425.394078,834.788928 L431.026283,831.443453 C431.931748,831.008361 432.211982,829.795665 431.697044,828.904096 C431.172841,827.991053 430.041406,827.798501 429.182528,828.297748 L421.673128,832.684663 L409.738576,825.758302 L421.67304,818.903313 L429.18244,823.2831 C429.416968,823.454268 429.718731,823.554152 430.054288,823.554152 C430.690726,823.554152 431.260811,823.254586 431.696955,822.68388 C432.199806,821.777966 431.93166,820.579615 431.026194,820.144523 L425.39399,816.799048 L432.065336,812.954326 C432.93489,812.454991 433.233917,811.335051 432.736097,810.414881 C432.260599,809.530352 431.084076,809.223658 430.187964,809.744378 L423.483001,813.624829 L423.382854,806.93388 C423.367148,805.899568 422.578241,805.064937 421.5391,805.064937 C420.500135,805.064937 419.68758,805.963723 419.695433,806.93388 L419.761962,815.764736 L407.894733,822.619725 L407.894733,808.709978 L415.370604,804.458589 C416.243335,803.966383 416.623627,802.817929 416.107982,801.919232 C415.584397,801.00619 414.509609,800.735049 413.593467,801.248729 L407.894733,804.458677 L407.894733,796.868854 C407.894733,795.834543 407.056503,795 406.017361,795 C404.97822,795 404.173607,795.834543 404.173607,796.868854 L404.173607,804.529873 L398.273257,801.248641 C397.354203,800.742178 396.307915,801.027487 395.792271,801.919144 C395.268774,802.832186 395.594184,803.952126 396.496032,804.458501 L404.173607,808.774133 L404.173607,822.548354 L392.037615,815.564967 L392.10485,806.933792 C392.205702,805.963723 391.333854,805.064849 390.294713,805.064849 L390.227478,805.064849 C389.255483,805.064849 388.394488,805.89948 388.383723,806.933792 L388.316488,813.424972 L381.779701,809.680047 C380.867088,809.152198 379.740683,809.466021 379.265097,810.343421 C378.767276,811.27072 379.024745,812.362147 379.935946,812.889995 L386.539969,816.699075 L380.773471,820.144435 C379.868623,820.579615 379.586095,821.792223 380.136857,822.68388 C380.491561,823.261715 381.007999,823.554152 381.712378,823.554152 C382.08067,823.554152 382.387462,823.461396 382.684284,823.2831 L390.22739,818.83907 L402.329852,825.758302 L390.22739,832.748817 L382.684284,828.297748 C381.778818,827.769899 380.611648,828.019567 380.136769,828.904096 C379.638948,829.824266 379.909299,830.929949 380.773295,831.443453 L386.53988,834.853083 L379.93577,838.697893 C379.026775,839.225741 378.73207,840.338552 379.26492,841.244466 C379.637624,841.872199 380.136857,842.178982 380.840618,842.178982 C381.007999,842.178982 381.34338,842.079097 381.779701,841.907929 L388.316488,838.163004 L388.383723,844.654184 C388.394488,845.688496 389.255483,846.487397 390.227478,846.487397 L390.294713,846.487397 C391.333854,846.487397 392.112703,845.624253 392.10485,844.582813 L392.037615,835.958766 L404.173607,829.039622 L404.173607,842.742472 L396.496032,847.058015 C395.579889,847.571607 395.259421,848.691547 395.792271,849.597461 C396.164886,850.232322 396.664119,850.539016 397.367791,850.539016 C397.70326,850.539016 398.01217,850.481989 398.273257,850.332119 L404.173607,846.993684 L404.173607,854.783188 C404.173607,855.8175 404.97822,856.623529 406.017361,856.623529 C407.056503,856.623529 407.894733,855.8175 407.894733,854.783188 L407.894733,847.122082 L413.593467,850.332119 C413.854377,850.481901 414.163375,850.539016 414.465315,850.539016 C415.202517,850.539016 415.746131,850.23945 416.107982,849.597461 C416.617185,848.698675 416.288246,847.571519 415.370604,847.058015 L407.894733,842.877998 L407.894733,828.968251 L419.761962,835.82324 L419.695433,844.582813 C419.686786,845.624253 420.500046,846.487397 421.539188,846.487397 C422.578329,846.487397 423.367148,845.688496 423.382854,844.654184 L423.483001,837.927593 L430.187964,841.843686 C430.446845,841.993469 430.79149,842.043455 431.160576,842.043455 C431.864425,842.043455 432.380687,841.751018 432.736008,841.173183 C433.286241,840.281526 432.934978,839.133073 432.065424,838.633738 Z" id="Shape" fill="#FFFFFF" fill-rule="nonzero" opacity="0.900000036"></path>
                <path d="M652.362171,1103.43432 L642.510538,1097.75665 L650.827662,1092.81636 C652.164771,1092.17386 652.578595,1090.38306 651.818181,1089.06647 C651.044086,1087.71817 649.373286,1087.43383 648.104974,1088.17107 L637.015778,1094.64927 L619.391922,1084.42105 L637.015648,1074.29823 L648.104844,1080.7659 C648.451173,1081.01866 648.89679,1081.16616 649.392309,1081.16616 C650.332143,1081.16616 651.173992,1080.72379 651.818051,1079.88103 C652.560614,1078.54325 652.164641,1076.77364 650.827532,1076.13113 L642.510407,1071.19084 L652.362041,1065.51331 C653.646119,1064.77594 654.087696,1063.12211 653.35256,1061.76329 C652.650389,1060.4571 650.913007,1060.0042 649.58971,1060.77315 L639.688432,1066.50345 L639.540545,1056.62286 C639.517352,1055.09549 638.352366,1053.86298 636.817857,1053.86298 C635.283609,1053.86298 634.083702,1055.19022 634.095299,1056.62286 L634.193543,1069.66347 L616.669103,1079.78629 L616.669103,1059.24564 L627.708786,1052.96758 C628.997555,1052.24073 629.559135,1050.5448 628.797679,1049.21769 C628.024496,1047.86939 626.437347,1047.469 625.084472,1048.22755 L616.669103,1052.96771 L616.669103,1041.75975 C616.669103,1040.23238 615.431281,1039 613.896772,1039 C612.362263,1039 611.174083,1040.23238 611.174083,1041.75975 L611.174083,1053.07285 L602.460986,1048.22742 C601.103811,1047.47952 599.558748,1047.90084 598.797292,1049.21756 C598.024239,1050.56586 598.504775,1052.21968 599.836541,1052.96745 L611.174083,1059.34038 L611.174083,1079.68089 L593.252759,1069.36846 L593.352045,1056.62273 C593.500975,1055.19022 592.213509,1053.86285 590.679,1053.86285 L590.579714,1053.86285 C589.144361,1053.86285 587.872922,1055.09536 587.857025,1056.62273 L587.757739,1066.20832 L578.104808,1060.67815 C576.757145,1059.89867 575.093772,1060.3621 574.391471,1061.65776 C573.656335,1063.02711 574.036542,1064.63883 575.38212,1065.41831 L585.134337,1071.04321 L576.6189,1076.131 C575.282703,1076.77364 574.865492,1078.56431 575.678806,1079.88103 C576.202601,1080.73432 576.96523,1081.16616 578.005392,1081.16616 C578.549252,1081.16616 579.002295,1081.02919 579.440614,1080.7659 L590.579583,1074.20336 L608.451395,1084.42105 L590.579583,1094.74401 L579.440614,1088.17107 C578.103505,1087.39159 576.379935,1087.76028 575.678676,1089.06647 C574.94354,1090.4253 575.34277,1092.05807 576.618639,1092.81636 L585.134207,1097.85139 L575.381859,1103.52906 C574.039539,1104.30853 573.604346,1105.95183 574.39121,1107.2896 C574.941585,1108.21658 575.678806,1108.66961 576.718056,1108.66961 C576.96523,1108.66961 577.460489,1108.52211 578.104808,1108.26935 L587.757739,1102.73918 L587.857025,1112.32476 C587.872922,1113.85214 589.144361,1115.03189 590.579714,1115.03189 L590.679,1115.03189 C592.213509,1115.03189 593.363642,1113.75727 593.352045,1112.21937 L593.252759,1099.48416 L611.174083,1089.2666 L611.174083,1109.50172 L599.836541,1115.87452 C598.483667,1116.63295 598.010427,1118.28677 598.797292,1119.62454 C599.347536,1120.56205 600.084757,1121.01495 601.123877,1121.01495 C601.619266,1121.01495 602.075437,1120.93073 602.460986,1120.70942 L611.174083,1115.77952 L611.174083,1127.28235 C611.174083,1128.80973 612.362263,1130 613.896772,1130 C615.431281,1130 616.669103,1128.80973 616.669103,1127.28235 L616.669103,1115.96913 L625.084472,1120.70942 C625.469761,1120.9306 625.926061,1121.01495 626.371938,1121.01495 C627.46057,1121.01495 628.263331,1120.57257 628.797679,1119.62454 C629.549624,1118.2973 629.063876,1116.63282 627.708786,1115.87452 L616.669103,1109.70185 L616.669103,1089.16121 L634.193543,1099.28403 L634.095299,1112.21937 C634.08253,1113.75727 635.283478,1115.03189 636.817987,1115.03189 C638.352496,1115.03189 639.517352,1113.85214 639.540545,1112.32476 L639.688432,1102.39155 L649.58971,1108.17448 C649.972001,1108.39566 650.480942,1108.46948 651.025975,1108.46948 C652.065355,1108.46948 652.827723,1108.03763 653.352429,1107.18434 C654.164962,1105.86762 653.646249,1104.17169 652.362171,1103.43432 Z" id="Shape-Copy-13" fill="#FFFFFF" fill-rule="nonzero" opacity="0.300000012"></path>
                <path d="M240.065424,1001.63374 L233.394078,997.788928 L239.026283,994.443453 C239.931748,994.008361 240.211982,992.795665 239.697044,991.904096 C239.172841,990.991053 238.041406,990.798501 237.182528,991.297748 L229.673128,995.684663 L217.738576,988.758302 L229.67304,981.903313 L237.18244,986.2831 C237.416968,986.454268 237.718731,986.554152 238.054288,986.554152 C238.690726,986.554152 239.260811,986.254586 239.696955,985.68388 C240.199806,984.777966 239.93166,983.579615 239.026194,983.144523 L233.39399,979.799048 L240.065336,975.954326 C240.93489,975.454991 241.233917,974.335051 240.736097,973.414881 C240.260599,972.530352 239.084076,972.223658 238.187964,972.744378 L231.483001,976.624829 L231.382854,969.93388 C231.367148,968.899568 230.578241,968.064937 229.5391,968.064937 C228.500135,968.064937 227.68758,968.963723 227.695433,969.93388 L227.761962,978.764736 L215.894733,985.619725 L215.894733,971.709978 L223.370604,967.458589 C224.243335,966.966383 224.623627,965.817929 224.107982,964.919232 C223.584397,964.00619 222.509609,963.735049 221.593467,964.248729 L215.894733,967.458677 L215.894733,959.868854 C215.894733,958.834543 215.056503,958 214.017361,958 C212.97822,958 212.173607,958.834543 212.173607,959.868854 L212.173607,967.529873 L206.273257,964.248641 C205.354203,963.742178 204.307915,964.027487 203.792271,964.919144 C203.268774,965.832186 203.594184,966.952126 204.496032,967.458501 L212.173607,971.774133 L212.173607,985.548354 L200.037615,978.564967 L200.10485,969.933792 C200.205702,968.963723 199.333854,968.064849 198.294713,968.064849 L198.227478,968.064849 C197.255483,968.064849 196.394488,968.89948 196.383723,969.933792 L196.316488,976.424972 L189.779701,972.680047 C188.867088,972.152198 187.740683,972.466021 187.265097,973.343421 C186.767276,974.27072 187.024745,975.362147 187.935946,975.889995 L194.539969,979.699075 L188.773471,983.144435 C187.868623,983.579615 187.586095,984.792223 188.136857,985.68388 C188.491561,986.261715 189.007999,986.554152 189.712378,986.554152 C190.08067,986.554152 190.387462,986.461396 190.684284,986.2831 L198.22739,981.83907 L210.329852,988.758302 L198.22739,995.748817 L190.684284,991.297748 C189.778818,990.769899 188.611648,991.019567 188.136769,991.904096 C187.638948,992.824266 187.909299,993.929949 188.773295,994.443453 L194.53988,997.853083 L187.93577,1001.69789 C187.026775,1002.22574 186.73207,1003.33855 187.26492,1004.24447 C187.637624,1004.8722 188.136857,1005.17898 188.840618,1005.17898 C189.007999,1005.17898 189.34338,1005.0791 189.779701,1004.90793 L196.316488,1001.163 L196.383723,1007.65418 C196.394488,1008.6885 197.255483,1009.4874 198.227478,1009.4874 L198.294713,1009.4874 C199.333854,1009.4874 200.112703,1008.62425 200.10485,1007.58281 L200.037615,998.958766 L212.173607,992.039622 L212.173607,1005.74247 L204.496032,1010.05802 C203.579889,1010.57161 203.259421,1011.69155 203.792271,1012.59746 C204.164886,1013.23232 204.664119,1013.53902 205.367791,1013.53902 C205.70326,1013.53902 206.01217,1013.48199 206.273257,1013.33212 L212.173607,1009.99368 L212.173607,1017.78319 C212.173607,1018.8175 212.97822,1019.62353 214.017361,1019.62353 C215.056503,1019.62353 215.894733,1018.8175 215.894733,1017.78319 L215.894733,1010.12208 L221.593467,1013.33212 C221.854377,1013.4819 222.163375,1013.53902 222.465315,1013.53902 C223.202517,1013.53902 223.746131,1013.23945 224.107982,1012.59746 C224.617185,1011.69867 224.288246,1010.57152 223.370604,1010.05802 L215.894733,1005.878 L215.894733,991.968251 L227.761962,998.82324 L227.695433,1007.58281 C227.686786,1008.62425 228.500046,1009.4874 229.539188,1009.4874 C230.578329,1009.4874 231.367148,1008.6885 231.382854,1007.65418 L231.483001,1000.92759 L238.187964,1004.84369 C238.446845,1004.99347 238.79149,1005.04346 239.160576,1005.04346 C239.864425,1005.04346 240.380687,1004.75102 240.736008,1004.17318 C241.286241,1003.28153 240.934978,1002.13307 240.065424,1001.63374 Z" id="Shape-Copy-14" fill="#FFFFFF" fill-rule="nonzero" opacity="0.600000024"></path>
                <path d="M103.842969,962.472349 L99.3368173,959.875377 L103.141082,957.615681 C103.752678,957.321799 103.941961,956.502685 103.594147,955.900475 C103.240074,955.283762 102.475848,955.153703 101.895721,955.490919 L96.8235066,958.454054 L88.7623297,953.775654 L96.823447,949.145461 L101.895661,952.103781 C102.054073,952.219397 102.257898,952.286863 102.48455,952.286863 C102.914431,952.286863 103.299494,952.084522 103.594087,951.699039 C103.933737,951.087141 103.752618,950.277716 103.141022,949.983834 L99.3367577,947.724137 L103.842909,945.127225 C104.430248,944.78995 104.632226,944.033488 104.295974,943.41196 C103.9748,942.814506 103.180119,942.60735 102.574841,942.95907 L98.0459824,945.580116 L97.9783386,941.060723 C97.9677302,940.362098 97.4348637,939.798348 96.7329771,939.798348 C96.0312097,939.798348 95.482371,940.405432 95.4876752,941.060723 L95.5326121,947.025513 L87.5169085,951.655706 L87.5169085,942.260386 L92.5664752,939.388791 C93.1559598,939.056331 93.4128276,938.28061 93.0645364,937.673586 C92.7108814,937.056873 91.9849171,936.873731 91.3661102,937.220695 L87.5169085,939.388851 L87.5169085,934.262315 C87.5169085,933.563691 86.9507268,933 86.2488402,933 C85.5469536,933 85.0034786,933.563691 85.0034786,934.262315 L85.0034786,939.43694 L81.0180953,937.220636 C80.3973217,936.878546 79.6906077,937.071258 79.3423165,937.673526 C78.988721,938.29024 79.2085188,939.046701 79.8176708,939.388732 L85.0034786,942.303719 L85.0034786,951.607498 L76.8062393,946.890579 L76.851653,941.060663 C76.9197736,940.405432 76.330885,939.798289 75.6289984,939.798289 L75.5835847,939.798289 C74.9270522,939.798289 74.3454941,940.362039 74.3382231,941.060663 L74.2928094,945.445122 L69.8775451,942.915618 C69.2611222,942.559083 68.500293,942.771054 68.1790594,943.363693 C67.842807,943.990036 68.0167142,944.727239 68.6321836,945.083773 L73.0928616,947.656611 L69.1978886,949.983774 C68.5867103,950.277716 68.3958772,951.096771 68.7678884,951.699039 C69.0074727,952.089337 69.3563003,952.286863 69.8320718,952.286863 C70.0808342,952.286863 70.2880567,952.224211 70.4885446,952.103781 L75.5835251,949.102068 L83.7581171,953.775654 L75.5835251,958.497388 L70.4885446,955.490919 C69.8769491,955.134384 69.0885857,955.303022 68.7678288,955.900475 C68.4315765,956.522003 68.614185,957.268836 69.1977694,957.615681 L73.092802,959.918711 L68.6320644,962.515682 C68.018085,962.872217 67.8190274,963.623864 68.1789402,964.235762 C68.4306825,964.659763 68.7678884,964.866979 69.2432427,964.866979 C69.3563003,964.866979 69.5828326,964.799512 69.8775451,964.683897 L74.2928094,962.154392 L74.3382231,966.538851 C74.3454941,967.237476 74.9270522,967.777092 75.5835847,967.777092 L75.6289984,967.777092 C76.330885,967.777092 76.8569573,967.194083 76.851653,966.490644 L76.8062393,960.665543 L85.0034786,955.992017 L85.0034786,965.247588 L79.8176708,968.162516 C79.1988639,968.509421 78.9824037,969.265882 79.3423165,969.877781 C79.5939992,970.306597 79.9312051,970.513753 80.4064998,970.513753 C80.6330917,970.513753 80.8417446,970.475235 81.0180953,970.374004 L85.0034786,968.119063 L85.0034786,973.380474 C85.0034786,974.079098 85.5469536,974.623529 86.2488402,974.623529 C86.9507268,974.623529 87.5169085,974.079098 87.5169085,973.380474 L87.5169085,968.20579 L91.3661102,970.374004 C91.5423418,970.475175 91.7510543,970.513753 91.9549989,970.513753 C92.4529409,970.513753 92.8201246,970.311412 93.0645364,969.877781 C93.4084769,969.270697 93.1862953,968.509361 92.5664752,968.162516 L87.5169085,965.339129 L87.5169085,955.943809 L95.5326121,960.574002 L95.4876752,966.490644 C95.4818346,967.194083 96.0311501,967.777092 96.7330367,967.777092 C97.4349233,967.777092 97.9677302,967.237476 97.9783386,966.538851 L98.0459824,961.995384 L102.574841,964.640504 C102.749701,964.741675 102.982492,964.775438 103.23179,964.775438 C103.707204,964.775438 104.055913,964.577912 104.295914,964.187614 C104.667568,963.585345 104.430308,962.809624 103.842969,962.472349 Z" id="Shape-Copy-14" fill="#FFFFFF" fill-rule="nonzero" opacity="0.600000024"></path>
                <path d="M392.47277,1162.27926 L387.384563,1159.34684 L391.680221,1156.79526 C392.370816,1156.46342 392.584549,1155.5385 392.191808,1154.85851 C391.792,1154.16213 390.92906,1154.01527 390.273998,1154.39605 L384.546611,1157.74193 L375.444179,1152.45922 L384.546543,1147.23095 L390.27393,1150.5714 C390.452804,1150.70195 390.682957,1150.77813 390.938885,1150.77813 C391.424293,1150.77813 391.859095,1150.54965 392.19174,1150.11438 C392.575262,1149.42344 392.370749,1148.50946 391.680154,1148.17762 L387.384496,1145.62604 L392.472703,1142.69369 C393.135908,1142.31285 393.363975,1141.45867 392.984289,1140.75686 C392.621629,1140.08224 391.7243,1139.84832 391.040839,1140.24547 L385.926993,1143.20508 L385.850611,1138.10192 C385.838633,1137.31305 385.236936,1136.67648 384.444388,1136.67648 C383.651974,1136.67648 383.032242,1137.36198 383.038231,1138.10192 L383.088973,1144.83717 L374.037889,1150.06545 L374.037889,1139.45654 L379.739703,1136.21403 C380.405331,1135.83862 380.695378,1134.9627 380.302098,1134.27727 C379.902762,1133.58089 379.083025,1133.3741 378.384288,1133.76588 L374.037889,1136.21409 L374.037889,1130.42537 C374.037889,1129.6365 373.398574,1129 372.606025,1129 C371.813476,1129 371.199801,1129.6365 371.199801,1130.42537 L371.199801,1136.26839 L366.69963,1133.76581 C365.998672,1133.37953 365.200672,1133.59714 364.807392,1134.2772 C364.408123,1134.97357 364.656312,1135.82775 365.344148,1136.21396 L371.199801,1139.50547 L371.199801,1150.01101 L361.943733,1144.68481 L361.995012,1138.10185 C362.071932,1137.36198 361.406977,1136.67642 360.614429,1136.67642 C359.821813,1136.67642 359.165135,1137.31299 359.156925,1138.10185 L359.105645,1143.05265 L354.120066,1140.19641 C353.42402,1139.79382 352.564915,1140.03317 352.202188,1140.70236 C351.822503,1141.40961 352.018873,1142.24203 352.713842,1142.64462 L357.750702,1145.54979 L353.352619,1148.17755 C352.662495,1148.50946 352.447012,1149.43431 352.867076,1150.11438 C353.137607,1150.55509 353.531492,1150.77813 354.068719,1150.77813 C354.349613,1150.77813 354.583603,1150.70738 354.809988,1150.5714 L360.563082,1147.18196 L369.793578,1152.45922 L360.563082,1157.79086 L354.809988,1154.39605 C354.119393,1153.99346 353.229197,1154.18388 352.867009,1154.85851 C352.487323,1155.56032 352.693519,1156.40362 353.352484,1156.79526 L357.750634,1159.39577 L352.713708,1162.32819 C352.020421,1162.73078 351.795651,1163.57952 352.202054,1164.27045 C352.486313,1164.74922 352.867076,1164.98321 353.403831,1164.98321 C353.531492,1164.98321 353.787286,1164.90702 354.120066,1164.77648 L359.105645,1161.92024 L359.156925,1166.87103 C359.165135,1167.6599 359.821813,1168.26922 360.563149,1168.26922 C361.406977,1168.26922 362.001002,1167.6109 361.995012,1166.8166 L361.943733,1160.23907 L371.199801,1154.96187 L371.199801,1165.41298 L365.344148,1168.70442 C364.64541,1169.09614 364.40099,1169.95031 364.807392,1170.64125 C365.091585,1171.12545 365.472347,1171.35937 366.009035,1171.35937 C366.264896,1171.35937 366.5005,1171.31587 366.69963,1171.20157 L371.199801,1168.65536 L371.199801,1174.59638 C371.199801,1175.38524 371.813476,1176 372.606025,1176 C373.398574,1176 374.037889,1175.38524 374.037889,1174.59638 L374.037889,1168.75329 L378.384288,1171.20157 C378.583283,1171.31581 378.818955,1171.35937 379.049243,1171.35937 C379.611503,1171.35937 380.026116,1171.13089 380.302098,1170.64125 C380.690465,1169.95575 380.439584,1169.09607 379.739703,1168.70442 L374.037889,1165.51634 L374.037889,1154.90744 L383.088973,1160.13571 L383.038231,1166.8166 C383.031636,1167.6109 383.651906,1168.26922 384.444455,1168.26922 C385.237004,1168.26922 385.838633,1167.6599 385.850611,1166.87103 L385.926993,1161.74069 L391.040839,1164.72748 C391.238286,1164.84172 391.501146,1164.87984 391.782646,1164.87984 C392.319469,1164.87984 392.71322,1164.6568 392.984222,1164.21609 C393.403882,1163.53602 393.135975,1162.6601 392.47277,1162.27926 Z" id="Shape-Copy-15" fill="#FFFFFF" fill-rule="nonzero" opacity="0.300000012"></path>
                <path d="M620.065424,809.633738 L613.394078,805.788928 L619.026283,802.443453 C619.931748,802.008361 620.211982,800.795665 619.697044,799.904096 C619.172841,798.991053 618.041406,798.798501 617.182528,799.297748 L609.673128,803.684663 L597.738576,796.758302 L609.67304,789.903313 L617.18244,794.2831 C617.416968,794.454268 617.718731,794.554152 618.054288,794.554152 C618.690726,794.554152 619.260811,794.254586 619.696955,793.68388 C620.199806,792.777966 619.93166,791.579615 619.026194,791.144523 L613.39399,787.799048 L620.065336,783.954326 C620.93489,783.454991 621.233917,782.335051 620.736097,781.414881 C620.260599,780.530352 619.084076,780.223658 618.187964,780.744378 L611.483001,784.624829 L611.382854,777.93388 C611.367148,776.899568 610.578241,776.064937 609.5391,776.064937 C608.500135,776.064937 607.68758,776.963723 607.695433,777.93388 L607.761962,786.764736 L595.894733,793.619725 L595.894733,779.709978 L603.370604,775.458589 C604.243335,774.966383 604.623627,773.817929 604.107982,772.919232 C603.584397,772.00619 602.509609,771.735049 601.593467,772.248729 L595.894733,775.458677 L595.894733,767.868854 C595.894733,766.834543 595.056503,766 594.017361,766 C592.97822,766 592.173607,766.834543 592.173607,767.868854 L592.173607,775.529873 L586.273257,772.248641 C585.354203,771.742178 584.307915,772.027487 583.792271,772.919144 C583.268774,773.832186 583.594184,774.952126 584.496032,775.458501 L592.173607,779.774133 L592.173607,793.548354 L580.037615,786.564967 L580.10485,777.933792 C580.205702,776.963723 579.333854,776.064849 578.294713,776.064849 L578.227478,776.064849 C577.255483,776.064849 576.394488,776.89948 576.383723,777.933792 L576.316488,784.424972 L569.779701,780.680047 C568.867088,780.152198 567.740683,780.466021 567.265097,781.343421 C566.767276,782.27072 567.024745,783.362147 567.935946,783.889995 L574.539969,787.699075 L568.773471,791.144435 C567.868623,791.579615 567.586095,792.792223 568.136857,793.68388 C568.491561,794.261715 569.007999,794.554152 569.712378,794.554152 C570.08067,794.554152 570.387462,794.461396 570.684284,794.2831 L578.22739,789.83907 L590.329852,796.758302 L578.22739,803.748817 L570.684284,799.297748 C569.778818,798.769899 568.611648,799.019567 568.136769,799.904096 C567.638948,800.824266 567.909299,801.929949 568.773295,802.443453 L574.53988,805.853083 L567.93577,809.697893 C567.026775,810.225741 566.73207,811.338552 567.26492,812.244466 C567.637624,812.872199 568.136857,813.178982 568.840618,813.178982 C569.007999,813.178982 569.34338,813.079097 569.779701,812.907929 L576.316488,809.163004 L576.383723,815.654184 C576.394488,816.688496 577.255483,817.487397 578.227478,817.487397 L578.294713,817.487397 C579.333854,817.487397 580.112703,816.624253 580.10485,815.582813 L580.037615,806.958766 L592.173607,800.039622 L592.173607,813.742472 L584.496032,818.058015 C583.579889,818.571607 583.259421,819.691547 583.792271,820.597461 C584.164886,821.232322 584.664119,821.539016 585.367791,821.539016 C585.70326,821.539016 586.01217,821.481989 586.273257,821.332119 L592.173607,817.993684 L592.173607,825.783188 C592.173607,826.8175 592.97822,827.623529 594.017361,827.623529 C595.056503,827.623529 595.894733,826.8175 595.894733,825.783188 L595.894733,818.122082 L601.593467,821.332119 C601.854377,821.481901 602.163375,821.539016 602.465315,821.539016 C603.202517,821.539016 603.746131,821.23945 604.107982,820.597461 C604.617185,819.698675 604.288246,818.571519 603.370604,818.058015 L595.894733,813.877998 L595.894733,799.968251 L607.761962,806.82324 L607.695433,815.582813 C607.686786,816.624253 608.500046,817.487397 609.539188,817.487397 C610.578329,817.487397 611.367148,816.688496 611.382854,815.654184 L611.483001,808.927593 L618.187964,812.843686 C618.446845,812.993469 618.79149,813.043455 619.160576,813.043455 C619.864425,813.043455 620.380687,812.751018 620.736008,812.173183 C621.286241,811.281526 620.934978,810.133073 620.065424,809.633738 Z" id="Shape-Copy-12" fill="#FFFFFF" fill-rule="nonzero" opacity="0.600000024"></path>
            </g>
            <g id="Group-14-Copy-3" transform="translate(108.000000, 709.000000)" fill="#FFFFFF">
                <circle id="Oval-6" opacity="0.699999988" cx="9.5" cy="469.5" r="9.5"></circle>
                <circle id="Oval-6-Copy-3" opacity="0.300000012" cx="138.5" cy="551.5" r="4.5"></circle>
                <circle id="Oval-6" cx="404" cy="334" r="4"></circle>
                <circle id="Oval-6" opacity="0.600000024" cx="607" cy="467" r="7"></circle>
                <circle id="Oval-6-Copy" opacity="0.400000006" cx="759" cy="670" r="7"></circle>
                <circle id="Oval-6-Copy-2" opacity="0.400000006" cx="654" cy="299" r="7"></circle>
                <circle id="Oval-6" opacity="0.900000036" cx="406.5" cy="576.5" r="6.5"></circle>
                <circle id="Oval-6" opacity="0.699999988" cx="496.5" cy="6.5" r="6.5"></circle>
                <circle id="Oval-6" opacity="0.300000012" cx="190.5" cy="177.5" r="5.5"></circle>
            </g>
        </g>
    </g>
</svg>