<?xml version="1.0" encoding="UTF-8"?>
<svg width="874px" height="2197px" viewBox="0 0 874 2197" version="1.1" xmlns="http://www.w3.org/2000/svg" xmlns:xlink="http://www.w3.org/1999/xlink">
    <!-- Generator: Sketch 49 (51002) - http://www.bohemiancoding.com/sketch -->
    <title>heavy snow shower</title>
    <desc>Created with Sketch.</desc>
    <defs>
        <linearGradient x1="2.92315934%" y1="2.92315934%" x2="98.1086575%" y2="98.1086575%" id="linearGradient-1">
            <stop stop-color="#ABA8E4" offset="0%"></stop>
            <stop stop-color="#4D3F89" offset="100%"></stop>
        </linearGradient>
        <rect id="path-2" x="0" y="0" width="874" height="2197"></rect>
    </defs>
    <g id="Page-1" stroke="none" stroke-width="1" fill="none" fill-rule="evenodd">
        <g id="heavy-snow-shower">
            <g id="Group-24-Copy-2">
                <g id="night-rainy-copy-3">
                    <g id="Group-5-Copy-3">
                        <g id="with-content-copy-7">
                            <g id="Shape">
                                <g id="fluffy-cloud-silhouette">
                                    <mask id="mask-3" fill="white">
                                        <use xlink:href="#path-2"></use>
                                    </mask>
                                    <use id="Mask" fill="url(#linearGradient-1)" xlink:href="#path-2"></use>
                                    <g mask="url(#mask-3)" id="Group">
                                        <g transform="translate(-57.000000, 182.000000)">
                                            <g>
                                                <path d="M634.129311,271.070416 C614.79149,246.994605 590.257802,231.505628 560.558489,224.597433 C570.006621,210.082719 574.717379,194.188303 574.717379,176.914184 C574.717379,152.494658 566.080989,131.649046 548.817885,114.370086 C531.551153,97.0971772 510.713244,88.4570921 486.30416,88.4570921 C464.200855,88.4570921 445.086837,95.5988685 428.974204,109.882421 C415.394784,77.1713667 393.800783,50.679866 364.217606,30.4079196 C334.627171,10.1408143 301.639764,0 265.257804,0 C216.445684,0 174.766238,17.2813805 140.226724,51.8356696 C105.684791,86.3814868 88.4192681,128.081183 88.4192681,176.917815 C88.4192681,180.374333 88.65033,185.323109 89.1100342,191.773823 C62.4012189,204.214142 40.8701248,223.044662 24.5228007,248.276277 C8.17668641,273.493368 0,301.31495 0,331.72287 C0,374.337527 15.1424151,410.793143 45.4187771,441.081246 C75.6963489,471.377821 112.136377,486.524294 154.734022,486.524294 L530.525287,486.524294 C567.13105,486.524294 598.387308,473.556299 624.29527,447.649357 C650.199603,421.735153 663.153584,390.465524 663.153584,353.83563 C663.149955,322.739069 653.474391,295.138965 634.129311,271.070416 Z" id="Shape" fill="#FFFFFF" fill-rule="nonzero" opacity="0.300000012"></path>
                                                <path d="M552.444377,278.833045 C537.503458,260.231428 518.548073,248.264229 495.601588,242.926772 C502.901468,231.712315 506.541126,219.431863 506.541126,206.085416 C506.541126,187.218235 499.868419,171.112356 486.530483,157.762169 C473.189742,144.416656 457.089815,137.741095 438.230702,137.741095 C421.153097,137.741095 406.385094,143.259023 393.936042,154.294879 C383.444217,129.021441 366.760113,108.553397 343.903358,92.8907481 C321.040995,77.2318392 295.554039,69.3967742 267.444362,69.3967742 C229.730809,69.3967742 197.528152,82.7488321 170.841997,109.446402 C144.153973,136.137427 130.814168,168.35573 130.814168,206.088221 C130.814168,208.75882 130.992692,212.582376 131.347872,217.566372 C110.711925,227.178095 94.0764248,241.72706 81.4460439,261.221682 C68.8165978,280.705082 62.4990706,302.200783 62.4990706,325.694757 C62.4990706,358.619983 74.1985065,386.78657 97.5908355,410.18797 C120.984099,433.595917 149.138642,445.298487 182.050724,445.298487 L472.39713,445.298487 C500.679725,445.298487 524.829147,435.279067 544.846334,415.262669 C564.860716,395.24066 574.869309,371.080907 574.869309,342.779668 C574.866505,318.753632 567.390904,297.429052 552.444377,278.833045 Z" id="Shape" fill="#FFFFFF" fill-rule="nonzero" opacity="0.5"></path>
                                                <path d="M463.717692,288.625306 C452.739147,274.95689 438.810783,266.163426 421.94977,262.241477 C427.313701,254.001126 429.988112,244.977484 429.988112,235.170552 C429.988112,221.307 425.085025,209.472445 415.284347,199.662765 C405.481608,189.856519 393.651427,184.951335 379.793803,184.951335 C367.245226,184.951335 356.393739,189.005894 347.24621,197.11501 C339.536847,178.544158 327.277414,163.504297 310.482334,151.995426 C293.683133,140.489303 274.955389,134.732119 254.300477,134.732119 C226.588664,134.732119 202.926241,144.543174 183.317329,164.160474 C163.707044,183.772965 153.904992,207.446884 153.904992,235.172613 C153.904992,237.134961 154.036171,239.9445 154.297156,243.606726 C139.13392,250.669394 126.910201,261.359932 117.629432,275.684526 C108.34935,290.000874 103.707249,305.795855 103.707249,323.059161 C103.707249,347.252526 112.303962,367.949255 129.49258,385.144539 C146.681885,402.344632 167.369764,410.943648 191.55347,410.943648 L404.899199,410.943648 C425.68117,410.943648 443.426099,403.581406 458.134671,388.873413 C472.841183,374.161297 480.195469,356.408777 480.195469,335.613106 C480.193409,317.958842 474.700359,302.2896 463.717692,288.625306 Z" id="Shape" fill="#FFFFFF" fill-rule="nonzero"></path>
                                            </g>
                                        </g>
                                    </g>
                                </g>
                            </g>
                        </g>
                    </g>
                </g>
                <path d="M432.065424,838.633738 L425.394078,834.788928 L431.026283,831.443453 C431.931748,831.008361 432.211982,829.795665 431.697044,828.904096 C431.172841,827.991053 430.041406,827.798501 429.182528,828.297748 L421.673128,832.684663 L409.738576,825.758302 L421.67304,818.903313 L429.18244,823.2831 C429.416968,823.454268 429.718731,823.554152 430.054288,823.554152 C430.690726,823.554152 431.260811,823.254586 431.696955,822.68388 C432.199806,821.777966 431.93166,820.579615 431.026194,820.144523 L425.39399,816.799048 L432.065336,812.954326 C432.93489,812.454991 433.233917,811.335051 432.736097,810.414881 C432.260599,809.530352 431.084076,809.223658 430.187964,809.744378 L423.483001,813.624829 L423.382854,806.93388 C423.367148,805.899568 422.578241,805.064937 421.5391,805.064937 C420.500135,805.064937 419.68758,805.963723 419.695433,806.93388 L419.761962,815.764736 L407.894733,822.619725 L407.894733,808.709978 L415.370604,804.458589 C416.243335,803.966383 416.623627,802.817929 416.107982,801.919232 C415.584397,801.00619 414.509609,800.735049 413.593467,801.248729 L407.894733,804.458677 L407.894733,796.868854 C407.894733,795.834543 407.056503,795 406.017361,795 C404.97822,795 404.173607,795.834543 404.173607,796.868854 L404.173607,804.529873 L398.273257,801.248641 C397.354203,800.742178 396.307915,801.027487 395.792271,801.919144 C395.268774,802.832186 395.594184,803.952126 396.496032,804.458501 L404.173607,808.774133 L404.173607,822.548354 L392.037615,815.564967 L392.10485,806.933792 C392.205702,805.963723 391.333854,805.064849 390.294713,805.064849 L390.227478,805.064849 C389.255483,805.064849 388.394488,805.89948 388.383723,806.933792 L388.316488,813.424972 L381.779701,809.680047 C380.867088,809.152198 379.740683,809.466021 379.265097,810.343421 C378.767276,811.27072 379.024745,812.362147 379.935946,812.889995 L386.539969,816.699075 L380.773471,820.144435 C379.868623,820.579615 379.586095,821.792223 380.136857,822.68388 C380.491561,823.261715 381.007999,823.554152 381.712378,823.554152 C382.08067,823.554152 382.387462,823.461396 382.684284,823.2831 L390.22739,818.83907 L402.329852,825.758302 L390.22739,832.748817 L382.684284,828.297748 C381.778818,827.769899 380.611648,828.019567 380.136769,828.904096 C379.638948,829.824266 379.909299,830.929949 380.773295,831.443453 L386.53988,834.853083 L379.93577,838.697893 C379.026775,839.225741 378.73207,840.338552 379.26492,841.244466 C379.637624,841.872199 380.136857,842.178982 380.840618,842.178982 C381.007999,842.178982 381.34338,842.079097 381.779701,841.907929 L388.316488,838.163004 L388.383723,844.654184 C388.394488,845.688496 389.255483,846.487397 390.227478,846.487397 L390.294713,846.487397 C391.333854,846.487397 392.112703,845.624253 392.10485,844.582813 L392.037615,835.958766 L404.173607,829.039622 L404.173607,842.742472 L396.496032,847.058015 C395.579889,847.571607 395.259421,848.691547 395.792271,849.597461 C396.164886,850.232322 396.664119,850.539016 397.367791,850.539016 C397.70326,850.539016 398.01217,850.481989 398.273257,850.332119 L404.173607,846.993684 L404.173607,854.783188 C404.173607,855.8175 404.97822,856.623529 406.017361,856.623529 C407.056503,856.623529 407.894733,855.8175 407.894733,854.783188 L407.894733,847.122082 L413.593467,850.332119 C413.854377,850.481901 414.163375,850.539016 414.465315,850.539016 C415.202517,850.539016 415.746131,850.23945 416.107982,849.597461 C416.617185,848.698675 416.288246,847.571519 415.370604,847.058015 L407.894733,842.877998 L407.894733,828.968251 L419.761962,835.82324 L419.695433,844.582813 C419.686786,845.624253 420.500046,846.487397 421.539188,846.487397 C422.578329,846.487397 423.367148,845.688496 423.382854,844.654184 L423.483001,837.927593 L430.187964,841.843686 C430.446845,841.993469 430.79149,842.043455 431.160576,842.043455 C431.864425,842.043455 432.380687,841.751018 432.736008,841.173183 C433.286241,840.281526 432.934978,839.133073 432.065424,838.633738 Z" id="Shape" fill="#FFFFFF" fill-rule="nonzero" opacity="0.900000036"></path>
                <path d="M242.065424,778.633738 L235.394078,774.788928 L241.026283,771.443453 C241.931748,771.008361 242.211982,769.795665 241.697044,768.904096 C241.172841,767.991053 240.041406,767.798501 239.182528,768.297748 L231.673128,772.684663 L219.738576,765.758302 L231.67304,758.903313 L239.18244,763.2831 C239.416968,763.454268 239.718731,763.554152 240.054288,763.554152 C240.690726,763.554152 241.260811,763.254586 241.696955,762.68388 C242.199806,761.777966 241.93166,760.579615 241.026194,760.144523 L235.39399,756.799048 L242.065336,752.954326 C242.93489,752.454991 243.233917,751.335051 242.736097,750.414881 C242.260599,749.530352 241.084076,749.223658 240.187964,749.744378 L233.483001,753.624829 L233.382854,746.93388 C233.367148,745.899568 232.578241,745.064937 231.5391,745.064937 C230.500135,745.064937 229.68758,745.963723 229.695433,746.93388 L229.761962,755.764736 L217.894733,762.619725 L217.894733,748.709978 L225.370604,744.458589 C226.243335,743.966383 226.623627,742.817929 226.107982,741.919232 C225.584397,741.00619 224.509609,740.735049 223.593467,741.248729 L217.894733,744.458677 L217.894733,736.868854 C217.894733,735.834543 217.056503,735 216.017361,735 C214.97822,735 214.173607,735.834543 214.173607,736.868854 L214.173607,744.529873 L208.273257,741.248641 C207.354203,740.742178 206.307915,741.027487 205.792271,741.919144 C205.268774,742.832186 205.594184,743.952126 206.496032,744.458501 L214.173607,748.774133 L214.173607,762.548354 L202.037615,755.564967 L202.10485,746.933792 C202.205702,745.963723 201.333854,745.064849 200.294713,745.064849 L200.227478,745.064849 C199.255483,745.064849 198.394488,745.89948 198.383723,746.933792 L198.316488,753.424972 L191.779701,749.680047 C190.867088,749.152198 189.740683,749.466021 189.265097,750.343421 C188.767276,751.27072 189.024745,752.362147 189.935946,752.889995 L196.539969,756.699075 L190.773471,760.144435 C189.868623,760.579615 189.586095,761.792223 190.136857,762.68388 C190.491561,763.261715 191.007999,763.554152 191.712378,763.554152 C192.08067,763.554152 192.387462,763.461396 192.684284,763.2831 L200.22739,758.83907 L212.329852,765.758302 L200.22739,772.748817 L192.684284,768.297748 C191.778818,767.769899 190.611648,768.019567 190.136769,768.904096 C189.638948,769.824266 189.909299,770.929949 190.773295,771.443453 L196.53988,774.853083 L189.93577,778.697893 C189.026775,779.225741 188.73207,780.338552 189.26492,781.244466 C189.637624,781.872199 190.136857,782.178982 190.840618,782.178982 C191.007999,782.178982 191.34338,782.079097 191.779701,781.907929 L198.316488,778.163004 L198.383723,784.654184 C198.394488,785.688496 199.255483,786.487397 200.227478,786.487397 L200.294713,786.487397 C201.333854,786.487397 202.112703,785.624253 202.10485,784.582813 L202.037615,775.958766 L214.173607,769.039622 L214.173607,782.742472 L206.496032,787.058015 C205.579889,787.571607 205.259421,788.691547 205.792271,789.597461 C206.164886,790.232322 206.664119,790.539016 207.367791,790.539016 C207.70326,790.539016 208.01217,790.481989 208.273257,790.332119 L214.173607,786.993684 L214.173607,794.783188 C214.173607,795.8175 214.97822,796.623529 216.017361,796.623529 C217.056503,796.623529 217.894733,795.8175 217.894733,794.783188 L217.894733,787.122082 L223.593467,790.332119 C223.854377,790.481901 224.163375,790.539016 224.465315,790.539016 C225.202517,790.539016 225.746131,790.23945 226.107982,789.597461 C226.617185,788.698675 226.288246,787.571519 225.370604,787.058015 L217.894733,782.877998 L217.894733,768.968251 L229.761962,775.82324 L229.695433,784.582813 C229.686786,785.624253 230.500046,786.487397 231.539188,786.487397 C232.578329,786.487397 233.367148,785.688496 233.382854,784.654184 L233.483001,777.927593 L240.187964,781.843686 C240.446845,781.993469 240.79149,782.043455 241.160576,782.043455 C241.864425,782.043455 242.380687,781.751018 242.736008,781.173183 C243.286241,780.281526 242.934978,779.133073 242.065424,778.633738 Z" id="Shape" fill="#FFFFFF" fill-rule="nonzero" opacity="0.900000036"></path>
                <path d="M572.362171,1049.43432 L562.510538,1043.75665 L570.827662,1038.81636 C572.164771,1038.17386 572.578595,1036.38306 571.818181,1035.06647 C571.044086,1033.71817 569.373286,1033.43383 568.104974,1034.17107 L557.015778,1040.64927 L539.391922,1030.42105 L557.015648,1020.29823 L568.104844,1026.7659 C568.451173,1027.01866 568.89679,1027.16616 569.392309,1027.16616 C570.332143,1027.16616 571.173992,1026.72379 571.818051,1025.88103 C572.560614,1024.54325 572.164641,1022.77364 570.827532,1022.13113 L562.510407,1017.19084 L572.362041,1011.51331 C573.646119,1010.77594 574.087696,1009.12211 573.35256,1007.76329 C572.650389,1006.4571 570.913007,1006.0042 569.58971,1006.77315 L559.688432,1012.50345 L559.540545,1002.62286 C559.517352,1001.09549 558.352366,999.86298 556.817857,999.86298 C555.283609,999.86298 554.083702,1001.19022 554.095299,1002.62286 L554.193543,1015.66347 L536.669103,1025.78629 L536.669103,1005.24564 L547.708786,998.967581 C548.997555,998.240735 549.559135,996.544804 548.797679,995.21769 C548.024496,993.869392 546.437347,993.468997 545.084472,994.227552 L536.669103,998.967711 L536.669103,987.759754 C536.669103,986.232376 535.431281,985 533.896772,985 C532.362263,985 531.174083,986.232376 531.174083,987.759754 L531.174083,999.072846 L522.460986,994.227422 C521.103811,993.479523 519.558748,993.900842 518.797292,995.21756 C518.024239,996.565857 518.504775,998.219682 519.836541,998.967451 L531.174083,1005.34038 L531.174083,1025.68089 L513.252759,1015.36846 L513.352045,1002.62273 C513.500975,1001.19022 512.213509,999.86285 510.679,999.86285 C509.144361,999.86285 507.872922,1001.09536 507.857025,1002.62273 L507.757739,1012.20832 L498.104808,1006.67815 C496.757145,1005.89867 495.093772,1006.3621 494.391471,1007.65776 C493.656335,1009.02711 494.036542,1010.63883 495.38212,1011.41831 L505.134337,1017.04321 L496.6189,1022.131 C495.282703,1022.77364 494.865492,1024.56431 495.678806,1025.88103 C496.202601,1026.73432 496.96523,1027.16616 498.005392,1027.16616 C498.549252,1027.16616 499.002295,1027.02919 499.440614,1026.7659 L510.579583,1020.20336 L528.451395,1030.42105 L510.579583,1040.74401 L499.440614,1034.17107 C498.103505,1033.39159 496.379935,1033.76028 495.678676,1035.06647 C494.94354,1036.4253 495.34277,1038.05807 496.618639,1038.81636 L505.134207,1043.85139 L495.381859,1049.52906 C494.039539,1050.30853 493.604346,1051.95183 494.39121,1053.2896 C494.941585,1054.21658 495.678806,1054.66961 496.718056,1054.66961 C496.96523,1054.66961 497.460489,1054.52211 498.104808,1054.26935 L507.757739,1048.73918 L507.857025,1058.32476 C507.872922,1059.85214 509.144361,1061.03189 510.579714,1061.03189 C512.213509,1061.03189 513.363642,1059.75727 513.352045,1058.21937 L513.252759,1045.48416 L531.174083,1035.2666 L531.174083,1055.50172 L519.836541,1061.87452 C518.483667,1062.63295 518.010427,1064.28677 518.797292,1065.62454 C519.347536,1066.56205 520.084757,1067.01495 521.123877,1067.01495 C521.619266,1067.01495 522.075437,1066.93073 522.460986,1066.70942 L531.174083,1061.77952 L531.174083,1073.28235 C531.174083,1074.80973 532.362263,1076 533.896772,1076 C535.431281,1076 536.669103,1074.80973 536.669103,1073.28235 L536.669103,1061.96913 L545.084472,1066.70942 C545.469761,1066.9306 545.926061,1067.01495 546.371938,1067.01495 C547.46057,1067.01495 548.263331,1066.57257 548.797679,1065.62454 C549.549624,1064.2973 549.063876,1062.63282 547.708786,1061.87452 L536.669103,1055.70185 L536.669103,1035.16121 L554.193543,1045.28403 L554.095299,1058.21937 C554.08253,1059.75727 555.283478,1061.03189 556.817987,1061.03189 C558.352496,1061.03189 559.517352,1059.85214 559.540545,1058.32476 L559.688432,1048.39155 L569.58971,1054.17448 C569.972001,1054.39566 570.480942,1054.46948 571.025975,1054.46948 C572.065355,1054.46948 572.827723,1054.03763 573.352429,1053.18434 C574.164962,1051.86762 573.646249,1050.17169 572.362171,1049.43432 Z" id="Shape-Copy-13" fill="#FFFFFF" fill-rule="nonzero" opacity="0.600000024"></path>
                <path d="M675.39045,1293.8813 L660.883649,1285.52079 L673.130844,1278.24607 C675.099773,1277.29997 675.70914,1274.66297 674.589409,1272.72426 C673.449533,1270.73885 670.989234,1270.32015 669.12161,1271.40576 L652.792465,1280.94508 L626.840852,1265.88375 L652.792273,1250.97761 L669.121418,1260.50143 C669.631398,1260.87364 670.28758,1261.09084 671.017247,1261.09084 C672.401177,1261.09084 673.640824,1260.43943 674.589218,1259.19843 C675.682662,1257.22853 675.099581,1254.62272 673.130652,1253.67662 L660.883457,1246.4019 L675.390258,1238.04158 C677.281098,1236.95577 677.931333,1234.52047 676.848824,1232.51957 C675.814858,1230.59616 673.256516,1229.92926 671.307924,1231.06156 L656.728021,1239.49958 L656.510253,1224.95015 C656.476101,1222.70105 654.760627,1220.88615 652.50102,1220.88615 C650.241797,1220.88615 648.474903,1222.84055 648.491979,1224.95015 L648.636646,1244.1528 L622.831427,1259.05893 L622.831427,1228.81227 L639.087663,1219.56765 C640.985411,1218.49735 641.812353,1216.00004 640.691088,1214.04583 C639.552555,1212.06042 637.215434,1211.47083 635.223289,1212.58782 L622.831427,1219.56784 L622.831427,1203.06381 C622.831427,1200.81471 621.008699,1199 618.749093,1199 C616.489486,1199 614.739859,1200.81471 614.739859,1203.06381 L614.739859,1219.72265 L601.909583,1212.58763 C599.911106,1211.48633 597.635959,1212.10673 596.514693,1214.04564 C595.376352,1216.03104 596.083954,1218.46634 598.045017,1219.56746 L614.739859,1228.95177 L614.739859,1258.90373 L588.350216,1243.7184 L588.496418,1224.94996 C588.715721,1222.84055 586.819893,1220.88596 584.560286,1220.88596 C582.300487,1220.88596 580.428258,1222.70085 580.404851,1224.94996 L580.258649,1239.06499 L566.044443,1230.92167 C564.059972,1229.77387 561.61061,1230.45628 560.576452,1232.36418 C559.493943,1234.38059 560.053809,1236.75389 562.03521,1237.90169 L576.395617,1246.18451 L563.856402,1253.67642 C561.888816,1254.62272 561.274461,1257.25953 562.472089,1259.19843 C563.24339,1260.45493 564.366382,1261.09084 565.898049,1261.09084 C566.698898,1261.09084 567.366016,1260.88914 568.011454,1260.50143 L584.413892,1250.83792 L610.730626,1265.88375 L584.413892,1281.08458 L568.011454,1271.40576 C566.042524,1270.25795 563.50452,1270.80085 562.471897,1272.72426 C561.389388,1274.72516 561.977266,1277.12946 563.856018,1278.24607 L576.395425,1285.66029 L562.034826,1294.02081 C560.058222,1295.16861 559.417389,1297.58841 560.576068,1299.55832 C561.38651,1300.92332 562.472089,1301.59042 564.002412,1301.59042 C564.366382,1301.59042 565.095665,1301.37322 566.044443,1301.00101 L580.258649,1292.8577 L580.404851,1306.97273 C580.428258,1309.22183 582.300487,1310.95904 584.414084,1310.95904 C586.819893,1310.95904 588.513494,1309.08214 588.496418,1306.81753 L588.350216,1288.06459 L614.739859,1273.01896 L614.739859,1302.81572 L598.045017,1312.19985 C596.052872,1313.31665 595.356014,1315.75195 596.514693,1317.72185 C597.324944,1319.10236 598.410522,1319.76926 599.940654,1319.76926 C600.670129,1319.76926 601.341852,1319.64526 601.909583,1319.31936 L614.739859,1312.05996 L614.739859,1328.99819 C614.739859,1331.24729 616.489486,1333 618.749093,1333 C621.008699,1333 622.831427,1331.24729 622.831427,1328.99819 L622.831427,1312.33916 L635.223289,1319.31936 C635.790637,1319.64507 636.462552,1319.76926 637.119117,1319.76926 C638.722158,1319.76926 639.904245,1319.11786 640.691088,1317.72185 C641.798347,1315.76745 641.08307,1313.31646 639.087663,1312.19985 L622.831427,1303.11042 L622.831427,1272.86376 L648.636646,1287.76989 L648.491979,1306.81753 C648.473176,1309.08214 650.241605,1310.95904 652.501212,1310.95904 C654.760819,1310.95904 656.476101,1309.22183 656.510253,1306.97273 L656.728021,1292.3458 L671.307924,1300.86132 C671.870859,1301.18702 672.620288,1301.29572 673.422864,1301.29572 C674.953379,1301.29572 676.075988,1300.65981 676.848632,1299.40331 C678.045109,1297.46441 677.28129,1294.96711 675.39045,1293.8813 Z" id="Shape-Copy-17" fill="#FFFFFF" fill-rule="nonzero" opacity="0.100000001"></path>
                <path d="M240.065424,1041.63374 L233.394078,1037.78893 L239.026283,1034.44345 C239.931748,1034.00836 240.211982,1032.79566 239.697044,1031.9041 C239.172841,1030.99105 238.041406,1030.7985 237.182528,1031.29775 L229.673128,1035.68466 L217.738576,1028.7583 L229.67304,1021.90331 L237.18244,1026.2831 C237.416968,1026.45427 237.718731,1026.55415 238.054288,1026.55415 C238.690726,1026.55415 239.260811,1026.25459 239.696955,1025.68388 C240.199806,1024.77797 239.93166,1023.57961 239.026194,1023.14452 L233.39399,1019.79905 L240.065336,1015.95433 C240.93489,1015.45499 241.233917,1014.33505 240.736097,1013.41488 C240.260599,1012.53035 239.084076,1012.22366 238.187964,1012.74438 L231.483001,1016.62483 L231.382854,1009.93388 C231.367148,1008.89957 230.578241,1008.06494 229.5391,1008.06494 C228.500135,1008.06494 227.68758,1008.96372 227.695433,1009.93388 L227.761962,1018.76474 L215.894733,1025.61973 L215.894733,1011.70998 L223.370604,1007.45859 C224.243335,1006.96638 224.623627,1005.81793 224.107982,1004.91923 C223.584397,1004.00619 222.509609,1003.73505 221.593467,1004.24873 L215.894733,1007.45868 L215.894733,999.868854 C215.894733,998.834543 215.056503,998 214.017361,998 C212.97822,998 212.173607,998.834543 212.173607,999.868854 L212.173607,1007.52987 L206.273257,1004.24864 C205.354203,1003.74218 204.307915,1004.02749 203.792271,1004.91914 C203.268774,1005.83219 203.594184,1006.95213 204.496032,1007.4585 L212.173607,1011.77413 L212.173607,1025.54835 L200.037615,1018.56497 L200.10485,1009.93379 C200.205702,1008.96372 199.333854,1008.06485 198.294713,1008.06485 L198.227478,1008.06485 C197.255483,1008.06485 196.394488,1008.89948 196.383723,1009.93379 L196.316488,1016.42497 L189.779701,1012.68005 C188.867088,1012.1522 187.740683,1012.46602 187.265097,1013.34342 C186.767276,1014.27072 187.024745,1015.36215 187.935946,1015.89 L194.539969,1019.69908 L188.773471,1023.14443 C187.868623,1023.57961 187.586095,1024.79222 188.136857,1025.68388 C188.491561,1026.26171 189.007999,1026.55415 189.712378,1026.55415 C190.08067,1026.55415 190.387462,1026.4614 190.684284,1026.2831 L198.22739,1021.83907 L210.329852,1028.7583 L198.22739,1035.74882 L190.684284,1031.29775 C189.778818,1030.7699 188.611648,1031.01957 188.136769,1031.9041 C187.638948,1032.82427 187.909299,1033.92995 188.773295,1034.44345 L194.53988,1037.85308 L187.93577,1041.69789 C187.026775,1042.22574 186.73207,1043.33855 187.26492,1044.24447 C187.637624,1044.8722 188.136857,1045.17898 188.840618,1045.17898 C189.007999,1045.17898 189.34338,1045.0791 189.779701,1044.90793 L196.316488,1041.163 L196.383723,1047.65418 C196.394488,1048.6885 197.255483,1049.4874 198.227478,1049.4874 L198.294713,1049.4874 C199.333854,1049.4874 200.112703,1048.62425 200.10485,1047.58281 L200.037615,1038.95877 L212.173607,1032.03962 L212.173607,1045.74247 L204.496032,1050.05802 C203.579889,1050.57161 203.259421,1051.69155 203.792271,1052.59746 C204.164886,1053.23232 204.664119,1053.53902 205.367791,1053.53902 C205.70326,1053.53902 206.01217,1053.48199 206.273257,1053.33212 L212.173607,1049.99368 L212.173607,1057.78319 C212.173607,1058.8175 212.97822,1059.62353 214.017361,1059.62353 C215.056503,1059.62353 215.894733,1058.8175 215.894733,1057.78319 L215.894733,1050.12208 L221.593467,1053.33212 C221.854377,1053.4819 222.163375,1053.53902 222.465315,1053.53902 C223.202517,1053.53902 223.746131,1053.23945 224.107982,1052.59746 C224.617185,1051.69867 224.288246,1050.57152 223.370604,1050.05802 L215.894733,1045.878 L215.894733,1031.96825 L227.761962,1038.82324 L227.695433,1047.58281 C227.686786,1048.62425 228.500046,1049.4874 229.539188,1049.4874 C230.578329,1049.4874 231.367148,1048.6885 231.382854,1047.65418 L231.483001,1040.92759 L238.187964,1044.84369 C238.446845,1044.99347 238.79149,1045.04346 239.160576,1045.04346 C239.864425,1045.04346 240.380687,1044.75102 240.736008,1044.17318 C241.286241,1043.28153 240.934978,1042.13307 240.065424,1041.63374 Z" id="Shape-Copy-14" fill="#FFFFFF" fill-rule="nonzero" opacity="0.600000024"></path>
                <path d="M123.842969,932.472349 L119.336817,929.875377 L123.141082,927.615681 C123.752678,927.321799 123.941961,926.502685 123.594147,925.900475 C123.240074,925.283762 122.475848,925.153703 121.895721,925.490919 L116.823507,928.454054 L108.76233,923.775654 L116.823447,919.145461 L121.895661,922.103781 C122.054073,922.219397 122.257898,922.286863 122.48455,922.286863 C122.914431,922.286863 123.299494,922.084522 123.594087,921.699039 C123.933737,921.087141 123.752618,920.277716 123.141022,919.983834 L119.336758,917.724137 L123.842909,915.127225 C124.430248,914.78995 124.632226,914.033488 124.295974,913.41196 C123.9748,912.814506 123.180119,912.60735 122.574841,912.95907 L118.045982,915.580116 L117.978339,911.060723 C117.96773,910.362098 117.434864,909.798348 116.732977,909.798348 C116.03121,909.798348 115.482371,910.405432 115.487675,911.060723 L115.532612,917.025513 L107.516909,921.655706 L107.516909,912.260386 L112.566475,909.388791 C113.15596,909.056331 113.412828,908.28061 113.064536,907.673586 C112.710881,907.056873 111.984917,906.873731 111.36611,907.220695 L107.516909,909.388851 L107.516909,904.262315 C107.516909,903.563691 106.950727,903 106.24884,903 C105.546954,903 105.003479,903.563691 105.003479,904.262315 L105.003479,909.43694 L101.018095,907.220636 C100.397322,906.878546 99.6906077,907.071258 99.3423165,907.673526 C98.988721,908.29024 99.2085188,909.046701 99.8176708,909.388732 L105.003479,912.303719 L105.003479,921.607498 L96.8062393,916.890579 L96.851653,911.060663 C96.9197736,910.405432 96.330885,909.798289 95.6289984,909.798289 L95.5835847,909.798289 C94.9270522,909.798289 94.3454941,910.362039 94.3382231,911.060663 L94.2928094,915.445122 L89.8775451,912.915618 C89.2611222,912.559083 88.500293,912.771054 88.1790594,913.363693 C87.842807,913.990036 88.0167142,914.727239 88.6321836,915.083773 L93.0928616,917.656611 L89.1978886,919.983774 C88.5867103,920.277716 88.3958772,921.096771 88.7678884,921.699039 C89.0074727,922.089337 89.3563003,922.286863 89.8320718,922.286863 C90.0808342,922.286863 90.2880567,922.224211 90.4885446,922.103781 L95.5835251,919.102068 L103.758117,923.775654 L95.5835251,928.497388 L90.4885446,925.490919 C89.8769491,925.134384 89.0885857,925.303022 88.7678288,925.900475 C88.4315765,926.522003 88.614185,927.268836 89.1977694,927.615681 L93.092802,929.918711 L88.6320644,932.515682 C88.018085,932.872217 87.8190274,933.623864 88.1789402,934.235762 C88.4306825,934.659763 88.7678884,934.866979 89.2432427,934.866979 C89.3563003,934.866979 89.5828326,934.799512 89.8775451,934.683897 L94.2928094,932.154392 L94.3382231,936.538851 C94.3454941,937.237476 94.9270522,937.777092 95.5835847,937.777092 L95.6289984,937.777092 C96.330885,937.777092 96.8569573,937.194083 96.851653,936.490644 L96.8062393,930.665543 L105.003479,925.992017 L105.003479,935.247588 L99.8176708,938.162516 C99.1988639,938.509421 98.9824037,939.265882 99.3423165,939.877781 C99.5939992,940.306597 99.9312051,940.513753 100.4065,940.513753 C100.633092,940.513753 100.841745,940.475235 101.018095,940.374004 L105.003479,938.119063 L105.003479,943.380474 C105.003479,944.079098 105.546954,944.623529 106.24884,944.623529 C106.950727,944.623529 107.516909,944.079098 107.516909,943.380474 L107.516909,938.20579 L111.36611,940.374004 C111.542342,940.475175 111.751054,940.513753 111.954999,940.513753 C112.452941,940.513753 112.820125,940.311412 113.064536,939.877781 C113.408477,939.270697 113.186295,938.509361 112.566475,938.162516 L107.516909,935.339129 L107.516909,925.943809 L115.532612,930.574002 L115.487675,936.490644 C115.481835,937.194083 116.03115,937.777092 116.733037,937.777092 C117.434923,937.777092 117.96773,937.237476 117.978339,936.538851 L118.045982,931.995384 L122.574841,934.640504 C122.749701,934.741675 122.982492,934.775438 123.23179,934.775438 C123.707204,934.775438 124.055913,934.577912 124.295914,934.187614 C124.667568,933.585345 124.430308,932.809624 123.842969,932.472349 Z" id="Shape-Copy-14" fill="#FFFFFF" fill-rule="nonzero" opacity="0.600000024"></path>
                <path d="M432.47277,1232.27926 L427.384563,1229.34684 L431.680221,1226.79526 C432.370816,1226.46342 432.584549,1225.5385 432.191808,1224.85851 C431.792,1224.16213 430.92906,1224.01527 430.273998,1224.39605 L424.546611,1227.74193 L415.444179,1222.45922 L424.546543,1217.23095 L430.27393,1220.5714 C430.452804,1220.70195 430.682957,1220.77813 430.938885,1220.77813 C431.424293,1220.77813 431.859095,1220.54965 432.19174,1220.11438 C432.575262,1219.42344 432.370749,1218.50946 431.680154,1218.17762 L427.384496,1215.62604 L432.472703,1212.69369 C433.135908,1212.31285 433.363975,1211.45867 432.984289,1210.75686 C432.621629,1210.08224 431.7243,1209.84832 431.040839,1210.24547 L425.926993,1213.20508 L425.850611,1208.10192 C425.838633,1207.31305 425.236936,1206.67648 424.444388,1206.67648 C423.651974,1206.67648 423.032242,1207.36198 423.038231,1208.10192 L423.088973,1214.83717 L414.037889,1220.06545 L414.037889,1209.45654 L419.739703,1206.21403 C420.405331,1205.83862 420.695378,1204.9627 420.302098,1204.27727 C419.902762,1203.58089 419.083025,1203.3741 418.384288,1203.76588 L414.037889,1206.21409 L414.037889,1200.42537 C414.037889,1199.6365 413.398574,1199 412.606025,1199 C411.813476,1199 411.199801,1199.6365 411.199801,1200.42537 L411.199801,1206.26839 L406.69963,1203.76581 C405.998672,1203.37953 405.200672,1203.59714 404.807392,1204.2772 C404.408123,1204.97357 404.656312,1205.82775 405.344148,1206.21396 L411.199801,1209.50547 L411.199801,1220.01101 L401.943733,1214.68481 L401.995012,1208.10185 C402.071932,1207.36198 401.406977,1206.67642 400.614429,1206.67642 C399.821813,1206.67642 399.165135,1207.31299 399.156925,1208.10185 L399.105645,1213.05265 L394.120066,1210.19641 C393.42402,1209.79382 392.564915,1210.03317 392.202188,1210.70236 C391.822503,1211.40961 392.018873,1212.24203 392.713842,1212.64462 L397.750702,1215.54979 L393.352619,1218.17755 C392.662495,1218.50946 392.447012,1219.43431 392.867076,1220.11438 C393.137607,1220.55509 393.531492,1220.77813 394.068719,1220.77813 C394.349613,1220.77813 394.583603,1220.70738 394.809988,1220.5714 L400.563082,1217.18196 L409.793578,1222.45922 L400.563082,1227.79086 L394.809988,1224.39605 C394.119393,1223.99346 393.229197,1224.18388 392.867009,1224.85851 C392.487323,1225.56032 392.693519,1226.40362 393.352484,1226.79526 L397.750634,1229.39577 L392.713708,1232.32819 C392.020421,1232.73078 391.795651,1233.57952 392.202054,1234.27045 C392.486313,1234.74922 392.867076,1234.98321 393.403831,1234.98321 C393.531492,1234.98321 393.787286,1234.90702 394.120066,1234.77648 L399.105645,1231.92024 L399.156925,1236.87103 C399.165135,1237.6599 399.821813,1238.26922 400.563149,1238.26922 C401.406977,1238.26922 402.001002,1237.6109 401.995012,1236.8166 L401.943733,1230.23907 L411.199801,1224.96187 L411.199801,1235.41298 L405.344148,1238.70442 C404.64541,1239.09614 404.40099,1239.95031 404.807392,1240.64125 C405.091585,1241.12545 405.472347,1241.35937 406.009035,1241.35937 C406.264896,1241.35937 406.5005,1241.31587 406.69963,1241.20157 L411.199801,1238.65536 L411.199801,1244.59638 C411.199801,1245.38524 411.813476,1246 412.606025,1246 C413.398574,1246 414.037889,1245.38524 414.037889,1244.59638 L414.037889,1238.75329 L418.384288,1241.20157 C418.583283,1241.31581 418.818955,1241.35937 419.049243,1241.35937 C419.611503,1241.35937 420.026116,1241.13089 420.302098,1240.64125 C420.690465,1239.95575 420.439584,1239.09607 419.739703,1238.70442 L414.037889,1235.51634 L414.037889,1224.90744 L423.088973,1230.13571 L423.038231,1236.8166 C423.031636,1237.6109 423.651906,1238.26922 424.444455,1238.26922 C425.237004,1238.26922 425.838633,1237.6599 425.850611,1236.87103 L425.926993,1231.74069 L431.040839,1234.72748 C431.238286,1234.84172 431.501146,1234.87984 431.782646,1234.87984 C432.319469,1234.87984 432.71322,1234.6568 432.984222,1234.21609 C433.403882,1233.53602 433.135975,1232.6601 432.47277,1232.27926 Z" id="Shape-Copy-15" fill="#FFFFFF" fill-rule="nonzero" opacity="0.600000024"></path>
                <path d="M206.47277,1243.27926 L201.384563,1240.34684 L205.680221,1237.79526 C206.370816,1237.46342 206.584549,1236.5385 206.191808,1235.85851 C205.792,1235.16213 204.92906,1235.01527 204.273998,1235.39605 L198.546611,1238.74193 L189.444179,1233.45922 L198.546543,1228.23095 L204.27393,1231.5714 C204.452804,1231.70195 204.682957,1231.77813 204.938885,1231.77813 C205.424293,1231.77813 205.859095,1231.54965 206.19174,1231.11438 C206.575262,1230.42344 206.370749,1229.50946 205.680154,1229.17762 L201.384496,1226.62604 L206.472703,1223.69369 C207.135908,1223.31285 207.363975,1222.45867 206.984289,1221.75686 C206.621629,1221.08224 205.7243,1220.84832 205.040839,1221.24547 L199.926993,1224.20508 L199.850611,1219.10192 C199.838633,1218.31305 199.236936,1217.67648 198.444388,1217.67648 C197.651974,1217.67648 197.032242,1218.36198 197.038231,1219.10192 L197.088973,1225.83717 L188.037889,1231.06545 L188.037889,1220.45654 L193.739703,1217.21403 C194.405331,1216.83862 194.695378,1215.9627 194.302098,1215.27727 C193.902762,1214.58089 193.083025,1214.3741 192.384288,1214.76588 L188.037889,1217.21409 L188.037889,1211.42537 C188.037889,1210.6365 187.398574,1210 186.606025,1210 C185.813476,1210 185.199801,1210.6365 185.199801,1211.42537 L185.199801,1217.26839 L180.69963,1214.76581 C179.998672,1214.37953 179.200672,1214.59714 178.807392,1215.2772 C178.408123,1215.97357 178.656312,1216.82775 179.344148,1217.21396 L185.199801,1220.50547 L185.199801,1231.01101 L175.943733,1225.68481 L175.995012,1219.10185 C176.071932,1218.36198 175.406977,1217.67642 174.614429,1217.67642 C173.821813,1217.67642 173.165135,1218.31299 173.156925,1219.10185 L173.105645,1224.05265 L168.120066,1221.19641 C167.42402,1220.79382 166.564915,1221.03317 166.202188,1221.70236 C165.822503,1222.40961 166.018873,1223.24203 166.713842,1223.64462 L171.750702,1226.54979 L167.352619,1229.17755 C166.662495,1229.50946 166.447012,1230.43431 166.867076,1231.11438 C167.137607,1231.55509 167.531492,1231.77813 168.068719,1231.77813 C168.349613,1231.77813 168.583603,1231.70738 168.809988,1231.5714 L174.563082,1228.18196 L183.793578,1233.45922 L174.563082,1238.79086 L168.809988,1235.39605 C168.119393,1234.99346 167.229197,1235.18388 166.867009,1235.85851 C166.487323,1236.56032 166.693519,1237.40362 167.352484,1237.79526 L171.750634,1240.39577 L166.713708,1243.32819 C166.020421,1243.73078 165.795651,1244.57952 166.202054,1245.27045 C166.486313,1245.74922 166.867076,1245.98321 167.403831,1245.98321 C167.531492,1245.98321 167.787286,1245.90702 168.120066,1245.77648 L173.105645,1242.92024 L173.156925,1247.87103 C173.165135,1248.6599 173.821813,1249.26922 174.563149,1249.26922 C175.406977,1249.26922 176.001002,1248.6109 175.995012,1247.8166 L175.943733,1241.23907 L185.199801,1235.96187 L185.199801,1246.41298 L179.344148,1249.70442 C178.64541,1250.09614 178.40099,1250.95031 178.807392,1251.64125 C179.091585,1252.12545 179.472347,1252.35937 180.009035,1252.35937 C180.264896,1252.35937 180.5005,1252.31587 180.69963,1252.20157 L185.199801,1249.65536 L185.199801,1255.59638 C185.199801,1256.38524 185.813476,1257 186.606025,1257 C187.398574,1257 188.037889,1256.38524 188.037889,1255.59638 L188.037889,1249.75329 L192.384288,1252.20157 C192.583283,1252.31581 192.818955,1252.35937 193.049243,1252.35937 C193.611503,1252.35937 194.026116,1252.13089 194.302098,1251.64125 C194.690465,1250.95575 194.439584,1250.09607 193.739703,1249.70442 L188.037889,1246.51634 L188.037889,1235.90744 L197.088973,1241.13571 L197.038231,1247.8166 C197.031636,1248.6109 197.651906,1249.26922 198.444455,1249.26922 C199.237004,1249.26922 199.838633,1248.6599 199.850611,1247.87103 L199.926993,1242.74069 L205.040839,1245.72748 C205.238286,1245.84172 205.501146,1245.87984 205.782646,1245.87984 C206.319469,1245.87984 206.71322,1245.6568 206.984222,1245.21609 C207.403882,1244.53602 207.135975,1243.6601 206.47277,1243.27926 Z" id="Shape-Copy-16" fill="#FFFFFF" fill-rule="nonzero" opacity="0.300000012"></path>
                <path d="M382.47277,1042.27926 L377.384563,1039.34684 L381.680221,1036.79526 C382.370816,1036.46342 382.584549,1035.5385 382.191808,1034.85851 C381.792,1034.16213 380.92906,1034.01527 380.273998,1034.39605 L374.546611,1037.74193 L365.444179,1032.45922 L374.546543,1027.23095 L380.27393,1030.5714 C380.452804,1030.70195 380.682957,1030.77813 380.938885,1030.77813 C381.424293,1030.77813 381.859095,1030.54965 382.19174,1030.11438 C382.575262,1029.42344 382.370749,1028.50946 381.680154,1028.17762 L377.384496,1025.62604 L382.472703,1022.69369 C383.135908,1022.31285 383.363975,1021.45867 382.984289,1020.75686 C382.621629,1020.08224 381.7243,1019.84832 381.040839,1020.24547 L375.926993,1023.20508 L375.850611,1018.10192 C375.838633,1017.31305 375.236936,1016.67648 374.444388,1016.67648 C373.651974,1016.67648 373.032242,1017.36198 373.038231,1018.10192 L373.088973,1024.83717 L364.037889,1030.06545 L364.037889,1019.45654 L369.739703,1016.21403 C370.405331,1015.83862 370.695378,1014.9627 370.302098,1014.27727 C369.902762,1013.58089 369.083025,1013.3741 368.384288,1013.76588 L364.037889,1016.21409 L364.037889,1010.42537 C364.037889,1009.6365 363.398574,1009 362.606025,1009 C361.813476,1009 361.199801,1009.6365 361.199801,1010.42537 L361.199801,1016.26839 L356.69963,1013.76581 C355.998672,1013.37953 355.200672,1013.59714 354.807392,1014.2772 C354.408123,1014.97357 354.656312,1015.82775 355.344148,1016.21396 L361.199801,1019.50547 L361.199801,1030.01101 L351.943733,1024.68481 L351.995012,1018.10185 C352.071932,1017.36198 351.406977,1016.67642 350.614429,1016.67642 C349.821813,1016.67642 349.165135,1017.31299 349.156925,1018.10185 L349.105645,1023.05265 L344.120066,1020.19641 C343.42402,1019.79382 342.564915,1020.03317 342.202188,1020.70236 C341.822503,1021.40961 342.018873,1022.24203 342.713842,1022.64462 L347.750702,1025.54979 L343.352619,1028.17755 C342.662495,1028.50946 342.447012,1029.43431 342.867076,1030.11438 C343.137607,1030.55509 343.531492,1030.77813 344.068719,1030.77813 C344.349613,1030.77813 344.583603,1030.70738 344.809988,1030.5714 L350.563082,1027.18196 L359.793578,1032.45922 L350.563082,1037.79086 L344.809988,1034.39605 C344.119393,1033.99346 343.229197,1034.18388 342.867009,1034.85851 C342.487323,1035.56032 342.693519,1036.40362 343.352484,1036.79526 L347.750634,1039.39577 L342.713708,1042.32819 C342.020421,1042.73078 341.795651,1043.57952 342.202054,1044.27045 C342.486313,1044.74922 342.867076,1044.98321 343.403831,1044.98321 C343.531492,1044.98321 343.787286,1044.90702 344.120066,1044.77648 L349.105645,1041.92024 L349.156925,1046.87103 C349.165135,1047.6599 349.821813,1048.26922 350.563149,1048.26922 C351.406977,1048.26922 352.001002,1047.6109 351.995012,1046.8166 L351.943733,1040.23907 L361.199801,1034.96187 L361.199801,1045.41298 L355.344148,1048.70442 C354.64541,1049.09614 354.40099,1049.95031 354.807392,1050.64125 C355.091585,1051.12545 355.472347,1051.35937 356.009035,1051.35937 C356.264896,1051.35937 356.5005,1051.31587 356.69963,1051.20157 L361.199801,1048.65536 L361.199801,1054.59638 C361.199801,1055.38524 361.813476,1056 362.606025,1056 C363.398574,1056 364.037889,1055.38524 364.037889,1054.59638 L364.037889,1048.75329 L368.384288,1051.20157 C368.583283,1051.31581 368.818955,1051.35937 369.049243,1051.35937 C369.611503,1051.35937 370.026116,1051.13089 370.302098,1050.64125 C370.690465,1049.95575 370.439584,1049.09607 369.739703,1048.70442 L364.037889,1045.51634 L364.037889,1034.90744 L373.088973,1040.13571 L373.038231,1046.8166 C373.031636,1047.6109 373.651906,1048.26922 374.444455,1048.26922 C375.237004,1048.26922 375.838633,1047.6599 375.850611,1046.87103 L375.926993,1041.74069 L381.040839,1044.72748 C381.238286,1044.84172 381.501146,1044.87984 381.782646,1044.87984 C382.319469,1044.87984 382.71322,1044.6568 382.984222,1044.21609 C383.403882,1043.53602 383.135975,1042.6601 382.47277,1042.27926 Z" id="Shape-Copy-15" fill="#FFFFFF" fill-rule="nonzero" opacity="0.300000012"></path>
                <path d="M660.065424,809.633738 L653.394078,805.788928 L659.026283,802.443453 C659.931748,802.008361 660.211982,800.795665 659.697044,799.904096 C659.172841,798.991053 658.041406,798.798501 657.182528,799.297748 L649.673128,803.684663 L637.738576,796.758302 L649.67304,789.903313 L657.18244,794.2831 C657.416968,794.454268 657.718731,794.554152 658.054288,794.554152 C658.690726,794.554152 659.260811,794.254586 659.696955,793.68388 C660.199806,792.777966 659.93166,791.579615 659.026194,791.144523 L653.39399,787.799048 L660.065336,783.954326 C660.93489,783.454991 661.233917,782.335051 660.736097,781.414881 C660.260599,780.530352 659.084076,780.223658 658.187964,780.744378 L651.483001,784.624829 L651.382854,777.93388 C651.367148,776.899568 650.578241,776.064937 649.5391,776.064937 C648.500135,776.064937 647.68758,776.963723 647.695433,777.93388 L647.761962,786.764736 L635.894733,793.619725 L635.894733,779.709978 L643.370604,775.458589 C644.243335,774.966383 644.623627,773.817929 644.107982,772.919232 C643.584397,772.00619 642.509609,771.735049 641.593467,772.248729 L635.894733,775.458677 L635.894733,767.868854 C635.894733,766.834543 635.056503,766 634.017361,766 C632.97822,766 632.173607,766.834543 632.173607,767.868854 L632.173607,775.529873 L626.273257,772.248641 C625.354203,771.742178 624.307915,772.027487 623.792271,772.919144 C623.268774,773.832186 623.594184,774.952126 624.496032,775.458501 L632.173607,779.774133 L632.173607,793.548354 L620.037615,786.564967 L620.10485,777.933792 C620.205702,776.963723 619.333854,776.064849 618.294713,776.064849 L618.227478,776.064849 C617.255483,776.064849 616.394488,776.89948 616.383723,777.933792 L616.316488,784.424972 L609.779701,780.680047 C608.867088,780.152198 607.740683,780.466021 607.265097,781.343421 C606.767276,782.27072 607.024745,783.362147 607.935946,783.889995 L614.539969,787.699075 L608.773471,791.144435 C607.868623,791.579615 607.586095,792.792223 608.136857,793.68388 C608.491561,794.261715 609.007999,794.554152 609.712378,794.554152 C610.08067,794.554152 610.387462,794.461396 610.684284,794.2831 L618.22739,789.83907 L630.329852,796.758302 L618.22739,803.748817 L610.684284,799.297748 C609.778818,798.769899 608.611648,799.019567 608.136769,799.904096 C607.638948,800.824266 607.909299,801.929949 608.773295,802.443453 L614.53988,805.853083 L607.93577,809.697893 C607.026775,810.225741 606.73207,811.338552 607.26492,812.244466 C607.637624,812.872199 608.136857,813.178982 608.840618,813.178982 C609.007999,813.178982 609.34338,813.079097 609.779701,812.907929 L616.316488,809.163004 L616.383723,815.654184 C616.394488,816.688496 617.255483,817.487397 618.227478,817.487397 L618.294713,817.487397 C619.333854,817.487397 620.112703,816.624253 620.10485,815.582813 L620.037615,806.958766 L632.173607,800.039622 L632.173607,813.742472 L624.496032,818.058015 C623.579889,818.571607 623.259421,819.691547 623.792271,820.597461 C624.164886,821.232322 624.664119,821.539016 625.367791,821.539016 C625.70326,821.539016 626.01217,821.481989 626.273257,821.332119 L632.173607,817.993684 L632.173607,825.783188 C632.173607,826.8175 632.97822,827.623529 634.017361,827.623529 C635.056503,827.623529 635.894733,826.8175 635.894733,825.783188 L635.894733,818.122082 L641.593467,821.332119 C641.854377,821.481901 642.163375,821.539016 642.465315,821.539016 C643.202517,821.539016 643.746131,821.23945 644.107982,820.597461 C644.617185,819.698675 644.288246,818.571519 643.370604,818.058015 L635.894733,813.877998 L635.894733,799.968251 L647.761962,806.82324 L647.695433,815.582813 C647.686786,816.624253 648.500046,817.487397 649.539188,817.487397 C650.578329,817.487397 651.367148,816.688496 651.382854,815.654184 L651.483001,808.927593 L658.187964,812.843686 C658.446845,812.993469 658.79149,813.043455 659.160576,813.043455 C659.864425,813.043455 660.380687,812.751018 660.736008,812.173183 C661.286241,811.281526 660.934978,810.133073 660.065424,809.633738 Z" id="Shape-Copy-12" fill="#FFFFFF" fill-rule="nonzero" opacity="0.600000024"></path>
            </g>
            <g id="Group-14-Copy-2" transform="translate(54.000000, 709.000000)" fill="#FFFFFF">
                <circle id="Oval-6" opacity="0.699999988" cx="9.5" cy="469.5" r="9.5"></circle>
                <circle id="Oval-6-Copy-3" opacity="0.300000012" cx="78.5" cy="341.5" r="4.5"></circle>
                <circle id="Oval-6" cx="404" cy="334" r="4"></circle>
                <circle id="Oval-6" opacity="0.600000024" cx="607" cy="467" r="7"></circle>
                <circle id="Oval-6-Copy" opacity="0.400000006" cx="609" cy="760" r="7"></circle>
                <circle id="Oval-6-Copy-2" opacity="0.400000006" cx="654" cy="299" r="7"></circle>
                <circle id="Oval-6" opacity="0.900000036" cx="406.5" cy="576.5" r="6.5"></circle>
                <circle id="Oval-6" opacity="0.699999988" cx="496.5" cy="6.5" r="6.5"></circle>
                <circle id="Oval-6" opacity="0.300000012" cx="190.5" cy="177.5" r="5.5"></circle>
            </g>
        </g>
    </g>
</svg>