<?xml version="1.0" encoding="UTF-8"?>
<svg width="874px" height="2197px" viewBox="0 0 874 2197" version="1.1" xmlns="http://www.w3.org/2000/svg" xmlns:xlink="http://www.w3.org/1999/xlink">
    <!-- Generator: Sketch 49.3 (51167) - http://www.bohemiancoding.com/sketch -->
    <title>unknown percitpation night</title>
    <desc>Created with Sketch.</desc>
    <defs>
        <linearGradient x1="2.92315934%" y1="2.92315934%" x2="98.1086575%" y2="98.1086575%" id="linearGradient-1">
            <stop stop-color="#ABA8E4" offset="0%"></stop>
            <stop stop-color="#4D3F89" offset="100%"></stop>
        </linearGradient>
        <rect id="path-2" x="0" y="0" width="874" height="2197"></rect>
    </defs>
    <g id="Page-2" stroke="none" stroke-width="1" fill="none" fill-rule="evenodd">
        <g id="Group-34" transform="translate(-6433.000000, -24013.000000)">
            <g id="unknown-percitpation-night" transform="translate(6433.000000, 24013.000000)">
                <g id="Group-15" transform="translate(268.000000, 831.000000)" stroke="#FFFFFF" stroke-linecap="round" stroke-width="10">
                    <path d="M112,67 L169,177" id="Path-3-Copy-12" opacity="0.300000012"></path>
                    <path d="M0,26 L54,137" id="Path-3-Copy-13" opacity="0.100000001"></path>
                    <path d="M245,200 L295,299" id="Path-3-Copy-15" opacity="0.100000001"></path>
                    <path d="M201,0 L327.270276,223.140398" id="Path-3-Copy-16" opacity="0.100000001"></path>
                    <path d="M404,184 L461,295" id="Path-3-Copy-19" opacity="0.400000006"></path>
                    <path d="M400,0 L457,99" id="Path-3-Copy-21" opacity="0.100000001"></path>
                </g>
                <g id="overcast-clouds-copy">
                    <g id="Group-5-Copy-2">
                        <g id="with-content-copy-7">
                            <g id="Shape">
                                <g id="fluffy-cloud-silhouette">
                                    <mask id="mask-3" fill="white">
                                        <use xlink:href="#path-2"></use>
                                    </mask>
                                    <use id="Mask" fill="url(#linearGradient-1)" xlink:href="#path-2"></use>
                                    <g mask="url(#mask-3)" id="Group">
                                        <g transform="translate(-321.000000, 118.000000)">
                                            <g>
                                                <path d="M923.306006,394.515629 C895.14972,359.475717 859.428139,336.933074 816.185297,326.878893 C829.941981,305.754192 836.800947,282.621474 836.800947,257.480737 C836.800947,221.940582 824.226176,191.601898 799.090724,166.454115 C773.949987,141.31514 743.609541,128.740369 708.069386,128.740369 C675.886495,128.740369 648.056072,139.134503 624.595729,159.922773 C604.823799,112.315135 573.382466,73.7594295 530.30872,44.2556577 C487.224407,14.7589316 439.194028,0 386.221106,0 C315.149602,0 254.463426,25.1513049 204.173146,75.4415848 C153.879344,125.719535 128.740369,186.409234 128.740369,257.486022 C128.740369,262.516635 129.0768,269.719078 129.746139,279.107443 C90.8575257,297.213071 59.5077866,324.618992 35.7057288,361.34106 C11.9054324,398.04199 0,438.533495 0,482.789153 C0,544.810485 22.0476843,597.867954 66.1307229,641.949231 C110.215523,686.042839 163.272992,708.087 225.296086,708.087 L772.456304,708.087 C825.755088,708.087 871.264876,689.213393 908.98743,651.508454 C946.704699,613.792945 965.565976,568.283157 965.565976,514.972043 C965.560692,469.714138 951.472861,429.544973 923.306006,394.515629 Z" id="Shape" fill="#FFFFFF" fill-rule="nonzero" opacity="0.200000003"></path>
                                                <path d="M794.370974,405.813352 C772.616673,378.740576 745.017221,361.323526 711.606642,353.555396 C722.235425,337.233886 727.534847,319.360928 727.534847,299.936521 C727.534847,272.477244 717.819241,249.036763 698.398917,229.606912 C678.97451,210.183866 655.532668,200.46826 628.073391,200.46826 C603.208027,200.46826 581.705495,208.499048 563.579406,224.560622 C548.303082,187.777684 524.010665,157.988513 490.730735,135.193108 C457.442639,112.403146 420.33308,101 379.404781,101 C324.493032,101 277.605265,120.432572 238.749647,159.288191 C199.891306,198.134283 180.46826,245.024772 180.46826,299.940604 C180.46826,303.82739 180.728196,309.392191 181.245346,316.645893 C151.19896,330.634787 126.977311,351.809336 108.587203,380.18179 C90.1984563,408.537913 81,439.822736 81,474.015843 C81,521.935187 98.034632,562.92881 132.094369,596.987187 C166.155468,631.05509 207.149091,648.087 255.069796,648.087 L677.82045,648.087 C719.000519,648.087 754.162602,633.504745 783.308058,604.372898 C812.449432,575.232885 827.02216,540.070803 827.02216,498.881207 C827.018077,463.913736 816.133441,432.877962 794.370974,405.813352 Z" id="Shape" fill="#FFFFFF" fill-rule="nonzero" opacity="0.400000006"></path>
                                                <path d="M675.183,410.065 C659.198,390.172 638.918,377.374 614.368,371.666 C622.178,359.673 626.072,346.54 626.072,332.267 C626.072,312.09 618.933,294.866 604.663,280.589 C590.39,266.317 573.165,259.178 552.988,259.178 C534.717,259.178 518.917,265.079 505.598,276.881 C494.373,249.853 476.523,227.964 452.069,211.214 C427.609,194.468 400.341,186.089 370.267,186.089 C329.918,186.089 295.465,200.368 266.914,228.919 C238.361,257.463 224.089,291.918 224.089,332.27 C224.089,335.126 224.28,339.215 224.66,344.545 C202.582,354.824 184.784,370.383 171.271,391.231 C157.759,412.067 151,435.055 151,460.18 C151,495.391 163.517,525.513 188.544,550.539 C213.572,575.572 243.694,588.087 278.906,588.087 L589.542,588.087 C619.801,588.087 645.638,577.372 667.054,555.966 C688.467,534.554 699.175,508.717 699.175,478.451 C699.172,452.757 691.174,429.952 675.183,410.065 Z" id="Shape" fill="#FFFFFF" fill-rule="nonzero" opacity="0.800000012"></path>
                                                <g id="Group-9" opacity="0.800000012" transform="translate(200.000000, 59.000000)" fill="#FFFFFF" fill-rule="nonzero">
                                                    <path d="M965.270432,93.6023761 C957.455446,85.2888422 947.540656,79.9403977 935.538284,77.554953 C939.356554,72.5429281 941.260311,67.0544829 941.260311,61.0896174 C941.260311,52.6573963 937.77009,45.4592709 930.793559,39.4927338 C923.815561,33.5282862 915.394345,30.5448087 905.529911,30.5448087 C896.597311,30.5448087 888.872771,33.0109105 882.361178,37.9431141 C876.873332,26.6477744 868.146557,17.5000871 856.19112,10.5000522 C844.232749,3.50168906 830.901561,0 816.198533,0 C796.47211,0 779.628212,5.96737297 765.669772,17.8991935 C751.710353,29.8280887 744.732844,44.2272648 744.732844,61.0908711 C744.732844,62.2844293 744.826223,63.9932736 745.012003,66.2207474 C734.21818,70.5164702 725.516828,77.0187712 718.91039,85.7314116 C712.304441,94.439037 709,104.04601 709,114.546062 C709,129.26118 715.119498,141.849542 727.355073,152.30822 C739.591136,162.769825 754.31763,168 771.5326,168 L923.400978,168 C938.194451,168 950.82603,163.522067 961.296205,154.576232 C971.764913,145.627889 977,134.830283 977,122.181742 C976.998533,111.443898 973.088351,101.913403 965.270432,93.6023761 Z" id="Shape-Copy" opacity="0.5"></path>
                                                    <path d="M915.771796,95.7445261 C910.289641,89.9052582 903.33449,86.1486127 894.914916,84.4731218 C897.593404,80.9527709 898.928875,77.0977915 898.928875,72.9081836 C898.928875,66.9855522 896.480511,61.929726 891.586526,57.738944 C886.691513,53.5496296 880.784093,51.4540918 873.864266,51.4540918 C867.598114,51.4540918 862.179406,53.1862348 857.611573,56.6505206 C853.76189,48.7168891 847.640122,42.2917278 839.253472,37.3750367 C830.864764,32.4595197 821.513035,30 811.198971,30 C797.361033,30 785.545163,34.1913691 775.753422,42.5720526 C765.960994,50.9506813 761.066324,61.0643884 761.066324,72.9090642 C761.066324,73.7473968 761.131828,74.9476565 761.262152,76.5121916 C753.690365,79.5294255 747.586431,84.0965179 742.952065,90.2161105 C738.318041,96.3321808 736,103.079936 736,110.454972 C736,120.790591 740.292782,129.632416 748.875947,136.978393 C757.459454,144.326425 767.789979,148 779.866152,148 L886.400686,148 C896.778197,148 905.639155,144.854785 912.983905,138.571401 C920.327625,132.286255 924,124.702222 924,115.818128 C923.998971,108.276071 921.256008,101.582033 915.771796,95.7445261 Z" id="Shape-Copy" opacity="0.699999988"></path>
                                                    <path d="M360.499824,808.046209 C349.506355,796.318188 335.559057,788.773061 318.675124,785.40788 C324.046347,778.337345 326.724393,770.594717 326.724393,762.179996 C326.724393,750.284541 321.814641,740.130043 312.00064,731.712964 C302.184576,723.298832 290.338313,719.089998 276.461853,719.089998 C263.896217,719.089998 253.029979,722.568963 243.870016,729.526893 C236.150173,713.592396 223.874075,700.687623 207.056165,690.812574 C190.234128,680.939883 171.480927,676 150.797937,676 C123.048454,676 99.3538651,684.418258 79.718298,701.250648 C60.0813554,718.078911 50.2659789,738.392034 50.2659789,762.181765 C50.2659789,763.865534 50.3973366,766.276225 50.6586765,769.418554 C35.4748283,775.478592 23.2344926,784.651481 13.9411082,796.942527 C4.64841155,809.226499 0,822.779193 0,837.591767 C0,858.350594 8.60839878,876.109175 25.8203822,890.863382 C43.0330533,905.621717 63.7490546,913 87.9656351,913 L301.601375,913 C322.411597,913 340.180647,906.682916 354.909213,894.062898 C369.635717,881.439343 377,866.207006 377,848.363529 C376.997937,833.215499 371.49742,819.770693 360.499824,808.046209 Z" id="Shape-Copy-21" opacity="0.5"></path>
                                                    <path d="M307.270432,810.602376 C299.455446,802.288842 289.540656,796.940398 277.538284,794.554953 C281.356554,789.542928 283.260311,784.054483 283.260311,778.089617 C283.260311,769.657396 279.77009,762.459271 272.793559,756.492734 C265.815561,750.528286 257.394345,747.544809 247.529911,747.544809 C238.597311,747.544809 230.872771,750.010911 224.361178,754.943114 C218.873332,743.647774 210.146557,734.500087 198.19112,727.500052 C186.232749,720.501689 172.901561,717 158.198533,717 C138.47211,717 121.628212,722.967373 107.669772,734.899194 C93.7103534,746.828089 86.7328444,761.227265 86.7328444,778.090871 C86.7328444,779.284429 86.8262234,780.993274 87.0120035,783.220747 C76.2181803,787.51647 67.5168277,794.018771 60.9103899,802.731412 C54.3044411,811.439037 51,821.04601 51,831.546062 C51,846.26118 57.1194983,858.849542 69.3550727,869.30822 C81.591136,879.769825 96.3176303,885 113.5326,885 L265.400978,885 C280.194451,885 292.82603,880.522067 303.296205,871.576232 C313.764913,862.627889 319,851.830283 319,839.181742 C318.998533,828.443898 315.088351,818.913403 307.270432,810.602376 Z" id="Shape-Copy-21" opacity="0.889999986"></path>
                                                    <path d="M1133.73586,804.132687 C1120.23459,789.732459 1103.10569,780.468189 1082.37024,776.336258 C1088.96673,767.654715 1092.25569,758.147944 1092.25569,747.815944 C1092.25569,733.210133 1086.22594,720.741951 1074.1732,710.407057 C1062.11793,700.075781 1047.56933,694.907972 1030.52742,694.907972 C1015.09535,694.907972 1001.75035,699.179613 990.500842,707.722894 C981.019974,688.157752 965.943492,672.312651 945.289136,660.18759 C924.629711,648.065426 901.598592,642 876.197466,642 C842.117862,642 813.018142,652.336342 788.903374,673.00396 C764.786917,693.666511 752.732489,718.607941 752.732489,747.818116 C752.732489,749.885529 752.893811,752.845492 753.214767,756.703795 C734.567229,764.1446 719.534669,775.407514 708.121308,790.499052 C696.708792,805.581903 691,822.222553 691,840.410144 C691,865.89883 701.572118,887.70367 722.710443,905.819596 C743.849612,923.940589 769.291279,933 799.032066,933 L1061.40169,933 C1086.95907,933 1108.78154,925.243581 1126.86994,909.748116 C1144.9558,894.248307 1154,875.545311 1154,853.636232 C1153.99747,835.036751 1147.24219,818.528572 1133.73586,804.132687 Z" id="Shape-Copy-19" opacity="0.200000003"></path>
                                                    <path d="M1046.51975,806.531301 C1037.53835,796.980634 1026.14374,790.83629 1012.34997,788.095869 C1016.73813,782.338007 1018.92603,776.032829 1018.92603,769.180334 C1018.92603,759.493318 1014.91488,751.224043 1006.89707,744.369629 C998.877585,737.517615 989.199471,734.090167 977.862734,734.090167 C967.59691,734.090167 958.719453,736.923248 951.235981,742.589411 C944.929054,729.613217 934.899775,719.104267 921.159943,711.06256 C907.416741,703.022774 892.095823,699 875.198314,699 C852.527649,699 833.169736,705.855375 817.127946,719.562764 C801.085033,733.266792 793.066105,749.808703 793.066105,769.181775 C793.066105,770.552946 793.173421,772.516082 793.386929,775.075025 C780.982088,780.009993 770.982026,787.479898 763.389553,797.489062 C755.797641,807.492465 752,818.529047 752,830.591607 C752,847.496475 759.032856,861.958104 773.094636,873.973134 C787.156977,885.991525 804.081456,892 823.865824,892 L998.401124,892 C1015.40258,892 1029.91947,886.855708 1041.95235,876.578647 C1053.98356,866.298705 1060,853.894313 1060,839.363549 C1059.99831,827.027811 1055.50452,816.079087 1046.51975,806.531301 Z" id="Shape-Copy-19" opacity="0.5"></path>
                                                    <path d="M654.239949,945.00198 C647.737181,938.074035 639.487187,933.616998 629.50014,931.629128 C632.677282,927.45244 634.261378,922.878736 634.261378,917.908014 C634.261378,910.881164 631.357202,904.882726 625.552103,899.910611 C619.745784,894.940239 612.738578,892.454007 604.530486,892.454007 C597.097763,892.454007 590.670253,894.509092 585.252025,898.619262 C580.685646,889.206479 573.424188,881.583406 563.476193,875.750044 C553.525757,869.918074 542.433015,867 530.19878,867 C513.784629,867 499.768997,871.972811 488.154325,881.915995 C476.538839,891.856741 470.732927,903.856054 470.732927,917.909059 C470.732927,918.903691 470.810626,920.327728 470.965212,922.183956 C461.983784,925.763725 454.74348,931.182309 449.246332,938.442843 C443.749591,945.699198 441,953.705008 441,962.455052 C441,974.71765 446.091971,985.207951 456.273064,993.923517 C466.454565,1002.64152 478.708327,1007 493.032723,1007 L619.400814,1007 C631.710308,1007 642.220913,1003.26839 650.933036,995.813526 C659.643939,988.356574 664,979.358569 664,968.818118 C663.99878,959.869915 660.745158,951.927835 654.239949,945.00198 Z" id="Shape-Copy-22" opacity="0.300000012"></path>
                                                    <path d="M944.239949,1071.00198 C937.737181,1064.07404 929.487187,1059.617 919.50014,1057.62913 C922.677282,1053.45244 924.261378,1048.87874 924.261378,1043.90801 C924.261378,1036.88116 921.357202,1030.88273 915.552103,1025.91061 C909.745784,1020.94024 902.738578,1018.45401 894.530486,1018.45401 C887.097763,1018.45401 880.670253,1020.50909 875.252025,1024.61926 C870.685646,1015.20648 863.424188,1007.58341 853.476193,1001.75004 C843.525757,995.918074 832.433015,993 820.19878,993 C803.784629,993 789.768997,997.972811 778.154325,1007.91599 C766.538839,1017.85674 760.732927,1029.85605 760.732927,1043.90906 C760.732927,1044.90369 760.810626,1046.32773 760.965212,1048.18396 C751.983784,1051.76373 744.74348,1057.18231 739.246332,1064.44284 C733.749591,1071.6992 731,1079.70501 731,1088.45505 C731,1100.71765 736.091971,1111.20795 746.273064,1119.92352 C756.454565,1128.64152 768.708327,1133 783.032723,1133 L909.400814,1133 C921.710308,1133 932.220913,1129.26839 940.933036,1121.81353 C949.643939,1114.35657 954,1105.35857 954,1094.81812 C953.99878,1085.86991 950.745158,1077.92784 944.239949,1071.00198 Z" id="Shape-Copy-23" opacity="0.100000001"></path>
                                                    <path d="M1033.01566,460.219165 C1017.03576,443.14673 996.762237,432.163317 972.220074,427.264636 C980.027581,416.972084 983.920337,405.70117 983.920337,393.451893 C983.920337,376.135725 976.783617,361.35386 962.518172,349.10115 C948.249729,336.852731 931.030228,330.725946 910.859669,330.725946 C892.594502,330.725946 876.799546,335.790263 863.484798,345.918895 C852.263381,322.723108 834.41908,303.937679 809.972886,289.562607 C785.520695,275.190969 758.2614,268 728.197001,268 C687.860882,268 653.418881,280.254427 624.876995,304.757272 C596.333111,329.254111 582.065667,358.823847 582.065667,393.454467 C582.065667,395.905524 582.256606,399.414758 582.636485,403.989035 C560.565533,412.810609 542.773215,426.163548 529.264529,444.055577 C515.756842,461.937308 509,481.665914 509,503.228521 C509,533.447067 521.513004,559.298166 546.532014,580.77581 C571.552024,602.259461 601.664408,613 636.865167,613 L947.401999,613 C977.651339,613 1003.48009,603.804245 1024.88925,585.433333 C1046.29542,567.057271 1057,544.883616 1057,518.908935 C1056.997,496.858004 1049.00155,477.286452 1033.01566,460.219165 Z" id="Shape-Copy-20" opacity="0.300000012"></path>
                                                    <path d="M961.887085,467.617779 C950.485371,455.394905 936.020136,447.531418 918.509213,444.024246 C924.079898,436.655376 926.857394,428.586055 926.857394,419.816283 C926.857394,407.41891 921.765318,396.835952 911.586871,388.063722 C901.406284,379.294564 889.120108,374.908141 874.72834,374.908141 C861.696077,374.908141 850.426318,378.533898 840.926197,385.785412 C832.919675,369.178573 820.187701,355.729295 802.745253,345.437577 C785.298525,335.148317 765.848919,330 744.39786,330 C715.617892,330 691.043399,338.773459 670.678659,356.316076 C650.312493,373.854392 640.13262,395.02461 640.13262,419.818126 C640.13262,421.572941 640.268856,424.085349 640.539901,427.360265 C624.792196,433.676001 612.097312,443.235932 602.458815,456.045587 C592.821032,468.84787 588,482.972408 588,498.409985 C588,520.044712 596.928074,538.5526 614.779229,553.929348 C632.631098,569.310397 654.116393,577 679.232263,577 L900.801427,577 C922.384441,577 940.81335,570.416373 956.088866,557.263864 C971.362242,544.10767 979,528.232618 979,509.636252 C978.99786,493.849064 973.29308,479.836967 961.887085,467.617779 Z" id="Shape-Copy-20"></path>
                                                </g>
                                            </g>
                                        </g>
                                    </g>
                                </g>
                            </g>
                        </g>
                    </g>
                </g>
                <g id="unknown-percitpation" transform="translate(82.000000, 166.000000)" stroke="#FFFFFF" stroke-linecap="round" stroke-width="10">
                    <path d="M188,692 L217,752" id="Path-3-Copy-12" opacity="0.300000012"></path>
                    <path d="M166,761 L220,872" id="Path-3-Copy-13" opacity="0.100000001"></path>
                    <path d="M161,985 L211,1084" id="Path-3-Copy-15" opacity="0.100000001"></path>
                    <path d="M297,715 L362.498991,834.938506" id="Path-3-Copy-16" opacity="0.100000001"></path>
                    <path d="M387,0 L452.498991,119.938506" id="Path-3-Copy-39" opacity="0.100000001"></path>
                    <path d="M637,199 L673,261" id="Path-3-Copy-40" opacity="0.100000001"></path>
                    <path d="M597,198 L619,238" id="Path-3-Copy-41" opacity="0.100000001"></path>
                    <path d="M370,1059 L395,1104" id="Path-3-Copy-19" opacity="0.209999993"></path>
                    <path d="M310,1039 L335,1084" id="Path-3-Copy-19" opacity="0.209999993"></path>
                    <path d="M0,959 L25,1004" id="Path-3-Copy-19" opacity="0.209999993"></path>
                    <path d="M690,961 L715,1006" id="Path-3-Copy-19" opacity="0.209999993"></path>
                    <path d="M520,651 L545,696" id="Path-3-Copy-19" opacity="0.209999993"></path>
                    <path d="M426,715 L460,772" id="Path-3-Copy-21" opacity="0.100000001"></path>
                </g>
                <path d="M367.47277,996.279263 L362.384563,993.346844 L366.680221,990.795264 C367.370816,990.463422 367.584549,989.538504 367.191808,988.858508 C366.792,988.162134 365.92906,988.015275 365.273998,988.396048 L359.546611,991.741929 L350.444179,986.459224 L359.546543,981.230954 L365.27393,984.571398 C365.452804,984.701947 365.682957,984.778129 365.938885,984.778129 C366.424293,984.778129 366.859095,984.549651 367.19174,984.114376 C367.575262,983.423439 367.370749,982.509462 366.680154,982.177619 L362.384496,979.62604 L367.472703,976.693687 C368.135908,976.312846 368.363975,975.458673 367.984289,974.756863 C367.621629,974.082237 366.7243,973.848322 366.040839,974.245473 L360.926993,977.205077 L360.850611,972.101919 C360.838633,971.313053 360.236936,970.676484 359.444388,970.676484 C358.651974,970.676484 358.032242,971.361984 358.038231,972.101919 L358.088973,978.837175 L349.037889,984.065445 L349.037889,973.456541 L354.739703,970.214025 C355.405331,969.838621 355.695378,968.962701 355.302098,968.277268 C354.902762,967.580895 354.083025,967.374097 353.384288,967.765879 L349.037889,970.214092 L349.037889,964.425367 C349.037889,963.636502 348.398574,963 347.606025,963 C346.813476,963 346.199801,963.636502 346.199801,964.425367 L346.199801,970.268393 L341.69963,967.765811 C340.998672,967.379534 340.200672,967.597138 339.807392,968.277201 C339.408123,968.973575 339.656312,969.827748 340.344148,970.213958 L346.199801,973.505472 L346.199801,984.011011 L336.943733,978.684812 L336.995012,972.101852 C337.071932,971.361984 336.406977,970.676417 335.614429,970.676417 C334.821813,970.676417 334.165135,971.312986 334.156925,972.101852 L334.105645,977.052647 L329.120066,974.196408 C328.42402,973.793821 327.564915,974.033172 327.202188,974.702361 C326.822503,975.409608 327.018873,976.242034 327.713842,976.644622 L332.750702,979.549791 L328.352619,982.177552 C327.662495,982.509462 327.447012,983.434313 327.867076,984.114376 C328.137607,984.555088 328.531492,984.778129 329.068719,984.778129 C329.349613,984.778129 329.583603,984.707384 329.809988,984.571398 L335.563082,981.181956 L344.793578,986.459224 L335.563082,991.79086 L329.809988,988.396048 C329.119393,987.993461 328.229197,988.183881 327.867009,988.858508 C327.487323,989.560318 327.693519,990.403617 328.352484,990.795264 L332.750634,993.395774 L327.713708,996.328194 C327.020421,996.730782 326.795651,997.579518 327.202054,998.270455 C327.486313,998.749224 327.867076,998.983206 328.403831,998.983206 C328.531492,998.983206 328.787286,998.907024 329.120066,998.776475 L334.105645,995.920237 L334.156925,1000.87103 C334.165135,1001.6599 334.821813,1002.26922 335.563149,1002.26922 C336.406977,1002.26922 337.001002,1001.6109 336.995012,1000.8166 L336.943733,994.239074 L346.199801,988.961873 L346.199801,999.412977 L340.344148,1002.70442 C339.64541,1003.09614 339.40099,1003.95031 339.807392,1004.64125 C340.091585,1005.12545 340.472347,1005.35937 341.009035,1005.35937 C341.264896,1005.35937 341.5005,1005.31587 341.69963,1005.20157 L346.199801,1002.65536 L346.199801,1008.59638 C346.199801,1009.38524 346.813476,1010 347.606025,1010 C348.398574,1010 349.037889,1009.38524 349.037889,1008.59638 L349.037889,1002.75329 L353.384288,1005.20157 C353.583283,1005.31581 353.818955,1005.35937 354.049243,1005.35937 C354.611503,1005.35937 355.026116,1005.13089 355.302098,1004.64125 C355.690465,1003.95575 355.439584,1003.09607 354.739703,1002.70442 L349.037889,999.516342 L349.037889,988.907438 L358.088973,994.135709 L358.038231,1000.8166 C358.031636,1001.6109 358.651906,1002.26922 359.444455,1002.26922 C360.237004,1002.26922 360.838633,1001.6599 360.850611,1000.87103 L360.926993,995.74069 L366.040839,998.727477 C366.238286,998.841716 366.501146,998.87984 366.782646,998.87984 C367.319469,998.87984 367.71322,998.6568 367.984222,998.216087 C368.403882,997.536024 368.135975,996.660104 367.47277,996.279263 Z" id="Shape-Copy-15" fill="#FFFFFF" fill-rule="nonzero" opacity="0.539999962"></path>
                <path d="M207.650196,1368.20252 L203.796876,1365.98179 L207.049996,1364.04947 C207.572986,1363.79816 207.734847,1363.09772 207.437423,1362.58275 C207.134647,1362.05539 206.481138,1361.94417 205.985057,1362.23253 L201.647683,1364.76638 L194.754374,1360.76577 L201.647632,1356.80638 L205.985006,1359.33611 C206.120468,1359.43497 206.294764,1359.49267 206.488579,1359.49267 C206.856181,1359.49267 207.185458,1359.31964 207.437372,1358.99 C207.727814,1358.46676 207.572935,1357.7746 207.049945,1357.52329 L203.796825,1355.59097 L207.650145,1353.37029 C208.152393,1353.08187 208.32511,1352.435 208.037572,1351.90352 C207.762928,1351.39262 207.083377,1351.21548 206.565789,1351.51624 L202.693052,1353.75756 L202.635208,1349.89292 C202.626137,1349.29551 202.17047,1348.81343 201.570269,1348.81343 C200.970171,1348.81343 200.500845,1349.33257 200.505381,1349.89292 L200.543808,1354.99356 L193.689384,1358.95295 L193.689384,1350.91878 L198.007392,1348.46321 C198.511475,1348.17892 198.731128,1347.51558 198.433296,1346.9965 C198.130877,1346.46913 197.510087,1346.31252 196.980931,1346.60922 L193.689384,1348.46326 L193.689384,1344.07944 C193.689384,1343.48203 193.205228,1343 192.605028,1343 C192.004828,1343 191.540089,1343.48203 191.540089,1344.07944 L191.540089,1348.50438 L188.132091,1346.60917 C187.601252,1346.31664 186.996924,1346.48143 186.699091,1346.99645 C186.396723,1347.52381 186.584678,1348.17068 187.105578,1348.46316 L191.540089,1350.95584 L191.540089,1358.91173 L184.53043,1354.87817 L184.569264,1349.89287 C184.627516,1349.33257 184.123943,1348.81338 183.523743,1348.81338 C182.923491,1348.81338 182.426187,1349.29546 182.419969,1349.89287 L182.381135,1353.64213 L178.605535,1351.47909 C178.078416,1351.17421 177.427813,1351.35547 177.153118,1351.86225 C176.86558,1352.39785 177.014293,1353.02825 177.540596,1353.33313 L181.35503,1355.53323 L178.024344,1357.52324 C177.50171,1357.7746 177.338524,1358.47499 177.65664,1358.99 C177.861514,1359.32376 178.159805,1359.49267 178.566649,1359.49267 C178.779372,1359.49267 178.956573,1359.43909 179.128015,1359.33611 L183.484857,1356.76927 L190.47515,1360.76577 L183.484857,1364.80344 L179.128015,1362.23253 C178.605025,1361.92765 177.930876,1362.07186 177.656589,1362.58275 C177.369052,1363.11424 177.525205,1363.75287 178.024242,1364.04947 L181.354979,1366.01885 L177.540494,1368.23958 C177.015465,1368.54446 176.845246,1369.18721 177.153016,1369.71046 C177.368287,1370.07304 177.65664,1370.25023 178.063127,1370.25023 C178.159805,1370.25023 178.353519,1370.19254 178.605535,1370.09367 L182.381135,1367.93063 L182.419969,1371.67989 C182.426187,1372.2773 182.923491,1372.73874 183.484908,1372.73874 C184.123943,1372.73874 184.5738,1372.24019 184.569264,1371.63867 L184.53043,1366.65748 L191.540089,1362.66103 L191.540089,1370.5757 L187.105578,1373.06832 C186.576422,1373.36497 186.391321,1374.01184 186.699091,1374.53509 C186.914311,1374.90178 187.202664,1375.07892 187.6091,1375.07892 C187.802865,1375.07892 187.981289,1375.04599 188.132091,1374.95942 L191.540089,1373.03117 L191.540089,1377.53033 C191.540089,1378.12774 192.004828,1378.59329 192.605028,1378.59329 C193.205228,1378.59329 193.689384,1378.12774 193.689384,1377.53033 L193.689384,1373.10533 L196.980931,1374.95942 C197.13163,1375.04594 197.310106,1375.07892 197.484504,1375.07892 C197.910306,1375.07892 198.224294,1374.9059 198.433296,1374.53509 C198.727408,1374.01596 198.537415,1373.36492 198.007392,1373.06832 L193.689384,1370.65398 L193.689384,1362.61981 L200.543808,1366.5792 L200.505381,1371.63867 C200.500387,1372.24019 200.97012,1372.73874 201.57032,1372.73874 C202.170521,1372.73874 202.626137,1372.2773 202.635208,1371.67989 L202.693052,1367.79466 L206.565789,1370.05657 C206.715317,1370.14308 206.914381,1370.17195 207.127563,1370.17195 C207.534101,1370.17195 207.83229,1370.00304 208.037521,1369.66929 C208.355331,1369.15427 208.152444,1368.49094 207.650196,1368.20252 Z" id="Shape-Copy-15" fill="#FFFFFF" fill-rule="nonzero" opacity="0.600000024"></path>
                <path d="M567.304055,1294.36317 L560.979867,1290.71843 L566.318988,1287.54704 C567.177335,1287.13459 567.442987,1285.985 566.954844,1285.13983 C566.457919,1284.2743 565.385361,1284.09176 564.571177,1284.56503 L557.452544,1288.72366 L546.139031,1282.15773 L557.45246,1275.65946 L564.571093,1279.81133 C564.793417,1279.97359 565.079477,1280.06828 565.397573,1280.06828 C566.000892,1280.06828 566.541312,1279.7843 566.954761,1279.24329 C567.431444,1278.38452 567.177252,1277.24853 566.318904,1276.83608 L560.979783,1273.66469 L567.303971,1270.02004 C568.128276,1269.54668 568.411744,1268.48502 567.939828,1267.61274 C567.489074,1266.77424 566.373774,1266.4835 565.524292,1266.97712 L559.168236,1270.65565 L559.073301,1264.31288 C559.058412,1263.33239 558.310557,1262.54119 557.32549,1262.54119 C556.34059,1262.54119 555.570318,1263.3932 555.577762,1264.31288 L555.640829,1272.6842 L544.391136,1279.18248 L544.391136,1265.99655 L551.477985,1261.96639 C552.305301,1261.4998 552.665804,1260.41111 552.176992,1259.55918 C551.680652,1258.69365 550.661793,1258.43661 549.793324,1258.92356 L544.391136,1261.96648 L544.391136,1254.7716 C544.391136,1253.79112 543.596525,1253 542.611457,1253 C541.62639,1253 540.863646,1253.79112 540.863646,1254.7716 L540.863646,1262.03397 L535.270333,1258.92348 C534.399104,1258.44337 533.407262,1258.71383 532.91845,1259.55909 C532.422194,1260.42462 532.730671,1261.48628 533.585589,1261.96631 L540.863646,1266.05737 L540.863646,1279.11482 L529.359176,1272.49483 L529.422912,1264.31279 C529.518516,1263.3932 528.692037,1262.5411 527.706969,1262.5411 C526.721818,1262.5411 525.905626,1263.3323 525.895422,1264.31279 L525.831686,1270.46619 L519.635053,1266.91614 C518.76993,1266.41576 517.70214,1266.71325 517.251302,1267.54499 C516.779386,1268.42404 517.023458,1269.45867 517.887242,1269.95905 L524.147611,1273.56992 L518.681185,1276.83599 C517.823422,1277.24853 517.555597,1278.39803 518.077698,1279.24329 C518.413944,1279.79106 518.903509,1280.06828 519.571233,1280.06828 C519.920361,1280.06828 520.211189,1279.98035 520.492565,1279.81133 L527.643149,1275.59856 L539.115835,1282.15773 L527.643149,1288.78448 L520.492565,1284.56503 C519.634217,1284.06465 518.527783,1284.30133 518.077615,1285.13983 C517.605699,1286.01211 517.861982,1287.06026 518.681018,1287.54704 L524.147527,1290.77925 L517.887075,1294.42398 C517.025381,1294.92436 516.746013,1295.97927 517.251135,1296.83804 C517.604444,1297.43311 518.077698,1297.72393 518.744837,1297.72393 C518.903509,1297.72393 519.221437,1297.62924 519.635053,1297.46698 L525.831686,1293.91693 L525.895422,1300.07033 C525.905626,1301.05082 526.721818,1301.80814 527.643233,1301.80814 C528.692037,1301.80814 529.430356,1300.98992 529.422912,1300.00267 L529.359176,1291.82739 L540.863646,1285.2683 L540.863646,1298.25809 L533.585589,1302.34907 C532.717121,1302.83593 532.413328,1303.8976 532.91845,1304.75637 C533.271676,1305.35819 533.74493,1305.64893 534.411986,1305.64893 C534.729997,1305.64893 535.022833,1305.59487 535.270333,1305.4528 L540.863646,1302.28809 L540.863646,1309.67225 C540.863646,1310.65274 541.62639,1311.41682 542.611457,1311.41682 C543.596525,1311.41682 544.391136,1310.65274 544.391136,1309.67225 L544.391136,1302.4098 L549.793324,1305.4528 C550.040658,1305.59479 550.333577,1305.64893 550.619804,1305.64893 C551.318644,1305.64893 551.833971,1305.36495 552.176992,1304.75637 C552.659698,1303.90435 552.347875,1302.83585 551.477985,1302.34907 L544.391136,1298.38657 L544.391136,1285.20064 L555.640829,1291.69892 L555.577762,1300.00267 C555.569565,1300.98992 556.340506,1301.80814 557.325573,1301.80814 C558.310641,1301.80814 559.058412,1301.05082 559.073301,1300.07033 L559.168236,1293.69377 L565.524292,1297.40608 C565.769702,1297.54807 566.096413,1297.59545 566.446293,1297.59545 C567.113516,1297.59545 567.602913,1297.31823 567.939744,1296.77047 C568.461344,1295.92521 568.12836,1294.83652 567.304055,1294.36317 Z" id="Shape-Copy-15" fill="#FFFFFF" fill-rule="nonzero" opacity="0.800000012"></path>
            </g>
        </g>
    </g>
</svg>