<?xml version="1.0" encoding="UTF-8"?>
<svg width="133px" height="122px" viewBox="0 0 133 122" version="1.1" xmlns="http://www.w3.org/2000/svg" xmlns:xlink="http://www.w3.org/1999/xlink">
    <!-- Generator: Sketch 49.1 (51147) - http://www.bohemiancoding.com/sketch -->
    <title>air quality</title>
    <desc>Created with Sketch.</desc>
    <defs></defs>
    <g id="Page-2" stroke="none" stroke-width="1" fill="none" fill-rule="evenodd">
        <g id="air-quality" fill="#FFFFFF">
            <path d="M94.8017419,64.0004555 L112.001021,64.0004555 C118.628545,64.0004555 124.001215,58.6277984 124.001215,52.0002899 C124.001215,45.3727814 118.628545,40.0001242 112.001021,40.0001242 C105.373496,40.0001242 100.000826,45.3727814 100.000826,52.0002899 L100.000826,55.0003313 L91.0006804,55.0003313 L91.0006804,52.0002899 C91.0006804,40.40215 100.402853,31 112.001021,31 C123.599188,31 133.001361,40.40215 133.001361,52.0002899 C133.001361,63.5984297 123.599188,73.0005797 112.001021,73.0005797 L39,73.0005797 L39,64.0004555 L94.8017419,64.0004555 Z M112.001021,97.000911 C112.001021,106.942174 103.942016,115.001159 94.000729,115.001159 C84.0594424,115.001159 76.0004374,106.942174 76.0004374,97.000911 L85.0005832,97.000911 C85.0005832,101.971542 89.0300857,106.001035 94.000729,106.001035 C98.9713722,106.001035 103.000875,101.971542 103.000875,97.000911 C103.000875,92.0302797 98.9713722,88.0007868 94.000729,88.0007868 L19,88.0007868 L19,79.0006626 L94.000729,79.0006626 C103.942016,79.0006626 112.001021,87.0596483 112.001021,97.000911 Z M10.2355662,111.508566 L62.8446216,111.508566 C65.6060454,111.508566 67.8446216,113.747142 67.8446216,116.508566 C67.8446216,119.26999 65.6060454,121.508566 62.8446216,121.508566 L8.2355662,121.508566 C3.8172882,121.508566 0.235566196,117.926844 0.235566196,113.508566 L0.235566196,8.72408365 C0.235566196,4.30580565 3.8172882,0.724083649 8.2355662,0.724083649 L72.3811063,0.724083649 C76.7993843,0.724083649 80.3811063,4.30580565 80.3811063,8.72408365 L80.3811063,49.0558399 C80.3811063,51.8172636 78.14253,54.0558399 75.3811063,54.0558399 C72.6196825,54.0558399 70.3811063,51.8172636 70.3811063,49.0558399 L70.3811063,10.7240836 L10.2355662,10.7240836 L10.2355662,111.508566 Z" id="Combined-Shape"></path>
        </g>
    </g>
</svg>