<?xml version="1.0" encoding="UTF-8"?>
<svg width="54px" height="54px" viewBox="0 0 54 54" version="1.1" xmlns="http://www.w3.org/2000/svg" xmlns:xlink="http://www.w3.org/1999/xlink">
    <!-- Generator: Sketch 49 (51002) - http://www.bohemiancoding.com/sketch -->
    <title>calendar-with-a-clock-time-tools</title>
    <desc>Created with Sketch.</desc>
    <defs></defs>
    <g id="Page-1" stroke="none" stroke-width="1" fill="none" fill-rule="evenodd">
        <g id="calendar-with-a-clock-time-tools" fill="#FFFFFF" fill-rule="nonzero">
            <path d="M8.24994899,10.3126998 L8.24994899,2.06251275 C8.24994899,0.922370176 9.17232297,0 10.3127423,0 C11.4526175,0 12.3749915,0.922370176 12.3749915,2.06251275 L12.3749915,10.3126998 C12.3749915,11.4525703 11.4526175,12.3749405 10.3127423,12.3749405 C9.17232297,12.3750765 8.24994899,11.4525703 8.24994899,10.3126998 Z M43.3129463,12.3750765 C44.4525495,12.3750765 45.3754676,11.4527063 45.3754676,10.3128358 L45.3754676,2.06251275 C45.3754676,0.922370176 44.4525495,0 43.3129463,0 C42.1727991,0 41.249745,0.922370176 41.249745,2.06251275 L41.249745,10.3126998 C41.249745,11.4525703 42.1727991,12.3750765 43.3129463,12.3750765 Z M16.50017,24.750017 L8.24994899,24.750017 L8.24994899,32.999932 L16.50017,32.999932 L16.50017,24.750017 Z M8.24994899,45.3750085 L16.50017,45.3750085 L16.50017,37.1246854 L8.24994899,37.1246854 L8.24994899,45.3750085 Z M21.6249405,32.999932 L29.8752976,32.999932 L29.8752976,24.750017 L21.6249405,24.750017 L21.6249405,32.999932 Z M21.6249405,45.3750085 L29.8752976,45.3750085 L29.8752976,37.1246854 L21.6249405,37.1246854 L21.6249405,45.3750085 Z M4.12517853,49.0893814 L4.12517853,20.6248555 L49.500102,20.6248555 L49.500102,53.6253316 L49.500102,53.6253316 C51.7783752,53.6253316 53.6252805,51.7784262 53.6252805,49.500153 L53.6252805,12.7861372 C53.6252805,10.2804624 51.6268263,8.24991499 49.1578674,8.24991499 L47.4375808,8.24991499 L47.4375808,10.3128358 C47.4375808,12.5845515 45.588208,14.4377253 43.3130823,14.4377253 C41.0372766,14.4377253 39.1880398,12.5845515 39.1880398,10.3128358 L39.1880398,8.24991499 L14.4373767,8.24991499 L14.4373767,10.3128358 C14.4373767,12.5845515 12.5884121,14.4377253 10.3128783,14.4377253 C8.03680048,14.4377253 6.18769978,12.5845515 6.18769978,10.3128358 L6.18769978,8.24991499 L4.4694535,8.24991499 C2.00035861,8.24991499 0,10.2804624 0,12.7861372 L0,49.0895174 C0,51.5868948 2.00035861,53.6253316 4.4694535,53.6253316 L49.500102,53.6253316 L49.500102,49.4996259 L4.4694535,49.4996259 C4.28255749,49.4994899 4.12517853,49.3064737 4.12517853,49.0893814 Z M44.249745,32.999932 L44.249745,24.750017 L36.000204,24.750017 L36.000204,32.999932 L44.249745,32.999932 Z M44.2495409,45.249915 L44.2495409,37 L36,37 L36,45.249915 L44.2495409,45.249915 Z" id="Shape"></path>
        </g>
    </g>
</svg>