<?xml version="1.0" encoding="UTF-8"?>
<svg width="39px" height="54px" viewBox="0 0 39 54" version="1.1" xmlns="http://www.w3.org/2000/svg" xmlns:xlink="http://www.w3.org/1999/xlink">
    <!-- Generator: Sketch 49 (51002) - http://www.bohemiancoding.com/sketch -->
    <title>maps-and-flags (1)</title>
    <desc>Created with Sketch.</desc>
    <defs></defs>
    <g id="Page-1" stroke="none" stroke-width="1" fill="none" fill-rule="evenodd">
        <g id="maps-and-flags-(1)" fill="#FFFFFF" fill-rule="nonzero">
            <path d="M19.5,0 C8.74764193,0 0,8.77311225 0,19.5566723 C0,32.9394073 17.4505897,52.5860446 18.193564,53.4158737 C18.8914236,54.1953942 20.1098384,54.1940231 20.806436,53.4158737 C21.5494103,52.5860446 39,32.9394073 39,19.5566723 C38.9997897,8.77311225 30.2522529,0 19.5,0 Z M19.5,29.3961804 C14.0902215,29.3961804 9.68916339,24.9822023 9.68916339,19.5566723 C9.68916339,14.1311422 14.0903267,9.71726965 19.5,9.71726965 C24.9096733,9.71726965 29.3107314,14.1312477 29.3107314,19.5567777 C29.3107314,24.9823078 24.9096733,29.3961804 19.5,29.3961804 Z" id="Shape"></path>
        </g>
    </g>
</svg>