<?xml version="1.0" encoding="UTF-8"?>
<svg width="145px" height="93px" viewBox="0 0 145 93" version="1.1" xmlns="http://www.w3.org/2000/svg" xmlns:xlink="http://www.w3.org/1999/xlink">
    <!-- Generator: Sketch 49.1 (51147) - http://www.bohemiancoding.com/sketch -->
    <title>Combined Shape</title>
    <desc>Created with Sketch.</desc>
    <defs></defs>
    <g id="Page-2" stroke="none" stroke-width="1" fill="none" fill-rule="evenodd">
        <g id="visiblity" fill="#FFFFFF" fill-rule="nonzero">
            <g id="Combined-Shape">
                <path d="M144.078596,43.6619424 C142.783221,41.8787696 111.918804,0 72.4993628,0 C33.0799211,0 2.21408852,41.8787696 0.920129649,43.6602325 C-0.306709883,45.351924 -0.306709883,47.6463661 0.920129649,49.3380576 C2.21408852,51.1212304 33.0799211,93 72.4993628,93 C111.918804,93 142.783221,51.1209454 144.078596,49.3394825 C145.307135,47.648076 145.307135,45.351924 144.078596,43.6619424 Z M72.4993628,83.3793595 C43.4627445,83.3793595 18.3139501,55.5835798 10.8693678,46.4967226 C18.3043212,37.4018858 43.4004396,9.62064052 72.4993628,9.62064052 C101.534565,9.62064052 126.68166,37.4115754 134.129358,46.5032774 C126.694404,55.5978292 101.598286,83.3793595 72.4993628,83.3793595 Z M71.5,17 C55.7853913,17 43,29.7853913 43,45.5 C43,61.2146087 55.7853913,74 71.5,74 C87.2146087,74 100,61.2146087 100,45.5 C100,29.7853913 87.2146087,17 71.5,17 Z M71.5,64.4998124 C61.0230314,64.4998124 52.5001876,55.9766872 52.5001876,45.5 C52.5001876,35.0233128 61.0233128,26.5001876 71.5,26.5001876 C81.9766872,26.5001876 90.4998124,35.0233128 90.4998124,45.5 C90.4998124,55.9766872 81.9769686,64.4998124 71.5,64.4998124 Z"></path>
            </g>
        </g>
    </g>
</svg>