<?xml version="1.0" encoding="UTF-8"?>
<svg width="874px" height="2197px" viewBox="0 0 874 2197" version="1.1" xmlns="http://www.w3.org/2000/svg" xmlns:xlink="http://www.w3.org/1999/xlink">
    <!-- Generator: Sketch 49 (51002) - http://www.bohemiancoding.com/sketch -->
    <title>broken clouds@2x</title>
    <desc>Created with Sketch.</desc>
    <defs>
        <linearGradient x1="97.4942008%" y1="97.2277583%" x2="9.61108516%" y2="0%" id="linearGradient-1">
            <stop stop-color="#7DA7E2" offset="0%"></stop>
            <stop stop-color="#81B9DA" offset="100%"></stop>
        </linearGradient>
        <rect id="path-2" x="0" y="0" width="874" height="2197"></rect>
    </defs>
    <g id="Page-1" stroke="none" stroke-width="1" fill="none" fill-rule="evenodd">
        <g id="broken-clouds">
            <g id="Group-5-Copy-2">
                <g id="with-content-copy-7">
                    <g id="Shape">
                        <g id="fluffy-cloud-silhouette">
                            <mask id="mask-3" fill="white">
                                <use xlink:href="#path-2"></use>
                            </mask>
                            <use id="Mask" fill="url(#linearGradient-1)" xlink:href="#path-2"></use>
                            <g mask="url(#mask-3)" id="Group">
                                <g transform="translate(-321.000000, 118.000000)">
                                    <g>
                                        <path d="M923.306006,394.515629 C895.14972,359.475717 859.428139,336.933074 816.185297,326.878893 C829.941981,305.754192 836.800947,282.621474 836.800947,257.480737 C836.800947,221.940582 824.226176,191.601898 799.090724,166.454115 C773.949987,141.31514 743.609541,128.740369 708.069386,128.740369 C675.886495,128.740369 648.056072,139.134503 624.595729,159.922773 C604.823799,112.315135 573.382466,73.7594295 530.30872,44.2556577 C487.224407,14.7589316 439.194028,0 386.221106,0 C315.149602,0 254.463426,25.1513049 204.173146,75.4415848 C153.879344,125.719535 128.740369,186.409234 128.740369,257.486022 C128.740369,262.516635 129.0768,269.719078 129.746139,279.107443 C90.8575257,297.213071 59.5077866,324.618992 35.7057288,361.34106 C11.9054324,398.04199 0,438.533495 0,482.789153 C0,544.810485 22.0476843,597.867954 66.1307229,641.949231 C110.215523,686.042839 163.272992,708.087 225.296086,708.087 L772.456304,708.087 C825.755088,708.087 871.264876,689.213393 908.98743,651.508454 C946.704699,613.792945 965.565976,568.283157 965.565976,514.972043 C965.560692,469.714138 951.472861,429.544973 923.306006,394.515629 Z" id="Shape" fill="#FFFFFF" fill-rule="nonzero" opacity="0.200000003"></path>
                                        <path d="M794.370974,405.813352 C772.616673,378.740576 745.017221,361.323526 711.606642,353.555396 C722.235425,337.233886 727.534847,319.360928 727.534847,299.936521 C727.534847,272.477244 717.819241,249.036763 698.398917,229.606912 C678.97451,210.183866 655.532668,200.46826 628.073391,200.46826 C603.208027,200.46826 581.705495,208.499048 563.579406,224.560622 C548.303082,187.777684 524.010665,157.988513 490.730735,135.193108 C457.442639,112.403146 420.33308,101 379.404781,101 C324.493032,101 277.605265,120.432572 238.749647,159.288191 C199.891306,198.134283 180.46826,245.024772 180.46826,299.940604 C180.46826,303.82739 180.728196,309.392191 181.245346,316.645893 C151.19896,330.634787 126.977311,351.809336 108.587203,380.18179 C90.1984563,408.537913 81,439.822736 81,474.015843 C81,521.935187 98.034632,562.92881 132.094369,596.987187 C166.155468,631.05509 207.149091,648.087 255.069796,648.087 L677.82045,648.087 C719.000519,648.087 754.162602,633.504745 783.308058,604.372898 C812.449432,575.232885 827.02216,540.070803 827.02216,498.881207 C827.018077,463.913736 816.133441,432.877962 794.370974,405.813352 Z" id="Shape" fill="#FFFFFF" fill-rule="nonzero" opacity="0.400000006"></path>
                                        <path d="M675.183,410.065 C659.198,390.172 638.918,377.374 614.368,371.666 C622.178,359.673 626.072,346.54 626.072,332.267 C626.072,312.09 618.933,294.866 604.663,280.589 C590.39,266.317 573.165,259.178 552.988,259.178 C534.717,259.178 518.917,265.079 505.598,276.881 C494.373,249.853 476.523,227.964 452.069,211.214 C427.609,194.468 400.341,186.089 370.267,186.089 C329.918,186.089 295.465,200.368 266.914,228.919 C238.361,257.463 224.089,291.918 224.089,332.27 C224.089,335.126 224.28,339.215 224.66,344.545 C202.582,354.824 184.784,370.383 171.271,391.231 C157.759,412.067 151,435.055 151,460.18 C151,495.391 163.517,525.513 188.544,550.539 C213.572,575.572 243.694,588.087 278.906,588.087 L589.542,588.087 C619.801,588.087 645.638,577.372 667.054,555.966 C688.467,534.554 699.175,508.717 699.175,478.451 C699.172,452.757 691.174,429.952 675.183,410.065 Z" id="Shape" fill="#FFFFFF" fill-rule="nonzero" opacity="0.800000012"></path>
                                        <g id="Group-9" opacity="0.800000012" transform="translate(689.000000, 732.000000)" fill="#FFFFFF" fill-rule="nonzero">
                                            <path d="M131.960148,98.2728571 C127.936013,93.2748397 122.830636,90.0594058 116.650311,88.6252991 C118.616435,85.6121175 119.596727,82.3125165 119.596727,78.7264962 C119.596727,73.6571252 117.799524,69.3296807 114.207131,65.7426554 C110.613983,62.1568864 106.277685,60.3632481 101.198238,60.3632481 C96.5986154,60.3632481 92.6210535,61.845845 89.2680695,64.8110389 C86.4422383,58.0203882 81.9486004,52.5208857 75.7924422,48.3125314 C69.6347736,44.1051821 62.7702066,42 55.1992448,42 C45.041609,42 36.3682583,45.5875278 29.1807032,52.7608247 C21.9926447,59.9323628 18.3997483,68.5890104 18.3997483,78.7272499 C18.3997483,79.4448057 18.4478314,80.4721466 18.5434943,81.8112826 C12.9854809,84.3938303 8.50493364,88.3029518 5.10311123,93.5409082 C1.70154057,98.7758496 0,104.55147 0,110.864002 C0,119.710591 3.15108496,127.278593 9.45149268,133.566252 C15.7521521,139.855668 23.3351977,143 32.1996224,143 L110.400503,143 C118.018038,143 124.522359,140.307909 129.913717,134.929758 C135.304321,129.5501 138,123.058682 138,115.4545 C137.999245,108.99901 135.985793,103.269367 131.960148,98.2728571 Z" id="Shape-Copy" opacity="0.100000001"></path>
                                            <path d="M541.964063,96.3881611 C533.944954,87.8272006 523.771195,82.3195762 511.455329,79.8631361 C515.37333,74.7019438 517.326812,69.050152 517.326812,62.9077607 C517.326812,54.2245807 513.745428,46.8122254 506.586674,40.6681128 C499.426415,34.5261519 490.785242,31.4538804 480.663155,31.4538804 C471.497241,31.4538804 463.57094,33.9933781 456.889269,39.0723735 C451.258084,27.4408629 442.30337,18.020923 430.035664,10.8125538 C417.764947,3.605906 404.085557,0 388.998495,0 C368.756829,0 351.472979,6.14497336 337.149952,18.4319076 C322.825922,30.7158294 315.666165,45.5435525 315.666165,62.9090518 C315.666165,64.1381325 315.761983,65.8978353 315.952615,68.1916029 C304.876864,72.6151747 295.948237,79.3109966 289.169243,88.2829417 C282.390751,97.2497226 279,107.142618 279,117.955171 C279,133.108239 285.279336,146.071254 297.834496,156.841203 C310.390158,167.614165 325.5013,173 343.165914,173 L499.001003,173 C514.180873,173 527.142382,168.388795 537.886031,159.176715 C548.628175,149.962052 554,138.843089 554,125.818104 C553.998495,114.76068 549.986181,104.94654 541.964063,96.3881611 Z" id="Shape-Copy" opacity="0.5"></path>
                                        </g>
                                        <g id="Group-9" opacity="0.5" transform="translate(345.000000, 87.000000)" fill="#FFFFFF" fill-rule="nonzero">
                                            <path d="M189.334125,859.787765 C183.560367,852.612394 176.235261,847.996177 167.367837,845.937311 C170.188797,841.611456 171.595304,836.874405 171.595304,831.726158 C171.595304,824.448348 169.016708,818.23568 163.862405,813.08599 C158.707019,807.938104 152.485374,805.363079 145.197472,805.363079 C138.598013,805.363079 132.891077,807.49156 128.080274,811.748521 C124.02582,801.999567 117.578427,794.104242 108.745678,788.062545 C99.9107621,782.022291 90.0616008,779 79.1989164,779 C64.6249172,779 52.1805445,784.150411 41.8679655,794.448709 C31.5546641,804.744481 26.3996388,817.172342 26.3996388,831.72724 C26.3996388,832.757394 26.4686277,834.23229 26.6058832,836.154812 C18.6313422,839.86243 12.2027309,845.474535 7.32185525,852.994373 C2.44134081,860.509883 0,868.801616 0,877.864161 C0,890.564709 4.5211219,901.429664 13.5608373,910.4565 C22.6009139,919.485861 33.4809358,924 46.1994582,924 L158.400722,924 C169.330228,924 178.662515,920.135118 186.397942,912.41401 C194.132286,904.690737 198,895.371375 198,884.45448 C197.998916,875.186697 195.110051,866.960972 189.334125,859.787765 Z" id="Shape-Copy" opacity="0.200000003"></path>
                                            <path d="M533.940222,998.130707 C527.90402,990.658424 520.245954,985.851191 510.975466,983.70713 C513.924652,979.202275 515.395091,974.269208 515.395091,968.90793 C515.395091,961.328969 512.699286,954.859226 507.310696,949.496445 C501.920974,944.135543 495.416528,941.453965 487.797357,941.453965 C480.897923,941.453965 474.93158,943.670521 469.902104,948.103632 C465.663358,937.951273 458.922901,929.729245 449.688663,923.437547 C440.45216,917.147351 430.15531,914 418.798867,914 C403.562413,914 390.552387,919.363532 379.771055,930.087966 C368.988967,940.80977 363.599622,953.751887 363.599622,968.909057 C363.599622,969.981838 363.671747,971.517764 363.815241,973.519838 C355.478221,977.380875 348.7574,983.225205 343.654667,991.056209 C338.552311,998.882706 336,1007.51754 336,1016.95509 C336,1030.18118 340.726627,1041.49572 350.177239,1050.89608 C359.628228,1060.29907 371.002797,1065 384.299434,1065 L501.600755,1065 C513.027057,1065 522.783538,1060.97519 530.870576,1052.93459 C538.956481,1044.89173 543,1035.18674 543,1023.81811 C542.998867,1014.16684 539.978689,1005.60074 533.940222,998.130707 Z" id="Shape-Copy" opacity="0.400000006"></path>
                                            <path d="M957.802278,95.2738471 C951.007906,86.8118573 942.387958,81.3679048 931.953061,78.9398629 C935.272676,73.8383375 936.927808,68.2518843 936.927808,62.1805034 C936.927808,53.597707 933.893399,46.2710436 927.827982,40.1979612 C921.76129,34.1270056 914.43986,31.0902517 905.863691,31.0902517 C898.097662,31.0902517 891.381924,33.600391 885.720726,38.6206698 C880.949576,27.1236275 873.362492,17.8125886 862.968399,10.6875532 C852.571755,3.56421922 840.981581,0 828.198725,0 C811.048514,0 796.404378,6.0739332 784.268869,18.218822 C772.132509,30.3607331 766.066242,45.0170374 766.066242,62.1817795 C766.066242,63.3966512 766.147426,65.1360106 766.308943,67.4032607 C756.924761,71.7756929 749.359779,78.3941064 743.616123,87.2623297 C737.872891,96.1254484 735,105.903975 735,116.591528 C735,131.569416 740.32031,144.382569 750.957955,155.02801 C761.596025,165.676429 774.399283,171 789.366029,171 L921.40085,171 C934.26234,171 945.244272,166.442104 954.347073,157.336522 C963.448599,148.228387 968,137.237966 968,124.363559 C967.998725,113.433967 964.599201,103.733285 957.802278,95.2738471 Z" id="Shape-Copy" opacity="0.800000012"></path>
                                            <path d="M798.879256,1163.9155 C795.467489,1159.65976 791.139018,1156.92187 785.899176,1155.70075 C787.566108,1153.13507 788.397225,1150.32551 788.397225,1147.27207 C788.397225,1142.95557 786.873509,1139.27082 783.827785,1136.21652 C780.78142,1133.16329 777.104994,1131.63603 772.798506,1131.63603 C768.898826,1131.63603 765.526545,1132.89844 762.683798,1135.42326 C760.287985,1129.64112 756.478161,1124.95838 751.25881,1121.37503 C746.038178,1117.79253 740.218219,1116 733.79936,1116 C725.187451,1116 717.833958,1119.05473 711.740161,1125.16268 C705.645938,1131.26914 702.599787,1138.64015 702.599787,1147.27271 C702.599787,1147.8837 702.640553,1148.75846 702.721658,1149.89872 C698.009429,1152.09772 694.210705,1155.42628 691.326551,1159.88632 C688.44261,1164.34379 687,1169.26165 687,1174.63667 C687,1182.16941 689.671572,1188.61346 695.013222,1193.9673 C700.355086,1199.32265 706.784189,1202 714.29968,1202 L780.600427,1202 C787.058771,1202 792.573304,1199.70772 797.144239,1195.12831 C801.714533,1190.54761 804,1185.02026 804,1178.54542 C803.99936,1173.04866 802.292303,1168.16996 798.879256,1163.9155 Z" id="Shape-Copy-18" opacity="0.200000003"></path>
                                        </g>
                                    </g>
                                </g>
                            </g>
                        </g>
                    </g>
                </g>
            </g>
        </g>
    </g>
</svg>