<?xml version="1.0" encoding="UTF-8"?>
<svg width="874px" height="2197px" viewBox="0 0 874 2197" version="1.1" xmlns="http://www.w3.org/2000/svg" xmlns:xlink="http://www.w3.org/1999/xlink">
    <!-- Generator: Sketch 49 (51002) - http://www.bohemiancoding.com/sketch -->
    <title>few clouds@2x</title>
    <desc>Created with Sketch.</desc>
    <defs>
        <linearGradient x1="97.4942008%" y1="97.2277583%" x2="9.61108516%" y2="0%" id="linearGradient-1">
            <stop stop-color="#7DA7E2" offset="0%"></stop>
            <stop stop-color="#81B9DA" offset="100%"></stop>
        </linearGradient>
        <rect id="path-2" x="0" y="0" width="874" height="2197"></rect>
    </defs>
    <g id="Page-1" stroke="none" stroke-width="1" fill="none" fill-rule="evenodd">
        <g id="few-clouds">
            <g id="Group-5-Copy-2">
                <g id="with-content-copy-7">
                    <g id="Shape">
                        <g id="fluffy-cloud-silhouette">
                            <mask id="mask-3" fill="white">
                                <use xlink:href="#path-2"></use>
                            </mask>
                            <use id="Mask" fill="url(#linearGradient-1)" xlink:href="#path-2"></use>
                            <g mask="url(#mask-3)" id="Group">
                                <g transform="translate(-291.000000, 138.000000)">
                                    <g>
                                        <path d="M923.306006,394.515629 C895.14972,359.475717 859.428139,336.933074 816.185297,326.878893 C829.941981,305.754192 836.800947,282.621474 836.800947,257.480737 C836.800947,221.940582 824.226176,191.601898 799.090724,166.454115 C773.949987,141.31514 743.609541,128.740369 708.069386,128.740369 C675.886495,128.740369 648.056072,139.134503 624.595729,159.922773 C604.823799,112.315135 573.382466,73.7594295 530.30872,44.2556577 C487.224407,14.7589316 439.194028,0 386.221106,0 C315.149602,0 254.463426,25.1513049 204.173146,75.4415848 C153.879344,125.719535 128.740369,186.409234 128.740369,257.486022 C128.740369,262.516635 129.0768,269.719078 129.746139,279.107443 C90.8575257,297.213071 59.5077866,324.618992 35.7057288,361.34106 C11.9054324,398.04199 0,438.533495 0,482.789153 C0,544.810485 22.0476843,597.867954 66.1307229,641.949231 C110.215523,686.042839 163.272992,708.087 225.296086,708.087 L772.456304,708.087 C825.755088,708.087 871.264876,689.213393 908.98743,651.508454 C946.704699,613.792945 965.565976,568.283157 965.565976,514.972043 C965.560692,469.714138 951.472861,429.544973 923.306006,394.515629 Z" id="Shape" fill="#FFFFFF" fill-rule="nonzero" opacity="0.200000003"></path>
                                        <path d="M804.370974,405.813352 C782.616673,378.740576 755.017221,361.323526 721.606642,353.555396 C732.235425,337.233886 737.534847,319.360928 737.534847,299.936521 C737.534847,272.477244 727.819241,249.036763 708.398917,229.606912 C688.97451,210.183866 665.532668,200.46826 638.073391,200.46826 C613.208027,200.46826 591.705495,208.499048 573.579406,224.560622 C558.303082,187.777684 534.010665,157.988513 500.730735,135.193108 C467.442639,112.403146 430.33308,101 389.404781,101 C334.493032,101 287.605265,120.432572 248.749647,159.288191 C209.891306,198.134283 190.46826,245.024772 190.46826,299.940604 C190.46826,303.82739 190.728196,309.392191 191.245346,316.645893 C161.19896,330.634787 136.977311,351.809336 118.587203,380.18179 C100.198456,408.537913 91,439.822736 91,474.015843 C91,521.935187 108.034632,562.92881 142.094369,596.987187 C176.155468,631.05509 217.149091,648.087 265.069796,648.087 L687.82045,648.087 C729.000519,648.087 764.162602,633.504745 793.308058,604.372898 C822.449432,575.232885 837.02216,540.070803 837.02216,498.881207 C837.018077,463.913736 826.133441,432.877962 804.370974,405.813352 Z" id="Shape" fill="#FFFFFF" fill-rule="nonzero" opacity="0.400000006"></path>
                                        <path d="M675.183,420.065 C659.198,400.172 638.918,387.374 614.368,381.666 C622.178,369.673 626.072,356.54 626.072,342.267 C626.072,322.09 618.933,304.866 604.663,290.589 C590.39,276.317 573.165,269.178 552.988,269.178 C534.717,269.178 518.917,275.079 505.598,286.881 C494.373,259.853 476.523,237.964 452.069,221.214 C427.609,204.468 400.341,196.089 370.267,196.089 C329.918,196.089 295.465,210.368 266.914,238.919 C238.361,267.463 224.089,301.918 224.089,342.27 C224.089,345.126 224.28,349.215 224.66,354.545 C202.582,364.824 184.784,380.383 171.271,401.231 C157.759,422.067 151,445.055 151,470.18 C151,505.391 163.517,535.513 188.544,560.539 C213.572,585.572 243.694,598.087 278.906,598.087 L589.542,598.087 C619.801,598.087 645.638,587.372 667.054,565.966 C688.467,544.554 699.175,518.717 699.175,488.451 C699.172,462.757 691.174,439.952 675.183,420.065 Z" id="Shape" fill="#FFFFFF" fill-rule="nonzero" opacity="0.800000012"></path>
                                        <g id="Group-9" opacity="0.800000012" transform="translate(769.000000, 811.000000)" fill="#FFFFFF" fill-rule="nonzero">
                                            <g id="Group-31" transform="translate(57.000000, 41.000000)">
                                                <path d="M252.4455,107.531301 C244.747156,97.9806342 234.980348,91.8362902 223.157116,89.0958686 C226.918396,83.3380067 228.793739,77.0328285 228.793739,70.1803342 C228.793739,60.4933184 225.355611,52.2240434 218.483207,45.3696287 C211.609358,38.5176145 203.313832,35.0901671 193.596629,35.0901671 C184.797351,35.0901671 177.188102,37.9232484 170.773698,43.5894109 C165.36776,30.613217 156.771235,20.1042667 144.994237,12.06256 C133.214349,4.02277375 120.082134,0 105.598555,0 C86.1665563,0 69.5740594,6.8553749 55.823954,20.562764 C42.0728855,34.2667924 35.1995184,50.808703 35.1995184,70.1817745 C35.1995184,71.5529455 35.2915036,73.5160822 35.4745109,76.0750252 C24.8417896,81.0099926 16.2703078,88.4798979 9.76247366,98.4890621 C3.25512108,108.492465 0,119.529047 0,131.591607 C0,148.496475 6.02816254,162.958104 18.0811164,174.973134 C30.1345519,186.991525 44.6412478,193 61.5992776,193 L211.200963,193 C225.773638,193 238.216686,187.855708 248.53059,177.578647 C258.843048,167.298705 264,154.894313 264,140.363549 C263.998555,128.027811 260.146734,117.079087 252.4455,107.531301 Z" id="Shape-Copy" opacity="0.5"></path>
                                                <path d="M218.457593,108.379679 C212.84209,101.424302 205.71776,96.9496172 197.093387,94.9538753 C199.837027,90.7606498 201.204982,86.1688353 201.204982,81.1784318 C201.204982,74.1237572 198.697064,68.1015678 193.684037,63.1097658 C188.669956,58.119712 182.618843,55.6236362 175.530697,55.6236362 C169.112126,55.6236362 163.561613,57.6868584 158.882671,61.8133029 C154.939348,52.3632486 148.668673,44.7099913 140.078025,38.853531 C131.485268,32.9984693 121.906066,30.0688406 111.341121,30.0688406 C97.1665862,30.0688406 85.0633059,35.0613419 75.0333882,45.043897 C65.0027679,55.0240046 59.9890386,67.0708308 59.9890386,81.1794807 C59.9890386,82.1780509 60.0561366,83.6077265 60.18963,85.4713046 C52.4336661,89.0652482 46.181259,94.505288 41.4341651,101.794571 C36.6874225,109.079658 34.3129973,117.117169 34.3129973,125.901859 C34.3129973,138.213013 38.7101981,148.744851 47.5021406,157.494927 C56.2944344,166.247451 66.8762417,170.623188 79.2461574,170.623188 L188.372055,170.623188 C199.001991,170.623188 208.078485,166.876802 215.601889,159.392421 C223.124239,151.905941 226.885942,142.872308 226.885942,132.290121 C226.884888,123.306486 224.075204,115.332959 218.457593,108.379679 Z" id="Shape-Copy"></path>
                                            </g>
                                        </g>
                                    </g>
                                </g>
                            </g>
                        </g>
                    </g>
                </g>
            </g>
        </g>
    </g>
</svg>