<?xml version="1.0" encoding="UTF-8"?>
<svg width="874px" height="2197px" viewBox="0 0 874 2197" version="1.1" xmlns="http://www.w3.org/2000/svg" xmlns:xlink="http://www.w3.org/1999/xlink">
    <!-- Generator: Sketch 49 (51002) - http://www.bohemiancoding.com/sketch -->
    <title>heavy snow</title>
    <desc>Created with Sketch.</desc>
    <defs>
        <linearGradient x1="0%" y1="0%" x2="97.2955198%" y2="97.2955198%" id="linearGradient-1">
            <stop stop-color="#40CEDE" offset="0%"></stop>
            <stop stop-color="#75CDFD" offset="100%"></stop>
        </linearGradient>
        <rect id="path-2" x="0" y="0" width="874" height="2197"></rect>
        <path d="M434.978889,225.148722 L427.689826,220.906072 L433.843531,217.214425 C434.832836,216.734312 435.139017,215.396133 434.576399,214.412309 C434.003659,213.40479 432.767462,213.192313 431.829058,213.743219 L423.624344,218.584068 L410.584741,210.941006 L423.624247,203.376699 L431.828962,208.209682 C432.085206,208.398562 432.41491,208.508782 432.781537,208.508782 C433.476904,208.508782 434.099775,208.178219 434.576303,207.548459 C435.125713,206.548806 434.83274,205.226455 433.843435,204.746342 L427.68973,201.054696 L434.978793,196.812143 C435.928861,196.261139 436.255576,195.025314 435.711661,194.00993 C435.192136,193.033874 433.906676,192.695445 432.92759,193.270046 L425.601797,197.552026 L425.492378,190.168733 C425.475218,189.027397 424.613263,188.106403 423.477905,188.106403 C422.34274,188.106403 421.454949,189.09819 421.463529,190.168733 L421.536218,199.913359 L408.570172,207.477665 L408.570172,192.128613 L416.738253,187.437313 C417.691791,186.894176 418.107296,185.626887 417.543907,184.635197 C416.971841,183.627678 415.797536,183.328481 414.796566,183.895314 L408.570172,187.43741 L408.570172,179.062233 C408.570172,177.920897 407.654327,177 406.518969,177 C405.383611,177 404.504496,177.920897 404.504496,179.062233 L404.504496,187.515972 L398.057818,183.895217 C397.053667,183.336347 395.9105,183.651179 395.347111,184.6351 C394.775141,185.642619 395.130682,186.878444 396.116034,187.437216 L404.504496,192.199406 L404.504496,207.398909 L391.244801,199.692919 L391.318262,190.168636 C391.428452,189.09819 390.475878,188.106306 389.340519,188.106306 L389.267059,188.106306 C388.205065,188.106306 387.264348,189.027299 387.252586,190.168636 L387.179126,197.331489 L380.03708,193.199059 C379.039967,192.616592 377.809264,192.962887 377.289643,193.931076 C376.745728,194.954327 377.027037,196.158688 378.022608,196.741155 L385.238114,200.944379 L378.937681,204.746245 C377.949051,205.226455 377.640363,206.564538 378.242121,207.548459 C378.629668,208.186085 379.193925,208.508782 379.963524,208.508782 C380.365917,208.508782 380.701116,208.406428 381.025421,208.209682 L389.266963,203.305809 L402.490024,210.941006 L389.266963,218.654862 L381.025421,213.743219 C380.036116,213.160752 378.760875,213.436254 378.242025,214.412309 C377.69811,215.427694 377.993494,216.647787 378.937488,217.214425 L385.238018,220.976865 L378.022415,225.219515 C377.029254,225.801982 376.707262,227.029941 377.28945,228.029594 C377.696664,228.722282 378.242121,229.060808 379.011045,229.060808 C379.193925,229.060808 379.560359,228.950588 380.03708,228.761709 L387.179126,224.629279 L387.252586,231.792131 C387.264348,232.933468 388.205065,233.815035 389.267059,233.815035 L389.340519,233.815035 C390.475878,233.815035 391.326842,232.862578 391.318262,231.713375 L391.244801,222.196958 L404.504496,214.561859 L404.504496,229.682605 L396.116034,234.444698 C395.115064,235.011433 394.764923,236.247258 395.347111,237.246911 C395.754228,237.947465 396.299685,238.285894 397.068513,238.285894 C397.435044,238.285894 397.772556,238.222967 398.057818,238.057588 L404.504496,234.37371 L404.504496,242.96923 C404.504496,244.110567 405.383611,245 406.518969,245 C407.654327,245 408.570172,244.110567 408.570172,242.96923 L408.570172,234.515394 L414.796566,238.057588 C415.081634,238.222869 415.419244,238.285894 415.74914,238.285894 C416.554602,238.285894 417.148551,237.955331 417.543907,237.246911 C418.100258,236.255124 417.740861,235.011336 416.738253,234.444698 L408.570172,229.832155 L408.570172,214.483102 L421.536218,222.047408 L421.463529,231.713375 C421.454081,232.862578 422.342643,233.815035 423.478001,233.815035 C424.61336,233.815035 425.475218,232.933468 425.492378,231.792131 L425.601797,224.369509 L432.92759,228.690818 C433.210441,228.8561 433.586998,228.911258 433.990259,228.911258 C434.759279,228.911258 435.323343,228.588561 435.711565,227.950935 C436.312744,226.967014 435.928957,225.699725 434.978889,225.148722 Z" id="path-4"></path>
    </defs>
    <g id="Page-1" stroke="none" stroke-width="1" fill="none" fill-rule="evenodd">
        <g id="heavy-snow">
            <g>
                <g id="Group-6-Copy-2">
                    <g id="with-content-copy-4">
                        <g id="Shape">
                            <g id="fluffy-cloud-silhouette">
                                <mask id="mask-3" fill="white">
                                    <use xlink:href="#path-2"></use>
                                </mask>
                                <use id="Mask" fill="url(#linearGradient-1)" xlink:href="#path-2"></use>
                                <g id="snowflake-copy" mask="url(#mask-3)" fill-rule="nonzero">
                                    <g transform="translate(259.000000, 191.000000)">
                                        <path d="M400.048117,44.4417698 L393.253228,40.5257598 L398.989732,37.1183319 C399.911966,36.6751825 400.197389,35.4400291 399.672915,34.5319493 C399.139004,33.6019989 397.986617,33.4058802 397.111834,33.9143726 L389.463371,38.3825266 L377.307809,31.3279004 L389.463281,24.3459672 L397.111744,28.8068609 C397.350615,28.9811986 397.657967,29.0829329 397.999738,29.0829329 C398.647961,29.0829329 399.228603,28.7778195 399.672825,28.1965445 C400.184987,27.2738544 399.911876,26.0533113 398.989642,25.610162 L393.253138,22.202734 L400.048027,18.2868137 C400.933684,17.7782317 401.238249,16.6375523 400.73121,15.7003415 C400.246907,14.7994325 399.048596,14.4870588 398.135889,15.0174218 L391.30676,18.9697334 L391.204759,12.1548776 C391.188762,11.1014118 390.385245,10.2513251 389.326861,10.2513251 C388.268656,10.2513251 387.441054,11.1667549 387.449052,12.1548776 L387.516813,21.1492683 L375.429821,28.1312015 L375.429821,13.9638664 L383.044134,9.63374842 C383.933026,9.13242672 384.32036,7.96270597 383.795167,7.04736586 C383.261886,6.11741546 382.167194,5.8412538 381.234087,6.36444614 L375.429821,9.63383805 L375.429821,1.90346283 C375.429821,0.849997081 374.576068,0 373.517683,0 C372.459298,0 371.639785,0.849997081 371.639785,1.90346283 L371.639785,9.70635178 L365.630169,6.3643565 C364.694096,5.84851413 363.628432,6.13910683 363.103239,7.04727623 C362.570047,7.97722664 362.901483,9.11790605 363.820032,9.63365878 L371.639785,14.0292094 L371.639785,28.0585085 L359.279052,20.9457996 L359.347532,12.154788 C359.450252,11.1667549 358.562259,10.2512355 357.503874,10.2512355 L357.435394,10.2512355 C356.445399,10.2512355 355.56846,11.1013222 355.557496,12.154788 L355.489016,18.7661751 L348.831177,14.9518995 C347.901664,14.4142761 346.754399,14.7339102 346.270006,15.6275589 C345.762966,16.57203 346.025204,17.683668 346.953279,18.2212914 L353.679598,22.1009101 L347.806313,25.6100723 C346.884709,26.0533113 346.596949,27.2883751 347.15791,28.1965445 C347.519182,28.7850799 348.045184,29.0829329 348.762607,29.0829329 C349.137719,29.0829329 349.450193,28.9884589 349.752512,28.8068609 L357.435304,24.2805346 L369.761887,31.3279004 L357.435304,38.4478696 L349.752512,33.9143726 C348.830278,33.3767492 347.641494,33.6310403 347.15782,34.5319493 C346.65078,35.4691601 346.926138,36.5953188 347.806133,37.1183319 L353.679508,40.5911028 L346.953099,44.5071128 C346.027271,45.0447362 345.727109,46.1781552 346.269826,47.1008453 C346.649432,47.740203 347.15791,48.0526664 347.874703,48.0526664 C348.045184,48.0526664 348.386776,47.950932 348.831177,47.7765943 L355.489016,43.9623187 L355.557496,50.5737059 C355.56846,51.6271716 356.445399,52.440867 357.435394,52.440867 L357.503874,52.440867 C358.562259,52.440867 359.355531,51.561739 359.347532,50.5010129 L359.279052,41.7172616 L371.639785,34.6699853 L371.639785,48.6265914 L363.820032,53.0220524 C362.886924,53.5451551 362.560521,54.6858345 363.103239,55.6085246 C363.482755,56.2551427 363.991232,56.5675164 364.707936,56.5675164 C365.049617,56.5675164 365.364247,56.5094337 365.630169,56.3567874 L371.639785,52.9565301 L371.639785,60.8902844 C371.639785,61.9437501 372.459298,62.7647059 373.517683,62.7647059 C374.576068,62.7647059 375.429821,61.9437501 375.429821,60.8902844 L375.429821,53.0873058 L381.234087,56.3567874 C381.499829,56.509344 381.814549,56.5675164 382.12208,56.5675164 C382.872934,56.5675164 383.426615,56.262403 383.795167,55.6085246 C384.3138,54.6930949 383.978769,53.5450655 383.044134,53.0220524 L375.429821,48.7646274 L375.429821,34.5972923 L387.516813,41.5792255 L387.449052,50.5010129 C387.440245,51.561739 388.268566,52.440867 389.32695,52.440867 C390.385335,52.440867 391.188762,51.6271716 391.204759,50.5737059 L391.30676,43.7225484 L398.135889,47.7111617 C398.399564,47.8637184 398.750591,47.9146303 399.126513,47.9146303 C399.843396,47.9146303 400.369218,47.6167773 400.73112,47.0282419 C401.291541,46.1200725 400.933774,44.9503518 400.048117,44.4417698 Z" id="Shape" fill="#FFFFFF" opacity="0.200000003"></path>
                                        <path d="M383.528908,1049.68274 L373.027716,1043.63072 L381.893223,1038.36469 C383.318492,1037.67983 383.759601,1035.77095 382.94905,1034.36756 C382.123916,1032.93036 380.342953,1032.62727 378.991016,1033.41312 L367.170665,1040.31845 L348.384796,1029.41585 L367.170526,1018.62559 L378.990877,1025.51969 C379.360042,1025.78913 379.835039,1025.94635 380.363231,1025.94635 C381.365031,1025.94635 382.262387,1025.47481 382.948911,1024.57648 C383.740435,1023.1505 383.318354,1021.26421 381.893084,1020.57934 L373.027577,1015.31332 L383.528769,1009.26144 C384.897512,1008.47545 385.368203,1006.71258 384.584597,1005.26416 C383.836129,1003.87185 381.984194,1003.38909 380.573646,1004.20874 L370.019538,1010.31686 L369.8619,999.784811 C369.837178,998.156727 368.595379,996.842957 366.959694,996.842957 C365.324286,996.842957 364.045265,998.257712 364.057626,999.784811 L364.162348,1013.68523 L345.482451,1024.47549 L345.482451,1002.58052 L357.250025,995.88852 C358.623767,995.11375 359.222375,993.306 358.410713,991.891384 C357.586551,990.454188 355.894755,990.027392 354.452679,990.835962 L345.482451,995.888659 L345.482451,983.941715 C345.482451,982.313632 344.163014,981 342.527328,981 C340.891643,981 339.625122,982.313632 339.625122,983.941715 L339.625122,996.000725 L330.337534,990.835824 C328.890875,990.038613 327.24394,990.487711 326.432278,991.891245 C325.608255,993.328441 326.120474,995.091309 327.54005,995.888382 L339.625122,1002.68151 L339.625122,1024.36315 L320.522172,1013.37078 L320.628004,999.784672 C320.786753,998.257712 319.4144,996.842818 317.778714,996.842818 L317.672882,996.842818 C316.14289,996.842818 314.78762,998.156589 314.770675,999.784672 L314.664843,1010.00227 L304.375455,1004.10748 C302.938935,1003.27661 301.165889,1003.77059 300.417282,1005.15168 C299.633675,1006.61132 300.038951,1008.32931 301.473249,1009.16018 L311.868469,1015.15595 L302.791575,1020.5792 C301.367277,1021.26421 300.922557,1023.17294 301.789497,1024.57648 C302.347827,1025.48603 303.160739,1025.94635 304.269483,1025.94635 C304.849202,1025.94635 305.332116,1025.80035 305.799336,1025.51969 L317.672743,1018.52446 L336.722916,1029.41585 L317.672743,1040.41943 L305.799336,1033.41312 C304.374066,1032.58225 302.536854,1032.97524 301.789358,1034.36756 C301.005751,1035.81597 301.431304,1037.5564 302.791297,1038.36469 L311.86833,1043.7317 L301.472971,1049.78372 C300.042145,1050.61459 299.578259,1052.36624 300.417004,1053.79222 C301.003668,1054.78031 301.789497,1055.26321 302.897269,1055.26321 C303.160739,1055.26321 303.688653,1055.10599 304.375455,1054.83655 L314.664843,1048.94177 L314.770675,1059.15936 C314.78762,1060.78745 316.14289,1062.04498 317.672882,1062.04498 L317.778714,1062.04498 C319.4144,1062.04498 320.640365,1060.68632 320.628004,1059.04702 L320.522172,1045.47213 L339.625122,1034.58089 L339.625122,1056.15019 L327.54005,1062.94317 C326.097974,1063.7516 325.593533,1065.51447 326.432278,1066.94045 C327.018802,1067.93977 327.804631,1068.42253 328.912264,1068.42253 C329.440317,1068.42253 329.926564,1068.33276 330.337534,1068.09685 L339.625122,1062.84191 L339.625122,1075.10317 C339.625122,1076.73125 340.891643,1078 342.527328,1078 C344.163014,1078 345.482451,1076.73125 345.482451,1075.10317 L345.482451,1063.04402 L354.452679,1068.09685 C354.863371,1068.33262 355.349758,1068.42253 355.825033,1068.42253 C356.985443,1068.42253 357.841133,1067.95099 358.410713,1066.94045 C359.212236,1065.52569 358.694461,1063.75146 357.250025,1062.94317 L345.482451,1056.36352 L345.482451,1034.46854 L364.162348,1045.2588 L364.057626,1059.04702 C364.044015,1060.68632 365.324147,1062.04498 366.959833,1062.04498 C368.595518,1062.04498 369.837178,1060.78745 369.8619,1059.15936 L370.019538,1048.57121 L380.573646,1054.73543 C380.981144,1054.9712 381.523641,1055.04988 382.10461,1055.04988 C383.212521,1055.04988 384.025155,1054.58956 384.584458,1053.68001 C385.450564,1052.27648 384.89765,1050.46873 383.528908,1049.68274 Z" id="Shape" fill="#FFFFFF" opacity="0.5"></path>
                                        <path d="M293.528908,809.682735 L283.027716,803.63072 L291.893223,798.364695 C293.318492,797.679827 293.759601,795.770954 292.94905,794.367558 C292.123916,792.930362 290.342953,792.627269 288.991016,793.413121 L277.170665,800.31845 L258.384796,789.415846 L277.170526,778.625586 L288.990877,785.519694 C289.360042,785.789125 289.835039,785.946351 290.363231,785.946351 C291.365031,785.946351 292.262387,785.474812 292.948911,784.576478 C293.740435,783.150502 293.318354,781.264208 291.893084,780.579341 L283.027577,775.313316 L293.528769,769.261439 C294.897512,768.475449 295.368203,766.712581 294.584597,765.264164 C293.836129,763.87185 291.984194,763.389091 290.573646,764.208743 L280.019538,770.316861 L279.8619,759.784811 C279.837178,758.156727 278.595379,756.842957 276.959694,756.842957 C275.324286,756.842957 274.045265,758.257712 274.057626,759.784811 L274.162348,773.685233 L255.482451,784.475493 L255.482451,762.580521 L267.250025,755.88852 C268.623767,755.11375 269.222375,753.306 268.410713,751.891384 C267.586551,750.454188 265.894755,750.027392 264.452679,750.835962 L255.482451,755.888659 L255.482451,743.941715 C255.482451,742.313632 254.163014,741 252.527328,741 C250.891643,741 249.625122,742.313632 249.625122,743.941715 L249.625122,756.000725 L240.337534,750.835824 C238.890875,750.038613 237.24394,750.487711 236.432278,751.891245 C235.608255,753.328441 236.120474,755.091309 237.54005,755.888382 L249.625122,762.681505 L249.625122,784.36315 L230.522172,773.370781 L230.628004,759.784672 C230.786753,758.257712 229.4144,756.842818 227.778714,756.842818 L227.672882,756.842818 C226.14289,756.842818 224.78762,758.156589 224.770675,759.784672 L224.664843,770.002271 L214.375455,764.107481 C212.938935,763.276609 211.165889,763.770588 210.417282,765.151682 C209.633675,766.611319 210.038951,768.329305 211.473249,769.160178 L221.868469,775.155952 L212.791575,780.579203 C211.367277,781.264208 210.922557,783.172943 211.789497,784.576478 C212.347827,785.486033 213.160739,785.946351 214.269483,785.946351 C214.849202,785.946351 215.332116,785.800346 215.799336,785.519694 L227.672743,778.524463 L246.722916,789.415846 L227.672743,800.419435 L215.799336,793.413121 C214.374066,792.582249 212.536854,792.975244 211.789358,794.367558 C211.005751,795.815975 211.431304,797.556402 212.791297,798.364695 L221.86833,803.731704 L211.472971,809.78372 C210.042145,810.614592 209.578259,812.36624 210.417004,813.792215 C211.003668,814.780314 211.789497,815.263212 212.897269,815.263212 C213.160739,815.263212 213.688653,815.105986 214.375455,814.836555 L224.664843,808.941765 L224.770675,819.159364 C224.78762,820.787447 226.14289,822.044976 227.672882,822.044976 L227.778714,822.044976 C229.4144,822.044976 230.640365,820.686324 230.628004,819.04702 L230.522172,805.472131 L249.625122,794.580886 L249.625122,816.150187 L237.54005,822.943172 C236.097974,823.751603 235.593533,825.514472 236.432278,826.940447 C237.018802,827.939766 237.804631,828.422525 238.912264,828.422525 C239.440317,828.422525 239.926564,828.332761 240.337534,828.096853 L249.625122,822.84191 L249.625122,835.103167 C249.625122,836.73125 250.891643,838 252.527328,838 C254.163014,838 255.482451,836.73125 255.482451,835.103167 L255.482451,823.044018 L264.452679,828.096853 C264.863371,828.332623 265.349758,828.422525 265.825033,828.422525 C266.985443,828.422525 267.841133,827.950986 268.410713,826.940447 C269.212236,825.525692 268.694461,823.751465 267.250025,822.943172 L255.482451,816.363515 L255.482451,794.468543 L274.162348,805.258803 L274.057626,819.04702 C274.044015,820.686324 275.324147,822.044976 276.959833,822.044976 C278.595518,822.044976 279.837178,820.787447 279.8619,819.159364 L280.019538,808.571211 L290.573646,814.735432 C290.981144,814.971201 291.523641,815.049883 292.10461,815.049883 C293.212521,815.049883 294.025155,814.589565 294.584458,813.68001 C295.450564,812.276476 294.89765,810.468725 293.528908,809.682735 Z" id="Shape" fill="#FFFFFF" opacity="0.200000003"></path>
                                        <path d="M623.009699,833.9237 L608.802204,825.73568 L620.796713,818.611058 C622.725019,817.684472 623.321813,815.101879 622.225185,813.203167 C621.108827,811.258725 618.69929,810.848659 616.870199,811.91187 L600.877958,821.254374 L575.461783,806.503792 L600.87777,791.905204 L616.870011,801.232527 C617.369469,801.597052 618.012112,801.809769 618.726724,801.809769 C620.082101,801.809769 621.296171,801.171805 622.224997,799.956411 C623.295882,798.02715 622.724831,795.475106 620.796525,794.54852 L608.802016,787.423898 L623.009511,779.236065 C624.861339,778.172666 625.498158,775.787609 624.437984,773.827987 C623.42535,771.944268 620.919792,771.291123 619.011404,772.400064 L604.732316,780.663988 L604.519041,766.414744 C604.485594,764.212043 602.805513,762.434589 600.592527,762.434589 C598.379916,762.434589 596.649477,764.348669 596.6662,766.414744 L596.807883,785.221197 L571.535081,799.819785 L571.535081,770.197175 L587.455916,761.143292 C589.314509,760.095074 590.12439,757.649294 589.026259,755.735401 C587.911216,753.79096 585.622315,753.213531 583.671272,754.307478 L571.535081,761.14348 L571.535081,744.979968 C571.535081,742.777267 569.74996,741 567.536973,741 C565.323987,741 563.610459,742.777267 563.610459,744.979968 L563.610459,761.295099 L551.044899,754.307291 C549.087655,753.228711 546.859448,753.836314 545.761317,755.735214 C544.646462,757.679656 545.339465,760.064713 547.260067,761.143105 L563.610459,770.333802 L563.610459,799.667791 L537.765291,784.795763 L537.908476,766.414557 C538.123255,764.348669 536.266541,762.434401 534.053555,762.434401 L533.910369,762.434401 C531.840381,762.434401 530.00678,764.211856 529.983855,766.414557 L529.84067,780.238366 L515.919733,772.263063 C513.976206,771.138941 511.57738,771.807267 510.564558,773.675805 C509.504384,775.650608 510.052698,777.974942 511.993219,779.099064 L526.057341,787.210994 L513.776836,794.548333 C511.849845,795.475106 511.248166,798.057512 512.421084,799.956411 C513.176472,801.186985 514.276294,801.809769 515.77636,801.809769 C516.560685,801.809769 517.21404,801.612232 517.84616,801.232527 L533.910181,791.76839 L559.683945,806.503792 L533.910181,821.391 L517.84616,811.91187 C515.917854,810.787748 513.432214,811.319448 512.420896,813.203167 C511.360722,815.162789 511.936471,817.517485 513.776461,818.611058 L526.057153,825.872306 L511.992843,834.060327 C510.05702,835.184448 509.429409,837.554325 510.564183,839.483586 C511.357904,840.820424 512.421084,841.473757 513.919834,841.473757 C514.276294,841.473757 514.990531,841.26104 515.919733,840.896515 L529.84067,832.921212 L529.983855,846.745021 C530.00678,848.947723 531.840381,850.649086 533.910369,850.649086 L534.053555,850.649086 C536.266541,850.649086 537.9252,848.810909 537.908476,846.593027 L537.765291,828.227001 L563.610459,813.491788 L563.610459,842.673782 L547.260067,851.864291 C545.309024,852.958052 544.626544,855.343109 545.761317,857.27237 C546.55485,858.624389 547.618031,859.277534 549.116593,859.277534 C549.831017,859.277534 550.488881,859.156089 551.044899,858.836919 L563.610459,851.72729 L563.610459,868.316049 C563.610459,870.51875 565.323987,872.235294 567.536973,872.235294 C569.74996,872.235294 571.535081,870.51875 571.535081,868.316049 L571.535081,852.00073 L583.671272,858.836919 C584.226914,859.155901 584.884966,859.277534 585.527985,859.277534 C587.097952,859.277534 588.25565,858.63957 589.026259,857.27237 C590.110673,855.358289 589.410154,852.957864 587.455916,851.864291 L571.535081,842.962403 L571.535081,813.339793 L596.807883,827.938381 L596.6662,846.593027 C596.647785,848.810909 598.379728,850.649086 600.592715,850.649086 C602.805701,850.649086 604.485594,848.947723 604.519041,846.745021 L604.732316,832.419874 L619.011404,840.759702 C619.562725,841.078684 620.296691,841.185136 621.082708,841.185136 C622.581646,841.185136 623.681092,840.562353 624.437796,839.331779 C625.609587,837.432879 624.861527,834.987099 623.009699,833.9237 Z" id="Shape" fill="#FFFFFF" opacity="0.5"></path>
                                        <path d="M559.875047,392.522092 L551.844724,387.89408 L558.624229,383.867119 C559.714141,383.343397 560.05146,381.883671 559.431627,380.810486 C558.800641,379.711453 557.438729,379.479677 556.404895,380.080622 L547.365802,385.361168 L533.000138,377.023882 L547.365696,368.772507 L556.404789,374.044472 C556.687091,374.250507 557.050324,374.370739 557.454235,374.370739 C558.220318,374.370739 558.906531,374.01015 559.43152,373.323189 C560.036803,372.232737 559.714035,370.790277 558.624123,370.266555 L551.844618,366.239595 L559.874941,361.611689 C560.921626,361.010637 561.281567,359.662562 560.682339,358.554949 C560.109981,357.490238 558.693796,357.121069 557.615141,357.747862 L549.544353,362.418776 L549.423806,354.364855 C549.404901,353.11985 548.45529,352.115202 547.204472,352.115202 C545.953866,352.115202 544.975791,353.197074 544.985244,354.364855 L545.065325,364.99459 L530.780698,373.245965 L530.780698,356.502751 L539.779431,351.385339 C540.82994,350.792868 541.287699,349.410471 540.667016,348.328705 C540.036774,347.229673 538.743048,346.9033 537.640284,347.521618 L530.780698,351.385445 L530.780698,342.249547 C530.780698,341.004542 529.771716,340 528.520898,340 C527.27008,340 526.301564,341.004542 526.301564,342.249547 L526.301564,351.471143 L519.199291,347.521512 C518.093022,346.91188 516.833601,347.255308 516.212918,348.328599 C515.582783,349.427631 515.97448,350.775707 517.060038,351.385233 L526.301564,356.579975 L526.301564,373.160056 L511.693425,364.754127 L511.774356,354.364749 C511.895753,353.197074 510.846306,352.115096 509.595488,352.115096 L509.514557,352.115096 C508.344563,352.115096 507.30818,353.119744 507.295222,354.364749 L507.214291,362.178207 L499.345936,357.670427 C498.247421,357.035054 496.891562,357.412803 496.319098,358.468933 C495.719869,359.585126 496.029786,360.89888 497.126602,361.534254 L505.075888,366.119257 L498.134734,370.266449 C497.045565,370.790277 496.705485,372.249898 497.368439,373.323189 C497.795397,374.018731 498.417036,374.370739 499.264899,374.370739 C499.708214,374.370739 500.077501,374.259088 500.434786,374.044472 L509.51445,368.695177 L524.08223,377.023882 L509.51445,385.438391 L500.434786,380.080622 C499.344874,379.445249 497.939947,379.745775 497.368333,380.810486 C496.769104,381.918098 497.094527,383.249013 498.134521,383.867119 L505.075782,387.971303 L497.12639,392.599315 C496.032229,393.234688 495.677492,394.574183 496.318886,395.664635 C496.767511,396.42024 497.368439,396.789515 498.215558,396.789515 C498.417036,396.789515 498.820735,396.669283 499.345936,396.463248 L507.214291,391.955468 L507.295222,399.768925 C507.30818,401.01393 508.344563,401.97557 509.514557,401.97557 L509.595488,401.97557 C510.846306,401.97557 511.783809,400.936601 511.774356,399.683015 L511.693425,389.302218 L526.301564,380.973619 L526.301564,397.46779 L517.060038,402.662426 C515.957274,403.280638 515.571525,404.628714 516.212918,405.719165 C516.661437,406.48335 517.262365,406.852519 518.109379,406.852519 C518.513184,406.852519 518.88502,406.783876 519.199291,406.603476 L526.301564,402.58499 L526.301564,411.961245 C526.301564,413.20625 527.27008,414.176471 528.520898,414.176471 C529.771716,414.176471 530.780698,413.20625 530.780698,411.961245 L530.780698,402.739543 L537.640284,406.603476 C537.954343,406.78377 538.326285,406.852519 538.689731,406.852519 C539.577103,406.852519 540.231454,406.491931 540.667016,405.719165 C541.279945,404.637294 540.884,403.280532 539.779431,402.662426 L530.780698,397.630923 L530.780698,380.887709 L545.065325,389.139085 L544.985244,399.683015 C544.974835,400.936601 545.95376,401.97557 547.204578,401.97557 C548.455396,401.97557 549.404901,401.01393 549.423806,399.768925 L549.544353,391.672103 L557.615141,396.385918 C557.926757,396.566213 558.341608,396.626381 558.785878,396.626381 C559.633104,396.626381 560.25453,396.274373 560.682232,395.578831 C561.344549,394.50554 560.921733,393.123143 559.875047,392.522092 Z" id="Shape" fill="#FFFFFF" opacity="0.200000003"></path>
                                        <path d="M47.1692657,967.943819 L41.2391807,964.512264 L46.2455845,961.526373 C47.0504428,961.138047 47.2995395,960.055696 46.8418165,959.259956 C46.3758583,958.445051 45.3701383,958.273194 44.6066916,958.71878 L37.9316695,962.634173 L27.3231789,956.452284 L37.9315911,950.334095 L44.6066131,954.243126 C44.8150826,954.395896 45.0833164,954.485044 45.3815893,954.485044 C45.9473116,954.485044 46.4540539,954.217677 46.8417381,953.708312 C47.288716,952.899769 47.0503644,951.830221 46.2455061,951.441895 L41.2391023,948.456004 L47.1691873,945.024527 C47.9421242,944.578863 48.2079266,943.579298 47.7654193,942.758031 C47.3427549,941.968575 46.2969568,941.694845 45.5004121,942.159596 L39.540445,945.622962 L39.4514258,939.651181 C39.4374651,938.728041 38.7362141,937.98312 37.8125329,937.98312 C36.8890086,937.98312 36.166738,938.785301 36.1737184,939.651181 L36.2328553,947.532864 L25.6842075,953.651053 L25.6842075,941.236378 L32.3294258,937.441944 C33.1051863,937.002642 33.4432236,935.977629 32.9848732,935.175527 C32.519464,934.360622 31.5640967,934.118624 30.7497483,934.577092 L25.6842075,937.442023 L25.6842075,930.667983 C25.6842075,929.744843 24.9391136,929 24.0154324,929 C23.0917512,929 22.3765395,929.744843 22.3765395,930.667983 L22.3765395,937.505566 L17.131784,934.577013 C16.3148473,934.124987 15.3848132,934.37963 14.9264628,935.175448 C14.4611321,935.990353 14.7503854,936.989918 15.552028,937.441866 L22.3765395,941.293637 L22.3765395,953.587353 L11.588991,947.354567 L11.6487554,939.651103 C11.7384019,938.785301 10.9634258,937.983041 10.0397446,937.983041 C9.11598501,937.983041 8.35065589,938.727963 8.34108732,939.651103 L8.28132294,945.444586 L2.47084513,942.10218 C1.65963391,941.631067 0.658384518,941.911158 0.235641748,942.694253 C-0.20686562,943.521882 0.0219958652,944.495998 0.83195219,944.967111 L6.70219438,948.366777 L1.57641868,951.441816 C0.772109382,951.830221 0.52097351,952.912494 1.01053944,953.708312 C1.32583182,954.224039 1.78488812,954.485044 2.41100232,954.485044 C2.73837307,954.485044 3.01107745,954.402258 3.27491913,954.243126 L9.97990182,950.276757 L20.7376465,956.452284 L9.97990182,962.691432 L3.27491913,958.71878 C2.47006082,958.247667 1.43257633,958.470499 1.01046101,959.259956 C0.567953644,960.081223 0.808266046,961.068063 1.57626182,961.526373 L6.70211595,964.569523 L0.831795328,968.001078 C0.0237997768,968.472191 -0.238159565,969.465394 0.235484886,970.273937 C0.566777179,970.834199 1.01053944,971.108007 1.63610463,971.108007 C1.78488812,971.108007 2.08300413,971.018858 2.47084513,970.866088 L8.28132294,967.523681 L8.34108732,973.317165 C8.35065589,974.240305 9.11598501,974.953337 9.97998025,974.953337 C10.9634258,974.953337 11.6557357,974.182967 11.6487554,973.253465 L11.588991,965.556363 L22.3765395,959.380915 L22.3765395,971.610931 L15.552028,975.462623 C14.7376795,975.921012 14.4528184,976.920577 14.9264628,977.72912 C15.2576767,978.295744 15.7014389,978.569473 16.3269257,978.569473 C16.6251201,978.569473 16.8997069,978.518576 17.131784,978.384814 L22.3765395,975.405207 L22.3765395,982.357466 C22.3765395,983.280606 23.0917512,984 24.0154324,984 C24.9391136,984 25.6842075,983.280606 25.6842075,982.357466 L25.6842075,975.519804 L30.7497483,978.384814 C30.9816685,978.518497 31.2563337,978.569473 31.5247244,978.569473 C32.1800149,978.569473 32.6632279,978.302106 32.9848732,977.72912 C33.4374982,976.926939 33.1451076,975.920934 32.3294258,975.462623 L25.6842075,971.73189 L25.6842075,959.317215 L36.2328553,965.435404 L36.1737184,973.253465 C36.1660322,974.182967 36.8889301,974.953337 37.8126113,974.953337 C38.7362925,974.953337 39.4374651,974.240305 39.4514258,973.317165 L39.540445,967.313573 L45.5004121,970.80875 C45.7305285,970.942434 46.0368798,970.987047 46.3649564,970.987047 C46.9906,970.987047 47.4494994,970.726042 47.7653408,970.210315 C48.2544362,969.414497 47.9422026,968.389484 47.1692657,967.943819 Z" id="Shape" fill="#FFFFFF" opacity="0.400000006"></path>
                                        <path d="M523.996196,1274.05711 L516.830677,1269.91065 L522.880081,1266.3027 C523.852618,1265.83347 524.15361,1264.52563 523.600528,1263.56411 C523.037495,1262.57944 521.82225,1262.37178 520.899752,1262.91019 L512.834101,1267.64129 L500.015508,1260.17151 L512.834006,1252.7787 L520.899658,1257.50211 C521.151558,1257.68671 521.475674,1257.79443 521.836087,1257.79443 C522.519668,1257.79443 523.131982,1257.47136 523.600434,1256.85588 C524.140532,1255.87889 523.852524,1254.58652 522.879987,1254.11729 L516.830582,1250.50934 L523.996101,1246.36297 C524.930067,1245.82446 525.251245,1244.61665 524.716548,1243.62429 C524.205829,1242.67036 522.942156,1242.3396 521.979665,1242.90118 L514.778038,1247.08608 L514.670473,1239.87018 C514.653604,1238.75472 513.806259,1237.8546 512.690144,1237.8546 C511.574219,1237.8546 510.701475,1238.8239 510.70991,1239.87018 L510.781367,1249.39388 L498.035084,1256.78669 L498.035084,1241.78562 L506.064723,1237.20068 C507.0021,1236.66986 507.410562,1235.4313 506.856722,1234.46209 C506.294352,1233.47742 505.13995,1233.185 504.155946,1233.73899 L498.035084,1237.20078 L498.035084,1229.01548 C498.035084,1227.90002 497.134762,1227 496.018647,1227 C494.902533,1227 494.038319,1227.90002 494.038319,1229.01548 L494.038319,1237.27756 L487.700906,1233.73889 C486.713774,1233.19269 485.589983,1233.50039 485.036143,1234.462 C484.473868,1235.44668 484.823382,1236.65448 485.792034,1237.20059 L494.038319,1241.85481 L494.038319,1256.70972 L481.003364,1249.17843 L481.075579,1239.87008 C481.183902,1238.8239 480.247473,1237.85451 479.131358,1237.85451 C478.015149,1237.85451 477.090376,1238.75462 477.078814,1239.87008 L477.006599,1246.87054 L469.985605,1242.8318 C469.005391,1242.26254 467.795548,1242.60098 467.284734,1243.54722 C466.750037,1244.54727 467.026578,1245.72433 468.005276,1246.29359 L475.098485,1250.40152 L468.904839,1254.11719 C467.932966,1254.58652 467.62951,1255.89426 468.221068,1256.85588 C468.602047,1257.47905 469.15674,1257.79443 469.913294,1257.79443 C470.308867,1257.79443 470.638385,1257.69439 470.957194,1257.50211 L479.059048,1252.70941 L492.05799,1260.17151 L479.059048,1267.71048 L470.957194,1262.91019 C469.984657,1262.34093 468.73103,1262.61019 468.220974,1263.56411 C467.686277,1264.55648 467.976655,1265.74891 468.90465,1266.3027 L475.09839,1269.97984 L468.005086,1274.1263 C467.028758,1274.69556 466.712224,1275.89568 467.284544,1276.87267 C467.684856,1277.54966 468.221068,1277.88051 468.97696,1277.88051 C469.15674,1277.88051 469.516963,1277.77279 469.985605,1277.58819 L477.006599,1273.54945 L477.078814,1280.54991 C477.090376,1281.66537 478.015149,1282.52695 479.059143,1282.52695 C480.247473,1282.52695 481.084014,1281.59609 481.075579,1280.47294 L481.003364,1271.17227 L494.038319,1263.71027 L494.038319,1278.48821 L485.792034,1283.14234 C484.808029,1283.69622 484.463822,1284.90403 485.036143,1285.88102 C485.436359,1286.56569 485.972572,1286.89645 486.728369,1286.89645 C487.088687,1286.89645 487.420479,1286.83495 487.700906,1286.67332 L494.038319,1283.07296 L494.038319,1291.4736 C494.038319,1292.58907 494.902533,1293.45833 496.018647,1293.45833 C497.134762,1293.45833 498.035084,1292.58907 498.035084,1291.4736 L498.035084,1283.21143 L504.155946,1286.67332 C504.436183,1286.83485 504.76807,1286.89645 505.092375,1286.89645 C505.884185,1286.89645 506.468067,1286.57338 506.856722,1285.88102 C507.403644,1284.91172 507.050338,1283.69613 506.064723,1283.14234 L498.035084,1278.63437 L498.035084,1263.6333 L510.781367,1271.02611 L510.70991,1280.47294 C510.700622,1281.59609 511.574124,1282.52695 512.690239,1282.52695 C513.806353,1282.52695 514.653604,1281.66537 514.670473,1280.54991 L514.778038,1273.29557 L521.979665,1277.51891 C522.257722,1277.68044 522.627896,1277.73435 523.024322,1277.73435 C523.780308,1277.73435 524.334812,1277.41897 524.716454,1276.7958 C525.307444,1275.83418 524.930161,1274.59563 523.996196,1274.05711 Z" id="Shape" fill="#FFFFFF" opacity="0.400000006"></path>
                                        <path d="M467.63275,609.434318 L457.872818,603.756655 L466.112524,598.816363 C467.437187,598.173859 467.847159,596.38306 467.093823,595.066472 C466.326933,593.718175 464.671686,593.43383 463.41518,594.171073 L452.429206,600.649268 L434.969399,590.421052 L452.429077,580.29823 L463.415051,586.765899 C463.758157,587.018664 464.199625,587.166164 464.690532,587.166164 C465.621617,587.166164 466.45563,586.723793 467.093694,585.881026 C467.829345,584.543255 467.437058,582.773639 466.112395,582.131135 L457.872689,577.190843 L467.632621,571.513309 C468.904746,570.775937 469.342213,569.122112 468.613919,567.763288 C467.918284,566.457097 466.197075,566.004199 464.886095,566.77315 L455.076982,572.503447 L454.930472,562.622864 C454.907495,561.095487 453.753352,559.86298 452.233127,559.86298 C450.71316,559.86298 449.524423,561.190225 449.535912,562.622864 L449.633241,575.663466 L432.271925,585.786287 L432.271925,565.245643 L443.208847,558.967581 C444.485619,558.240735 445.041972,556.544804 444.287604,555.21769 C443.521618,553.869392 441.949243,553.468997 440.608961,554.227552 L432.271925,558.967711 L432.271925,547.759754 C432.271925,546.232376 431.045624,545 429.525399,545 C428.005174,545 426.828055,546.232376 426.828055,547.759754 L426.828055,559.072846 L418.196061,554.227422 C416.85152,553.479523 415.320838,553.900842 414.56647,555.21756 C413.800613,556.565857 414.276676,558.219682 415.596046,558.967451 L426.828055,565.340381 L426.828055,585.680893 L409.073548,575.368465 L409.17191,562.622734 C409.319453,561.190225 408.043972,559.86285 406.523746,559.86285 L406.425384,559.86285 C405.003392,559.86285 403.743788,561.095357 403.72804,562.622734 L403.629677,572.208316 L394.066599,566.678152 C392.731481,565.898674 391.083591,566.362098 390.387827,567.657763 C389.659534,569.027114 390.036202,570.638833 391.369255,571.418311 L401.030695,577.043213 L392.594522,582.131005 C391.270763,582.773639 390.857436,584.564308 391.663179,585.881026 C392.182098,586.734319 392.937628,587.166164 393.968108,587.166164 C394.506906,587.166164 394.955732,587.02919 395.389971,586.765899 L406.425255,580.203362 L424.13071,590.421052 L406.425255,600.744006 L395.389971,594.171073 C394.065308,593.391594 392.357782,593.76028 391.66305,595.066472 C390.934757,596.425296 391.330271,598.058068 392.594264,598.816363 L401.030566,603.851393 L391.368996,609.529057 C390.03917,610.308535 389.608029,611.951833 390.387569,613.289604 C390.932821,614.216583 391.663179,614.669611 392.692756,614.669611 C392.937628,614.669611 393.428278,614.52211 394.066599,614.269345 L403.629677,608.739182 L403.72804,618.324764 C403.743788,619.852141 405.003392,621.031885 406.425384,621.031885 L406.523746,621.031885 C408.043972,621.031885 409.183398,619.757273 409.17191,618.219369 L409.073548,605.484165 L426.828055,595.266605 L426.828055,615.501722 L415.596046,621.874522 C414.255764,622.632948 413.78693,624.286772 414.56647,625.624543 C415.111593,626.562048 415.841952,627.014946 416.871399,627.014946 C417.362177,627.014946 417.814101,626.930735 418.196061,626.709419 L426.828055,621.779524 L426.828055,633.282352 C426.828055,634.80973 428.005174,636 429.525399,636 C431.045624,636 432.271925,634.80973 432.271925,633.282352 L432.271925,621.96913 L440.608961,626.709419 C440.990663,626.930605 441.442716,627.014946 441.884442,627.014946 C442.962941,627.014946 443.758229,626.572575 444.287604,625.624543 C445.032549,624.297299 444.551323,622.632818 443.208847,621.874522 L432.271925,615.701854 L432.271925,595.16121 L449.633241,605.284032 L449.535912,618.219369 C449.523261,619.757273 450.713031,621.031885 452.233256,621.031885 C453.753481,621.031885 454.907495,619.852141 454.930472,618.324764 L455.076982,608.391549 L464.886095,614.174477 C465.264828,614.395663 465.769031,614.469478 466.308991,614.469478 C467.338696,614.469478 468.093968,614.037633 468.61379,613.18434 C469.41876,611.867622 468.904875,610.171691 467.63275,609.434318 Z" id="Shape-Copy-3" fill="#FFFFFF" opacity="0.5"></path>
                                        <g id="Shape-Copy-4" fill="none" opacity="0.400000006">
                                            <use fill="#FFFFFF" fill-rule="evenodd" xlink:href="#path-4"></use>
                                            <path stroke-opacity="0.252660779" stroke="#FFFFFF" stroke-width="4" d="M435.983858,223.419549 C437.910405,224.538032 438.601177,227.057599 437.419841,228.991028 C436.665736,230.22959 435.451521,230.911258 433.990259,230.911258 C433.220111,230.911258 432.540678,230.781153 431.911451,230.41345 L427.550836,227.841229 L427.492152,231.822198 C427.45864,234.051078 425.711832,235.815035 423.478001,235.815035 C421.220517,235.815035 419.445097,233.947217 419.463585,231.698335 L419.527561,223.191039 L410.570172,217.965357 L410.570172,228.664703 L417.722297,232.703532 C419.679091,233.809442 420.386759,236.26704 419.290345,238.221566 C418.541883,239.562701 417.280514,240.285894 415.74914,240.285894 C415.060731,240.285894 414.392051,240.134902 413.807603,239.795965 L410.570172,237.954191 L410.570172,242.96923 C410.570172,245.216348 408.757907,247 406.518969,247 C404.276027,247 402.504496,245.212174 402.504496,242.96923 L402.504496,237.820077 L399.060923,239.787842 C398.454402,240.13947 397.787313,240.285894 397.068513,240.285894 C395.57404,240.285894 394.377439,239.558803 393.618844,238.253437 C392.475728,236.290636 393.160481,233.819773 395.128655,232.705422 L402.504496,228.518189 L402.504496,218.021349 L393.253747,223.348047 L393.318206,231.698443 C393.334978,233.944903 391.602872,235.815035 389.340519,235.815035 L389.267059,235.815035 C387.08977,235.815035 385.275562,234.031963 385.252692,231.812642 L385.214377,228.076752 L380.910975,230.566726 L380.773775,230.621085 C380.047747,230.908741 379.530429,231.060808 379.011045,231.060808 C377.521747,231.060808 376.327099,230.339009 375.561183,229.03612 C374.425144,227.08547 375.065282,224.635226 377.008698,223.495456 L381.314811,220.963536 L377.908174,218.929217 C376.031175,217.802538 375.440819,215.40607 376.476034,213.473546 C377.543683,211.465096 380.091094,210.872221 382.049307,212.02518 L389.277814,216.333093 L398.505713,210.94987 L389.28214,205.624038 L382.062783,209.919618 C381.420395,210.309334 380.726297,210.508782 379.963524,210.508782 C378.501406,210.508782 377.286432,209.826774 376.535923,208.591956 C375.352627,206.657175 375.961301,204.041771 377.967701,202.995643 L381.316796,200.9747 L377.012645,198.467416 C375.081785,197.33775 374.479963,194.955772 375.527402,192.985292 C376.591112,191.003325 379.085783,190.327121 381.03871,191.46795 L385.214377,193.884016 L385.252693,190.148028 C385.275514,187.933434 387.085411,186.106306 389.267059,186.106306 L389.340519,186.106306 C391.596554,186.106306 393.479294,188.029891 393.317609,190.261002 L393.253698,198.547188 L402.504496,203.923372 L402.504496,193.36381 L395.129467,189.176953 C393.17798,188.070306 392.493176,185.611182 393.611498,183.641295 C394.721628,181.702527 397.073961,181.058749 399.03721,182.15143 L402.504496,184.09882 L402.504496,179.062233 C402.504496,176.822448 404.272241,175 406.518969,175 C408.76128,175 410.570172,176.818696 410.570172,179.062233 L410.570172,183.998663 L413.811046,182.154983 C415.771455,181.044836 418.165368,181.679127 419.282873,183.647272 C420.390504,185.596948 419.644261,188.083737 417.734341,189.171616 L410.570172,193.286324 L410.570172,203.995411 L419.527631,198.769687 L419.463593,190.184762 C419.446033,187.993746 421.239476,186.106403 423.477905,186.106403 C425.716678,186.106403 427.458691,187.913155 427.492158,190.139097 L427.550802,194.096228 L431.915293,191.545154 C433.863752,190.401652 436.416827,191.078145 437.474651,193.065542 C438.518697,195.014575 437.882184,197.440303 435.984871,198.54067 L431.620855,201.080718 L434.810349,202.994116 C436.790853,204.023692 437.399027,206.564897 436.32903,208.511759 L436.258958,208.639256 L436.171173,208.755269 C435.329996,209.866933 434.127909,210.508782 432.781537,210.508782 C432.044383,210.508782 431.335579,210.295456 430.744248,209.891921 L423.616527,205.69334 L414.555081,210.949947 L423.621012,216.263872 L430.816514,212.018471 C432.722409,210.899582 435.190608,211.4458 436.312557,213.419455 C437.419883,215.355785 436.797519,217.933089 434.810583,218.966569 L431.620918,220.880069 L435.983858,223.419549 Z"></path>
                                            <use stroke-opacity="0.435575181" stroke="#FFFFFF" stroke-width="2" xlink:href="#path-4"></use>
                                        </g>
                                    </g>
                                </g>
                                <g id="snowflake" mask="url(#mask-3)" fill="#FFFFFF" fill-rule="nonzero">
                                    <g transform="translate(-211.000000, 89.000000)" id="Shape">
                                        <path d="M558.544502,520.345648 L512.4628,493.704302 L551.36673,470.522934 C557.621149,467.508107 559.556838,459.105128 555.999949,452.927292 C552.379066,446.600665 544.563783,445.266433 538.631166,448.725802 L486.760682,479.123487 L404.323869,431.129549 L486.760072,383.630156 L538.630556,413.978447 C540.250538,415.164499 542.334938,415.856617 544.652767,415.856617 C549.048901,415.856617 552.986711,413.780874 555.99934,409.826351 C559.472731,403.549119 557.62054,395.245536 551.36612,392.230708 L512.462191,369.049341 L558.543893,342.408604 C564.550257,338.948626 566.615763,331.188371 563.177112,324.812352 C559.892658,318.683299 551.765935,316.558163 545.576119,320.166321 L499.262208,347.054635 L498.570455,300.691899 C498.461969,293.524975 493.012664,287.741677 485.834891,287.741677 C478.658337,287.741677 473.045693,293.969516 473.099937,300.691899 L473.55948,361.882417 L391.587696,409.38181 L391.587696,312.998788 L443.22658,283.540187 C449.254885,280.129602 451.881717,272.171774 448.319952,265.944544 C444.703335,259.617918 437.279335,257.739139 430.951169,261.298514 L391.587696,283.540797 L391.587696,230.949613 C391.587696,223.782689 385.797695,218 378.619923,218 C371.44215,218 365.884359,223.782689 365.884359,230.949613 L365.884359,284.034121 L325.128238,261.297904 C318.77996,257.788532 311.55282,259.765489 307.991055,265.943935 C304.375047,272.270561 306.622786,280.030815 312.852218,283.539577 L365.884359,313.443328 L365.884359,408.887266 L282.056118,360.498181 L282.520537,300.691289 C283.217165,293.969516 277.194955,287.741067 270.017182,287.741067 L269.552763,287.741067 C262.8388,287.741067 256.891555,293.524365 256.817199,300.691289 L256.35278,345.669789 L211.200526,319.720561 C204.896738,316.063009 197.116196,318.237539 193.831133,324.317198 C190.392482,330.742611 192.170926,338.305292 198.464962,341.962844 L244.081635,368.356613 L204.250087,392.230098 C197.999933,395.245536 196.048398,403.647905 199.852734,409.826351 C202.302818,413.830267 205.870068,415.856617 210.735497,415.856617 C213.279441,415.856617 215.398581,415.213892 217.448851,413.978447 L269.552154,383.185005 L353.148795,431.129549 L269.552154,479.568028 L217.448851,448.725802 C211.194431,445.06825 203.132312,446.798239 199.852124,452.927292 C196.413473,459.303311 198.280901,466.964779 204.248868,470.522934 L244.081026,494.148843 L198.463743,520.790189 C192.184944,524.447741 190.149302,532.158602 193.829914,538.435835 C196.404331,542.785505 199.852734,544.911251 204.713896,544.911251 C205.870068,544.911251 208.186678,544.219134 211.200526,543.033082 L256.35278,517.083853 L256.817199,562.062353 C256.891555,569.229277 262.8388,574.764999 269.552763,574.764999 L270.017182,574.764999 C277.194955,574.764999 282.57478,568.784127 282.520537,561.567809 L282.056118,501.810311 L365.884359,453.866376 L365.884359,548.81577 L312.852218,578.718912 C306.524051,582.277677 304.310443,590.037932 307.991055,596.315164 C310.564863,600.714227 314.013265,602.839364 318.873818,602.839364 C321.191038,602.839364 323.324805,602.444217 325.128238,601.405735 L365.884359,578.273151 L365.884359,632.247961 C365.884359,639.414885 371.44215,645 378.619923,645 C385.797695,645 391.587696,639.414885 391.587696,632.247961 L391.587696,579.162842 L430.951169,601.405735 C432.753383,602.443607 434.88776,602.839364 436.973379,602.839364 C442.065532,602.839364 445.8205,600.763621 448.319952,596.315164 C451.837225,590.087325 449.565107,582.277067 443.22658,578.718912 L391.587696,549.754855 L391.587696,453.371832 L473.55948,500.871226 L473.099937,561.567809 C473.040208,568.784127 478.657728,574.764999 485.835501,574.764999 C493.013273,574.764999 498.461969,569.229277 498.570455,562.062353 L499.262208,515.452651 L545.576119,542.587931 C547.364315,543.625803 549.74492,543.972166 552.294349,543.972166 C557.156121,543.972166 560.722152,541.945817 563.176503,537.941901 C566.977181,531.763455 564.550866,523.805627 558.544502,520.345648 Z"></path>
                                        <path d="M743.898628,613.18813 L650.376246,559.156735 L729.331406,512.142532 C742.024692,506.028151 745.953154,488.986043 738.734481,476.456755 C731.385932,463.625706 715.52489,460.919746 703.484698,467.935702 L598.214038,529.585339 L430.9093,432.248688 L598.212801,335.915023 L703.483461,397.464485 C706.771198,399.869921 711.001469,401.273607 715.705481,401.273607 C724.627394,401.273607 732.619142,397.063786 738.733244,389.043607 C745.782459,376.312732 742.023455,359.472211 729.330169,353.35783 L650.375009,306.343627 L743.897391,252.313469 C756.08725,245.296276 760.279176,229.55768 753.300466,216.626455 C746.634698,204.196106 730.141589,199.88611 717.579416,207.203827 L623.585767,261.736097 L622.181862,167.707692 C621.96169,153.172432 610.902376,141.443307 596.335154,141.443307 C581.770406,141.443307 570.379598,154.074007 570.489684,167.707692 L571.422322,291.808367 L405.061356,388.142032 L405.061356,192.66733 L509.861987,132.922253 C522.096375,126.005235 527.427506,109.865939 520.198938,97.2364763 C512.859047,84.4054267 497.792109,80.5950688 484.949155,87.8138482 L405.061356,132.92349 L405.061356,26.2631488 C405.061356,11.7278885 393.310604,0 378.743382,0 C364.17616,0 352.896674,11.7278885 352.896674,26.2631488 L352.896674,133.924003 L270.18251,87.8126115 C257.298738,80.6952437 242.631325,84.7047148 235.402757,97.2352396 C228.064103,110.066289 232.625869,125.804886 245.268442,132.921017 L352.896674,193.568905 L352.896674,387.139046 L182.768046,289.000995 L183.71058,167.706456 C185.124381,154.074007 172.902361,141.44207 158.335139,141.44207 L157.392605,141.44207 C143.76668,141.44207 131.696802,153.171195 131.545898,167.706456 L130.603364,258.927489 L38.9672867,206.299779 C26.1738097,198.881887 10.3832725,203.292058 3.71626673,215.622233 C-3.26244321,228.653632 0.346893124,243.991529 13.1205793,251.409421 L105.699191,304.938705 L24.8614363,353.356593 C12.1768084,359.472211 8.2161864,376.513082 15.9370491,389.043607 C20.9094727,397.163961 28.1491731,401.273607 38.0235157,401.273607 C43.1864252,401.273607 47.4872006,399.970096 51.6482038,397.464485 L157.391368,335.012212 L327.049967,432.248688 L157.391368,530.486914 L51.6482038,467.935702 C38.9549175,460.517809 22.5929226,464.026405 15.9358122,476.456755 C8.95710225,489.38798 12.7470291,504.926226 24.8589624,512.142532 L105.697954,560.058309 L13.1181055,614.089704 C0.375342313,621.507597 -3.75597481,637.146018 3.71379289,649.876893 C8.93854843,658.698471 15.9370491,663.009704 25.8027334,663.009704 C28.1491731,663.009704 32.8507109,661.606018 38.9672867,659.200583 L130.603364,606.572873 L131.545898,697.793906 C131.696802,712.329167 143.76668,723.55618 157.392605,723.55618 L158.335139,723.55618 C172.902361,723.55618 183.820666,711.426355 183.71058,696.79092 L182.768046,575.596555 L352.896674,478.361316 L352.896674,670.928471 L245.268442,731.575123 C232.425488,738.792665 227.93299,754.531262 235.402757,767.262136 C240.626276,776.18389 247.624777,780.493886 257.489224,780.493886 C262.191999,780.493886 266.52246,779.692486 270.18251,777.586339 L352.896674,730.671075 L352.896674,840.137551 C352.896674,854.672811 364.17616,866 378.743382,866 C393.310604,866 405.061356,854.672811 405.061356,840.137551 L405.061356,732.47546 L484.949155,777.586339 C488.606731,779.691249 492.938429,780.493886 497.171174,780.493886 C507.505651,780.493886 515.126324,776.284065 520.198938,767.262136 C527.337211,754.631437 522.725968,738.791429 509.861987,731.575123 L405.061356,672.833032 L405.061356,477.35833 L571.422322,573.691995 L570.489684,696.79092 C570.368465,711.426355 581.769169,723.55618 596.336391,723.55618 C610.903613,723.55618 621.96169,712.329167 622.181862,697.793906 L623.585767,603.264627 L717.579416,658.297771 C721.208543,660.402682 726.039958,661.105143 731.214,661.105143 C741.080921,661.105143 748.318147,656.995497 753.29923,648.875143 C761.012671,636.344619 756.088487,620.205322 743.898628,613.18813 Z" opacity="0.229999989"></path>
                                        <path d="M633.844616,558.382007 L568.490137,520.634901 L623.664879,487.790106 C632.535089,483.518512 635.280341,471.612651 630.235853,462.859511 C625.100605,453.895556 614.016733,452.005134 605.602913,456.906581 L532.038608,499.975901 L415.124201,431.975123 L532.037743,364.675045 L605.602049,407.674381 C607.899556,409.354852 610.855716,410.335487 614.142932,410.335487 C620.377664,410.335487 625.962386,407.394446 630.234988,401.791434 C635.161058,392.897463 632.534224,381.132434 623.664015,376.86084 L568.489273,344.016045 L633.843751,306.269802 C642.36216,301.367491 645.291525,290.372282 640.414725,281.338344 C635.756612,272.654323 624.231044,269.643298 615.452459,274.755561 L549.768654,312.852585 L548.787589,247.162995 C548.63373,237.008454 540.905359,228.814319 530.725623,228.814319 C520.547615,228.814319 512.587592,237.638307 512.664521,247.162995 L513.31626,333.861504 L397.06137,401.161581 L397.06137,264.600156 L470.297214,222.861389 C478.84674,218.029062 482.572194,206.753918 477.52079,197.930795 C472.391593,188.96684 461.862649,186.304869 452.887851,191.348012 L397.06137,222.862253 L397.06137,148.347812 C397.06137,138.193271 388.849814,130 378.670078,130 C368.490341,130 360.608112,138.193271 360.608112,148.347812 L360.608112,223.561226 L302.806536,191.347148 C293.803213,186.374853 283.553463,189.175927 278.502059,197.929931 C273.373726,206.893886 276.561539,217.889094 285.396309,222.860525 L360.608112,265.230008 L360.608112,400.460881 L241.720338,331.900233 L242.378992,247.162131 C243.366971,237.638307 234.826089,228.813455 224.646352,228.813455 C214.465751,228.813455 206.031187,237.00759 205.925733,247.162131 L205.26708,310.890451 L141.230772,274.12398 C132.290549,268.941734 121.255946,272.022742 116.596968,280.636779 C111.720168,289.740701 114.242413,300.455975 123.168806,305.638221 L187.863767,343.034546 L131.373448,376.859976 C122.509289,381.132434 119.741562,393.03743 125.136987,401.791434 C128.611772,407.46443 133.670954,410.335487 140.571255,410.335487 C144.179153,410.335487 147.184583,409.424836 150.092338,407.674381 L223.986835,364.044328 L342.546146,431.975123 L223.986835,500.605754 L150.092338,456.906581 C141.222129,451.724335 129.788185,454.175491 125.136122,462.859511 C120.259322,471.89345 122.907765,482.748692 131.371719,487.790106 L187.862903,521.264754 L123.167078,559.01186 C114.262293,564.194106 111.375283,575.119331 116.59524,584.013303 C120.246357,590.176184 125.136987,593.188073 132.031236,593.188073 C133.670954,593.188073 136.956441,592.207438 141.230772,590.526966 L205.26708,553.760495 L205.925733,617.488814 C206.031187,627.643355 214.465751,635.486708 223.987699,635.486708 C234.826089,635.486708 242.455921,627.012639 242.378992,616.788114 L241.720338,532.119995 L360.608112,464.190065 L360.608112,598.720237 L285.396309,641.088856 C276.42151,646.131135 273.282102,657.126343 278.502059,666.020315 C282.152312,672.253179 287.042942,675.264204 293.936327,675.264204 C297.222678,675.264204 300.248853,674.704335 302.806536,673.23295 L360.608112,640.457275 L360.608112,716.932123 C360.608112,727.086664 368.490341,735 378.670078,735 C388.849814,735 397.06137,727.086664 397.06137,716.932123 L397.06137,641.717845 L452.887851,673.23295 C455.443805,674.703471 458.470844,675.264204 461.428733,675.264204 C468.650581,675.264204 473.975991,672.323163 477.52079,666.020315 C482.509094,657.196327 479.286707,646.130271 470.297214,641.088856 L397.06137,600.05079 L397.06137,463.489364 L513.31626,530.789442 L512.664521,616.788114 C512.579813,627.012639 520.546751,635.486708 530.726487,635.486708 C540.906224,635.486708 548.63373,627.643355 548.787589,617.488814 L549.768654,551.449306 L615.452459,589.896249 C617.988533,591.36677 621.364779,591.857519 624.980457,591.857519 C631.875571,591.857519 636.933025,588.986462 640.413861,583.313466 C645.804099,574.559462 642.363025,563.284319 633.844616,558.382007 Z" opacity="0.600000024"></path>
                                    </g>
                                </g>
                            </g>
                        </g>
                    </g>
                </g>
                <g id="Group-14-Copy" transform="translate(60.000000, 176.000000)" fill="#FFFFFF">
                    <circle id="Oval-6" opacity="0.699999988" cx="9.5" cy="845.5" r="9.5"></circle>
                    <circle id="Oval-6-Copy-3" opacity="0.300000012" cx="78.5" cy="1057.5" r="4.5"></circle>
                    <circle id="Oval-6" cx="404" cy="710" r="4"></circle>
                    <circle id="Oval-6" opacity="0.600000024" cx="607" cy="843" r="7"></circle>
                    <circle id="Oval-6-Copy" opacity="0.400000006" cx="759" cy="1046" r="7"></circle>
                    <circle id="Oval-6-Copy-2" opacity="0.400000006" cx="759" cy="123" r="7"></circle>
                    <circle id="Oval-6" opacity="0.900000036" cx="406.5" cy="952.5" r="6.5"></circle>
                    <circle id="Oval-6" opacity="0.699999988" cx="626.5" cy="432.5" r="6.5"></circle>
                    <circle id="Oval-6" opacity="0.300000012" cx="525.5" cy="5.5" r="5.5"></circle>
                </g>
            </g>
        </g>
    </g>
</svg>