<?xml version="1.0" encoding="UTF-8"?>
<svg width="874px" height="2197px" viewBox="0 0 874 2197" version="1.1" xmlns="http://www.w3.org/2000/svg" xmlns:xlink="http://www.w3.org/1999/xlink">
    <!-- Generator: Sketch 49 (51002) - http://www.bohemiancoding.com/sketch -->
    <title>heavy sleet</title>
    <desc>Created with Sketch.</desc>
    <defs>
        <linearGradient x1="0%" y1="0%" x2="93.7646471%" y2="93.7646471%" id="linearGradient-1">
            <stop stop-color="#B1E5EB" offset="0%"></stop>
            <stop stop-color="#309FDC" offset="100%"></stop>
        </linearGradient>
        <rect id="path-2" x="0" y="0" width="874" height="2197"></rect>
    </defs>
    <g id="Page-1" stroke="none" stroke-width="1" fill="none" fill-rule="evenodd">
        <g id="heavy-sleet">
            <g id="Group-24">
                <g id="night-rainy-copy-3">
                    <g id="Group-5-Copy-3">
                        <g id="with-content-copy-7">
                            <g id="Shape">
                                <g id="fluffy-cloud-silhouette">
                                    <mask id="mask-3" fill="white">
                                        <use xlink:href="#path-2"></use>
                                    </mask>
                                    <use id="Mask" fill="url(#linearGradient-1)" xlink:href="#path-2"></use>
                                    <g id="Group-21" mask="url(#mask-3)">
                                        <g transform="translate(62.000000, 709.000000)">
                                            <g id="Group-25" stroke="none" stroke-width="1" fill-rule="evenodd">
                                                <path d="M112,68 L169,178" id="Path-3-Copy-12" stroke="#FFFFFF" stroke-width="10" opacity="0.300000012" stroke-linecap="round"></path>
                                                <path d="M186,380 L216.122294,434.070693" id="Path-3-Copy-22" stroke="#FFFFFF" stroke-width="10" opacity="0.100000001" stroke-linecap="round"></path>
                                                <path d="M0,27 L54,138" id="Path-3-Copy-13" stroke="#FFFFFF" stroke-width="10" opacity="0.400000006" stroke-linecap="round"></path>
                                                <path d="M245,221 L295,320" id="Path-3-Copy-15" stroke="#FFFFFF" stroke-width="10" opacity="0.100000001" stroke-linecap="round"></path>
                                                <path d="M201,1 L287.128959,151.74827" id="Path-3-Copy-16" stroke="#FFFFFF" stroke-width="10" opacity="0.699999988" stroke-linecap="round"></path>
                                                <path d="M394,205 L451,316" id="Path-3-Copy-19" stroke="#FFFFFF" stroke-width="10" opacity="0.5" stroke-linecap="round"></path>
                                                <path d="M400,404 L452,505" id="Path-3-Copy-20" stroke="#FFFFFF" stroke-width="10" opacity="0.100000001" stroke-linecap="round"></path>
                                                <path d="M590.362171,394.434318 L580.510538,388.756655 L588.827662,383.816363 C590.164771,383.173859 590.578595,381.38306 589.818181,380.066472 C589.044086,378.718175 587.373286,378.43383 586.104974,379.171073 L575.015778,385.649268 L557.391922,375.421052 L575.015648,365.29823 L586.104844,371.765899 C586.451173,372.018664 586.89679,372.166164 587.392309,372.166164 C588.332143,372.166164 589.173992,371.723793 589.818051,370.881026 C590.560614,369.543255 590.164641,367.773639 588.827532,367.131135 L580.510407,362.190843 L590.362041,356.513309 C591.646119,355.775937 592.087696,354.122112 591.35256,352.763288 C590.650389,351.457097 588.913007,351.004199 587.58971,351.77315 L577.688432,357.503447 L577.540545,347.622864 C577.517352,346.095487 576.352366,344.86298 574.817857,344.86298 C573.283609,344.86298 572.083702,346.190225 572.095299,347.622864 L572.193543,360.663466 L554.669103,370.786287 L554.669103,350.245643 L565.708786,343.967581 C566.997555,343.240735 567.559135,341.544804 566.797679,340.21769 C566.024496,338.869392 564.437347,338.468997 563.084472,339.227552 L554.669103,343.967711 L554.669103,332.759754 C554.669103,331.232376 553.431281,330 551.896772,330 C550.362263,330 549.174083,331.232376 549.174083,332.759754 L549.174083,344.072846 L540.460986,339.227422 C539.103811,338.479523 537.558748,338.900842 536.797292,340.21756 C536.024239,341.565857 536.504775,343.219682 537.836541,343.967451 L549.174083,350.340381 L549.174083,370.680893 L531.252759,360.368465 L531.352045,347.622734 C531.500975,346.190225 530.213509,344.86285 528.679,344.86285 L528.579714,344.86285 C527.144361,344.86285 525.872922,346.095357 525.857025,347.622734 L525.757739,357.208316 L516.104808,351.678152 C514.757145,350.898674 513.093772,351.362098 512.391471,352.657763 C511.656335,354.027114 512.036542,355.638833 513.38212,356.418311 L523.134337,362.043213 L514.6189,367.131005 C513.282703,367.773639 512.865492,369.564308 513.678806,370.881026 C514.202601,371.734319 514.96523,372.166164 516.005392,372.166164 C516.549252,372.166164 517.002295,372.02919 517.440614,371.765899 L528.579583,365.203362 L546.451395,375.421052 L528.579583,385.744006 L517.440614,379.171073 C516.103505,378.391594 514.379935,378.76028 513.678676,380.066472 C512.94354,381.425296 513.34277,383.058068 514.618639,383.816363 L523.134207,388.851393 L513.381859,394.529057 C512.039539,395.308535 511.604346,396.951833 512.39121,398.289604 C512.941585,399.216583 513.678806,399.669611 514.718056,399.669611 C514.96523,399.669611 515.460489,399.52211 516.104808,399.269345 L525.757739,393.739182 L525.857025,403.324764 C525.872922,404.852141 527.144361,406.031885 528.579714,406.031885 L528.679,406.031885 C530.213509,406.031885 531.363642,404.757273 531.352045,403.219369 L531.252759,390.484165 L549.174083,380.266605 L549.174083,400.501722 L537.836541,406.874522 C536.483667,407.632948 536.010427,409.286772 536.797292,410.624543 C537.347536,411.562048 538.084757,412.014946 539.123877,412.014946 C539.619266,412.014946 540.075437,411.930735 540.460986,411.709419 L549.174083,406.779524 L549.174083,418.282352 C549.174083,419.80973 550.362263,421 551.896772,421 C553.431281,421 554.669103,419.80973 554.669103,418.282352 L554.669103,406.96913 L563.084472,411.709419 C563.469761,411.930605 563.926061,412.014946 564.371938,412.014946 C565.46057,412.014946 566.263331,411.572575 566.797679,410.624543 C567.549624,409.297299 567.063876,407.632818 565.708786,406.874522 L554.669103,400.701854 L554.669103,380.16121 L572.193543,390.284032 L572.095299,403.219369 C572.08253,404.757273 573.283478,406.031885 574.817987,406.031885 C576.352496,406.031885 577.517352,404.852141 577.540545,403.324764 L577.688432,393.391549 L587.58971,399.174477 C587.972001,399.395663 588.480942,399.469478 589.025975,399.469478 C590.065355,399.469478 590.827723,399.037633 591.352429,398.18434 C592.164962,396.867622 591.646249,395.171691 590.362171,394.434318 Z" id="Shape-Copy-13" fill="#FFFFFF" fill-rule="nonzero" opacity="0.300000012"></path>
                                                <path d="M178.065424,292.633738 L171.394078,288.788928 L177.026283,285.443453 C177.931748,285.008361 178.211982,283.795665 177.697044,282.904096 C177.172841,281.991053 176.041406,281.798501 175.182528,282.297748 L167.673128,286.684663 L155.738576,279.758302 L167.67304,272.903313 L175.18244,277.2831 C175.416968,277.454268 175.718731,277.554152 176.054288,277.554152 C176.690726,277.554152 177.260811,277.254586 177.696955,276.68388 C178.199806,275.777966 177.93166,274.579615 177.026194,274.144523 L171.39399,270.799048 L178.065336,266.954326 C178.93489,266.454991 179.233917,265.335051 178.736097,264.414881 C178.260599,263.530352 177.084076,263.223658 176.187964,263.744378 L169.483001,267.624829 L169.382854,260.93388 C169.367148,259.899568 168.578241,259.064937 167.5391,259.064937 C166.500135,259.064937 165.68758,259.963723 165.695433,260.93388 L165.761962,269.764736 L153.894733,276.619725 L153.894733,262.709978 L161.370604,258.458589 C162.243335,257.966383 162.623627,256.817929 162.107982,255.919232 C161.584397,255.00619 160.509609,254.735049 159.593467,255.248729 L153.894733,258.458677 L153.894733,250.868854 C153.894733,249.834543 153.056503,249 152.017361,249 C150.97822,249 150.173607,249.834543 150.173607,250.868854 L150.173607,258.529873 L144.273257,255.248641 C143.354203,254.742178 142.307915,255.027487 141.792271,255.919144 C141.268774,256.832186 141.594184,257.952126 142.496032,258.458501 L150.173607,262.774133 L150.173607,276.548354 L138.037615,269.564967 L138.10485,260.933792 C138.205702,259.963723 137.333854,259.064849 136.294713,259.064849 L136.227478,259.064849 C135.255483,259.064849 134.394488,259.89948 134.383723,260.933792 L134.316488,267.424972 L127.779701,263.680047 C126.867088,263.152198 125.740683,263.466021 125.265097,264.343421 C124.767276,265.27072 125.024745,266.362147 125.935946,266.889995 L132.539969,270.699075 L126.773471,274.144435 C125.868623,274.579615 125.586095,275.792223 126.136857,276.68388 C126.491561,277.261715 127.007999,277.554152 127.712378,277.554152 C128.08067,277.554152 128.387462,277.461396 128.684284,277.2831 L136.22739,272.83907 L148.329852,279.758302 L136.22739,286.748817 L128.684284,282.297748 C127.778818,281.769899 126.611648,282.019567 126.136769,282.904096 C125.638948,283.824266 125.909299,284.929949 126.773295,285.443453 L132.53988,288.853083 L125.93577,292.697893 C125.026775,293.225741 124.73207,294.338552 125.26492,295.244466 C125.637624,295.872199 126.136857,296.178982 126.840618,296.178982 C127.007999,296.178982 127.34338,296.079097 127.779701,295.907929 L134.316488,292.163004 L134.383723,298.654184 C134.394488,299.688496 135.255483,300.487397 136.227478,300.487397 L136.294713,300.487397 C137.333854,300.487397 138.112703,299.624253 138.10485,298.582813 L138.037615,289.958766 L150.173607,283.039622 L150.173607,296.742472 L142.496032,301.058015 C141.579889,301.571607 141.259421,302.691547 141.792271,303.597461 C142.164886,304.232322 142.664119,304.539016 143.367791,304.539016 C143.70326,304.539016 144.01217,304.481989 144.273257,304.332119 L150.173607,300.993684 L150.173607,308.783188 C150.173607,309.8175 150.97822,310.623529 152.017361,310.623529 C153.056503,310.623529 153.894733,309.8175 153.894733,308.783188 L153.894733,301.122082 L159.593467,304.332119 C159.854377,304.481901 160.163375,304.539016 160.465315,304.539016 C161.202517,304.539016 161.746131,304.23945 162.107982,303.597461 C162.617185,302.698675 162.288246,301.571519 161.370604,301.058015 L153.894733,296.877998 L153.894733,282.968251 L165.761962,289.82324 L165.695433,298.582813 C165.686786,299.624253 166.500046,300.487397 167.539188,300.487397 C168.578329,300.487397 169.367148,299.688496 169.382854,298.654184 L169.483001,291.927593 L176.187964,295.843686 C176.446845,295.993469 176.79149,296.043455 177.160576,296.043455 C177.864425,296.043455 178.380687,295.751018 178.736008,295.173183 C179.286241,294.281526 178.934978,293.133073 178.065424,292.633738 Z" id="Shape-Copy-14" fill="#FFFFFF" fill-rule="nonzero" opacity="0.600000024"></path>
                                                <path d="M41.8429686,253.472349 L37.3368173,250.875377 L41.141082,248.615681 C41.7526776,248.321799 41.9419611,247.502685 41.5941467,246.900475 C41.2400745,246.283762 40.4758483,246.153703 39.8957205,246.490919 L34.8235066,249.454054 L26.7623297,244.775654 L34.823447,240.145461 L39.8956609,243.103781 C40.0540726,243.219397 40.2578981,243.286863 40.4845496,243.286863 C40.9144305,243.286863 41.2994937,243.084522 41.5940871,242.699039 C41.9337365,242.087141 41.752618,241.277716 41.1410224,240.983834 L37.3367577,238.724137 L41.842909,236.127225 C42.4302481,235.78995 42.632226,235.033488 42.2959737,234.41196 C41.9747996,233.814506 41.1801188,233.60735 40.5748407,233.95907 L36.0459824,236.580116 L35.9783386,232.060723 C35.9677302,231.362098 35.4348637,230.798348 34.7329771,230.798348 C34.0312097,230.798348 33.482371,231.405432 33.4876752,232.060723 L33.5326121,238.025513 L25.5169085,242.655706 L25.5169085,233.260386 L30.5664752,230.388791 C31.1559598,230.056331 31.4128276,229.28061 31.0645364,228.673586 C30.7108814,228.056873 29.9849171,227.873731 29.3661102,228.220695 L25.5169085,230.388851 L25.5169085,225.262315 C25.5169085,224.563691 24.9507268,224 24.2488402,224 C23.5469536,224 23.0034786,224.563691 23.0034786,225.262315 L23.0034786,230.43694 L19.0180953,228.220636 C18.3973217,227.878546 17.6906077,228.071258 17.3423165,228.673526 C16.988721,229.29024 17.2085188,230.046701 17.8176708,230.388732 L23.0034786,233.303719 L23.0034786,242.607498 L14.8062393,237.890579 L14.851653,232.060663 C14.9197736,231.405432 14.330885,230.798289 13.6289984,230.798289 L13.5835847,230.798289 C12.9270522,230.798289 12.3454941,231.362039 12.3382231,232.060663 L12.2928094,236.445122 L7.87754512,233.915618 C7.26112216,233.559083 6.50029305,233.771054 6.17905939,234.363693 C5.84280701,234.990036 6.01671421,235.727239 6.6321836,236.083773 L11.0928616,238.656611 L7.19788859,240.983774 C6.58671027,241.277716 6.39587721,242.096771 6.76788843,242.699039 C7.00747272,243.089337 7.35630029,243.286863 7.83207178,243.286863 C8.08083417,243.286863 8.2880567,243.224211 8.48854465,243.103781 L13.5835251,240.102068 L21.7581171,244.775654 L13.5835251,249.497388 L8.48854465,246.490919 C7.87694914,246.134384 7.08858571,246.303022 6.76782884,246.900475 C6.43157646,247.522003 6.61418498,248.268836 7.1977694,248.615681 L11.092802,250.918711 L6.63206441,253.515682 C6.01808497,253.872217 5.81902738,254.623864 6.17894019,255.235762 C6.43068249,255.659763 6.76788843,255.866979 7.24324273,255.866979 C7.35630029,255.866979 7.5828326,255.799512 7.87754512,255.683897 L12.2928094,253.154392 L12.3382231,257.538851 C12.3454941,258.237476 12.9270522,258.777092 13.5835847,258.777092 L13.6289984,258.777092 C14.330885,258.777092 14.8569573,258.194083 14.851653,257.490644 L14.8062393,251.665543 L23.0034786,246.992017 L23.0034786,256.247588 L17.8176708,259.162516 C17.1988639,259.509421 16.9824037,260.265882 17.3423165,260.877781 C17.5939992,261.306597 17.9312051,261.513753 18.4064998,261.513753 C18.6330917,261.513753 18.8417446,261.475235 19.0180953,261.374004 L23.0034786,259.119063 L23.0034786,264.380474 C23.0034786,265.079098 23.5469536,265.623529 24.2488402,265.623529 C24.9507268,265.623529 25.5169085,265.079098 25.5169085,264.380474 L25.5169085,259.20579 L29.3661102,261.374004 C29.5423418,261.475175 29.7510543,261.513753 29.9549989,261.513753 C30.4529409,261.513753 30.8201246,261.311412 31.0645364,260.877781 C31.4084769,260.270697 31.1862953,259.509361 30.5664752,259.162516 L25.5169085,256.339129 L25.5169085,246.943809 L33.5326121,251.574002 L33.4876752,257.490644 C33.4818346,258.194083 34.0311501,258.777092 34.7330367,258.777092 C35.4349233,258.777092 35.9677302,258.237476 35.9783386,257.538851 L36.0459824,252.995384 L40.5748407,255.640504 C40.7497014,255.741675 40.9824915,255.775438 41.2317903,255.775438 C41.7072042,255.775438 42.0559126,255.577912 42.2959141,255.187614 C42.6675677,254.585345 42.4303077,253.809624 41.8429686,253.472349 Z" id="Shape-Copy-14" fill="#FFFFFF" fill-rule="nonzero" opacity="0.600000024"></path>
                                                <path d="M330.47277,453.279263 L325.384563,450.346844 L329.680221,447.795264 C330.370816,447.463422 330.584549,446.538504 330.191808,445.858508 C329.792,445.162134 328.92906,445.015275 328.273998,445.396048 L322.546611,448.741929 L313.444179,443.459224 L322.546543,438.230954 L328.27393,441.571398 C328.452804,441.701947 328.682957,441.778129 328.938885,441.778129 C329.424293,441.778129 329.859095,441.549651 330.19174,441.114376 C330.575262,440.423439 330.370749,439.509462 329.680154,439.177619 L325.384496,436.62604 L330.472703,433.693687 C331.135908,433.312846 331.363975,432.458673 330.984289,431.756863 C330.621629,431.082237 329.7243,430.848322 329.040839,431.245473 L323.926993,434.205077 L323.850611,429.101919 C323.838633,428.313053 323.236936,427.676484 322.444388,427.676484 C321.651974,427.676484 321.032242,428.361984 321.038231,429.101919 L321.088973,435.837175 L312.037889,441.065445 L312.037889,430.456541 L317.739703,427.214025 C318.405331,426.838621 318.695378,425.962701 318.302098,425.277268 C317.902762,424.580895 317.083025,424.374097 316.384288,424.765879 L312.037889,427.214092 L312.037889,421.425367 C312.037889,420.636502 311.398574,420 310.606025,420 C309.813476,420 309.199801,420.636502 309.199801,421.425367 L309.199801,427.268393 L304.69963,424.765811 C303.998672,424.379534 303.200672,424.597138 302.807392,425.277201 C302.408123,425.973575 302.656312,426.827748 303.344148,427.213958 L309.199801,430.505472 L309.199801,441.011011 L299.943733,435.684812 L299.995012,429.101852 C300.071932,428.361984 299.406977,427.676417 298.614429,427.676417 C297.821813,427.676417 297.165135,428.312986 297.156925,429.101852 L297.105645,434.052647 L292.120066,431.196408 C291.42402,430.793821 290.564915,431.033172 290.202188,431.702361 C289.822503,432.409608 290.018873,433.242034 290.713842,433.644622 L295.750702,436.549791 L291.352619,439.177552 C290.662495,439.509462 290.447012,440.434313 290.867076,441.114376 C291.137607,441.555088 291.531492,441.778129 292.068719,441.778129 C292.349613,441.778129 292.583603,441.707384 292.809988,441.571398 L298.563082,438.181956 L307.793578,443.459224 L298.563082,448.79086 L292.809988,445.396048 C292.119393,444.993461 291.229197,445.183881 290.867009,445.858508 C290.487323,446.560318 290.693519,447.403617 291.352484,447.795264 L295.750634,450.395774 L290.713708,453.328194 C290.020421,453.730782 289.795651,454.579518 290.202054,455.270455 C290.486313,455.749224 290.867076,455.983206 291.403831,455.983206 C291.531492,455.983206 291.787286,455.907024 292.120066,455.776475 L297.105645,452.920237 L297.156925,457.871032 C297.165135,458.659897 297.821813,459.269215 298.563149,459.269215 C299.406977,459.269215 300.001002,458.610899 299.995012,457.816597 L299.943733,451.239074 L309.199801,445.961873 L309.199801,456.412977 L303.344148,459.704424 C302.64541,460.096138 302.40099,460.950311 302.807392,461.641248 C303.091585,462.125454 303.472347,462.359368 304.009035,462.359368 C304.264896,462.359368 304.5005,462.315874 304.69963,462.201568 L309.199801,459.655359 L309.199801,465.59638 C309.199801,466.385245 309.813476,467 310.606025,467 C311.398574,467 312.037889,466.385245 312.037889,465.59638 L312.037889,459.753287 L316.384288,462.201568 C316.583283,462.315807 316.818955,462.359368 317.049243,462.359368 C317.611503,462.359368 318.026116,462.13089 318.302098,461.641248 C318.690465,460.955748 318.439584,460.096071 317.739703,459.704424 L312.037889,456.516342 L312.037889,445.907438 L321.088973,451.135709 L321.038231,457.816597 C321.031636,458.610899 321.651906,459.269215 322.444455,459.269215 C323.237004,459.269215 323.838633,458.659897 323.850611,457.871032 L323.926993,452.74069 L329.040839,455.727477 C329.238286,455.841716 329.501146,455.87984 329.782646,455.87984 C330.319469,455.87984 330.71322,455.6568 330.984222,455.216087 C331.403882,454.536024 331.135975,453.660104 330.47277,453.279263 Z" id="Shape-Copy-15" fill="#FFFFFF" fill-rule="nonzero" opacity="0.300000012"></path>
                                                <path d="M558.065424,100.633738 L551.394078,96.7889278 L557.026283,93.4434531 C557.931748,93.008361 558.211982,91.7956649 557.697044,90.9040957 C557.172841,89.9910535 556.041406,89.7985006 555.182528,90.2977477 L547.673128,94.6846625 L535.738576,87.7583022 L547.67304,80.9033133 L555.18244,85.2830998 C555.416968,85.4542677 555.718731,85.5541523 556.054288,85.5541523 C556.690726,85.5541523 557.260811,85.2545865 557.696955,84.6838801 C558.199806,83.7779662 557.93166,82.5796148 557.026194,82.1445227 L551.39399,78.799048 L558.065336,74.9543262 C558.93489,74.4549911 559.233917,73.3350513 558.736097,72.4148808 C558.260599,71.5303519 557.084076,71.2236577 556.187964,71.7443778 L549.483001,75.6248292 L549.382854,68.9338798 C549.367148,67.899568 548.578241,67.0649374 547.5391,67.0649374 C546.500135,67.0649374 545.68758,67.963723 545.695433,68.9338798 L545.761962,77.7647361 L533.894733,84.6197251 L533.894733,70.7099779 L541.370604,66.4585894 C542.243335,65.9663826 542.623627,64.8179295 542.107982,63.9192319 C541.584397,63.0061897 540.509609,62.7350492 539.593467,63.2487289 L533.894733,66.4586774 L533.894733,58.8688544 C533.894733,57.8345426 533.056503,57 532.017361,57 C530.97822,57 530.173607,57.8345426 530.173607,58.8688544 L530.173607,66.5298727 L524.273257,63.2486409 C523.354203,62.7421775 522.307915,63.0274867 521.792271,63.9191439 C521.268774,64.8321862 521.594184,65.9521259 522.496032,66.4585014 L530.173607,70.7741329 L530.173607,84.5483538 L518.037615,77.5649669 L518.10485,68.9337918 C518.205702,67.963723 517.333854,67.0648494 516.294713,67.0648494 L516.227478,67.0648494 C515.255483,67.0648494 514.394488,67.89948 514.383723,68.9337918 L514.316488,75.424972 L507.779701,71.6800468 C506.867088,71.1521984 505.740683,71.4660209 505.265097,72.3434215 C504.767276,73.2707203 505.024745,74.3621468 505.935946,74.8899952 L512.539969,78.6990753 L506.773471,82.1444347 C505.868623,82.5796148 505.586095,83.7922228 506.136857,84.6838801 C506.491561,85.2617148 507.007999,85.5541523 507.712378,85.5541523 C508.08067,85.5541523 508.387462,85.461396 508.684284,85.2830998 L516.22739,80.8390703 L528.329852,87.7583022 L516.22739,94.7488175 L508.684284,90.2977477 C507.778818,89.7698992 506.611648,90.0195668 506.136769,90.9040957 C505.638948,91.8242662 505.909299,92.9299494 506.773295,93.4434531 L512.53988,96.8530828 L505.93577,100.697893 C505.026775,101.225741 504.73207,102.338552 505.26492,103.244466 C505.637624,103.872199 506.136857,104.178982 506.840618,104.178982 C507.007999,104.178982 507.34338,104.079097 507.779701,103.907929 L514.316488,100.163004 L514.383723,106.654184 C514.394488,107.688496 515.255483,108.487397 516.227478,108.487397 L516.294713,108.487397 C517.333854,108.487397 518.112703,107.624253 518.10485,106.582813 L518.037615,97.9587659 L530.173607,91.039622 L530.173607,104.742472 L522.496032,109.058015 C521.579889,109.571607 521.259421,110.691547 521.792271,111.597461 C522.164886,112.232322 522.664119,112.539016 523.367791,112.539016 C523.70326,112.539016 524.01217,112.481989 524.273257,112.332119 L530.173607,108.993684 L530.173607,116.783188 C530.173607,117.8175 530.97822,118.623529 532.017361,118.623529 C533.056503,118.623529 533.894733,117.8175 533.894733,116.783188 L533.894733,109.122082 L539.593467,112.332119 C539.854377,112.481901 540.163375,112.539016 540.465315,112.539016 C541.202517,112.539016 541.746131,112.23945 542.107982,111.597461 C542.617185,110.698675 542.288246,109.571519 541.370604,109.058015 L533.894733,104.877998 L533.894733,90.9682507 L545.761962,97.8232396 L545.695433,106.582813 C545.686786,107.624253 546.500046,108.487397 547.539188,108.487397 C548.578329,108.487397 549.367148,107.688496 549.382854,106.654184 L549.483001,99.9275929 L556.187964,103.843686 C556.446845,103.993469 556.79149,104.043455 557.160576,104.043455 C557.864425,104.043455 558.380687,103.751018 558.736008,103.173183 C559.286241,102.281526 558.934978,101.133073 558.065424,100.633738 Z" id="Shape-Copy-12" fill="#FFFFFF" fill-rule="nonzero" opacity="0.600000024"></path>
                                                <g id="Group-14-Copy-3" transform="translate(46.000000, 0.000000)" fill="#FFFFFF">
                                                    <circle id="Oval-6" opacity="0.699999988" cx="9.5" cy="469.5" r="9.5"></circle>
                                                    <circle id="Oval-6-Copy-3" opacity="0.300000012" cx="138.5" cy="551.5" r="4.5"></circle>
                                                    <circle id="Oval-6" cx="404" cy="334" r="4"></circle>
                                                    <circle id="Oval-6" opacity="0.600000024" cx="607" cy="467" r="7"></circle>
                                                    <circle id="Oval-6-Copy" opacity="0.400000006" cx="759" cy="670" r="7"></circle>
                                                    <circle id="Oval-6-Copy-2" opacity="0.400000006" cx="654" cy="299" r="7"></circle>
                                                    <circle id="Oval-6" opacity="0.900000036" cx="406.5" cy="576.5" r="6.5"></circle>
                                                    <circle id="Oval-6" opacity="0.699999988" cx="496.5" cy="6.5" r="6.5"></circle>
                                                    <circle id="Oval-6" opacity="0.300000012" cx="190.5" cy="177.5" r="5.5"></circle>
                                                </g>
                                            </g>
                                            <path d="M400,1 L457,100" id="Path-3-Copy-21" stroke="#FFFFFF" stroke-width="10" opacity="0.5" stroke-linecap="round"></path>
                                        </g>
                                    </g>
                                    <g mask="url(#mask-3)" id="Group">
                                        <g transform="translate(-57.000000, 182.000000)">
                                            <g>
                                                <path d="M634.129311,271.070416 C614.79149,246.994605 590.257802,231.505628 560.558489,224.597433 C570.006621,210.082719 574.717379,194.188303 574.717379,176.914184 C574.717379,152.494658 566.080989,131.649046 548.817885,114.370086 C531.551153,97.0971772 510.713244,88.4570921 486.30416,88.4570921 C464.200855,88.4570921 445.086837,95.5988685 428.974204,109.882421 C415.394784,77.1713667 393.800783,50.679866 364.217606,30.4079196 C334.627171,10.1408143 301.639764,0 265.257804,0 C216.445684,0 174.766238,17.2813805 140.226724,51.8356696 C105.684791,86.3814868 88.4192681,128.081183 88.4192681,176.917815 C88.4192681,180.374333 88.65033,185.323109 89.1100342,191.773823 C62.4012189,204.214142 40.8701248,223.044662 24.5228007,248.276277 C8.17668641,273.493368 0,301.31495 0,331.72287 C0,374.337527 15.1424151,410.793143 45.4187771,441.081246 C75.6963489,471.377821 112.136377,486.524294 154.734022,486.524294 L530.525287,486.524294 C567.13105,486.524294 598.387308,473.556299 624.29527,447.649357 C650.199603,421.735153 663.153584,390.465524 663.153584,353.83563 C663.149955,322.739069 653.474391,295.138965 634.129311,271.070416 Z" id="Shape" fill="#FFFFFF" fill-rule="nonzero" opacity="0.300000012"></path>
                                                <path d="M552.444377,278.833045 C537.503458,260.231428 518.548073,248.264229 495.601588,242.926772 C502.901468,231.712315 506.541126,219.431863 506.541126,206.085416 C506.541126,187.218235 499.868419,171.112356 486.530483,157.762169 C473.189742,144.416656 457.089815,137.741095 438.230702,137.741095 C421.153097,137.741095 406.385094,143.259023 393.936042,154.294879 C383.444217,129.021441 366.760113,108.553397 343.903358,92.8907481 C321.040995,77.2318392 295.554039,69.3967742 267.444362,69.3967742 C229.730809,69.3967742 197.528152,82.7488321 170.841997,109.446402 C144.153973,136.137427 130.814168,168.35573 130.814168,206.088221 C130.814168,208.75882 130.992692,212.582376 131.347872,217.566372 C110.711925,227.178095 94.0764248,241.72706 81.4460439,261.221682 C68.8165978,280.705082 62.4990706,302.200783 62.4990706,325.694757 C62.4990706,358.619983 74.1985065,386.78657 97.5908355,410.18797 C120.984099,433.595917 149.138642,445.298487 182.050724,445.298487 L472.39713,445.298487 C500.679725,445.298487 524.829147,435.279067 544.846334,415.262669 C564.860716,395.24066 574.869309,371.080907 574.869309,342.779668 C574.866505,318.753632 567.390904,297.429052 552.444377,278.833045 Z" id="Shape" fill="#FFFFFF" fill-rule="nonzero" opacity="0.5"></path>
                                                <path d="M463.717692,288.625306 C452.739147,274.95689 438.810783,266.163426 421.94977,262.241477 C427.313701,254.001126 429.988112,244.977484 429.988112,235.170552 C429.988112,221.307 425.085025,209.472445 415.284347,199.662765 C405.481608,189.856519 393.651427,184.951335 379.793803,184.951335 C367.245226,184.951335 356.393739,189.005894 347.24621,197.11501 C339.536847,178.544158 327.277414,163.504297 310.482334,151.995426 C293.683133,140.489303 274.955389,134.732119 254.300477,134.732119 C226.588664,134.732119 202.926241,144.543174 183.317329,164.160474 C163.707044,183.772965 153.904992,207.446884 153.904992,235.172613 C153.904992,237.134961 154.036171,239.9445 154.297156,243.606726 C139.13392,250.669394 126.910201,261.359932 117.629432,275.684526 C108.34935,290.000874 103.707249,305.795855 103.707249,323.059161 C103.707249,347.252526 112.303962,367.949255 129.49258,385.144539 C146.681885,402.344632 167.369764,410.943648 191.55347,410.943648 L404.899199,410.943648 C425.68117,410.943648 443.426099,403.581406 458.134671,388.873413 C472.841183,374.161297 480.195469,356.408777 480.195469,335.613106 C480.193409,317.958842 474.700359,302.2896 463.717692,288.625306 Z" id="Shape" fill="#FFFFFF" fill-rule="nonzero"></path>
                                            </g>
                                        </g>
                                    </g>
                                </g>
                            </g>
                        </g>
                    </g>
                </g>
                <path d="M432.065424,838.633738 L425.394078,834.788928 L431.026283,831.443453 C431.931748,831.008361 432.211982,829.795665 431.697044,828.904096 C431.172841,827.991053 430.041406,827.798501 429.182528,828.297748 L421.673128,832.684663 L409.738576,825.758302 L421.67304,818.903313 L429.18244,823.2831 C429.416968,823.454268 429.718731,823.554152 430.054288,823.554152 C430.690726,823.554152 431.260811,823.254586 431.696955,822.68388 C432.199806,821.777966 431.93166,820.579615 431.026194,820.144523 L425.39399,816.799048 L432.065336,812.954326 C432.93489,812.454991 433.233917,811.335051 432.736097,810.414881 C432.260599,809.530352 431.084076,809.223658 430.187964,809.744378 L423.483001,813.624829 L423.382854,806.93388 C423.367148,805.899568 422.578241,805.064937 421.5391,805.064937 C420.500135,805.064937 419.68758,805.963723 419.695433,806.93388 L419.761962,815.764736 L407.894733,822.619725 L407.894733,808.709978 L415.370604,804.458589 C416.243335,803.966383 416.623627,802.817929 416.107982,801.919232 C415.584397,801.00619 414.509609,800.735049 413.593467,801.248729 L407.894733,804.458677 L407.894733,796.868854 C407.894733,795.834543 407.056503,795 406.017361,795 C404.97822,795 404.173607,795.834543 404.173607,796.868854 L404.173607,804.529873 L398.273257,801.248641 C397.354203,800.742178 396.307915,801.027487 395.792271,801.919144 C395.268774,802.832186 395.594184,803.952126 396.496032,804.458501 L404.173607,808.774133 L404.173607,822.548354 L392.037615,815.564967 L392.10485,806.933792 C392.205702,805.963723 391.333854,805.064849 390.294713,805.064849 L390.227478,805.064849 C389.255483,805.064849 388.394488,805.89948 388.383723,806.933792 L388.316488,813.424972 L381.779701,809.680047 C380.867088,809.152198 379.740683,809.466021 379.265097,810.343421 C378.767276,811.27072 379.024745,812.362147 379.935946,812.889995 L386.539969,816.699075 L380.773471,820.144435 C379.868623,820.579615 379.586095,821.792223 380.136857,822.68388 C380.491561,823.261715 381.007999,823.554152 381.712378,823.554152 C382.08067,823.554152 382.387462,823.461396 382.684284,823.2831 L390.22739,818.83907 L402.329852,825.758302 L390.22739,832.748817 L382.684284,828.297748 C381.778818,827.769899 380.611648,828.019567 380.136769,828.904096 C379.638948,829.824266 379.909299,830.929949 380.773295,831.443453 L386.53988,834.853083 L379.93577,838.697893 C379.026775,839.225741 378.73207,840.338552 379.26492,841.244466 C379.637624,841.872199 380.136857,842.178982 380.840618,842.178982 C381.007999,842.178982 381.34338,842.079097 381.779701,841.907929 L388.316488,838.163004 L388.383723,844.654184 C388.394488,845.688496 389.255483,846.487397 390.227478,846.487397 L390.294713,846.487397 C391.333854,846.487397 392.112703,845.624253 392.10485,844.582813 L392.037615,835.958766 L404.173607,829.039622 L404.173607,842.742472 L396.496032,847.058015 C395.579889,847.571607 395.259421,848.691547 395.792271,849.597461 C396.164886,850.232322 396.664119,850.539016 397.367791,850.539016 C397.70326,850.539016 398.01217,850.481989 398.273257,850.332119 L404.173607,846.993684 L404.173607,854.783188 C404.173607,855.8175 404.97822,856.623529 406.017361,856.623529 C407.056503,856.623529 407.894733,855.8175 407.894733,854.783188 L407.894733,847.122082 L413.593467,850.332119 C413.854377,850.481901 414.163375,850.539016 414.465315,850.539016 C415.202517,850.539016 415.746131,850.23945 416.107982,849.597461 C416.617185,848.698675 416.288246,847.571519 415.370604,847.058015 L407.894733,842.877998 L407.894733,828.968251 L419.761962,835.82324 L419.695433,844.582813 C419.686786,845.624253 420.500046,846.487397 421.539188,846.487397 C422.578329,846.487397 423.367148,845.688496 423.382854,844.654184 L423.483001,837.927593 L430.187964,841.843686 C430.446845,841.993469 430.79149,842.043455 431.160576,842.043455 C431.864425,842.043455 432.380687,841.751018 432.736008,841.173183 C433.286241,840.281526 432.934978,839.133073 432.065424,838.633738 Z" id="Shape" fill="#FFFFFF" fill-rule="nonzero" opacity="0.900000036"></path>
            </g>
        </g>
    </g>
</svg>