<?xml version="1.0" encoding="UTF-8"?>
<svg width="874px" height="2197px" viewBox="0 0 874 2197" version="1.1" xmlns="http://www.w3.org/2000/svg" xmlns:xlink="http://www.w3.org/1999/xlink">
    <!-- Generator: Sketch 49 (51002) - http://www.bohemiancoding.com/sketch -->
    <title>light rain</title>
    <desc>Created with Sketch.</desc>
    <defs>
        <linearGradient x1="97.5430286%" y1="99.5472113%" x2="13.7061619%" y2="4.63601112%" id="linearGradient-1">
            <stop stop-color="#809BCE" offset="0%"></stop>
            <stop stop-color="#71B1E8" offset="100%"></stop>
        </linearGradient>
        <rect id="path-2" x="0" y="0" width="874" height="2197"></rect>
    </defs>
    <g id="Page-1" stroke="none" stroke-width="1" fill="none" fill-rule="evenodd">
        <g id="light-rain">
            <g id="Group-5-Copy-3">
                <g id="with-content-copy-7">
                    <g id="Shape">
                        <g id="fluffy-cloud-silhouette">
                            <mask id="mask-3" fill="white">
                                <use xlink:href="#path-2"></use>
                            </mask>
                            <use id="Mask" fill="url(#linearGradient-1)" xlink:href="#path-2"></use>
                            <g mask="url(#mask-3)" id="Group">
                                <g transform="translate(-251.000000, 148.000000)">
                                    <g>
                                        <path d="M923.306006,394.515629 C895.14972,359.475717 859.428139,336.933074 816.185297,326.878893 C829.941981,305.754192 836.800947,282.621474 836.800947,257.480737 C836.800947,221.940582 824.226176,191.601898 799.090724,166.454115 C773.949987,141.31514 743.609541,128.740369 708.069386,128.740369 C675.886495,128.740369 648.056072,139.134503 624.595729,159.922773 C604.823799,112.315135 573.382466,73.7594295 530.30872,44.2556577 C487.224407,14.7589316 439.194028,0 386.221106,0 C315.149602,0 254.463426,25.1513049 204.173146,75.4415848 C153.879344,125.719535 128.740369,186.409234 128.740369,257.486022 C128.740369,262.516635 129.0768,269.719078 129.746139,279.107443 C90.8575257,297.213071 59.5077866,324.618992 35.7057288,361.34106 C11.9054324,398.04199 0,438.533495 0,482.789153 C0,544.810485 22.0476843,597.867954 66.1307229,641.949231 C110.215523,686.042839 163.272992,708.087 225.296086,708.087 L772.456304,708.087 C825.755088,708.087 871.264876,689.213393 908.98743,651.508454 C946.704699,613.792945 965.565976,568.283157 965.565976,514.972043 C965.560692,469.714138 951.472861,429.544973 923.306006,394.515629 Z" id="Shape" fill="#FFFFFF" fill-rule="nonzero" opacity="0.300000012"></path>
                                        <path d="M804.370974,405.813352 C782.616673,378.740576 755.017221,361.323526 721.606642,353.555396 C732.235425,337.233886 737.534847,319.360928 737.534847,299.936521 C737.534847,272.477244 727.819241,249.036763 708.398917,229.606912 C688.97451,210.183866 665.532668,200.46826 638.073391,200.46826 C613.208027,200.46826 591.705495,208.499048 573.579406,224.560622 C558.303082,187.777684 534.010665,157.988513 500.730735,135.193108 C467.442639,112.403146 430.33308,101 389.404781,101 C334.493032,101 287.605265,120.432572 248.749647,159.288191 C209.891306,198.134283 190.46826,245.024772 190.46826,299.940604 C190.46826,303.82739 190.728196,309.392191 191.245346,316.645893 C161.19896,330.634787 136.977311,351.809336 118.587203,380.18179 C100.198456,408.537913 91,439.822736 91,474.015843 C91,521.935187 108.034632,562.92881 142.094369,596.987187 C176.155468,631.05509 217.149091,648.087 265.069796,648.087 L687.82045,648.087 C729.000519,648.087 764.162602,633.504745 793.308058,604.372898 C822.449432,575.232885 837.02216,540.070803 837.02216,498.881207 C837.018077,463.913736 826.133441,432.877962 804.370974,405.813352 Z" id="Shape" fill="#FFFFFF" fill-rule="nonzero" opacity="0.5"></path>
                                        <path d="M675.183,420.065 C659.198,400.172 638.918,387.374 614.368,381.666 C622.178,369.673 626.072,356.54 626.072,342.267 C626.072,322.09 618.933,304.866 604.663,290.589 C590.39,276.317 573.165,269.178 552.988,269.178 C534.717,269.178 518.917,275.079 505.598,286.881 C494.373,259.853 476.523,237.964 452.069,221.214 C427.609,204.468 400.341,196.089 370.267,196.089 C329.918,196.089 295.465,210.368 266.914,238.919 C238.361,267.463 224.089,301.918 224.089,342.27 C224.089,345.126 224.28,349.215 224.66,354.545 C202.582,364.824 184.784,380.383 171.271,401.231 C157.759,422.067 151,445.055 151,470.18 C151,505.391 163.517,535.513 188.544,560.539 C213.572,585.572 243.694,598.087 278.906,598.087 L589.542,598.087 C619.801,598.087 645.638,587.372 667.054,565.966 C688.467,544.554 699.175,518.717 699.175,488.451 C699.172,462.757 691.174,439.952 675.183,420.065 Z" id="Shape" fill="#FFFFFF" fill-rule="nonzero"></path>
                                        <g id="Group-9" opacity="0.5" transform="translate(900.000000, 801.000000)" fill="#FFFFFF" fill-rule="nonzero">
                                            <path d="M167.850389,71.9929807 C162.731779,65.6229768 156.237853,61.5248864 148.376615,59.6971087 C150.877481,55.8567901 152.124392,51.6514283 152.124392,47.0810233 C152.124392,40.6200787 149.838389,35.1047242 145.268945,30.5330383 C140.69854,25.9629535 135.182865,23.6769505 128.72192,23.6769505 C122.871302,23.6769505 117.811932,25.5665294 113.54701,29.3456872 C109.952615,20.6909611 104.236807,13.6818113 96.4063101,8.31823781 C88.5738918,2.95594521 79.8423145,0.272877636 70.2122185,0.272877636 C57.2919304,0.272877636 46.2596202,4.84520392 37.1172091,13.987615 C27.9741576,23.1277846 23.4040728,34.1607352 23.4040728,47.0819839 C23.4040728,47.9965132 23.4652336,49.3058656 23.5869146,51.0126027 C16.5172445,54.3040756 10.8180875,59.286275 6.49104462,65.9620827 C2.16432197,72.6340478 0,79.9951121 0,88.0404723 C0,99.3155042 4.00811038,108.96097 12.0220896,116.974629 C20.0363891,124.99053 29.6818554,128.998 40.9572075,128.998 L140.426999,128.998 C150.116334,128.998 158.389686,125.566914 165.247375,118.712427 C172.104103,111.856019 175.532948,103.582667 175.532948,93.8910902 C175.531987,85.6635287 172.970921,78.3610634 167.850389,71.9929807 Z" id="Shape-Copy"></path>
                                            <path d="M142.900472,76.2373014 C139.413014,71.8972322 134.988513,69.1050839 129.632423,67.8597657 C131.336336,65.2432448 132.185892,62.3780093 132.185892,59.2640592 C132.185892,54.8620295 130.628372,51.1042578 127.515076,47.9894351 C124.401126,44.8757032 120.643136,43.3181828 116.241107,43.3181828 C112.25491,43.3181828 108.807813,44.6056079 105.901998,47.1804582 C103.453032,41.2837412 99.5586859,36.5082033 94.2235402,32.8538445 C88.8870855,29.2003584 82.9380075,27.3723063 76.3767426,27.3723063 C67.573774,27.3723063 60.0571398,30.4875654 53.8281488,36.7165563 C47.5987215,42.9440201 44.4849896,50.4610907 44.4849896,59.2647138 C44.4849896,59.8878092 44.5266602,60.7799091 44.6095651,61.9427588 C39.7927929,64.1853352 35.9097912,67.5798527 32.9616509,72.1282749 C30.0137287,76.6740791 28.5391132,81.6893866 28.5391132,87.1709248 C28.5391132,94.8529325 31.2699555,101.42467 36.730113,106.884609 C42.1904886,112.346075 48.7622257,115.076481 56.4444515,115.076481 L124.216117,115.076481 C130.817744,115.076481 136.45462,112.738783 141.126963,108.068621 C145.798651,103.397151 148.134823,97.7602749 148.134823,91.1571212 C148.134169,85.5514439 146.389239,80.5760617 142.900472,76.2373014 Z" id="Shape-Copy"></path>
                                        </g>
                                    </g>
                                </g>
                            </g>
                        </g>
                    </g>
                </g>
                <g id="Group-10" opacity="0.400000006" transform="translate(701.000000, 1090.000000)" stroke="#FFFFFF" stroke-linecap="round" stroke-width="4">
                    <path d="M50,8 L111,104" id="Path-3-Copy" opacity="0.200000003"></path>
                    <path d="M82,0 L124.380751,62.0993882" id="Path-3-Copy"></path>
                    <path d="M0,3 L35,58" id="Path-3-Copy" opacity="0.200000003"></path>
                    <path d="M31,19 L77,92" id="Path-3-Copy" opacity="0.800000012"></path>
                </g>
                <path d="M281,997 L421,1264" id="Path-3-Copy-3" stroke="#FFFFFF" stroke-width="10" opacity="0.300000012" stroke-linecap="round"></path>
                <g id="Group-22" opacity="0.288269928" transform="translate(56.000000, 877.000000)" stroke="#FFFFFF" stroke-linecap="round">
                    <path d="M402,29 L583,360" id="Path-3-Copy" stroke-width="10" opacity="0.699999988"></path>
                    <path d="M306,142 L470.5,436.5" id="Path-3-Copy-2" stroke-width="15" opacity="0.699999988"></path>
                    <path d="M113,7 L234.540632,253.375167" id="Path-3-Copy-3" stroke-width="10" opacity="0.1"></path>
                    <path d="M75,88 L223.813887,394.769096" id="Path-3-Copy-3" stroke-width="15" opacity="0.699999988"></path>
                    <path d="M0.593056385,175 L74,320" id="Path-3-Copy-4" stroke-width="10" opacity="0.100000001"></path>
                    <path d="M305,0 L476,304" id="Path-3-Copy-3" stroke-width="10" opacity="0.300000012"></path>
                </g>
            </g>
        </g>
    </g>
</svg>