<?xml version="1.0" encoding="UTF-8"?>
<svg width="874px" height="2197px" viewBox="0 0 874 2197" version="1.1" xmlns="http://www.w3.org/2000/svg" xmlns:xlink="http://www.w3.org/1999/xlink">
    <!-- Generator: Sketch 49 (51002) - http://www.bohemiancoding.com/sketch -->
    <title>sleet</title>
    <desc>Created with Sketch.</desc>
    <defs>
        <linearGradient x1="0%" y1="0%" x2="93.7646471%" y2="93.7646471%" id="linearGradient-1">
            <stop stop-color="#B1E5EB" offset="0%"></stop>
            <stop stop-color="#309FDC" offset="100%"></stop>
        </linearGradient>
        <rect id="path-2" x="0" y="0" width="874" height="2197"></rect>
    </defs>
    <g id="Page-1" stroke="none" stroke-width="1" fill="none" fill-rule="evenodd">
        <g id="sleet">
            <g id="Group-24-Copy">
                <g id="night-rainy-copy-3">
                    <g id="Group-5-Copy-3">
                        <g id="with-content-copy-7">
                            <g id="Shape">
                                <g id="fluffy-cloud-silhouette">
                                    <mask id="mask-3" fill="white">
                                        <use xlink:href="#path-2"></use>
                                    </mask>
                                    <use id="Mask" fill="url(#linearGradient-1)" xlink:href="#path-2"></use>
                                    <g id="Group-21" mask="url(#mask-3)" stroke="#FFFFFF" stroke-linecap="round" stroke-width="10">
                                        <g transform="translate(62.000000, 710.000000)">
                                            <path d="M112,67 L169,177" id="Path-3-Copy-12" opacity="0.300000012"></path>
                                            <path d="M0,26 L54,137" id="Path-3-Copy-13" opacity="0.100000001"></path>
                                            <path d="M245,200 L295,299" id="Path-3-Copy-15" opacity="0.100000001"></path>
                                            <path d="M201,0 L327.270276,223.140398" id="Path-3-Copy-16" opacity="0.100000001"></path>
                                            <path d="M404,184 L461,295" id="Path-3-Copy-19" opacity="0.400000006"></path>
                                            <path d="M400,0 L457,99" id="Path-3-Copy-21" opacity="0.100000001"></path>
                                        </g>
                                    </g>
                                    <g mask="url(#mask-3)" id="Group">
                                        <g transform="translate(-57.000000, 182.000000)">
                                            <g>
                                                <path d="M634.129311,271.070416 C614.79149,246.994605 590.257802,231.505628 560.558489,224.597433 C570.006621,210.082719 574.717379,194.188303 574.717379,176.914184 C574.717379,152.494658 566.080989,131.649046 548.817885,114.370086 C531.551153,97.0971772 510.713244,88.4570921 486.30416,88.4570921 C464.200855,88.4570921 445.086837,95.5988685 428.974204,109.882421 C415.394784,77.1713667 393.800783,50.679866 364.217606,30.4079196 C334.627171,10.1408143 301.639764,0 265.257804,0 C216.445684,0 174.766238,17.2813805 140.226724,51.8356696 C105.684791,86.3814868 88.4192681,128.081183 88.4192681,176.917815 C88.4192681,180.374333 88.65033,185.323109 89.1100342,191.773823 C62.4012189,204.214142 40.8701248,223.044662 24.5228007,248.276277 C8.17668641,273.493368 0,301.31495 0,331.72287 C0,374.337527 15.1424151,410.793143 45.4187771,441.081246 C75.6963489,471.377821 112.136377,486.524294 154.734022,486.524294 L530.525287,486.524294 C567.13105,486.524294 598.387308,473.556299 624.29527,447.649357 C650.199603,421.735153 663.153584,390.465524 663.153584,353.83563 C663.149955,322.739069 653.474391,295.138965 634.129311,271.070416 Z" id="Shape" fill="#FFFFFF" fill-rule="nonzero" opacity="0.300000012"></path>
                                                <path d="M552.444377,278.833045 C537.503458,260.231428 518.548073,248.264229 495.601588,242.926772 C502.901468,231.712315 506.541126,219.431863 506.541126,206.085416 C506.541126,187.218235 499.868419,171.112356 486.530483,157.762169 C473.189742,144.416656 457.089815,137.741095 438.230702,137.741095 C421.153097,137.741095 406.385094,143.259023 393.936042,154.294879 C383.444217,129.021441 366.760113,108.553397 343.903358,92.8907481 C321.040995,77.2318392 295.554039,69.3967742 267.444362,69.3967742 C229.730809,69.3967742 197.528152,82.7488321 170.841997,109.446402 C144.153973,136.137427 130.814168,168.35573 130.814168,206.088221 C130.814168,208.75882 130.992692,212.582376 131.347872,217.566372 C110.711925,227.178095 94.0764248,241.72706 81.4460439,261.221682 C68.8165978,280.705082 62.4990706,302.200783 62.4990706,325.694757 C62.4990706,358.619983 74.1985065,386.78657 97.5908355,410.18797 C120.984099,433.595917 149.138642,445.298487 182.050724,445.298487 L472.39713,445.298487 C500.679725,445.298487 524.829147,435.279067 544.846334,415.262669 C564.860716,395.24066 574.869309,371.080907 574.869309,342.779668 C574.866505,318.753632 567.390904,297.429052 552.444377,278.833045 Z" id="Shape" fill="#FFFFFF" fill-rule="nonzero" opacity="0.5"></path>
                                                <path d="M463.717692,288.625306 C452.739147,274.95689 438.810783,266.163426 421.94977,262.241477 C427.313701,254.001126 429.988112,244.977484 429.988112,235.170552 C429.988112,221.307 425.085025,209.472445 415.284347,199.662765 C405.481608,189.856519 393.651427,184.951335 379.793803,184.951335 C367.245226,184.951335 356.393739,189.005894 347.24621,197.11501 C339.536847,178.544158 327.277414,163.504297 310.482334,151.995426 C293.683133,140.489303 274.955389,134.732119 254.300477,134.732119 C226.588664,134.732119 202.926241,144.543174 183.317329,164.160474 C163.707044,183.772965 153.904992,207.446884 153.904992,235.172613 C153.904992,237.134961 154.036171,239.9445 154.297156,243.606726 C139.13392,250.669394 126.910201,261.359932 117.629432,275.684526 C108.34935,290.000874 103.707249,305.795855 103.707249,323.059161 C103.707249,347.252526 112.303962,367.949255 129.49258,385.144539 C146.681885,402.344632 167.369764,410.943648 191.55347,410.943648 L404.899199,410.943648 C425.68117,410.943648 443.426099,403.581406 458.134671,388.873413 C472.841183,374.161297 480.195469,356.408777 480.195469,335.613106 C480.193409,317.958842 474.700359,302.2896 463.717692,288.625306 Z" id="Shape" fill="#FFFFFF" fill-rule="nonzero"></path>
                                            </g>
                                        </g>
                                    </g>
                                </g>
                            </g>
                        </g>
                    </g>
                </g>
                <path d="M422.065424,768.633738 L415.394078,764.788928 L421.026283,761.443453 C421.931748,761.008361 422.211982,759.795665 421.697044,758.904096 C421.172841,757.991053 420.041406,757.798501 419.182528,758.297748 L411.673128,762.684663 L399.738576,755.758302 L411.67304,748.903313 L419.18244,753.2831 C419.416968,753.454268 419.718731,753.554152 420.054288,753.554152 C420.690726,753.554152 421.260811,753.254586 421.696955,752.68388 C422.199806,751.777966 421.93166,750.579615 421.026194,750.144523 L415.39399,746.799048 L422.065336,742.954326 C422.93489,742.454991 423.233917,741.335051 422.736097,740.414881 C422.260599,739.530352 421.084076,739.223658 420.187964,739.744378 L413.483001,743.624829 L413.382854,736.93388 C413.367148,735.899568 412.578241,735.064937 411.5391,735.064937 C410.500135,735.064937 409.68758,735.963723 409.695433,736.93388 L409.761962,745.764736 L397.894733,752.619725 L397.894733,738.709978 L405.370604,734.458589 C406.243335,733.966383 406.623627,732.817929 406.107982,731.919232 C405.584397,731.00619 404.509609,730.735049 403.593467,731.248729 L397.894733,734.458677 L397.894733,726.868854 C397.894733,725.834543 397.056503,725 396.017361,725 C394.97822,725 394.173607,725.834543 394.173607,726.868854 L394.173607,734.529873 L388.273257,731.248641 C387.354203,730.742178 386.307915,731.027487 385.792271,731.919144 C385.268774,732.832186 385.594184,733.952126 386.496032,734.458501 L394.173607,738.774133 L394.173607,752.548354 L382.037615,745.564967 L382.10485,736.933792 C382.205702,735.963723 381.333854,735.064849 380.294713,735.064849 L380.227478,735.064849 C379.255483,735.064849 378.394488,735.89948 378.383723,736.933792 L378.316488,743.424972 L371.779701,739.680047 C370.867088,739.152198 369.740683,739.466021 369.265097,740.343421 C368.767276,741.27072 369.024745,742.362147 369.935946,742.889995 L376.539969,746.699075 L370.773471,750.144435 C369.868623,750.579615 369.586095,751.792223 370.136857,752.68388 C370.491561,753.261715 371.007999,753.554152 371.712378,753.554152 C372.08067,753.554152 372.387462,753.461396 372.684284,753.2831 L380.22739,748.83907 L392.329852,755.758302 L380.22739,762.748817 L372.684284,758.297748 C371.778818,757.769899 370.611648,758.019567 370.136769,758.904096 C369.638948,759.824266 369.909299,760.929949 370.773295,761.443453 L376.53988,764.853083 L369.93577,768.697893 C369.026775,769.225741 368.73207,770.338552 369.26492,771.244466 C369.637624,771.872199 370.136857,772.178982 370.840618,772.178982 C371.007999,772.178982 371.34338,772.079097 371.779701,771.907929 L378.316488,768.163004 L378.383723,774.654184 C378.394488,775.688496 379.255483,776.487397 380.227478,776.487397 L380.294713,776.487397 C381.333854,776.487397 382.112703,775.624253 382.10485,774.582813 L382.037615,765.958766 L394.173607,759.039622 L394.173607,772.742472 L386.496032,777.058015 C385.579889,777.571607 385.259421,778.691547 385.792271,779.597461 C386.164886,780.232322 386.664119,780.539016 387.367791,780.539016 C387.70326,780.539016 388.01217,780.481989 388.273257,780.332119 L394.173607,776.993684 L394.173607,784.783188 C394.173607,785.8175 394.97822,786.623529 396.017361,786.623529 C397.056503,786.623529 397.894733,785.8175 397.894733,784.783188 L397.894733,777.122082 L403.593467,780.332119 C403.854377,780.481901 404.163375,780.539016 404.465315,780.539016 C405.202517,780.539016 405.746131,780.23945 406.107982,779.597461 C406.617185,778.698675 406.288246,777.571519 405.370604,777.058015 L397.894733,772.877998 L397.894733,758.968251 L409.761962,765.82324 L409.695433,774.582813 C409.686786,775.624253 410.500046,776.487397 411.539188,776.487397 C412.578329,776.487397 413.367148,775.688496 413.382854,774.654184 L413.483001,767.927593 L420.187964,771.843686 C420.446845,771.993469 420.79149,772.043455 421.160576,772.043455 C421.864425,772.043455 422.380687,771.751018 422.736008,771.173183 C423.286241,770.281526 422.934978,769.133073 422.065424,768.633738 Z" id="Shape" fill="#FFFFFF" fill-rule="nonzero" opacity="0.699999988"></path>
                <path d="M200.065424,991.633738 L193.394078,987.788928 L199.026283,984.443453 C199.931748,984.008361 200.211982,982.795665 199.697044,981.904096 C199.172841,980.991053 198.041406,980.798501 197.182528,981.297748 L189.673128,985.684663 L177.738576,978.758302 L189.67304,971.903313 L197.18244,976.2831 C197.416968,976.454268 197.718731,976.554152 198.054288,976.554152 C198.690726,976.554152 199.260811,976.254586 199.696955,975.68388 C200.199806,974.777966 199.93166,973.579615 199.026194,973.144523 L193.39399,969.799048 L200.065336,965.954326 C200.93489,965.454991 201.233917,964.335051 200.736097,963.414881 C200.260599,962.530352 199.084076,962.223658 198.187964,962.744378 L191.483001,966.624829 L191.382854,959.93388 C191.367148,958.899568 190.578241,958.064937 189.5391,958.064937 C188.500135,958.064937 187.68758,958.963723 187.695433,959.93388 L187.761962,968.764736 L175.894733,975.619725 L175.894733,961.709978 L183.370604,957.458589 C184.243335,956.966383 184.623627,955.817929 184.107982,954.919232 C183.584397,954.00619 182.509609,953.735049 181.593467,954.248729 L175.894733,957.458677 L175.894733,949.868854 C175.894733,948.834543 175.056503,948 174.017361,948 C172.97822,948 172.173607,948.834543 172.173607,949.868854 L172.173607,957.529873 L166.273257,954.248641 C165.354203,953.742178 164.307915,954.027487 163.792271,954.919144 C163.268774,955.832186 163.594184,956.952126 164.496032,957.458501 L172.173607,961.774133 L172.173607,975.548354 L160.037615,968.564967 L160.10485,959.933792 C160.205702,958.963723 159.333854,958.064849 158.294713,958.064849 L158.227478,958.064849 C157.255483,958.064849 156.394488,958.89948 156.383723,959.933792 L156.316488,966.424972 L149.779701,962.680047 C148.867088,962.152198 147.740683,962.466021 147.265097,963.343421 C146.767276,964.27072 147.024745,965.362147 147.935946,965.889995 L154.539969,969.699075 L148.773471,973.144435 C147.868623,973.579615 147.586095,974.792223 148.136857,975.68388 C148.491561,976.261715 149.007999,976.554152 149.712378,976.554152 C150.08067,976.554152 150.387462,976.461396 150.684284,976.2831 L158.22739,971.83907 L170.329852,978.758302 L158.22739,985.748817 L150.684284,981.297748 C149.778818,980.769899 148.611648,981.019567 148.136769,981.904096 C147.638948,982.824266 147.909299,983.929949 148.773295,984.443453 L154.53988,987.853083 L147.93577,991.697893 C147.026775,992.225741 146.73207,993.338552 147.26492,994.244466 C147.637624,994.872199 148.136857,995.178982 148.840618,995.178982 C149.007999,995.178982 149.34338,995.079097 149.779701,994.907929 L156.316488,991.163004 L156.383723,997.654184 C156.394488,998.688496 157.255483,999.487397 158.227478,999.487397 L158.294713,999.487397 C159.333854,999.487397 160.112703,998.624253 160.10485,997.582813 L160.037615,988.958766 L172.173607,982.039622 L172.173607,995.742472 L164.496032,1000.05802 C163.579889,1000.57161 163.259421,1001.69155 163.792271,1002.59746 C164.164886,1003.23232 164.664119,1003.53902 165.367791,1003.53902 C165.70326,1003.53902 166.01217,1003.48199 166.273257,1003.33212 L172.173607,999.993684 L172.173607,1007.78319 C172.173607,1008.8175 172.97822,1009.62353 174.017361,1009.62353 C175.056503,1009.62353 175.894733,1008.8175 175.894733,1007.78319 L175.894733,1000.12208 L181.593467,1003.33212 C181.854377,1003.4819 182.163375,1003.53902 182.465315,1003.53902 C183.202517,1003.53902 183.746131,1003.23945 184.107982,1002.59746 C184.617185,1001.69867 184.288246,1000.57152 183.370604,1000.05802 L175.894733,995.877998 L175.894733,981.968251 L187.761962,988.82324 L187.695433,997.582813 C187.686786,998.624253 188.500046,999.487397 189.539188,999.487397 C190.578329,999.487397 191.367148,998.688496 191.382854,997.654184 L191.483001,990.927593 L198.187964,994.843686 C198.446845,994.993469 198.79149,995.043455 199.160576,995.043455 C199.864425,995.043455 200.380687,994.751018 200.736008,994.173183 C201.286241,993.281526 200.934978,992.133073 200.065424,991.633738 Z" id="Shape-Copy-14" fill="#FFFFFF" fill-rule="nonzero" opacity="0.600000024"></path>
                <path d="M342.47277,1082.27926 L337.384563,1079.34684 L341.680221,1076.79526 C342.370816,1076.46342 342.584549,1075.5385 342.191808,1074.85851 C341.792,1074.16213 340.92906,1074.01527 340.273998,1074.39605 L334.546611,1077.74193 L325.444179,1072.45922 L334.546543,1067.23095 L340.27393,1070.5714 C340.452804,1070.70195 340.682957,1070.77813 340.938885,1070.77813 C341.424293,1070.77813 341.859095,1070.54965 342.19174,1070.11438 C342.575262,1069.42344 342.370749,1068.50946 341.680154,1068.17762 L337.384496,1065.62604 L342.472703,1062.69369 C343.135908,1062.31285 343.363975,1061.45867 342.984289,1060.75686 C342.621629,1060.08224 341.7243,1059.84832 341.040839,1060.24547 L335.926993,1063.20508 L335.850611,1058.10192 C335.838633,1057.31305 335.236936,1056.67648 334.444388,1056.67648 C333.651974,1056.67648 333.032242,1057.36198 333.038231,1058.10192 L333.088973,1064.83717 L324.037889,1070.06545 L324.037889,1059.45654 L329.739703,1056.21403 C330.405331,1055.83862 330.695378,1054.9627 330.302098,1054.27727 C329.902762,1053.58089 329.083025,1053.3741 328.384288,1053.76588 L324.037889,1056.21409 L324.037889,1050.42537 C324.037889,1049.6365 323.398574,1049 322.606025,1049 C321.813476,1049 321.199801,1049.6365 321.199801,1050.42537 L321.199801,1056.26839 L316.69963,1053.76581 C315.998672,1053.37953 315.200672,1053.59714 314.807392,1054.2772 C314.408123,1054.97357 314.656312,1055.82775 315.344148,1056.21396 L321.199801,1059.50547 L321.199801,1070.01101 L311.943733,1064.68481 L311.995012,1058.10185 C312.071932,1057.36198 311.406977,1056.67642 310.614429,1056.67642 C309.821813,1056.67642 309.165135,1057.31299 309.156925,1058.10185 L309.105645,1063.05265 L304.120066,1060.19641 C303.42402,1059.79382 302.564915,1060.03317 302.202188,1060.70236 C301.822503,1061.40961 302.018873,1062.24203 302.713842,1062.64462 L307.750702,1065.54979 L303.352619,1068.17755 C302.662495,1068.50946 302.447012,1069.43431 302.867076,1070.11438 C303.137607,1070.55509 303.531492,1070.77813 304.068719,1070.77813 C304.349613,1070.77813 304.583603,1070.70738 304.809988,1070.5714 L310.563082,1067.18196 L319.793578,1072.45922 L310.563082,1077.79086 L304.809988,1074.39605 C304.119393,1073.99346 303.229197,1074.18388 302.867009,1074.85851 C302.487323,1075.56032 302.693519,1076.40362 303.352484,1076.79526 L307.750634,1079.39577 L302.713708,1082.32819 C302.020421,1082.73078 301.795651,1083.57952 302.202054,1084.27045 C302.486313,1084.74922 302.867076,1084.98321 303.403831,1084.98321 C303.531492,1084.98321 303.787286,1084.90702 304.120066,1084.77648 L309.105645,1081.92024 L309.156925,1086.87103 C309.165135,1087.6599 309.821813,1088.26922 310.563149,1088.26922 C311.406977,1088.26922 312.001002,1087.6109 311.995012,1086.8166 L311.943733,1080.23907 L321.199801,1074.96187 L321.199801,1085.41298 L315.344148,1088.70442 C314.64541,1089.09614 314.40099,1089.95031 314.807392,1090.64125 C315.091585,1091.12545 315.472347,1091.35937 316.009035,1091.35937 C316.264896,1091.35937 316.5005,1091.31587 316.69963,1091.20157 L321.199801,1088.65536 L321.199801,1094.59638 C321.199801,1095.38524 321.813476,1096 322.606025,1096 C323.398574,1096 324.037889,1095.38524 324.037889,1094.59638 L324.037889,1088.75329 L328.384288,1091.20157 C328.583283,1091.31581 328.818955,1091.35937 329.049243,1091.35937 C329.611503,1091.35937 330.026116,1091.13089 330.302098,1090.64125 C330.690465,1089.95575 330.439584,1089.09607 329.739703,1088.70442 L324.037889,1085.51634 L324.037889,1074.90744 L333.088973,1080.13571 L333.038231,1086.8166 C333.031636,1087.6109 333.651906,1088.26922 334.444455,1088.26922 C335.237004,1088.26922 335.838633,1087.6599 335.850611,1086.87103 L335.926993,1081.74069 L341.040839,1084.72748 C341.238286,1084.84172 341.501146,1084.87984 341.782646,1084.87984 C342.319469,1084.87984 342.71322,1084.6568 342.984222,1084.21609 C343.403882,1083.53602 343.135975,1082.6601 342.47277,1082.27926 Z" id="Shape-Copy-15" fill="#FFFFFF" fill-rule="nonzero" opacity="0.800000012"></path>
                <path d="M620.065424,809.633738 L613.394078,805.788928 L619.026283,802.443453 C619.931748,802.008361 620.211982,800.795665 619.697044,799.904096 C619.172841,798.991053 618.041406,798.798501 617.182528,799.297748 L609.673128,803.684663 L597.738576,796.758302 L609.67304,789.903313 L617.18244,794.2831 C617.416968,794.454268 617.718731,794.554152 618.054288,794.554152 C618.690726,794.554152 619.260811,794.254586 619.696955,793.68388 C620.199806,792.777966 619.93166,791.579615 619.026194,791.144523 L613.39399,787.799048 L620.065336,783.954326 C620.93489,783.454991 621.233917,782.335051 620.736097,781.414881 C620.260599,780.530352 619.084076,780.223658 618.187964,780.744378 L611.483001,784.624829 L611.382854,777.93388 C611.367148,776.899568 610.578241,776.064937 609.5391,776.064937 C608.500135,776.064937 607.68758,776.963723 607.695433,777.93388 L607.761962,786.764736 L595.894733,793.619725 L595.894733,779.709978 L603.370604,775.458589 C604.243335,774.966383 604.623627,773.817929 604.107982,772.919232 C603.584397,772.00619 602.509609,771.735049 601.593467,772.248729 L595.894733,775.458677 L595.894733,767.868854 C595.894733,766.834543 595.056503,766 594.017361,766 C592.97822,766 592.173607,766.834543 592.173607,767.868854 L592.173607,775.529873 L586.273257,772.248641 C585.354203,771.742178 584.307915,772.027487 583.792271,772.919144 C583.268774,773.832186 583.594184,774.952126 584.496032,775.458501 L592.173607,779.774133 L592.173607,793.548354 L580.037615,786.564967 L580.10485,777.933792 C580.205702,776.963723 579.333854,776.064849 578.294713,776.064849 L578.227478,776.064849 C577.255483,776.064849 576.394488,776.89948 576.383723,777.933792 L576.316488,784.424972 L569.779701,780.680047 C568.867088,780.152198 567.740683,780.466021 567.265097,781.343421 C566.767276,782.27072 567.024745,783.362147 567.935946,783.889995 L574.539969,787.699075 L568.773471,791.144435 C567.868623,791.579615 567.586095,792.792223 568.136857,793.68388 C568.491561,794.261715 569.007999,794.554152 569.712378,794.554152 C570.08067,794.554152 570.387462,794.461396 570.684284,794.2831 L578.22739,789.83907 L590.329852,796.758302 L578.22739,803.748817 L570.684284,799.297748 C569.778818,798.769899 568.611648,799.019567 568.136769,799.904096 C567.638948,800.824266 567.909299,801.929949 568.773295,802.443453 L574.53988,805.853083 L567.93577,809.697893 C567.026775,810.225741 566.73207,811.338552 567.26492,812.244466 C567.637624,812.872199 568.136857,813.178982 568.840618,813.178982 C569.007999,813.178982 569.34338,813.079097 569.779701,812.907929 L576.316488,809.163004 L576.383723,815.654184 C576.394488,816.688496 577.255483,817.487397 578.227478,817.487397 L578.294713,817.487397 C579.333854,817.487397 580.112703,816.624253 580.10485,815.582813 L580.037615,806.958766 L592.173607,800.039622 L592.173607,813.742472 L584.496032,818.058015 C583.579889,818.571607 583.259421,819.691547 583.792271,820.597461 C584.164886,821.232322 584.664119,821.539016 585.367791,821.539016 C585.70326,821.539016 586.01217,821.481989 586.273257,821.332119 L592.173607,817.993684 L592.173607,825.783188 C592.173607,826.8175 592.97822,827.623529 594.017361,827.623529 C595.056503,827.623529 595.894733,826.8175 595.894733,825.783188 L595.894733,818.122082 L601.593467,821.332119 C601.854377,821.481901 602.163375,821.539016 602.465315,821.539016 C603.202517,821.539016 603.746131,821.23945 604.107982,820.597461 C604.617185,819.698675 604.288246,818.571519 603.370604,818.058015 L595.894733,813.877998 L595.894733,799.968251 L607.761962,806.82324 L607.695433,815.582813 C607.686786,816.624253 608.500046,817.487397 609.539188,817.487397 C610.578329,817.487397 611.367148,816.688496 611.382854,815.654184 L611.483001,808.927593 L618.187964,812.843686 C618.446845,812.993469 618.79149,813.043455 619.160576,813.043455 C619.864425,813.043455 620.380687,812.751018 620.736008,812.173183 C621.286241,811.281526 620.934978,810.133073 620.065424,809.633738 Z" id="Shape-Copy-12" fill="#FFFFFF" fill-rule="nonzero" opacity="0.400000006"></path>
            </g>
            <g id="Group-14-Copy-3" transform="translate(70.000000, 739.000000)" fill="#FFFFFF">
                <circle id="Oval-6" opacity="0.699999988" cx="9.5" cy="439.5" r="9.5"></circle>
                <circle id="Oval-6-Copy-3" opacity="0.300000012" cx="158.5" cy="511.5" r="4.5"></circle>
                <circle id="Oval-6" cx="404" cy="304" r="4"></circle>
                <circle id="Oval-6" opacity="0.600000024" cx="547" cy="437" r="7"></circle>
                <circle id="Oval-6-Copy" opacity="0.400000006" cx="579" cy="600" r="7"></circle>
                <circle id="Oval-6-Copy-2" opacity="0.400000006" cx="654" cy="269" r="7"></circle>
                <circle id="Oval-6" opacity="0.900000036" cx="356.5" cy="446.5" r="6.5"></circle>
                <circle id="Oval-6" opacity="0.699999988" cx="636.5" cy="6.5" r="6.5"></circle>
                <circle id="Oval-6" opacity="0.300000012" cx="190.5" cy="147.5" r="5.5"></circle>
            </g>
        </g>
    </g>
</svg>