<?xml version="1.0" encoding="UTF-8"?>
<svg width="874px" height="2197px" viewBox="0 0 874 2197" version="1.1" xmlns="http://www.w3.org/2000/svg" xmlns:xlink="http://www.w3.org/1999/xlink">
    <!-- Generator: Sketch 49 (51002) - http://www.bohemiancoding.com/sketch -->
    <title>snow</title>
    <desc>Created with Sketch.</desc>
    <defs>
        <linearGradient x1="0%" y1="0%" x2="97.2955198%" y2="97.2955198%" id="linearGradient-1">
            <stop stop-color="#40CEDE" offset="0%"></stop>
            <stop stop-color="#75CDFD" offset="100%"></stop>
        </linearGradient>
        <rect id="path-2" x="0" y="0" width="874" height="2197"></rect>
        <path d="M504.978889,48.1487215 L497.689826,43.9060715 L503.843531,40.2144252 C504.832836,39.7343121 505.139017,38.3961327 504.576399,37.4123087 C504.003659,36.4047898 502.767462,36.1923126 501.829058,36.7432191 L493.624344,41.5840682 L480.584741,33.9410055 L493.624247,26.3766993 L501.828962,31.2096825 C502.085206,31.3985619 502.41491,31.5087821 502.781537,31.5087821 C503.476904,31.5087821 504.099775,31.1782187 504.576303,30.5484587 C505.125713,29.5488058 504.83274,28.2264554 503.843435,27.7463423 L497.68973,24.0546959 L504.978793,19.8121431 C505.928861,19.2611395 506.255576,18.0253144 505.711661,17.0099295 C505.192136,16.0338743 503.906676,15.6954451 502.92759,16.2700465 L495.601797,20.5520261 L495.492378,13.1687334 C495.475218,12.0273965 494.613263,11.1064029 493.477905,11.1064029 C492.34274,11.1064029 491.454949,12.0981899 491.463529,13.1687334 L491.536218,22.9133591 L478.570172,30.4776654 L478.570172,15.1286125 L486.738253,10.4373132 C487.691791,9.89417553 488.107296,8.62688669 487.543907,7.63519676 C486.971841,6.62767785 485.797536,6.32848115 484.796566,6.89531372 L478.570172,10.4374103 L478.570172,2.06223339 C478.570172,0.920896556 477.654327,0 476.518969,0 C475.383611,0 474.504496,0.920896556 474.504496,2.06223339 L474.504496,10.5159725 L468.057818,6.89521661 C467.053667,6.33634708 465.9105,6.65117853 465.347111,7.63509965 C464.775141,8.64261855 465.130682,9.87844367 466.116034,10.4372161 L474.504496,15.1994059 L474.504496,30.3989089 L461.244801,22.6929188 L461.318262,13.1686362 C461.428452,12.0981899 460.475878,11.1063057 459.340519,11.1063057 L459.267059,11.1063057 C458.205065,11.1063057 457.264348,12.0272994 457.252586,13.1686362 L457.179126,20.3314887 L450.03708,16.1990589 C449.039967,15.6165916 447.809264,15.9628867 447.289643,16.931076 C446.745728,17.9543268 447.027037,19.1586882 448.022608,19.7411555 L455.238114,23.9443787 L448.937681,27.7462452 C447.949051,28.2264554 447.640363,29.5645376 448.242121,30.5484587 C448.629668,31.1860847 449.193925,31.5087821 449.963524,31.5087821 C450.365917,31.5087821 450.701116,31.4064278 451.025421,31.2096825 L459.266963,26.3058088 L472.490024,33.9410055 L459.266963,41.6548616 L451.025421,36.7432191 C450.036116,36.1607517 448.760875,36.4362535 448.242025,37.4123087 C447.69811,38.4276936 447.993494,39.6477868 448.937488,40.2144252 L455.238018,43.9768649 L448.022415,48.2195149 C447.029254,48.8019822 446.707262,50.0299414 447.28945,51.0295944 C447.696664,51.7222818 448.242121,52.0608082 449.011045,52.0608082 C449.193925,52.0608082 449.560359,51.950588 450.03708,51.7617086 L457.179126,47.6292787 L457.252586,54.7921312 C457.264348,55.9334681 458.205065,56.815035 459.267059,56.815035 L459.340519,56.815035 C460.475878,56.815035 461.326842,55.8625776 461.318262,54.7133748 L461.244801,45.1969582 L474.504496,37.5618585 L474.504496,52.6826051 L466.116034,57.4446979 C465.115064,58.0114333 464.764923,59.2472584 465.347111,60.2469114 C465.754228,60.9474648 466.299685,61.285894 467.068513,61.285894 C467.435044,61.285894 467.772556,61.2229666 468.057818,61.0575878 L474.504496,57.3737103 L474.504496,65.9692303 C474.504496,67.1105672 475.383611,68 476.518969,68 C477.654327,68 478.570172,67.1105672 478.570172,65.9692303 L478.570172,57.5153941 L484.796566,61.0575878 C485.081634,61.2228695 485.419244,61.285894 485.74914,61.285894 C486.554602,61.285894 487.148551,60.9553307 487.543907,60.2469114 C488.100258,59.2551244 487.740861,58.0113362 486.738253,57.4446979 L478.570172,52.8321549 L478.570172,37.4831021 L491.536218,45.0474084 L491.463529,54.7133748 C491.454081,55.8625776 492.342643,56.815035 493.478001,56.815035 C494.61336,56.815035 495.475218,55.9334681 495.492378,54.7921312 L495.601797,47.3695088 L502.92759,51.6908181 C503.210441,51.8560997 503.586998,51.9112584 503.990259,51.9112584 C504.759279,51.9112584 505.323343,51.588561 505.711565,50.950935 C506.312744,49.9670139 505.928957,48.6997251 504.978889,48.1487215 Z" id="path-4"></path>
    </defs>
    <g id="Page-1" stroke="none" stroke-width="1" fill="none" fill-rule="evenodd">
        <g id="snow">
            <g>
                <g id="Group-6-Copy-2">
                    <g id="with-content-copy-4">
                        <g id="Shape">
                            <g id="fluffy-cloud-silhouette">
                                <mask id="mask-3" fill="white">
                                    <use xlink:href="#path-2"></use>
                                </mask>
                                <use id="Mask" fill="url(#linearGradient-1)" xlink:href="#path-2"></use>
                                <g id="snowflake" mask="url(#mask-3)" fill="#FFFFFF" fill-rule="nonzero">
                                    <g transform="translate(-211.000000, 89.000000)" id="Shape">
                                        <path d="M558.544502,520.345648 L512.4628,493.704302 L551.36673,470.522934 C557.621149,467.508107 559.556838,459.105128 555.999949,452.927292 C552.379066,446.600665 544.563783,445.266433 538.631166,448.725802 L486.760682,479.123487 L404.323869,431.129549 L486.760072,383.630156 L538.630556,413.978447 C540.250538,415.164499 542.334938,415.856617 544.652767,415.856617 C549.048901,415.856617 552.986711,413.780874 555.99934,409.826351 C559.472731,403.549119 557.62054,395.245536 551.36612,392.230708 L512.462191,369.049341 L558.543893,342.408604 C564.550257,338.948626 566.615763,331.188371 563.177112,324.812352 C559.892658,318.683299 551.765935,316.558163 545.576119,320.166321 L499.262208,347.054635 L498.570455,300.691899 C498.461969,293.524975 493.012664,287.741677 485.834891,287.741677 C478.658337,287.741677 473.045693,293.969516 473.099937,300.691899 L473.55948,361.882417 L391.587696,409.38181 L391.587696,312.998788 L443.22658,283.540187 C449.254885,280.129602 451.881717,272.171774 448.319952,265.944544 C444.703335,259.617918 437.279335,257.739139 430.951169,261.298514 L391.587696,283.540797 L391.587696,230.949613 C391.587696,223.782689 385.797695,218 378.619923,218 C371.44215,218 365.884359,223.782689 365.884359,230.949613 L365.884359,284.034121 L325.128238,261.297904 C318.77996,257.788532 311.55282,259.765489 307.991055,265.943935 C304.375047,272.270561 306.622786,280.030815 312.852218,283.539577 L365.884359,313.443328 L365.884359,408.887266 L282.056118,360.498181 L282.520537,300.691289 C283.217165,293.969516 277.194955,287.741067 270.017182,287.741067 L269.552763,287.741067 C262.8388,287.741067 256.891555,293.524365 256.817199,300.691289 L256.35278,345.669789 L211.200526,319.720561 C204.896738,316.063009 197.116196,318.237539 193.831133,324.317198 C190.392482,330.742611 192.170926,338.305292 198.464962,341.962844 L244.081635,368.356613 L204.250087,392.230098 C197.999933,395.245536 196.048398,403.647905 199.852734,409.826351 C202.302818,413.830267 205.870068,415.856617 210.735497,415.856617 C213.279441,415.856617 215.398581,415.213892 217.448851,413.978447 L269.552154,383.185005 L353.148795,431.129549 L269.552154,479.568028 L217.448851,448.725802 C211.194431,445.06825 203.132312,446.798239 199.852124,452.927292 C196.413473,459.303311 198.280901,466.964779 204.248868,470.522934 L244.081026,494.148843 L198.463743,520.790189 C192.184944,524.447741 190.149302,532.158602 193.829914,538.435835 C196.404331,542.785505 199.852734,544.911251 204.713896,544.911251 C205.870068,544.911251 208.186678,544.219134 211.200526,543.033082 L256.35278,517.083853 L256.817199,562.062353 C256.891555,569.229277 262.8388,574.764999 269.552763,574.764999 L270.017182,574.764999 C277.194955,574.764999 282.57478,568.784127 282.520537,561.567809 L282.056118,501.810311 L365.884359,453.866376 L365.884359,548.81577 L312.852218,578.718912 C306.524051,582.277677 304.310443,590.037932 307.991055,596.315164 C310.564863,600.714227 314.013265,602.839364 318.873818,602.839364 C321.191038,602.839364 323.324805,602.444217 325.128238,601.405735 L365.884359,578.273151 L365.884359,632.247961 C365.884359,639.414885 371.44215,645 378.619923,645 C385.797695,645 391.587696,639.414885 391.587696,632.247961 L391.587696,579.162842 L430.951169,601.405735 C432.753383,602.443607 434.88776,602.839364 436.973379,602.839364 C442.065532,602.839364 445.8205,600.763621 448.319952,596.315164 C451.837225,590.087325 449.565107,582.277067 443.22658,578.718912 L391.587696,549.754855 L391.587696,453.371832 L473.55948,500.871226 L473.099937,561.567809 C473.040208,568.784127 478.657728,574.764999 485.835501,574.764999 C493.013273,574.764999 498.461969,569.229277 498.570455,562.062353 L499.262208,515.452651 L545.576119,542.587931 C547.364315,543.625803 549.74492,543.972166 552.294349,543.972166 C557.156121,543.972166 560.722152,541.945817 563.176503,537.941901 C566.977181,531.763455 564.550866,523.805627 558.544502,520.345648 Z"></path>
                                        <path d="M743.898628,613.18813 L650.376246,559.156735 L729.331406,512.142532 C742.024692,506.028151 745.953154,488.986043 738.734481,476.456755 C731.385932,463.625706 715.52489,460.919746 703.484698,467.935702 L598.214038,529.585339 L430.9093,432.248688 L598.212801,335.915023 L703.483461,397.464485 C706.771198,399.869921 711.001469,401.273607 715.705481,401.273607 C724.627394,401.273607 732.619142,397.063786 738.733244,389.043607 C745.782459,376.312732 742.023455,359.472211 729.330169,353.35783 L650.375009,306.343627 L743.897391,252.313469 C756.08725,245.296276 760.279176,229.55768 753.300466,216.626455 C746.634698,204.196106 730.141589,199.88611 717.579416,207.203827 L623.585767,261.736097 L622.181862,167.707692 C621.96169,153.172432 610.902376,141.443307 596.335154,141.443307 C581.770406,141.443307 570.379598,154.074007 570.489684,167.707692 L571.422322,291.808367 L405.061356,388.142032 L405.061356,192.66733 L509.861987,132.922253 C522.096375,126.005235 527.427506,109.865939 520.198938,97.2364763 C512.859047,84.4054267 497.792109,80.5950688 484.949155,87.8138482 L405.061356,132.92349 L405.061356,26.2631488 C405.061356,11.7278885 393.310604,0 378.743382,0 C364.17616,0 352.896674,11.7278885 352.896674,26.2631488 L352.896674,133.924003 L270.18251,87.8126115 C257.298738,80.6952437 242.631325,84.7047148 235.402757,97.2352396 C228.064103,110.066289 232.625869,125.804886 245.268442,132.921017 L352.896674,193.568905 L352.896674,387.139046 L182.768046,289.000995 L183.71058,167.706456 C185.124381,154.074007 172.902361,141.44207 158.335139,141.44207 L157.392605,141.44207 C143.76668,141.44207 131.696802,153.171195 131.545898,167.706456 L130.603364,258.927489 L38.9672867,206.299779 C26.1738097,198.881887 10.3832725,203.292058 3.71626673,215.622233 C-3.26244321,228.653632 0.346893124,243.991529 13.1205793,251.409421 L105.699191,304.938705 L24.8614363,353.356593 C12.1768084,359.472211 8.2161864,376.513082 15.9370491,389.043607 C20.9094727,397.163961 28.1491731,401.273607 38.0235157,401.273607 C43.1864252,401.273607 47.4872006,399.970096 51.6482038,397.464485 L157.391368,335.012212 L327.049967,432.248688 L157.391368,530.486914 L51.6482038,467.935702 C38.9549175,460.517809 22.5929226,464.026405 15.9358122,476.456755 C8.95710225,489.38798 12.7470291,504.926226 24.8589624,512.142532 L105.697954,560.058309 L13.1181055,614.089704 C0.375342313,621.507597 -3.75597481,637.146018 3.71379289,649.876893 C8.93854843,658.698471 15.9370491,663.009704 25.8027334,663.009704 C28.1491731,663.009704 32.8507109,661.606018 38.9672867,659.200583 L130.603364,606.572873 L131.545898,697.793906 C131.696802,712.329167 143.76668,723.55618 157.392605,723.55618 L158.335139,723.55618 C172.902361,723.55618 183.820666,711.426355 183.71058,696.79092 L182.768046,575.596555 L352.896674,478.361316 L352.896674,670.928471 L245.268442,731.575123 C232.425488,738.792665 227.93299,754.531262 235.402757,767.262136 C240.626276,776.18389 247.624777,780.493886 257.489224,780.493886 C262.191999,780.493886 266.52246,779.692486 270.18251,777.586339 L352.896674,730.671075 L352.896674,840.137551 C352.896674,854.672811 364.17616,866 378.743382,866 C393.310604,866 405.061356,854.672811 405.061356,840.137551 L405.061356,732.47546 L484.949155,777.586339 C488.606731,779.691249 492.938429,780.493886 497.171174,780.493886 C507.505651,780.493886 515.126324,776.284065 520.198938,767.262136 C527.337211,754.631437 522.725968,738.791429 509.861987,731.575123 L405.061356,672.833032 L405.061356,477.35833 L571.422322,573.691995 L570.489684,696.79092 C570.368465,711.426355 581.769169,723.55618 596.336391,723.55618 C610.903613,723.55618 621.96169,712.329167 622.181862,697.793906 L623.585767,603.264627 L717.579416,658.297771 C721.208543,660.402682 726.039958,661.105143 731.214,661.105143 C741.080921,661.105143 748.318147,656.995497 753.29923,648.875143 C761.012671,636.344619 756.088487,620.205322 743.898628,613.18813 Z" opacity="0.229999989"></path>
                                        <path d="M633.844616,558.382007 L568.490137,520.634901 L623.664879,487.790106 C632.535089,483.518512 635.280341,471.612651 630.235853,462.859511 C625.100605,453.895556 614.016733,452.005134 605.602913,456.906581 L532.038608,499.975901 L415.124201,431.975123 L532.037743,364.675045 L605.602049,407.674381 C607.899556,409.354852 610.855716,410.335487 614.142932,410.335487 C620.377664,410.335487 625.962386,407.394446 630.234988,401.791434 C635.161058,392.897463 632.534224,381.132434 623.664015,376.86084 L568.489273,344.016045 L633.843751,306.269802 C642.36216,301.367491 645.291525,290.372282 640.414725,281.338344 C635.756612,272.654323 624.231044,269.643298 615.452459,274.755561 L549.768654,312.852585 L548.787589,247.162995 C548.63373,237.008454 540.905359,228.814319 530.725623,228.814319 C520.547615,228.814319 512.587592,237.638307 512.664521,247.162995 L513.31626,333.861504 L397.06137,401.161581 L397.06137,264.600156 L470.297214,222.861389 C478.84674,218.029062 482.572194,206.753918 477.52079,197.930795 C472.391593,188.96684 461.862649,186.304869 452.887851,191.348012 L397.06137,222.862253 L397.06137,148.347812 C397.06137,138.193271 388.849814,130 378.670078,130 C368.490341,130 360.608112,138.193271 360.608112,148.347812 L360.608112,223.561226 L302.806536,191.347148 C293.803213,186.374853 283.553463,189.175927 278.502059,197.929931 C273.373726,206.893886 276.561539,217.889094 285.396309,222.860525 L360.608112,265.230008 L360.608112,400.460881 L241.720338,331.900233 L242.378992,247.162131 C243.366971,237.638307 234.826089,228.813455 224.646352,228.813455 C214.465751,228.813455 206.031187,237.00759 205.925733,247.162131 L205.26708,310.890451 L141.230772,274.12398 C132.290549,268.941734 121.255946,272.022742 116.596968,280.636779 C111.720168,289.740701 114.242413,300.455975 123.168806,305.638221 L187.863767,343.034546 L131.373448,376.859976 C122.509289,381.132434 119.741562,393.03743 125.136987,401.791434 C128.611772,407.46443 133.670954,410.335487 140.571255,410.335487 C144.179153,410.335487 147.184583,409.424836 150.092338,407.674381 L223.986835,364.044328 L342.546146,431.975123 L223.986835,500.605754 L150.092338,456.906581 C141.222129,451.724335 129.788185,454.175491 125.136122,462.859511 C120.259322,471.89345 122.907765,482.748692 131.371719,487.790106 L187.862903,521.264754 L123.167078,559.01186 C114.262293,564.194106 111.375283,575.119331 116.59524,584.013303 C120.246357,590.176184 125.136987,593.188073 132.031236,593.188073 C133.670954,593.188073 136.956441,592.207438 141.230772,590.526966 L205.26708,553.760495 L205.925733,617.488814 C206.031187,627.643355 214.465751,635.486708 223.987699,635.486708 C234.826089,635.486708 242.455921,627.012639 242.378992,616.788114 L241.720338,532.119995 L360.608112,464.190065 L360.608112,598.720237 L285.396309,641.088856 C276.42151,646.131135 273.282102,657.126343 278.502059,666.020315 C282.152312,672.253179 287.042942,675.264204 293.936327,675.264204 C297.222678,675.264204 300.248853,674.704335 302.806536,673.23295 L360.608112,640.457275 L360.608112,716.932123 C360.608112,727.086664 368.490341,735 378.670078,735 C388.849814,735 397.06137,727.086664 397.06137,716.932123 L397.06137,641.717845 L452.887851,673.23295 C455.443805,674.703471 458.470844,675.264204 461.428733,675.264204 C468.650581,675.264204 473.975991,672.323163 477.52079,666.020315 C482.509094,657.196327 479.286707,646.130271 470.297214,641.088856 L397.06137,600.05079 L397.06137,463.489364 L513.31626,530.789442 L512.664521,616.788114 C512.579813,627.012639 520.546751,635.486708 530.726487,635.486708 C540.906224,635.486708 548.63373,627.643355 548.787589,617.488814 L549.768654,551.449306 L615.452459,589.896249 C617.988533,591.36677 621.364779,591.857519 624.980457,591.857519 C631.875571,591.857519 636.933025,588.986462 640.413861,583.313466 C645.804099,574.559462 642.363025,563.284319 633.844616,558.382007 Z" opacity="0.600000024"></path>
                                    </g>
                                </g>
                            </g>
                        </g>
                        <g id="snowflake-copy" transform="translate(249.000000, 348.000000)" fill-rule="nonzero">
                            <path d="M393.528908,892.682735 L383.027716,886.63072 L391.893223,881.364695 C393.318492,880.679827 393.759601,878.770954 392.94905,877.367558 C392.123916,875.930362 390.342953,875.627269 388.991016,876.413121 L377.170665,883.31845 L358.384796,872.415846 L377.170526,861.625586 L388.990877,868.519694 C389.360042,868.789125 389.835039,868.946351 390.363231,868.946351 C391.365031,868.946351 392.262387,868.474812 392.948911,867.576478 C393.740435,866.150502 393.318354,864.264208 391.893084,863.579341 L383.027577,858.313316 L393.528769,852.261439 C394.897512,851.475449 395.368203,849.712581 394.584597,848.264164 C393.836129,846.87185 391.984194,846.389091 390.573646,847.208743 L380.019538,853.316861 L379.8619,842.784811 C379.837178,841.156727 378.595379,839.842957 376.959694,839.842957 C375.324286,839.842957 374.045265,841.257712 374.057626,842.784811 L374.162348,856.685233 L355.482451,867.475493 L355.482451,845.580521 L367.250025,838.88852 C368.623767,838.11375 369.222375,836.306 368.410713,834.891384 C367.586551,833.454188 365.894755,833.027392 364.452679,833.835962 L355.482451,838.888659 L355.482451,826.941715 C355.482451,825.313632 354.163014,824 352.527328,824 C350.891643,824 349.625122,825.313632 349.625122,826.941715 L349.625122,839.000725 L340.337534,833.835824 C338.890875,833.038613 337.24394,833.487711 336.432278,834.891245 C335.608255,836.328441 336.120474,838.091309 337.54005,838.888382 L349.625122,845.681505 L349.625122,867.36315 L330.522172,856.370781 L330.628004,842.784672 C330.786753,841.257712 329.4144,839.842818 327.778714,839.842818 L327.672882,839.842818 C326.14289,839.842818 324.78762,841.156589 324.770675,842.784672 L324.664843,853.002271 L314.375455,847.107481 C312.938935,846.276609 311.165889,846.770588 310.417282,848.151682 C309.633675,849.611319 310.038951,851.329305 311.473249,852.160178 L321.868469,858.155952 L312.791575,863.579203 C311.367277,864.264208 310.922557,866.172943 311.789497,867.576478 C312.347827,868.486033 313.160739,868.946351 314.269483,868.946351 C314.849202,868.946351 315.332116,868.800346 315.799336,868.519694 L327.672743,861.524463 L346.722916,872.415846 L327.672743,883.419435 L315.799336,876.413121 C314.374066,875.582249 312.536854,875.975244 311.789358,877.367558 C311.005751,878.815975 311.431304,880.556402 312.791297,881.364695 L321.86833,886.731704 L311.472971,892.78372 C310.042145,893.614592 309.578259,895.36624 310.417004,896.792215 C311.003668,897.780314 311.789497,898.263212 312.897269,898.263212 C313.160739,898.263212 313.688653,898.105986 314.375455,897.836555 L324.664843,891.941765 L324.770675,902.159364 C324.78762,903.787447 326.14289,905.044976 327.672882,905.044976 L327.778714,905.044976 C329.4144,905.044976 330.640365,903.686324 330.628004,902.04702 L330.522172,888.472131 L349.625122,877.580886 L349.625122,899.150187 L337.54005,905.943172 C336.097974,906.751603 335.593533,908.514472 336.432278,909.940447 C337.018802,910.939766 337.804631,911.422525 338.912264,911.422525 C339.440317,911.422525 339.926564,911.332761 340.337534,911.096853 L349.625122,905.84191 L349.625122,918.103167 C349.625122,919.73125 350.891643,921 352.527328,921 C354.163014,921 355.482451,919.73125 355.482451,918.103167 L355.482451,906.044018 L364.452679,911.096853 C364.863371,911.332623 365.349758,911.422525 365.825033,911.422525 C366.985443,911.422525 367.841133,910.950986 368.410713,909.940447 C369.212236,908.525692 368.694461,906.751465 367.250025,905.943172 L355.482451,899.363515 L355.482451,877.468543 L374.162348,888.258803 L374.057626,902.04702 C374.044015,903.686324 375.324147,905.044976 376.959833,905.044976 C378.595518,905.044976 379.837178,903.787447 379.8619,902.159364 L380.019538,891.571211 L390.573646,897.735432 C390.981144,897.971201 391.523641,898.049883 392.10461,898.049883 C393.212521,898.049883 394.025155,897.589565 394.584458,896.68001 C395.450564,895.276476 394.89765,893.468725 393.528908,892.682735 Z" id="Shape" fill="#FFFFFF" opacity="0.400000006"></path>
                            <path d="M47.1692657,740.943819 L41.2391807,737.512264 L46.2455845,734.526373 C47.0504428,734.138047 47.2995395,733.055696 46.8418165,732.259956 C46.3758583,731.445051 45.3701383,731.273194 44.6066916,731.71878 L37.9316695,735.634173 L27.3231789,729.452284 L37.9315911,723.334095 L44.6066131,727.243126 C44.8150826,727.395896 45.0833164,727.485044 45.3815893,727.485044 C45.9473116,727.485044 46.4540539,727.217677 46.8417381,726.708312 C47.288716,725.899769 47.0503644,724.830221 46.2455061,724.441895 L41.2391023,721.456004 L47.1691873,718.024527 C47.9421242,717.578863 48.2079266,716.579298 47.7654193,715.758031 C47.3427549,714.968575 46.2969568,714.694845 45.5004121,715.159596 L39.540445,718.622962 L39.4514258,712.651181 C39.4374651,711.728041 38.7362141,710.98312 37.8125329,710.98312 C36.8890086,710.98312 36.166738,711.785301 36.1737184,712.651181 L36.2328553,720.532864 L25.6842075,726.651053 L25.6842075,714.236378 L32.3294258,710.441944 C33.1051863,710.002642 33.4432236,708.977629 32.9848732,708.175527 C32.519464,707.360622 31.5640967,707.118624 30.7497483,707.577092 L25.6842075,710.442023 L25.6842075,703.667983 C25.6842075,702.744843 24.9391136,702 24.0154324,702 C23.0917512,702 22.3765395,702.744843 22.3765395,703.667983 L22.3765395,710.505566 L17.131784,707.577013 C16.3148473,707.124987 15.3848132,707.37963 14.9264628,708.175448 C14.4611321,708.990353 14.7503854,709.989918 15.552028,710.441866 L22.3765395,714.293637 L22.3765395,726.587353 L11.588991,720.354567 L11.6487554,712.651103 C11.7384019,711.785301 10.9634258,710.983041 10.0397446,710.983041 C9.11598501,710.983041 8.35065589,711.727963 8.34108732,712.651103 L8.28132294,718.444586 L2.47084513,715.10218 C1.65963391,714.631067 0.658384518,714.911158 0.235641748,715.694253 C-0.20686562,716.521882 0.0219958652,717.495998 0.83195219,717.967111 L6.70219438,721.366777 L1.57641868,724.441816 C0.772109382,724.830221 0.52097351,725.912494 1.01053944,726.708312 C1.32583182,727.224039 1.78488812,727.485044 2.41100232,727.485044 C2.73837307,727.485044 3.01107745,727.402258 3.27491913,727.243126 L9.97990182,723.276757 L20.7376465,729.452284 L9.97990182,735.691432 L3.27491913,731.71878 C2.47006082,731.247667 1.43257633,731.470499 1.01046101,732.259956 C0.567953644,733.081223 0.808266046,734.068063 1.57626182,734.526373 L6.70211595,737.569523 L0.831795328,741.001078 C0.0237997768,741.472191 -0.238159565,742.465394 0.235484886,743.273937 C0.566777179,743.834199 1.01053944,744.108007 1.63610463,744.108007 C1.78488812,744.108007 2.08300413,744.018858 2.47084513,743.866088 L8.28132294,740.523681 L8.34108732,746.317165 C8.35065589,747.240305 9.11598501,747.953337 9.97998025,747.953337 C10.9634258,747.953337 11.6557357,747.182967 11.6487554,746.253465 L11.588991,738.556363 L22.3765395,732.380915 L22.3765395,744.610931 L15.552028,748.462623 C14.7376795,748.921012 14.4528184,749.920577 14.9264628,750.72912 C15.2576767,751.295744 15.7014389,751.569473 16.3269257,751.569473 C16.6251201,751.569473 16.8997069,751.518576 17.131784,751.384814 L22.3765395,748.405207 L22.3765395,755.357466 C22.3765395,756.280606 23.0917512,757 24.0154324,757 C24.9391136,757 25.6842075,756.280606 25.6842075,755.357466 L25.6842075,748.519804 L30.7497483,751.384814 C30.9816685,751.518497 31.2563337,751.569473 31.5247244,751.569473 C32.1800149,751.569473 32.6632279,751.302106 32.9848732,750.72912 C33.4374982,749.926939 33.1451076,748.920934 32.3294258,748.462623 L25.6842075,744.73189 L25.6842075,732.317215 L36.2328553,738.435404 L36.1737184,746.253465 C36.1660322,747.182967 36.8889301,747.953337 37.8126113,747.953337 C38.7362925,747.953337 39.4374651,747.240305 39.4514258,746.317165 L39.540445,740.313573 L45.5004121,743.80875 C45.7305285,743.942434 46.0368798,743.987047 46.3649564,743.987047 C46.9906,743.987047 47.4494994,743.726042 47.7653408,743.210315 C48.2544362,742.414497 47.9422026,741.389484 47.1692657,740.943819 Z" id="Shape" fill="#FFFFFF" opacity="0.400000006"></path>
                            <path d="M477.63275,452.434318 L467.872818,446.756655 L476.112524,441.816363 C477.437187,441.173859 477.847159,439.38306 477.093823,438.066472 C476.326933,436.718175 474.671686,436.43383 473.41518,437.171073 L462.429206,443.649268 L444.969399,433.421052 L462.429077,423.29823 L473.415051,429.765899 C473.758157,430.018664 474.199625,430.166164 474.690532,430.166164 C475.621617,430.166164 476.45563,429.723793 477.093694,428.881026 C477.829345,427.543255 477.437058,425.773639 476.112395,425.131135 L467.872689,420.190843 L477.632621,414.513309 C478.904746,413.775937 479.342213,412.122112 478.613919,410.763288 C477.918284,409.457097 476.197075,409.004199 474.886095,409.77315 L465.076982,415.503447 L464.930472,405.622864 C464.907495,404.095487 463.753352,402.86298 462.233127,402.86298 C460.71316,402.86298 459.524423,404.190225 459.535912,405.622864 L459.633241,418.663466 L442.271925,428.786287 L442.271925,408.245643 L453.208847,401.967581 C454.485619,401.240735 455.041972,399.544804 454.287604,398.21769 C453.521618,396.869392 451.949243,396.468997 450.608961,397.227552 L442.271925,401.967711 L442.271925,390.759754 C442.271925,389.232376 441.045624,388 439.525399,388 C438.005174,388 436.828055,389.232376 436.828055,390.759754 L436.828055,402.072846 L428.196061,397.227422 C426.85152,396.479523 425.320838,396.900842 424.56647,398.21756 C423.800613,399.565857 424.276676,401.219682 425.596046,401.967451 L436.828055,408.340381 L436.828055,428.680893 L419.073548,418.368465 L419.17191,405.622734 C419.319453,404.190225 418.043972,402.86285 416.523746,402.86285 L416.425384,402.86285 C415.003392,402.86285 413.743788,404.095357 413.72804,405.622734 L413.629677,415.208316 L404.066599,409.678152 C402.731481,408.898674 401.083591,409.362098 400.387827,410.657763 C399.659534,412.027114 400.036202,413.638833 401.369255,414.418311 L411.030695,420.043213 L402.594522,425.131005 C401.270763,425.773639 400.857436,427.564308 401.663179,428.881026 C402.182098,429.734319 402.937628,430.166164 403.968108,430.166164 C404.506906,430.166164 404.955732,430.02919 405.389971,429.765899 L416.425255,423.203362 L434.13071,433.421052 L416.425255,443.744006 L405.389971,437.171073 C404.065308,436.391594 402.357782,436.76028 401.66305,438.066472 C400.934757,439.425296 401.330271,441.058068 402.594264,441.816363 L411.030566,446.851393 L401.368996,452.529057 C400.03917,453.308535 399.608029,454.951833 400.387569,456.289604 C400.932821,457.216583 401.663179,457.669611 402.692756,457.669611 C402.937628,457.669611 403.428278,457.52211 404.066599,457.269345 L413.629677,451.739182 L413.72804,461.324764 C413.743788,462.852141 415.003392,464.031885 416.425384,464.031885 L416.523746,464.031885 C418.043972,464.031885 419.183398,462.757273 419.17191,461.219369 L419.073548,448.484165 L436.828055,438.266605 L436.828055,458.501722 L425.596046,464.874522 C424.255764,465.632948 423.78693,467.286772 424.56647,468.624543 C425.111593,469.562048 425.841952,470.014946 426.871399,470.014946 C427.362177,470.014946 427.814101,469.930735 428.196061,469.709419 L436.828055,464.779524 L436.828055,476.282352 C436.828055,477.80973 438.005174,479 439.525399,479 C441.045624,479 442.271925,477.80973 442.271925,476.282352 L442.271925,464.96913 L450.608961,469.709419 C450.990663,469.930605 451.442716,470.014946 451.884442,470.014946 C452.962941,470.014946 453.758229,469.572575 454.287604,468.624543 C455.032549,467.297299 454.551323,465.632818 453.208847,464.874522 L442.271925,458.701854 L442.271925,438.16121 L459.633241,448.284032 L459.535912,461.219369 C459.523261,462.757273 460.713031,464.031885 462.233256,464.031885 C463.753481,464.031885 464.907495,462.852141 464.930472,461.324764 L465.076982,451.391549 L474.886095,457.174477 C475.264828,457.395663 475.769031,457.469478 476.308991,457.469478 C477.338696,457.469478 478.093968,457.037633 478.61379,456.18434 C479.41876,454.867622 478.904875,453.171691 477.63275,452.434318 Z" id="Shape-Copy-3" fill="#FFFFFF" opacity="0.5"></path>
                            <g id="Shape-Copy-4" opacity="0.5">
                                <use fill="#FFFFFF" fill-rule="evenodd" xlink:href="#path-4"></use>
                                <path stroke-opacity="0.252660779" stroke="#FFFFFF" stroke-width="4" d="M505.983858,46.4195486 C507.910405,47.538032 508.601177,50.0575987 507.419841,51.9910275 C506.665736,53.2295904 505.451521,53.9112584 503.990259,53.9112584 C503.220111,53.9112584 502.540678,53.7811529 501.911451,53.4134501 L497.550836,50.8412285 L497.492152,54.8221979 C497.45864,57.0510783 495.711832,58.815035 493.478001,58.815035 C491.220517,58.815035 489.445097,56.9472167 489.463585,54.698335 L489.527561,46.1910391 L480.570172,40.9653569 L480.570172,51.6647031 L487.722297,55.7035323 C489.679091,56.809442 490.386759,59.2670398 489.290345,61.2215663 C488.541883,62.5627006 487.280514,63.285894 485.74914,63.285894 C485.060731,63.285894 484.392051,63.1349024 483.807603,62.7959646 L480.570172,60.9541906 L480.570172,65.9692303 C480.570172,68.2163478 478.757907,70 476.518969,70 C474.276027,70 472.504496,68.2121743 472.504496,65.9692303 L472.504496,60.8200772 L469.060923,62.7878421 C468.454402,63.1394695 467.787313,63.285894 467.068513,63.285894 C465.57404,63.285894 464.377439,62.5588034 463.618844,61.2534369 C462.475728,59.2906361 463.160481,56.8197734 465.128655,55.7054216 L472.504496,51.5181891 L472.504496,41.0213487 L463.253747,46.3480471 L463.318206,54.6984431 C463.334978,56.9449027 461.602872,58.815035 459.340519,58.815035 L459.267059,58.815035 C457.08977,58.815035 455.275562,57.031963 455.252692,54.8126416 L455.214377,51.0767517 L450.910975,53.5667258 L450.773775,53.6210851 C450.047747,53.9087411 449.530429,54.0608082 449.011045,54.0608082 C447.521747,54.0608082 446.327099,53.3390089 445.561183,52.0361198 C444.425144,50.0854699 445.065282,47.635226 447.008698,46.4954562 L451.314811,43.9635362 L447.908174,41.9292175 C446.031175,40.8025376 445.440819,38.4060701 446.476034,36.4735457 C447.543683,34.4650956 450.091094,33.8722213 452.049307,35.0251799 L459.277814,39.3330931 L468.505713,33.9498701 L459.28214,28.6240385 L452.062783,32.9196184 C451.420395,33.3093338 450.726297,33.5087821 449.963524,33.5087821 C448.501406,33.5087821 447.286432,32.8267744 446.535923,31.5919559 C445.352627,29.6571751 445.961301,27.0417714 447.967701,25.9956426 L451.316796,23.9747002 L447.012645,21.4674158 C445.081785,20.3377499 444.479963,17.9557724 445.527402,15.985292 C446.591112,14.003325 449.085783,13.327121 451.03871,14.4679501 L455.214377,16.8840157 L455.252693,13.1480275 C455.275514,10.9334341 457.085411,9.10630574 459.267059,9.10630574 L459.340519,9.10630574 C461.596554,9.10630574 463.479294,11.0298906 463.317609,13.261002 L463.253698,21.5471878 L472.504496,26.9233719 L472.504496,16.3638102 L465.129467,12.1769529 C463.17798,11.070306 462.493176,8.61118205 463.611498,6.64129502 C464.721628,4.70252678 467.073961,4.05874881 469.03721,5.15143011 L472.504496,7.09882025 L472.504496,2.06223339 C472.504496,-0.1775516 474.272241,-2 476.518969,-2 C478.76128,-2 480.570172,-0.181303808 480.570172,2.06223339 L480.570172,6.99866254 L483.811046,5.15498323 C485.771455,4.04483599 488.165368,4.67912727 489.282873,6.64727224 C490.390504,8.59694753 489.644261,11.0837369 487.734341,12.1716162 L480.570172,16.2863239 L480.570172,26.9954106 L489.527631,21.7696875 L489.463593,13.1847621 C489.446033,10.9937459 491.239476,9.10640285 493.477905,9.10640285 C495.716678,9.10640285 497.458691,10.9131545 497.492158,13.1390969 L497.550802,17.0962285 L501.915293,14.5451537 C503.863752,13.4016516 506.416827,14.0781453 507.474651,16.0655418 C508.518697,18.014575 507.882184,20.4403032 505.984871,21.5406703 L501.620855,24.0807183 L504.810349,25.9941161 C506.790853,27.023692 507.399027,29.5648975 506.32903,31.5117594 L506.258958,31.6392555 L506.171173,31.7552688 C505.329996,32.8669334 504.127909,33.5087821 502.781537,33.5087821 C502.044383,33.5087821 501.335579,33.2954555 500.744248,32.8919212 L493.616527,28.6933404 L484.555081,33.9499467 L493.621012,39.2638722 L500.816514,35.0184714 C502.722409,33.8995817 505.190608,34.4458003 506.312557,36.4194553 C507.419883,38.3557854 506.797519,40.9330885 504.810583,41.9665691 L501.620918,43.880069 L505.983858,46.4195486 Z"></path>
                                <use stroke-opacity="0.435575181" stroke="#FFFFFF" stroke-width="2" xlink:href="#path-4"></use>
                            </g>
                        </g>
                    </g>
                </g>
                <g id="Group-14-Copy" transform="translate(60.000000, 176.000000)" fill="#FFFFFF">
                    <circle id="Oval-6" opacity="0.699999988" cx="9.5" cy="845.5" r="9.5"></circle>
                    <circle id="Oval-6-Copy-3" opacity="0.300000012" cx="78.5" cy="1057.5" r="4.5"></circle>
                    <circle id="Oval-6" cx="404" cy="710" r="4"></circle>
                    <circle id="Oval-6" opacity="0.600000024" cx="607" cy="843" r="7"></circle>
                    <circle id="Oval-6-Copy" opacity="0.400000006" cx="759" cy="1046" r="7"></circle>
                    <circle id="Oval-6-Copy-2" opacity="0.400000006" cx="759" cy="123" r="7"></circle>
                    <circle id="Oval-6" opacity="0.900000036" cx="406.5" cy="952.5" r="6.5"></circle>
                    <circle id="Oval-6" opacity="0.699999988" cx="626.5" cy="432.5" r="6.5"></circle>
                    <circle id="Oval-6" opacity="0.300000012" cx="525.5" cy="5.5" r="5.5"></circle>
                </g>
            </g>
        </g>
    </g>
</svg>