<?xml version="1.0" encoding="UTF-8"?>
<svg width="874px" height="2197px" viewBox="0 0 874 2197" version="1.1" xmlns="http://www.w3.org/2000/svg" xmlns:xlink="http://www.w3.org/1999/xlink">
    <!-- Generator: Sketch 49.1 (51147) - http://www.bohemiancoding.com/sketch -->
    <title>dust</title>
    <desc>Created with Sketch.</desc>
    <defs>
        <linearGradient x1="112.257793%" y1="61.4896388%" x2="-11.3292375%" y2="39.4568958%" id="linearGradient-1">
            <stop stop-color="#E7D2B2" offset="0%"></stop>
            <stop stop-color="#67BDF0" offset="100%"></stop>
        </linearGradient>
        <linearGradient x1="2.92315934%" y1="2.92315934%" x2="98.1086575%" y2="98.1086575%" id="linearGradient-2">
            <stop stop-color="#ABA8E4" offset="0%"></stop>
            <stop stop-color="#4D3F89" offset="100%"></stop>
        </linearGradient>
        <rect id="path-3" x="0" y="0" width="874" height="2197"></rect>
        <rect id="path-5" x="0" y="0" width="874" height="2197"></rect>
        <rect id="path-7" x="0" y="0" width="874" height="2197"></rect>
    </defs>
    <g id="Page-1" stroke="none" stroke-width="1" fill="none" fill-rule="evenodd">
        <g id="dust">
            <g id="Group-24-Copy-6">
                <g id="night-rainy-copy-3">
                    <g id="Group-5-Copy-3">
                        <g id="with-content-copy-7">
                            <g id="Shape">
                                <g id="fluffy-cloud-silhouette">
                                    <g id="Mask" fill="url(#linearGradient-2)" fill-rule="nonzero">
                                        <rect id="path-2" x="0" y="0" width="874" height="2197"></rect>
                                    </g>
                                    <g id="storm-Clipped">
                                        <mask id="mask-4" fill="white">
                                            <use xlink:href="#path-3"></use>
                                        </mask>
                                        <g id="path-2"></g>
                                        <g id="storm" mask="url(#mask-4)">
                                            <g transform="translate(-21.000000, 340.000000)" id="Shape">
                                                <g>
                                                    <path d="M176,256 L16,256 C7.168,256 0,263.168 0,272 C0,280.832 7.168,288 16,288 L176,288 C184.832,288 192,295.2 192,304 C192,312.8 184.832,320 176,320 C167.168,320 160,327.168 160,336 C160,344.832 167.168,352 176,352 C202.464,352 224,330.464 224,304 C224,277.536 202.464,256 176,256 Z" fill="#FFFFFF" fill-rule="nonzero"></path>
                                                    <path d="M208,0 C199.168,0 192,7.168 192,16 C192,24.832 199.168,32 208,32 C216.832,32 224,39.168 224,48 C224,56.832 216.832,64 208,64 L16,64 C7.168,64 0,71.168 0,80 C0,88.832 7.168,96 16,96 L208,96 C234.464,96 256,74.464 256,48 C256,21.536 234.464,0 208,0 Z" fill="#FFFFFF" fill-rule="nonzero"></path>
                                                    <path d="M336,32 C327.168,32 320,39.168 320,48 C320,56.832 327.168,64 336,64 C362.464,64 384,85.536 384,112 C384,138.464 362.464,160 336,160 L16,160 C7.168,160 0,167.168 0,176 C0,184.832 7.168,192 16,192 L336,192 C380.128,192 416,156.096 416,112 C416,67.904 380.128,32 336,32 Z" fill="#FFFFFF" fill-rule="nonzero"></path>
                                                </g>
                                            </g>
                                        </g>
                                    </g>
                                    <g id="storm-Clipped">
                                        <mask id="mask-6" fill="white">
                                            <use xlink:href="#path-5"></use>
                                        </mask>
                                        <g id="path-2"></g>
                                        <g id="storm" mask="url(#mask-6)">
                                            <g transform="translate(141.000000, 1009.000000)" id="Shape">
                                                <g>
                                                    <path d="M323.785714,183 L13.4229674,183 C6.20753883,183 0.351538827,188.898667 0.351538827,196.166667 C0.351538827,203.434667 6.20753883,209.333333 13.4229674,209.333333 L323.785714,209.333333 C331.001143,209.333333 336.857143,215.258333 336.857143,222.5 C336.857143,229.741667 331.001143,235.666667 323.785714,235.666667 C316.570286,235.666667 310.714286,241.565333 310.714286,248.833333 C310.714286,256.101333 316.570286,262 323.785714,262 C345.405857,262 363,244.277667 363,222.5 C363,200.722333 345.405857,183 323.785714,183 Z" fill="#FFFFFF" fill-rule="nonzero" opacity="0.200000003"></path>
                                                    <path d="M289.8125,4 C282.602,4 276.75,9.89866667 276.75,17.1666667 C276.75,24.4346667 282.602,30.3333333 289.8125,30.3333333 C297.023,30.3333333 302.875,36.232 302.875,43.5 C302.875,50.768 297.023,56.6666667 289.8125,56.6666667 L133.0625,56.6666667 C125.852,56.6666667 120,62.5653333 120,69.8333333 C120,77.1013333 125.852,83 133.0625,83 L289.8125,83 C311.417875,83 329,65.2776667 329,43.5 C329,21.7223333 311.417875,4 289.8125,4 Z" fill="#FFFFFF" fill-rule="nonzero" opacity="0.300000012"></path>
                                                    <path d="M474.615385,0 C467.396923,0 461.538462,5.8688 461.538462,13.1 C461.538462,20.3312 467.396923,26.2 474.615385,26.2 C496.244615,26.2 513.846154,43.8326 513.846154,65.5 C513.846154,87.1674 496.244615,104.8 474.615385,104.8 L64.3528544,104.8 C57.1343929,104.8 51.2759313,110.6688 51.2759313,117.9 C51.2759313,125.1312 57.1343929,131 64.3528544,131 L474.615385,131 C510.681538,131 540,101.6036 540,65.5 C540,29.3964 510.681538,0 474.615385,0 Z" fill="#FFFFFF" fill-rule="nonzero" opacity="0.699999988"></path>
                                                </g>
                                            </g>
                                        </g>
                                    </g>
                                    <g id="storm-Clipped">
                                        <mask id="mask-8" fill="white">
                                            <use xlink:href="#path-7"></use>
                                        </mask>
                                        <g id="path-2"></g>
                                        <g id="storm" opacity="0.300000012" mask="url(#mask-8)">
                                            <g transform="translate(-121.000000, 299.000000)" id="Shape">
                                                <g>
                                                    <path d="M388.357143,301 L126.214286,301 C111.744,301 100,312.722667 100,327.166667 C100,341.610667 111.744,353.333333 126.214286,353.333333 L388.357143,353.333333 C402.827429,353.333333 414.571429,365.108333 414.571429,379.5 C414.571429,393.891667 402.827429,405.666667 388.357143,405.666667 C373.886857,405.666667 362.142857,417.389333 362.142857,431.833333 C362.142857,446.277333 373.886857,458 388.357143,458 C431.715571,458 467,422.779667 467,379.5 C467,336.220333 431.715571,301 388.357143,301 Z" fill="#FFFFFF" fill-rule="nonzero"></path>
                                                    <path d="M379.25,0 C364.76,0 353,11.7226667 353,26.1666667 C353,40.6106667 364.76,52.3333333 379.25,52.3333333 C393.74,52.3333333 405.5,64.056 405.5,78.5 C405.5,92.944 393.74,104.666667 379.25,104.666667 L64.25,104.666667 C49.76,104.666667 38,116.389333 38,130.833333 C38,145.277333 49.76,157 64.25,157 L379.25,157 C422.6675,157 458,121.779667 458,78.5 C458,35.2203333 422.6675,0 379.25,0 Z" fill="#FFFFFF" fill-rule="nonzero"></path>
                                                    <path d="M550.846154,3 C536.366769,3 524.615385,14.7376 524.615385,29.2 C524.615385,43.6624 536.366769,55.4 550.846154,55.4 C594.231846,55.4 629.538462,90.6652 629.538462,134 C629.538462,177.3348 594.231846,212.6 550.846154,212.6 L26.2307692,212.6 C11.7513846,212.6 0,224.3376 0,238.8 C0,253.2624 11.7513846,265 26.2307692,265 L550.846154,265 C623.190615,265 682,206.2072 682,134 C682,61.7928 623.190615,3 550.846154,3 Z" fill="#FFFFFF" fill-rule="nonzero"></path>
                                                </g>
                                            </g>
                                        </g>
                                    </g>
                                </g>
                            </g>
                        </g>
                    </g>
                </g>
            </g>
            <circle id="Oval-7" fill="#FFFFFF" fill-rule="nonzero" opacity="0.100000001" cx="550.5" cy="653.5" r="18.5"></circle>
            <circle id="Oval-7-Copy" fill="#FFFFFF" fill-rule="nonzero" opacity="0.699999988" cx="413.5" cy="717.5" r="13.5"></circle>
            <circle id="Oval-7-Copy-2" fill="#FFFFFF" fill-rule="nonzero" opacity="0.800000012" cx="668.5" cy="454.5" r="23.5"></circle>
            <circle id="Oval-7-Copy-3" fill="#FFFFFF" fill-rule="nonzero" opacity="0.699999988" cx="601.5" cy="1214.5" r="13.5"></circle>
            <circle id="Oval-7-Copy-9" fill="#FFFFFF" fill-rule="nonzero" opacity="0.300000012" cx="772.5" cy="1141.5" r="13.5"></circle>
            <circle id="Oval-7-Copy-10" fill="#FFFFFF" fill-rule="nonzero" opacity="0.900000036" cx="671.5" cy="767.5" r="3.5"></circle>
            <circle id="Oval-7-Copy-10" fill="#FFFFFF" fill-rule="nonzero" opacity="0.900000036" cx="511.5" cy="857.5" r="3.5"></circle>
            <circle id="Oval-7-Copy-10" fill="#FFFFFF" fill-rule="nonzero" opacity="0.900000036" cx="731.5" cy="917.5" r="3.5"></circle>
            <circle id="Oval-7-Copy-10" fill="#FFFFFF" fill-rule="nonzero" opacity="0.900000036" cx="741.5" cy="647.5" r="3.5"></circle>
            <circle id="Oval-7-Copy-10" fill="#FFFFFF" fill-rule="nonzero" opacity="0.900000036" cx="791.5" cy="347.5" r="3.5"></circle>
            <circle id="Oval-7-Copy-10" fill="#FFFFFF" fill-rule="nonzero" opacity="0.900000036" cx="641.5" cy="307.5" r="3.5"></circle>
            <circle id="Oval-7-Copy-10" fill="#FFFFFF" fill-rule="nonzero" opacity="0.900000036" cx="531.5" cy="227.5" r="3.5"></circle>
            <circle id="Oval-7-Copy-10" fill="#FFFFFF" fill-rule="nonzero" opacity="0.900000036" cx="751.5" cy="177.5" r="3.5"></circle>
            <circle id="Oval-7-Copy-10" fill="#FFFFFF" fill-rule="nonzero" opacity="0.900000036" cx="806.5" cy="522.5" r="8.5"></circle>
            <circle id="Oval-7-Copy-10" fill="#FFFFFF" fill-rule="nonzero" opacity="0.900000036" cx="146.5" cy="832.5" r="8.5"></circle>
            <circle id="Oval-7-Copy-10" fill="#FFFFFF" fill-rule="nonzero" opacity="0.900000036" cx="819.5" cy="819.5" r="6.5"></circle>
            <circle id="Oval-7-Copy-7" fill="#FFFFFF" fill-rule="nonzero" opacity="0.300000012" cx="752.5" cy="1306.5" r="18.5"></circle>
            <circle id="Oval-7-Copy-8" fill="#FFFFFF" fill-rule="nonzero" opacity="0.300000012" cx="602.5" cy="894.5" r="13.5"></circle>
            <circle id="Oval-7-Copy-4" fill="#FFFFFF" fill-rule="nonzero" opacity="0.300000012" cx="243.5" cy="944.5" r="13.5"></circle>
            <circle id="Oval-7-Copy-5" fill="#FFFFFF" fill-rule="nonzero" opacity="0.600000024" cx="401.5" cy="218.5" r="18.5"></circle>
            <circle id="Oval-7-Copy-6" fill="#FFFFFF" fill-rule="nonzero" opacity="0.300000012" cx="639.5" cy="222.5" r="18.5"></circle>
        </g>
    </g>
</svg>