<?xml version="1.0" encoding="UTF-8"?>
<svg width="874px" height="2197px" viewBox="0 0 874 2197" version="1.1" xmlns="http://www.w3.org/2000/svg" xmlns:xlink="http://www.w3.org/1999/xlink">
    <!-- Generator: Sketch 49 (51002) - http://www.bohemiancoding.com/sketch -->
    <title>light snow</title>
    <desc>Created with Sketch.</desc>
    <defs>
        <linearGradient x1="2.92315934%" y1="2.92315934%" x2="98.1086575%" y2="98.1086575%" id="linearGradient-1">
            <stop stop-color="#ABA8E4" offset="0%"></stop>
            <stop stop-color="#4D3F89" offset="100%"></stop>
        </linearGradient>
        <rect id="path-2" x="0" y="0" width="874" height="2197"></rect>
    </defs>
    <g id="Page-1" stroke="none" stroke-width="1" fill="none" fill-rule="evenodd">
        <g id="light-snow">
            <g>
                <g id="Group-6-Copy-2">
                    <g id="with-content-copy-4">
                        <g id="Shape">
                            <g id="fluffy-cloud-silhouette">
                                <mask id="mask-3" fill="white">
                                    <use xlink:href="#path-2"></use>
                                </mask>
                                <use id="Mask" fill="url(#linearGradient-1)" xlink:href="#path-2"></use>
                                <g id="snowflake" mask="url(#mask-3)" fill="#FFFFFF" fill-rule="nonzero">
                                    <g transform="translate(-211.000000, 89.000000)" id="Shape">
                                        <path d="M558.544502,520.345648 L512.4628,493.704302 L551.36673,470.522934 C557.621149,467.508107 559.556838,459.105128 555.999949,452.927292 C552.379066,446.600665 544.563783,445.266433 538.631166,448.725802 L486.760682,479.123487 L404.323869,431.129549 L486.760072,383.630156 L538.630556,413.978447 C540.250538,415.164499 542.334938,415.856617 544.652767,415.856617 C549.048901,415.856617 552.986711,413.780874 555.99934,409.826351 C559.472731,403.549119 557.62054,395.245536 551.36612,392.230708 L512.462191,369.049341 L558.543893,342.408604 C564.550257,338.948626 566.615763,331.188371 563.177112,324.812352 C559.892658,318.683299 551.765935,316.558163 545.576119,320.166321 L499.262208,347.054635 L498.570455,300.691899 C498.461969,293.524975 493.012664,287.741677 485.834891,287.741677 C478.658337,287.741677 473.045693,293.969516 473.099937,300.691899 L473.55948,361.882417 L391.587696,409.38181 L391.587696,312.998788 L443.22658,283.540187 C449.254885,280.129602 451.881717,272.171774 448.319952,265.944544 C444.703335,259.617918 437.279335,257.739139 430.951169,261.298514 L391.587696,283.540797 L391.587696,230.949613 C391.587696,223.782689 385.797695,218 378.619923,218 C371.44215,218 365.884359,223.782689 365.884359,230.949613 L365.884359,284.034121 L325.128238,261.297904 C318.77996,257.788532 311.55282,259.765489 307.991055,265.943935 C304.375047,272.270561 306.622786,280.030815 312.852218,283.539577 L365.884359,313.443328 L365.884359,408.887266 L282.056118,360.498181 L282.520537,300.691289 C283.217165,293.969516 277.194955,287.741067 270.017182,287.741067 L269.552763,287.741067 C262.8388,287.741067 256.891555,293.524365 256.817199,300.691289 L256.35278,345.669789 L211.200526,319.720561 C204.896738,316.063009 197.116196,318.237539 193.831133,324.317198 C190.392482,330.742611 192.170926,338.305292 198.464962,341.962844 L244.081635,368.356613 L204.250087,392.230098 C197.999933,395.245536 196.048398,403.647905 199.852734,409.826351 C202.302818,413.830267 205.870068,415.856617 210.735497,415.856617 C213.279441,415.856617 215.398581,415.213892 217.448851,413.978447 L269.552154,383.185005 L353.148795,431.129549 L269.552154,479.568028 L217.448851,448.725802 C211.194431,445.06825 203.132312,446.798239 199.852124,452.927292 C196.413473,459.303311 198.280901,466.964779 204.248868,470.522934 L244.081026,494.148843 L198.463743,520.790189 C192.184944,524.447741 190.149302,532.158602 193.829914,538.435835 C196.404331,542.785505 199.852734,544.911251 204.713896,544.911251 C205.870068,544.911251 208.186678,544.219134 211.200526,543.033082 L256.35278,517.083853 L256.817199,562.062353 C256.891555,569.229277 262.8388,574.764999 269.552763,574.764999 L270.017182,574.764999 C277.194955,574.764999 282.57478,568.784127 282.520537,561.567809 L282.056118,501.810311 L365.884359,453.866376 L365.884359,548.81577 L312.852218,578.718912 C306.524051,582.277677 304.310443,590.037932 307.991055,596.315164 C310.564863,600.714227 314.013265,602.839364 318.873818,602.839364 C321.191038,602.839364 323.324805,602.444217 325.128238,601.405735 L365.884359,578.273151 L365.884359,632.247961 C365.884359,639.414885 371.44215,645 378.619923,645 C385.797695,645 391.587696,639.414885 391.587696,632.247961 L391.587696,579.162842 L430.951169,601.405735 C432.753383,602.443607 434.88776,602.839364 436.973379,602.839364 C442.065532,602.839364 445.8205,600.763621 448.319952,596.315164 C451.837225,590.087325 449.565107,582.277067 443.22658,578.718912 L391.587696,549.754855 L391.587696,453.371832 L473.55948,500.871226 L473.099937,561.567809 C473.040208,568.784127 478.657728,574.764999 485.835501,574.764999 C493.013273,574.764999 498.461969,569.229277 498.570455,562.062353 L499.262208,515.452651 L545.576119,542.587931 C547.364315,543.625803 549.74492,543.972166 552.294349,543.972166 C557.156121,543.972166 560.722152,541.945817 563.176503,537.941901 C566.977181,531.763455 564.550866,523.805627 558.544502,520.345648 Z"></path>
                                        <path d="M743.898628,613.18813 L650.376246,559.156735 L729.331406,512.142532 C742.024692,506.028151 745.953154,488.986043 738.734481,476.456755 C731.385932,463.625706 715.52489,460.919746 703.484698,467.935702 L598.214038,529.585339 L430.9093,432.248688 L598.212801,335.915023 L703.483461,397.464485 C706.771198,399.869921 711.001469,401.273607 715.705481,401.273607 C724.627394,401.273607 732.619142,397.063786 738.733244,389.043607 C745.782459,376.312732 742.023455,359.472211 729.330169,353.35783 L650.375009,306.343627 L743.897391,252.313469 C756.08725,245.296276 760.279176,229.55768 753.300466,216.626455 C746.634698,204.196106 730.141589,199.88611 717.579416,207.203827 L623.585767,261.736097 L622.181862,167.707692 C621.96169,153.172432 610.902376,141.443307 596.335154,141.443307 C581.770406,141.443307 570.379598,154.074007 570.489684,167.707692 L571.422322,291.808367 L405.061356,388.142032 L405.061356,192.66733 L509.861987,132.922253 C522.096375,126.005235 527.427506,109.865939 520.198938,97.2364763 C512.859047,84.4054267 497.792109,80.5950688 484.949155,87.8138482 L405.061356,132.92349 L405.061356,26.2631488 C405.061356,11.7278885 393.310604,0 378.743382,0 C364.17616,0 352.896674,11.7278885 352.896674,26.2631488 L352.896674,133.924003 L270.18251,87.8126115 C257.298738,80.6952437 242.631325,84.7047148 235.402757,97.2352396 C228.064103,110.066289 232.625869,125.804886 245.268442,132.921017 L352.896674,193.568905 L352.896674,387.139046 L182.768046,289.000995 L183.71058,167.706456 C185.124381,154.074007 172.902361,141.44207 158.335139,141.44207 L157.392605,141.44207 C143.76668,141.44207 131.696802,153.171195 131.545898,167.706456 L130.603364,258.927489 L38.9672867,206.299779 C26.1738097,198.881887 10.3832725,203.292058 3.71626673,215.622233 C-3.26244321,228.653632 0.346893124,243.991529 13.1205793,251.409421 L105.699191,304.938705 L24.8614363,353.356593 C12.1768084,359.472211 8.2161864,376.513082 15.9370491,389.043607 C20.9094727,397.163961 28.1491731,401.273607 38.0235157,401.273607 C43.1864252,401.273607 47.4872006,399.970096 51.6482038,397.464485 L157.391368,335.012212 L327.049967,432.248688 L157.391368,530.486914 L51.6482038,467.935702 C38.9549175,460.517809 22.5929226,464.026405 15.9358122,476.456755 C8.95710225,489.38798 12.7470291,504.926226 24.8589624,512.142532 L105.697954,560.058309 L13.1181055,614.089704 C0.375342313,621.507597 -3.75597481,637.146018 3.71379289,649.876893 C8.93854843,658.698471 15.9370491,663.009704 25.8027334,663.009704 C28.1491731,663.009704 32.8507109,661.606018 38.9672867,659.200583 L130.603364,606.572873 L131.545898,697.793906 C131.696802,712.329167 143.76668,723.55618 157.392605,723.55618 L158.335139,723.55618 C172.902361,723.55618 183.820666,711.426355 183.71058,696.79092 L182.768046,575.596555 L352.896674,478.361316 L352.896674,670.928471 L245.268442,731.575123 C232.425488,738.792665 227.93299,754.531262 235.402757,767.262136 C240.626276,776.18389 247.624777,780.493886 257.489224,780.493886 C262.191999,780.493886 266.52246,779.692486 270.18251,777.586339 L352.896674,730.671075 L352.896674,840.137551 C352.896674,854.672811 364.17616,866 378.743382,866 C393.310604,866 405.061356,854.672811 405.061356,840.137551 L405.061356,732.47546 L484.949155,777.586339 C488.606731,779.691249 492.938429,780.493886 497.171174,780.493886 C507.505651,780.493886 515.126324,776.284065 520.198938,767.262136 C527.337211,754.631437 522.725968,738.791429 509.861987,731.575123 L405.061356,672.833032 L405.061356,477.35833 L571.422322,573.691995 L570.489684,696.79092 C570.368465,711.426355 581.769169,723.55618 596.336391,723.55618 C610.903613,723.55618 621.96169,712.329167 622.181862,697.793906 L623.585767,603.264627 L717.579416,658.297771 C721.208543,660.402682 726.039958,661.105143 731.214,661.105143 C741.080921,661.105143 748.318147,656.995497 753.29923,648.875143 C761.012671,636.344619 756.088487,620.205322 743.898628,613.18813 Z" opacity="0.229999989"></path>
                                        <path d="M633.844616,558.382007 L568.490137,520.634901 L623.664879,487.790106 C632.535089,483.518512 635.280341,471.612651 630.235853,462.859511 C625.100605,453.895556 614.016733,452.005134 605.602913,456.906581 L532.038608,499.975901 L415.124201,431.975123 L532.037743,364.675045 L605.602049,407.674381 C607.899556,409.354852 610.855716,410.335487 614.142932,410.335487 C620.377664,410.335487 625.962386,407.394446 630.234988,401.791434 C635.161058,392.897463 632.534224,381.132434 623.664015,376.86084 L568.489273,344.016045 L633.843751,306.269802 C642.36216,301.367491 645.291525,290.372282 640.414725,281.338344 C635.756612,272.654323 624.231044,269.643298 615.452459,274.755561 L549.768654,312.852585 L548.787589,247.162995 C548.63373,237.008454 540.905359,228.814319 530.725623,228.814319 C520.547615,228.814319 512.587592,237.638307 512.664521,247.162995 L513.31626,333.861504 L397.06137,401.161581 L397.06137,264.600156 L470.297214,222.861389 C478.84674,218.029062 482.572194,206.753918 477.52079,197.930795 C472.391593,188.96684 461.862649,186.304869 452.887851,191.348012 L397.06137,222.862253 L397.06137,148.347812 C397.06137,138.193271 388.849814,130 378.670078,130 C368.490341,130 360.608112,138.193271 360.608112,148.347812 L360.608112,223.561226 L302.806536,191.347148 C293.803213,186.374853 283.553463,189.175927 278.502059,197.929931 C273.373726,206.893886 276.561539,217.889094 285.396309,222.860525 L360.608112,265.230008 L360.608112,400.460881 L241.720338,331.900233 L242.378992,247.162131 C243.366971,237.638307 234.826089,228.813455 224.646352,228.813455 C214.465751,228.813455 206.031187,237.00759 205.925733,247.162131 L205.26708,310.890451 L141.230772,274.12398 C132.290549,268.941734 121.255946,272.022742 116.596968,280.636779 C111.720168,289.740701 114.242413,300.455975 123.168806,305.638221 L187.863767,343.034546 L131.373448,376.859976 C122.509289,381.132434 119.741562,393.03743 125.136987,401.791434 C128.611772,407.46443 133.670954,410.335487 140.571255,410.335487 C144.179153,410.335487 147.184583,409.424836 150.092338,407.674381 L223.986835,364.044328 L342.546146,431.975123 L223.986835,500.605754 L150.092338,456.906581 C141.222129,451.724335 129.788185,454.175491 125.136122,462.859511 C120.259322,471.89345 122.907765,482.748692 131.371719,487.790106 L187.862903,521.264754 L123.167078,559.01186 C114.262293,564.194106 111.375283,575.119331 116.59524,584.013303 C120.246357,590.176184 125.136987,593.188073 132.031236,593.188073 C133.670954,593.188073 136.956441,592.207438 141.230772,590.526966 L205.26708,553.760495 L205.925733,617.488814 C206.031187,627.643355 214.465751,635.486708 223.987699,635.486708 C234.826089,635.486708 242.455921,627.012639 242.378992,616.788114 L241.720338,532.119995 L360.608112,464.190065 L360.608112,598.720237 L285.396309,641.088856 C276.42151,646.131135 273.282102,657.126343 278.502059,666.020315 C282.152312,672.253179 287.042942,675.264204 293.936327,675.264204 C297.222678,675.264204 300.248853,674.704335 302.806536,673.23295 L360.608112,640.457275 L360.608112,716.932123 C360.608112,727.086664 368.490341,735 378.670078,735 C388.849814,735 397.06137,727.086664 397.06137,716.932123 L397.06137,641.717845 L452.887851,673.23295 C455.443805,674.703471 458.470844,675.264204 461.428733,675.264204 C468.650581,675.264204 473.975991,672.323163 477.52079,666.020315 C482.509094,657.196327 479.286707,646.130271 470.297214,641.088856 L397.06137,600.05079 L397.06137,463.489364 L513.31626,530.789442 L512.664521,616.788114 C512.579813,627.012639 520.546751,635.486708 530.726487,635.486708 C540.906224,635.486708 548.63373,627.643355 548.787589,617.488814 L549.768654,551.449306 L615.452459,589.896249 C617.988533,591.36677 621.364779,591.857519 624.980457,591.857519 C631.875571,591.857519 636.933025,588.986462 640.413861,583.313466 C645.804099,574.559462 642.363025,563.284319 633.844616,558.382007 Z" opacity="0.600000024"></path>
                                    </g>
                                </g>
                            </g>
                        </g>
                    </g>
                </g>
                <g id="Group-14-Copy" transform="translate(60.000000, 176.000000)" fill="#FFFFFF">
                    <circle id="Oval-6" opacity="0.699999988" cx="9.5" cy="845.5" r="9.5"></circle>
                    <circle id="Oval-6-Copy-3" opacity="0.300000012" cx="78.5" cy="1057.5" r="4.5"></circle>
                    <circle id="Oval-6" cx="404" cy="710" r="4"></circle>
                    <circle id="Oval-6" opacity="0.5" cx="607" cy="843" r="7"></circle>
                    <circle id="Oval-6" opacity="0.200000003" cx="406.5" cy="952.5" r="6.5"></circle>
                    <circle id="Oval-6" opacity="0.5" cx="630.5" cy="436.5" r="10.5"></circle>
                    <circle id="Oval-6-Copy-4" opacity="0.5" cx="229.5" cy="861.5" r="6.5"></circle>
                    <circle id="Oval-6" opacity="0.200000003" cx="726.5" cy="202.5" r="6.5"></circle>
                    <circle id="Oval-6" opacity="0.400000006" cx="716.5" cy="642.5" r="6.5"></circle>
                    <circle id="Oval-6" opacity="0.300000012" cx="525.5" cy="5.5" r="5.5"></circle>
                </g>
            </g>
        </g>
    </g>
</svg>