<?xml version="1.0" encoding="UTF-8"?>
<svg width="874px" height="2197px" viewBox="0 0 874 2197" version="1.1" xmlns="http://www.w3.org/2000/svg" xmlns:xlink="http://www.w3.org/1999/xlink">
    <!-- Generator: Sketch 49 (51002) - http://www.bohemiancoding.com/sketch -->
    <title>mist</title>
    <desc>Created with Sketch.</desc>
    <defs>
        <linearGradient x1="2.92315934%" y1="2.92315934%" x2="98.1086575%" y2="98.1086575%" id="linearGradient-1">
            <stop stop-color="#ABA8E4" offset="0%"></stop>
            <stop stop-color="#4D3F89" offset="100%"></stop>
        </linearGradient>
        <rect id="path-2" x="0" y="0" width="874" height="2197"></rect>
    </defs>
    <g id="Page-1" stroke="none" stroke-width="1" fill="none" fill-rule="evenodd">
        <g id="mist">
            <g id="Group-33">
                <g id="night-rainy-copy-14">
                    <g id="Group-5-Copy-3">
                        <g id="with-content-copy-7">
                            <g id="Shape">
                                <g id="fluffy-cloud-silhouette">
                                    <mask id="mask-3" fill="white">
                                        <use xlink:href="#path-2"></use>
                                    </mask>
                                    <use id="Mask" fill="url(#linearGradient-1)" xlink:href="#path-2"></use>
                                    <g id="mist" mask="url(#mask-3)" fill="#FFFFFF" fill-rule="nonzero">
                                        <g transform="translate(-93.000000, 248.000000)" id="Shape">
                                            <path d="M468,24 C468,10.7456 457.146571,0 443.759166,0 L24.2408337,0 C10.8534293,0 0,10.7456 0,24 C0,37.2544 10.8534293,48 24.2408337,48 L443.759166,48 C457.146571,48 468,37.2544 468,24 Z"></path>
                                            <path d="M677.781429,99 L189.218571,99 C175.843462,99 165,109.7456 165,123 C165,136.2544 175.843462,147 189.218571,147 L677.781429,147 C691.156538,147 702,136.2544 702,123 C702,109.7456 691.156538,99 677.781429,99 Z"></path>
                                            <path d="M563.760695,247 C577.147255,247 588,236.2544 588,223 C588,209.7456 577.147255,199 563.760695,199 L72.2393048,199 C58.8527447,199 48,209.7456 48,223 C48,236.2544 58.8527447,247 72.2393048,247 L563.760695,247 Z"></path>
                                            <path d="M644.767585,298 L154.232415,298 C140.84966,298 130,308.7456 130,322 C130,335.2544 140.84966,346 154.232415,346 L644.767585,346 C658.15034,346 669,335.2544 669,322 C669,308.7456 658.15034,298 644.767585,298 Z"></path>
                                            <path d="M406.757403,398 L81.2458293,398 C67.855666,398 57,408.7456 57,422 C57,435.2544 67.855666,446 81.2458293,446 L406.75417,446 C420.144333,446 430.999999,435.2544 430.999999,422 C431.003232,408.7456 420.147566,398 406.757403,398 Z"></path>
                                        </g>
                                    </g>
                                    <g id="mist" opacity="0.100000001" mask="url(#mask-3)" fill="#FFFFFF" fill-rule="nonzero">
                                        <g transform="translate(-154.000000, 235.000000)" id="Shape">
                                            <path d="M675,34.5 C675,15.4468 659.346015,0 640.037259,0 L34.9627409,0 C15.6539845,0 0,15.4468 0,34.5 C0,53.5532 15.6539845,69 34.9627409,69 L640.037259,69 C659.346015,69 675,53.5532 675,34.5 Z"></path>
                                            <path d="M917.092785,101 L212.907215,101 C193.629124,101 178,116.4468 178,135.5 C178,154.5532 193.629124,170 212.907215,170 L917.092785,170 C936.370876,170 952,154.5532 952,135.5 C952,116.4468 936.370876,101 917.092785,101 Z"></path>
                                            <path d="M812.077446,271 C831.364009,271 847,255.5532 847,236.5 C847,217.4468 831.364009,202 812.077446,202 L103.922554,202 C84.6359915,202 69,217.4468 69,236.5 C69,255.5532 84.6359915,271 103.922554,271 L812.077446,271 Z"></path>
                                            <path d="M874.067557,303 L166.932443,303 C147.640419,303 132,318.4468 132,337.5 C132,356.5532 147.640419,372 166.932443,372 L874.067557,372 C893.359581,372 909,356.5532 909,337.5 C909,318.4468 893.359581,303 874.067557,303 Z"></path>
                                            <path d="M590.062139,404 L120.942519,404 C101.64493,404 86,419.4468 86,438.5 C86,457.5532 101.64493,473 120.942519,473 L590.05748,473 C609.355069,473 624.999999,457.5532 624.999999,438.5 C625.004658,419.4468 609.359728,404 590.062139,404 Z"></path>
                                        </g>
                                    </g>
                                    <g id="mist-copy" opacity="0.5" mask="url(#mask-3)" fill="#FFFFFF" fill-rule="nonzero">
                                        <g transform="translate(442.000000, 987.000000)" id="Shape">
                                            <path d="M235,12 C235,5.3728 229.550094,0 222.827786,0 L12.1722135,0 C5.44990573,0 0,5.3728 0,12 C0,18.6272 5.44990573,24 12.1722135,24 L222.827786,24 C229.550094,24 235,18.6272 235,12 Z"></path>
                                            <path d="M340.823065,50 L95.1769354,50 C88.4520199,50 83,55.3728 83,62 C83,68.6272 88.4520199,74 95.1769354,74 L340.823065,74 C347.54798,74 353,68.6272 353,62 C353,55.3728 347.54798,50 340.823065,50 Z"></path>
                                            <path d="M283.790572,124 C290.533432,124 296,118.6272 296,112 C296,105.3728 290.533432,100 283.790572,100 L36.2094276,100 C29.4665677,100 24,105.3728 24,112 C24,118.6272 29.4665677,124 36.2094276,124 L283.790572,124 Z"></path>
                                            <path d="M323.816355,150 L77.1836448,150 C70.4550239,150 65,155.3728 65,162 C65,168.6272 70.4550239,174 77.1836448,174 L323.816355,174 C330.544976,174 336,168.6272 336,162 C336,155.3728 330.544976,150 323.816355,150 Z"></path>
                                            <path d="M204.813882,200 L41.1877431,200 C34.4568588,200 29,205.3728 29,212 C29,218.6272 34.4568588,224 41.1877431,224 L204.812257,224 C211.543141,224 217,218.6272 217,212 C217.001625,205.3728 211.544766,200 204.813882,200 Z"></path>
                                        </g>
                                    </g>
                                </g>
                            </g>
                        </g>
                    </g>
                </g>
            </g>
        </g>
    </g>
</svg>