<?xml version="1.0" encoding="UTF-8"?>
<svg width="874px" height="2197px" viewBox="0 0 874 2197" version="1.1" xmlns="http://www.w3.org/2000/svg" xmlns:xlink="http://www.w3.org/1999/xlink">
    <!-- Generator: Sketch 49 (51002) - http://www.bohemiancoding.com/sketch -->
    <title>scattered clouds night@2x</title>
    <desc>Created with Sketch.</desc>
    <defs>
        <linearGradient x1="2.92315934%" y1="2.92315934%" x2="98.1086575%" y2="98.1086575%" id="linearGradient-1">
            <stop stop-color="#ABA8E4" offset="0%"></stop>
            <stop stop-color="#4D3F89" offset="100%"></stop>
        </linearGradient>
        <rect id="path-2" x="0" y="0" width="874" height="2197"></rect>
    </defs>
    <g id="Page-1" stroke="none" stroke-width="1" fill="none" fill-rule="evenodd">
        <g id="scattered-clouds-night">
            <g id="Group-5-Copy-2">
                <g id="with-content-copy-7">
                    <g id="Shape">
                        <g id="fluffy-cloud-silhouette">
                            <mask id="mask-3" fill="white">
                                <use xlink:href="#path-2"></use>
                            </mask>
                            <use id="Mask" fill="url(#linearGradient-1)" xlink:href="#path-2"></use>
                            <g mask="url(#mask-3)" id="Group">
                                <g transform="translate(-291.000000, 138.000000)">
                                    <g>
                                        <path d="M923.306006,394.515629 C895.14972,359.475717 859.428139,336.933074 816.185297,326.878893 C829.941981,305.754192 836.800947,282.621474 836.800947,257.480737 C836.800947,221.940582 824.226176,191.601898 799.090724,166.454115 C773.949987,141.31514 743.609541,128.740369 708.069386,128.740369 C675.886495,128.740369 648.056072,139.134503 624.595729,159.922773 C604.823799,112.315135 573.382466,73.7594295 530.30872,44.2556577 C487.224407,14.7589316 439.194028,0 386.221106,0 C315.149602,0 254.463426,25.1513049 204.173146,75.4415848 C153.879344,125.719535 128.740369,186.409234 128.740369,257.486022 C128.740369,262.516635 129.0768,269.719078 129.746139,279.107443 C90.8575257,297.213071 59.5077866,324.618992 35.7057288,361.34106 C11.9054324,398.04199 0,438.533495 0,482.789153 C0,544.810485 22.0476843,597.867954 66.1307229,641.949231 C110.215523,686.042839 163.272992,708.087 225.296086,708.087 L772.456304,708.087 C825.755088,708.087 871.264876,689.213393 908.98743,651.508454 C946.704699,613.792945 965.565976,568.283157 965.565976,514.972043 C965.560692,469.714138 951.472861,429.544973 923.306006,394.515629 Z" id="Shape" fill="#FFFFFF" fill-rule="nonzero" opacity="0.200000003"></path>
                                        <path d="M804.370974,405.813352 C782.616673,378.740576 755.017221,361.323526 721.606642,353.555396 C732.235425,337.233886 737.534847,319.360928 737.534847,299.936521 C737.534847,272.477244 727.819241,249.036763 708.398917,229.606912 C688.97451,210.183866 665.532668,200.46826 638.073391,200.46826 C613.208027,200.46826 591.705495,208.499048 573.579406,224.560622 C558.303082,187.777684 534.010665,157.988513 500.730735,135.193108 C467.442639,112.403146 430.33308,101 389.404781,101 C334.493032,101 287.605265,120.432572 248.749647,159.288191 C209.891306,198.134283 190.46826,245.024772 190.46826,299.940604 C190.46826,303.82739 190.728196,309.392191 191.245346,316.645893 C161.19896,330.634787 136.977311,351.809336 118.587203,380.18179 C100.198456,408.537913 91,439.822736 91,474.015843 C91,521.935187 108.034632,562.92881 142.094369,596.987187 C176.155468,631.05509 217.149091,648.087 265.069796,648.087 L687.82045,648.087 C729.000519,648.087 764.162602,633.504745 793.308058,604.372898 C822.449432,575.232885 837.02216,540.070803 837.02216,498.881207 C837.018077,463.913736 826.133441,432.877962 804.370974,405.813352 Z" id="Shape" fill="#FFFFFF" fill-rule="nonzero" opacity="0.400000006"></path>
                                        <path d="M675.183,420.065 C659.198,400.172 638.918,387.374 614.368,381.666 C622.178,369.673 626.072,356.54 626.072,342.267 C626.072,322.09 618.933,304.866 604.663,290.589 C590.39,276.317 573.165,269.178 552.988,269.178 C534.717,269.178 518.917,275.079 505.598,286.881 C494.373,259.853 476.523,237.964 452.069,221.214 C427.609,204.468 400.341,196.089 370.267,196.089 C329.918,196.089 295.465,210.368 266.914,238.919 C238.361,267.463 224.089,301.918 224.089,342.27 C224.089,345.126 224.28,349.215 224.66,354.545 C202.582,364.824 184.784,380.383 171.271,401.231 C157.759,422.067 151,445.055 151,470.18 C151,505.391 163.517,535.513 188.544,560.539 C213.572,585.572 243.694,598.087 278.906,598.087 L589.542,598.087 C619.801,598.087 645.638,587.372 667.054,565.966 C688.467,544.554 699.175,518.717 699.175,488.451 C699.172,462.757 691.174,439.952 675.183,420.065 Z" id="Shape" fill="#FFFFFF" fill-rule="nonzero" opacity="0.800000012"></path>
                                        <g id="Group-9" opacity="0.800000012" transform="translate(869.000000, 681.000000)" fill="#FFFFFF" fill-rule="nonzero">
                                            <path d="M360.499824,153.775332 C349.506355,140.117384 335.559057,131.330653 318.675124,127.411709 C324.046347,119.177668 326.724393,110.160936 326.724393,100.361514 C326.724393,86.5085796 321.814641,74.683088 312.00064,64.8809198 C302.184576,55.0821845 290.338313,50.1807571 276.461853,50.1807571 C263.896217,50.1807571 253.029979,54.2322101 243.870016,62.3351161 C236.150173,43.7784865 223.874075,28.750143 207.056165,17.2500858 C190.234128,5.75277489 171.480927,0 150.797937,0 C123.048454,0 99.3538651,9.80354131 79.718298,29.4058179 C60.0813554,49.0032886 50.2659789,72.6590779 50.2659789,100.363574 C50.2659789,102.32442 50.3973366,105.131807 50.6586765,108.791228 C35.4748283,115.848487 23.2344926,126.530838 13.9411082,140.844462 C4.64841155,155.149847 0,170.932731 0,188.182817 C0,212.357654 8.60839878,233.038533 25.8203822,250.220648 C43.0330533,267.407569 63.7490546,276 87.9656351,276 L301.601375,276 C322.411597,276 340.180647,268.643396 354.909213,253.946666 C369.635717,239.245817 377,221.506893 377,200.727148 C376.997937,183.086403 371.49742,167.429161 360.499824,153.775332 Z" id="Shape-Copy" opacity="0.200000003"></path>
                                            <path d="M311.964063,154.988557 C303.944954,145.042008 293.771195,138.642976 281.455329,135.788962 C285.37333,129.792432 287.326812,123.225899 287.326812,116.089364 C287.326812,106.000813 283.745428,97.3887706 276.586674,90.2502351 C269.426415,83.1141996 260.785242,79.5446818 250.663155,79.5446818 C241.497241,79.5446818 233.57094,82.4951965 226.889269,88.3962259 C221.258084,74.8821586 212.30337,63.9376042 200.035664,55.5625625 C187.764947,47.1895208 174.085557,43 158.998495,43 C138.756829,43 121.472979,50.1395355 107.149952,64.4151065 C92.8259224,78.6871775 85.666165,95.9147633 85.666165,116.090864 C85.666165,117.518871 85.7619829,119.563381 85.9526155,122.228394 C74.8768641,127.36792 65.9482373,135.147458 59.1692434,145.57151 C52.3907511,155.989562 49,167.483619 49,180.046182 C49,197.651769 55.279336,212.712844 67.8344963,225.225907 C80.3901583,237.742469 95.5012998,244 113.165914,244 L269.001003,244 C284.180873,244 297.142382,238.642473 307.886031,227.93942 C318.628175,217.233367 324,204.314803 324,189.181727 C323.998495,176.334663 319.986181,164.932107 311.964063,154.988557 Z" id="Shape-Copy" opacity="0.400000006"></path>
                                        </g>
                                        <g id="Group-9" opacity="0.5" transform="translate(315.000000, 67.000000)" fill="#FFFFFF" fill-rule="nonzero">
                                            <path d="M222.802278,848.273847 C216.007906,839.811857 207.387958,834.367905 196.953061,831.939863 C200.272676,826.838338 201.927808,821.251884 201.927808,815.180503 C201.927808,806.597707 198.893399,799.271044 192.827982,793.197961 C186.76129,787.127006 179.43986,784.090252 170.863691,784.090252 C163.097662,784.090252 156.381924,786.600391 150.720726,791.62067 C145.949576,780.123627 138.362492,770.812589 127.968399,763.687553 C117.571755,756.564219 105.981581,753 93.1987249,753 C76.0485137,753 61.4043782,759.073933 49.2688685,771.218822 C37.1325088,783.360733 31.0662416,798.017037 31.0662416,815.18178 C31.0662416,816.396651 31.1474255,818.136011 31.3089433,820.403261 C21.9247613,824.775693 14.3597793,831.394106 8.61612259,840.26233 C2.87289096,849.125448 0,858.903975 0,869.591528 C0,884.569416 5.32031012,897.382569 15.957955,908.02801 C26.596025,918.676429 39.3992831,924 54.3660291,924 L186.40085,924 C199.26234,924 210.244272,919.442104 219.347073,910.336522 C228.448599,901.228387 233,890.237966 233,877.363559 C232.998725,866.433967 229.599201,856.733285 222.802278,848.273847 Z" id="Shape-Copy"></path>
                                            <path d="M957.802278,95.2738471 C951.007906,86.8118573 942.387958,81.3679048 931.953061,78.9398629 C935.272676,73.8383375 936.927808,68.2518843 936.927808,62.1805034 C936.927808,53.597707 933.893399,46.2710436 927.827982,40.1979612 C921.76129,34.1270056 914.43986,31.0902517 905.863691,31.0902517 C898.097662,31.0902517 891.381924,33.600391 885.720726,38.6206698 C880.949576,27.1236275 873.362492,17.8125886 862.968399,10.6875532 C852.571755,3.56421922 840.981581,0 828.198725,0 C811.048514,0 796.404378,6.0739332 784.268869,18.218822 C772.132509,30.3607331 766.066242,45.0170374 766.066242,62.1817795 C766.066242,63.3966512 766.147426,65.1360106 766.308943,67.4032607 C756.924761,71.7756929 749.359779,78.3941064 743.616123,87.2623297 C737.872891,96.1254484 735,105.903975 735,116.591528 C735,131.569416 740.32031,144.382569 750.957955,155.02801 C761.596025,165.676429 774.399283,171 789.366029,171 L921.40085,171 C934.26234,171 945.244272,166.442104 954.347073,157.336522 C963.448599,148.228387 968,137.237966 968,124.363559 C967.998725,113.433967 964.599201,103.733285 957.802278,95.2738471 Z" id="Shape-Copy"></path>
                                            <path d="M488.879256,993.915502 C485.467489,989.659764 481.139018,986.92187 475.899176,985.70075 C477.566108,983.13507 478.397225,980.325509 478.397225,977.272066 C478.397225,972.955572 476.873509,969.270817 473.827785,966.216518 C470.78142,963.163289 467.104994,961.636033 462.798506,961.636033 C458.898826,961.636033 455.526545,962.898442 452.683798,965.423261 C450.287985,959.641123 446.478161,954.958378 441.25881,951.375027 C436.038178,947.792531 430.218219,946 423.79936,946 C415.187451,946 407.833958,949.054727 401.740161,955.162682 C395.645938,961.269141 392.599787,968.640147 392.599787,977.272708 C392.599787,977.883696 392.640553,978.758461 392.721658,979.898716 C388.009429,982.097717 384.210705,985.426276 381.326551,989.886318 C378.44261,994.343793 377,999.261648 377,1004.63667 C377,1012.16941 379.671572,1018.61346 385.013222,1023.9673 C390.355086,1029.32265 396.784189,1032 404.29968,1032 L470.600427,1032 C477.058771,1032 482.573304,1029.70772 487.144239,1025.12831 C491.714533,1020.54761 494,1015.02026 494,1008.54542 C493.99936,1003.04866 492.292303,998.169956 488.879256,993.915502 Z" id="Shape-Copy-18" opacity="0.200000003"></path>
                                        </g>
                                    </g>
                                </g>
                            </g>
                        </g>
                    </g>
                </g>
            </g>
        </g>
    </g>
</svg>