<?xml version="1.0" encoding="UTF-8"?>
<svg width="874px" height="2197px" viewBox="0 0 874 2197" version="1.1" xmlns="http://www.w3.org/2000/svg" xmlns:xlink="http://www.w3.org/1999/xlink">
    <!-- Generator: Sketch 49 (51002) - http://www.bohemiancoding.com/sketch -->
    <title>smoke</title>
    <desc>Created with Sketch.</desc>
    <defs>
        <linearGradient x1="2.92315934%" y1="2.92315934%" x2="98.1086575%" y2="98.1086575%" id="linearGradient-1">
            <stop stop-color="#ABA8E4" offset="0%"></stop>
            <stop stop-color="#4D3F89" offset="100%"></stop>
        </linearGradient>
        <rect id="path-2" x="0" y="0" width="874" height="2197"></rect>
    </defs>
    <g id="Page-1" stroke="none" stroke-width="1" fill="none" fill-rule="evenodd">
        <g id="smoke">
            <g id="Group-24-Copy-4">
                <g id="night-rainy-copy-3">
                    <g id="Group-5-Copy-3">
                        <g id="with-content-copy-7">
                            <g id="Shape">
                                <g id="fluffy-cloud-silhouette">
                                    <mask id="mask-3" fill="white">
                                        <use xlink:href="#path-2"></use>
                                    </mask>
                                    <use id="Mask" fill="url(#linearGradient-1)" xlink:href="#path-2"></use>
                                    <g mask="url(#mask-3)" id="Group">
                                        <g transform="translate(-137.000000, 123.000000)">
                                            <g>
                                                <path d="M764.011218,326.731693 C740.712639,297.712184 711.153978,279.042718 675.371674,270.716002 C686.754965,253.220855 692.430577,234.062698 692.430577,213.241532 C692.430577,183.807729 682.025288,158.681704 661.226368,137.854703 C640.423076,117.034996 615.317162,106.620766 585.908626,106.620766 C559.278139,106.620766 536.249202,115.229026 516.836391,132.445547 C500.475643,93.0176432 474.458774,61.0864094 438.816393,36.6518456 C403.165267,12.223117 363.421403,0 319.587716,0 C260.777933,0 210.561732,20.8299186 168.94786,62.4795442 C127.331073,104.118958 106.529239,154.381221 106.529239,213.245908 C106.529239,217.412184 106.807626,223.377135 107.361487,231.152432 C75.1821914,246.147231 49.2411143,268.844388 29.5455431,299.257032 C9.85142941,329.65217 0,363.186603 0,399.838449 C0,451.203549 18.2438736,495.144917 54.7214182,531.652344 C91.2004203,568.169982 135.104068,586.426613 186.426532,586.426613 L639.187092,586.426613 C683.290422,586.426613 720.948564,570.795786 752.162976,539.569143 C783.373015,508.333747 798.980222,470.64325 798.980222,426.491817 C798.975849,389.009925 787.318543,355.742449 764.011218,326.731693 Z" id="Shape" fill="#FFFFFF" fill-rule="nonzero" opacity="0.300000012"></path>
                                                <path d="M665.595635,336.088291 C647.594528,313.66704 624.756714,299.24251 597.110347,292.809066 C605.905383,279.291846 610.290513,264.489741 610.290513,248.40275 C610.290513,225.661405 602.251107,206.248364 586.181304,190.156865 C570.108123,174.071001 550.710621,166.024687 527.988798,166.024687 C507.413369,166.024687 489.620595,172.67566 474.621737,185.977606 C461.980985,155.51455 441.879654,130.843623 414.341395,111.964824 C386.796379,93.0905331 356.089204,83.6466252 322.222123,83.6466252 C276.784107,83.6466252 237.985725,99.7403787 205.833732,131.919996 C173.679486,164.091724 157.607431,202.925695 157.607431,248.406131 C157.607431,251.625107 157.822521,256.233788 158.250448,262.241191 C133.387862,273.826575 113.34509,291.363007 98.1277638,314.860631 C82.9115636,338.34473 75.3000851,364.254332 75.3000851,392.57253 C75.3000851,432.258584 89.395791,466.208863 117.57932,494.41548 C145.763975,522.629986 179.68511,536.735548 219.338222,536.735548 L569.153169,536.735548 C603.228584,536.735548 632.324274,524.658752 656.441366,500.532211 C680.555079,476.398906 692.613625,447.278218 692.613625,413.165637 C692.610247,384.206123 683.603499,358.502779 665.595635,336.088291 Z" id="Shape" fill="#FFFFFF" fill-rule="nonzero" opacity="0.5"></path>
                                                <path d="M558.696015,347.891283 C545.468852,331.416211 528.68769,320.817107 508.373216,316.08983 C514.835784,306.157414 518.057966,295.280869 518.057966,283.460193 C518.057966,266.749916 512.150633,252.485268 500.342586,240.661279 C488.532058,228.841431 474.278827,222.929022 457.582895,222.929022 C442.464128,222.929022 429.390047,227.816139 418.368928,237.590371 C409.080538,215.206203 394.310137,197.078074 374.075101,183.205986 C353.8351,169.337209 331.271554,162.397852 306.386117,162.397852 C272.99839,162.397852 244.489447,174.223497 220.864252,197.86899 C197.237402,221.508686 185.427701,250.04378 185.427701,283.462677 C185.427701,285.827972 185.585748,289.214418 185.900188,293.628641 C167.631229,302.141548 152.903856,315.027269 141.722207,332.293258 C130.541386,349.549308 124.948493,368.587611 124.948493,389.395745 C124.948493,418.556946 135.305978,443.503517 156.015157,464.22966 C176.725162,484.9616 201.650318,495.326328 230.787314,495.326328 L487.83036,495.326328 C512.86888,495.326328 534.248311,486.452332 551.969483,468.724216 C569.688172,450.991132 578.548758,429.593331 578.548758,404.527502 C578.546276,383.248132 571.928143,364.361386 558.696015,347.891283 Z" id="Shape" fill="#FFFFFF" fill-rule="nonzero"></path>
                                            </g>
                                        </g>
                                    </g>
                                </g>
                            </g>
                        </g>
                    </g>
                </g>
            </g>
            <g id="mist" transform="translate(34.000000, 821.000000)" fill="#FFFFFF" fill-rule="nonzero">
                <path d="M339,11.5 C339,5.14893333 331.648425,0 322.580461,0 L38.4195391,0 C29.351575,0 22,5.14893333 22,11.5 C22,17.8510667 29.351575,23 38.4195391,23 L322.580461,23 C331.648425,23 339,17.8510667 339,11.5 Z" id="Shape" opacity="0.5"></path>
                <path d="M437.568077,58 L146.431923,58 C138.461653,58 132,63.1489333 132,69.5 C132,75.8510667 138.461653,81 146.431923,81 L437.568077,81 C445.538347,81 452,75.8510667 452,69.5 C452,63.1489333 445.538347,58 437.568077,58 Z" id="Shape" opacity="0.300000012"></path>
                <path d="M341.199564,139 C349.925618,139 357,133.851067 357,127.5 C357,121.148933 349.925618,116 341.199564,116 L20.8004357,116 C12.0743817,116 5,121.148933 5,127.5 C5,133.851067 12.0743817,139 20.8004357,139 L341.199564,139 Z" id="Shape" opacity="0.800000012"></path>
                <path d="M400.219707,184 L80.7802928,184 C72.0653631,184 65,189.148933 65,195.5 C65,201.851067 72.0653631,207 80.7802928,207 L400.219707,207 C408.934637,207 416,201.851067 416,195.5 C416,189.148933 408.934637,184 400.219707,184 Z" id="Shape" opacity="0.200000003"></path>
                <path d="M169.26762,243 L11.7339441,243 C5.25367792,243 0,248.148933 0,254.5 C0,260.851067 5.25367792,266 11.7339441,266 L169.266056,266 C175.746322,266 181,260.851067 181,254.5 C181.001564,248.148933 175.747886,243 169.26762,243 Z" id="Shape" opacity="0.699999988"></path>
            </g>
            <g id="mist-copy-2" transform="translate(512.000000, 1087.000000)" fill="#FFFFFF" fill-rule="nonzero">
                <path d="M197,6 C197,2.6864 193.103897,0 188.298162,0 L37.7018377,0 C32.8961028,0 29,2.6864 29,6 C29,9.3136 32.8961028,12 37.7018377,12 L188.298162,12 C193.103897,12 197,9.3136 197,6 Z" id="Shape" opacity="0.5"></path>
                <path d="M259.333041,41 L104.666959,41 C100.432753,41 97,43.6864 97,47 C97,50.3136 100.432753,53 104.666959,53 L259.333041,53 C263.567247,53 267,50.3136 267,47 C267,43.6864 263.567247,41 259.333041,41 Z" id="Shape" opacity="0.300000012"></path>
                <path d="M178.606019,93 C183.241735,93 187,90.3136 187,87 C187,83.6864 183.241735,81 178.606019,81 L8.39398147,81 C3.7582653,81 0,83.6864 0,87 C0,90.3136 3.7582653,93 8.39398147,93 L178.606019,93 Z" id="Shape" opacity="0.800000012"></path>
                <path d="M239.637794,128 L70.3622064,128 C65.7440386,128 62,130.6864 62,134 C62,137.3136 65.7440386,140 70.3622064,140 L239.637794,140 C244.255961,140 248,137.3136 248,134 C248,130.6864 244.255961,128 239.637794,128 Z" id="Shape" opacity="0.200000003"></path>
                <path d="M106.777301,189 L23.2235284,189 C19.7864811,189 17,191.6864 17,195 C17,198.3136 19.7864811,201 23.2235284,201 L106.776471,201 C110.213519,201 113,198.3136 113,195 C113.00083,191.6864 110.214349,189 106.777301,189 Z" id="Shape" opacity="0.699999988"></path>
            </g>
        </g>
    </g>
</svg>