<?xml version="1.0" encoding="UTF-8"?>
<svg width="57px" height="43px" viewBox="0 0 57 43" version="1.1" xmlns="http://www.w3.org/2000/svg" xmlns:xlink="http://www.w3.org/1999/xlink">
    <!-- Generator: Sketch 49 (51002) - http://www.bohemiancoding.com/sketch -->
    <title>broken clouds</title>
    <desc>Created with Sketch.</desc>
    <defs></defs>
    <g id="Page-1" stroke="none" stroke-width="1" fill="none" fill-rule="evenodd">
        <g id="Group-32" transform="translate(-6.000000, -5211.000000)" fill="#FFFFFF">
            <g id="broken-clouds" transform="translate(6.000000, 5210.000000)">
                <g id="moon-3-copy" transform="translate(15.000000, 0.000000)">
                    <path d="M35.505,11.33 C39.8002262,12.5845881 42.5213925,16.8042052 41.8922312,21.2344553 C41.2630699,25.6647054 37.4746929,28.9598707 33,28.969 L10,28.969 C4.60609515,28.9703307 0.184324513,24.6912191 0.00882584107,19.3001699 C-0.166672831,13.9091207 3.96742883,9.35148365 9.35,9.002 C11.8468751,3.69068951 17.3953235,0.504366048 23.2411482,1.02469027 C29.086973,1.54501449 33.9854412,5.66119542 35.505,11.33 Z M11.389,12.108 C8.77406824,11.5789734 6.08578429,12.5823576 4.45696375,14.6953368 C2.82814321,16.808316 2.54203244,19.6634501 3.71919562,22.0576147 C4.89635879,24.4517793 7.33209124,25.9686373 10,25.969 L33,25.969 C36.3137085,25.969 39,23.2827085 39,19.969 C39,16.6552915 36.3137085,13.969 33,13.969 C32.983,13.969 32.967,13.969 32.95,13.969 C32.4700699,8.66424092 28.255556,4.4670808 22.9488618,4.00904278 C17.6421676,3.55100475 12.7708022,6.96393309 11.389,12.108 Z" id="moon_big_cloud"></path>
                </g>
                <g id="moon-4-copy" transform="translate(0.000000, 19.000000)">
                    <path d="M10,7.969 C6.13400675,7.969 3,11.1030068 3,14.969 C3,18.8349932 6.13400675,21.969 10,21.969 L33,21.969 C36.3137085,21.969 39,19.2827085 39,15.969 C38.9991142,14.7782603 38.6379567,13.6156538 37.964,12.634 C38.8981386,12.2640213 39.8010431,11.8195916 40.664,11.305 C41.5323186,12.7060955 41.9948101,14.3206618 42,15.969 C42,20.9395627 37.9705627,24.969 33,24.969 L10,24.969 C4.60609515,24.9703307 0.184324513,20.6912191 0.00882584107,15.3001699 C-0.166672831,9.90912067 3.96742883,5.35148365 9.35,5.002 C10.1767212,3.25796999 11.3530561,1.70245765 12.806,0.432 C13.1190678,1.46461859 13.5205535,2.46833289 14.006,3.432 C12.7609856,4.75225159 11.8619433,6.36001551 11.389,8.112 C10.9318639,8.01854489 10.4665882,7.97064394 10,7.969 Z" id="moon_small_cloud"></path>
                </g>
            </g>
        </g>
    </g>
</svg>