<?xml version="1.0" encoding="UTF-8"?>
<svg width="52px" height="35px" viewBox="0 0 52 35" version="1.1" xmlns="http://www.w3.org/2000/svg" xmlns:xlink="http://www.w3.org/1999/xlink">
    <!-- Generator: Sketch 49 (51002) - http://www.bohemiancoding.com/sketch -->
    <title>few clouds</title>
    <desc>Created with Sketch.</desc>
    <defs></defs>
    <g id="Page-1" stroke="none" stroke-width="1" fill="none" fill-rule="evenodd">
        <g id="Group-32" transform="translate(0.000000, -4923.000000)" fill="#FFFFFF">
            <g id="few-clouds" transform="translate(0.000000, 4923.000000)">
                <path d="M42,35 L12,35 L12,34.943 C11.67,34.973 11.338,35 11,35 C4.92486775,35 0,30.0751322 0,24 C0,17.9248678 4.92486775,13 11,13 C11.127,13 11.25,13.015 11.375,13.019 C13.0980774,5.01895703 20.4275779,-0.507085435 28.59293,0.037622479 C36.7582822,0.582330393 43.2888222,7.03297151 43.934,15.191 C48.9780297,16.1912157 52.4412554,20.8538008 51.9415817,25.9717099 C51.441908,31.0896189 47.1422402,34.9942942 42,35 Z M42,18 C41.6242605,18.0033039 41.2493915,18.0367445 40.879,18.1 C40.9513772,17.5695752 40.9917835,17.035277 41,16.5 C41,9.04415588 34.9558441,3 27.5,3 C20.0441559,3 14,9.04415588 14,16.5 C14,16.53 14,16.559 14,16.589 C10.8753718,15.2591216 7.25196313,16.0393784 4.95163804,18.5374541 C2.65131294,21.0355297 2.17184989,24.7108537 3.7543248,27.7154587 C5.33679971,30.7200636 8.63877319,32.4037685 12,31.92 L12,32 L42,32 C45.8659932,32 49,28.8659932 49,25 C49,21.1340068 45.8659932,18 42,18 Z" id="cloud"></path>
            </g>
        </g>
    </g>
</svg>