<?xml version="1.0" encoding="UTF-8"?>
<svg width="52px" height="47px" viewBox="0 0 52 47" version="1.1" xmlns="http://www.w3.org/2000/svg" xmlns:xlink="http://www.w3.org/1999/xlink">
    <!-- Generator: Sketch 49 (51002) - http://www.bohemiancoding.com/sketch -->
    <title>flurries</title>
    <desc>Created with Sketch.</desc>
    <defs></defs>
    <g id="Page-1" stroke="none" stroke-width="1" fill="none" fill-rule="evenodd">
        <g id="Group-32" transform="translate(-14.000000, -3714.000000)" fill="#FFFFFF">
            <g id="flurries" transform="translate(13.000000, 3714.000000)">
                <g id="snow">
                    <path d="M52.873,26.523 C52.4464397,25.9832599 51.9822844,25.4743266 51.484,25 L51.448,24.968 C50.9517148,24.4982061 50.4230839,24.0638065 49.866,23.668 C49.5560614,21.8688132 48.5388066,20.2685621 47.0412323,19.224337 C45.5436579,18.1801119 43.6903977,17.7788171 41.895,18.11 C42.5209039,13.1166745 40.3174808,8.18970043 36.1783935,5.32735667 C32.0393061,2.46501291 26.6517157,2.14249866 22.2007173,4.49061904 C17.7497189,6.83873941 14.9742564,11.4676653 15,16.5 C15,16.53 15,16.559 15,16.589 C11.720155,15.2549621 7.9535074,16.2374435 5.74312833,19.0035354 C3.53274926,21.7696273 3.40533644,25.6602147 5.43,28.565 L3.289,30.706 C0.724479124,27.3880295 0.272327155,22.8996031 2.12355025,19.1368025 C3.97477335,15.3740019 7.80647541,12.9931465 12,13 C12.127,13 12.25,13.015 12.375,13.019 C14.0980774,5.01895703 21.4275779,-0.507085435 29.59293,0.037622479 C37.7582822,0.582330393 44.2888222,7.03297151 44.934,15.191 C50.2113914,16.1967551 53.7302059,21.2194539 52.873,26.523 Z M6.99496359,30.000635 L8.99496359,28.000635 L13.9949636,33.000635 L15.9949636,33.000635 L15.9949636,31.000635 L10.9949636,26.000635 L12.9949636,24.000635 L15.9949636,28.000635 L15.9949636,22.000635 L18.9949636,22.000635 L18.9949636,28.000635 L21.9949636,24.000635 L23.9949636,26.000635 L18.9949636,31.000635 L18.9949636,33.000635 L20.9949636,33.000635 L25.9949636,28.000635 L27.9949636,30.000635 L23.9949636,33.000635 L27.2249636,33.000635 C27.0762078,33.8257575 26.9992531,34.6622215 26.9949636,35.500635 C26.9949636,35.669635 27.0149636,35.833635 27.0199636,36.000635 L23.9949636,36.000635 L27.2669636,38.272635 C27.3439636,38.672635 27.4429636,39.058635 27.5519636,39.443635 L25.9949636,41.000635 L20.9949636,36.000635 L18.9949636,36.000635 L18.9949636,38.000635 L23.9949636,43.000635 L21.9949636,45.000635 L18.9949636,41.000635 L18.9949636,47.000635 L15.9949636,47.000635 L15.9949636,41.000635 L12.9949636,45.000635 L10.9949636,43.000635 L15.9949636,38.000635 L15.9949636,36.000635 L13.9949636,36.000635 L8.99496359,41.000635 L6.99496359,39.000635 L10.9949636,36.000635 L4.99496359,36.000635 L4.99496359,33.000635 L10.9949636,33.000635 L6.99496359,30.000635 Z" id="snow_warning"></path>
                </g>
                <circle id="Oval-8" cx="47.5" cy="33.5" r="2.5"></circle>
                <circle id="Oval-8-Copy" cx="39.5" cy="28.5" r="2.5"></circle>
                <circle id="Oval-8-Copy-2" cx="36.5" cy="37.5" r="2.5"></circle>
            </g>
        </g>
    </g>
</svg>