<?xml version="1.0" encoding="UTF-8"?>
<svg width="52px" height="47px" viewBox="0 0 52 47" version="1.1" xmlns="http://www.w3.org/2000/svg" xmlns:xlink="http://www.w3.org/1999/xlink">
    <!-- Generator: Sketch 49 (51002) - http://www.bohemiancoding.com/sketch -->
    <title>fog</title>
    <desc>Created with Sketch.</desc>
    <defs></defs>
    <g id="Page-1" stroke="none" stroke-width="1" fill="none" fill-rule="evenodd">
        <g id="Group-32" transform="translate(-7.000000, -4457.000000)">
            <g id="fog" transform="translate(7.000000, 4457.000000)">
                <path d="M45,34.541 L45,31.3 C48.2096608,29.8579266 49.8372263,26.2463439 48.79152,22.8865826 C47.7458137,19.5268212 44.3561168,17.4768324 40.895,18.111 C41.5209047,13.1177858 39.3176064,8.19090201 35.1786834,5.32851482 C31.0397603,2.46612763 25.6523149,2.14342175 21.2013005,4.49127504 C16.750286,6.83912833 13.9746153,11.4677739 14,16.5 C14,16.53 14,16.559 14,16.589 C11.2007892,15.4441622 7.9949163,15.9802993 5.7205195,17.9736266 C3.44612269,19.9669539 2.49416669,23.074822 3.262,26 L0.19,26 C-0.416268986,22.7862538 0.4433739,19.469618 2.53438874,16.954984 C4.62540358,14.4403501 7.72958266,12.9901325 11,13 C11.127,13 11.25,13.015 11.375,13.019 C13.0980774,5.01895703 20.4275779,-0.507085435 28.59293,0.037622479 C36.7582822,0.582330393 43.2888222,7.03297151 43.934,15.191 C48.4183864,16.0755189 51.7322775,19.8880347 51.9837029,24.4519015 C52.2351284,29.0157683 49.3600867,33.1692351 45,34.541 Z" id="rain_hail_wind" fill="#FFFFFF"></path>
                <path d="M7.10134689,30.2693282 L39.505565,30.2693282" id="Path-6" stroke="#FFFFFF" stroke-width="4" stroke-linecap="round"></path>
                <path d="M11.1013469,38 L34.505565,38" id="Path-6" stroke="#FFFFFF" stroke-width="4" stroke-linecap="round"></path>
                <path d="M18.1013469,45 L30.505565,45" id="Path-6" stroke="#FFFFFF" stroke-width="4" stroke-linecap="round"></path>
            </g>
        </g>
    </g>
</svg>