<?xml version="1.0" encoding="UTF-8"?>
<svg width="52px" height="47px" viewBox="0 0 52 47" version="1.1" xmlns="http://www.w3.org/2000/svg" xmlns:xlink="http://www.w3.org/1999/xlink">
    <!-- Generator: Sketch 49 (51002) - http://www.bohemiancoding.com/sketch -->
    <title>freezing rain</title>
    <desc>Created with Sketch.</desc>
    <defs></defs>
    <g id="Page-1" stroke="none" stroke-width="1" fill="none" fill-rule="evenodd">
        <g id="Group-32" transform="translate(-12.000000, -1927.000000)" fill="#FFFFFF">
            <g id="freezing-rain" transform="translate(11.000000, 1927.000000)">
                <path d="M48.146,33.563 L50,28 L50,26 L49.9,26 C49.9577451,25.6695609 49.9911681,25.3353304 50,25 C50.0412664,22.9384519 49.1535739,20.9675653 47.5823652,19.6322802 C46.0111564,18.296995 43.9229044,17.7387878 41.895,18.112 C42.5209053,13.1188973 40.3177317,8.19210389 36.178973,5.3296734 C32.0402144,2.46724292 26.6529141,2.14434542 22.2018837,4.49193152 C17.7508534,6.83951762 14.9749742,11.4678826 15,16.5 C15,16.53 15,16.559 15,16.589 C11.474722,15.1628644 7.43270408,16.4154848 5.33168214,19.5852094 C3.23066019,22.7549341 3.65136986,26.9656312 6.338,29.657 L4.217,31.778 C1.0705252,28.6313847 0.129797628,23.8989991 1.83361065,19.7882191 C3.53742368,15.6774391 7.55011374,12.9981182 12,13 C12.127,13 12.25,13.015 12.375,13.019 C14.0980774,5.01895703 21.4275779,-0.507085435 29.59293,0.037622479 C37.7582822,0.582330393 44.2888222,7.03297151 44.934,15.191 C48.9914429,15.9871344 52.1391254,19.2005689 52.8512188,23.2736016 C53.5633123,27.3466343 51.6926383,31.4374344 48.146,33.563 Z M9,30 L11,28 L16,33 L18,33 L18,31 L13,26 L15,24 L18,28 L18,22 L21,22 L21,28 L24,24 L26,26 L21,31 L21,33 L23,33 L28,28 L30,30 L26,33 L32,33 L32,36 L26,36 L30,39 L28,41 L23,36 L21,36 L21,38 L26,43 L24,45 L21,41 L21,47 L18,47 L18,41 L15,45 L13,43 L18,38 L18,36 L16,36 L11,41 L9,39 L13,36 L7,36 L7,33 L13,33 L9,30 Z M41,25 L36,40 L33,40 L38,25 L41,25 Z M47,28 L42,43 L39,43 L44,28 L47,28 Z" id="shower_snow"></path>
            </g>
        </g>
    </g>
</svg>