<?xml version="1.0" encoding="UTF-8"?>
<svg width="57px" height="47px" viewBox="0 0 57 47" version="1.1" xmlns="http://www.w3.org/2000/svg" xmlns:xlink="http://www.w3.org/1999/xlink">
    <!-- Generator: Sketch 49 (51002) - http://www.bohemiancoding.com/sketch -->
    <title>freezing fog</title>
    <desc>Created with Sketch.</desc>
    <defs></defs>
    <g id="Page-1" stroke="none" stroke-width="1" fill="none" fill-rule="evenodd">
        <g id="Group-32" transform="translate(-10.000000, -4603.000000)">
            <g id="freezing-fog" transform="translate(12.000000, 4603.000000)">
                <path d="M48,34.541 L48,31.3 C51.2096608,29.8579266 52.8372263,26.2463439 51.79152,22.8865826 C50.7458137,19.5268212 47.3561168,17.4768324 43.895,18.111 C44.5209047,13.1177858 42.3176064,8.19090201 38.1786834,5.32851482 C34.0397603,2.46612763 28.6523149,2.14342175 24.2013005,4.49127504 C19.750286,6.83912833 16.9746153,11.4677739 17,16.5 C17,16.53 17,16.559 17,16.589 C14.2007892,15.4441622 10.9949163,15.9802993 8.7205195,17.9736266 C6.44612269,19.9669539 5.49416669,23.074822 6.262,26 L3.19,26 C2.58373101,22.7862538 3.4433739,19.469618 5.53438874,16.954984 C7.62540358,14.4403501 10.7295827,12.9901325 14,13 C14.127,13 14.25,13.015 14.375,13.019 C16.0980774,5.01895703 23.4275779,-0.507085435 31.59293,0.037622479 C39.7582822,0.582330393 46.2888222,7.03297151 46.934,15.191 C51.4183864,16.0755189 54.7322775,19.8880347 54.9837029,24.4519015 C55.2351284,29.0157683 52.3600867,33.1692351 48,34.541 Z" id="rain_hail_wind" fill="#FFFFFF"></path>
                <path d="M33.0434783,37.16 L34.0869565,36.12 L36.6956522,38.72 L37.7391304,38.72 L37.7391304,37.68 L35.1304348,35.08 L36.173913,34.04 L37.7391304,36.12 L37.7391304,33 L39.3043478,33 L39.3043478,36.12 L40.8695652,34.04 L41.9130435,35.08 L39.3043478,37.68 L39.3043478,38.72 L40.3478261,38.72 L42.9565217,36.12 L44,37.16 L41.9130435,38.72 L43.5982609,38.72 C43.5206491,39.1490638 43.4804989,39.584025 43.4782609,40.02 C43.4782609,40.10788 43.4886957,40.19316 43.4913043,40.28 L41.9130435,40.28 L43.6201739,41.46144 C43.6603478,41.66944 43.712,41.87016 43.7688696,42.07036 L42.9565217,42.88 L40.3478261,40.28 L39.3043478,40.28 L39.3043478,41.32 L41.9130435,43.92 L40.8695652,44.96 L39.3043478,42.88 L39.3043478,46 L37.7391304,46 L37.7391304,42.88 L36.173913,44.96 L35.1304348,43.92 L37.7391304,41.32 L37.7391304,40.28 L36.6956522,40.28 L34.0869565,42.88 L33.0434783,41.84 L35.1304348,40.28 L32,40.28 L32,38.72 L35.1304348,38.72 L33.0434783,37.16 Z" id="snow_warning-path" fill="#FFFFFF"></path>
                <path d="M0.101346894,30.2693282 L32.505565,30.2693282" id="Path-6" stroke="#FFFFFF" stroke-width="4" stroke-linecap="round"></path>
                <path d="M3.10134689,38 L26.505565,38" id="Path-6" stroke="#FFFFFF" stroke-width="4" stroke-linecap="round"></path>
                <path d="M11.1013469,45 L23.505565,45" id="Path-6" stroke="#FFFFFF" stroke-width="4" stroke-linecap="round"></path>
            </g>
        </g>
    </g>
</svg>