<?xml version="1.0" encoding="UTF-8"?>
<svg width="45px" height="29px" viewBox="0 0 45 29" version="1.1" xmlns="http://www.w3.org/2000/svg" xmlns:xlink="http://www.w3.org/1999/xlink">
    <!-- Generator: Sketch 49 (51002) - http://www.bohemiancoding.com/sketch -->
    <title>haze</title>
    <desc>Created with Sketch.</desc>
    <defs></defs>
    <g id="Page-1" stroke="none" stroke-width="1" fill="none" fill-rule="evenodd">
        <g id="Group-32" transform="translate(-9.000000, -4177.000000)" fill="#FFFFFF" fill-rule="nonzero">
            <g id="haze" transform="translate(9.000000, 4177.000000)">
                <path d="M41.9316334,1.92538223 L37.87125,0.657322724 C34.2070765,-0.496551334 30.1620501,-0.117936409 26.7927304,1.68799669 C23.5309096,3.43984194 19.4735976,3.44284682 16.2087053,1.68799669 C12.8455285,-0.117936409 8.80664486,-0.496551334 5.12711437,0.657322724 L1.06980238,1.92538223 C0.25895426,2.17779218 -0.186397927,3.02216357 0.0746705968,3.81545198 C0.332667726,4.60273063 1.19265816,5.03843829 2.00350628,4.78602834 L6.06081827,3.51496394 C8.9448576,2.6195096 12.102251,2.90797811 14.7313646,4.32027188 C16.8199128,5.44109225 19.1603154,6 21.5007179,6 C23.8411204,6 26.1784515,5.44109225 28.2669997,4.32327676 C30.8991847,2.90797811 34.0565782,2.61650472 36.9344747,3.51796882 L40.9948581,4.78602834 C41.8179918,5.04444805 42.668768,4.59972575 42.9267652,3.8124471 C43.1847623,3.02216357 42.7394101,2.17779218 41.9316334,1.92538223 Z" id="Shape"></path>
                <path d="M43.9316334,9.92682635 L39.87125,8.65921626 C36.2070765,7.51175878 32.1620501,7.88423189 28.7927304,9.68952493 C25.5309096,11.4407493 21.4735976,11.4437531 18.2087053,9.68952493 C14.8424571,7.88122807 10.8035735,7.50274733 7.12711437,8.65921626 L3.06980238,9.92682635 C2.25895426,10.1791468 1.81360207,11.023219 2.0746706,11.8162262 C2.33266773,12.6032258 3.19265816,13.0357753 4.00350628,12.7864586 L8.06081827,11.5158447 C10.9448576,10.6207077 14.102251,10.909074 16.7313646,12.3208672 C18.8199128,13.4412903 21.1603154,14 23.5007179,14 C25.8411204,14 28.1784515,13.4412903 30.2669997,12.323871 C32.8991847,10.909074 36.0565782,10.6177039 38.9344747,11.5188485 L42.9948581,12.7864586 C43.8179918,13.0447867 44.668768,12.6032258 44.9267652,11.8132224 C45.1847623,11.023219 44.7394101,10.1791468 43.9316334,9.92682635 Z" id="Shape"></path>
                <path d="M42.9314451,17.9272372 L38.8764898,16.6627585 C35.1993826,15.5003993 31.1690028,15.8818453 27.7929454,17.6899598 C24.5305496,19.438004 20.4725224,19.438004 17.2070546,17.6899598 C13.837141,15.8818453 9.80061737,15.5064063 6.12658215,16.659755 L2.06855495,17.9272372 C1.26063583,18.1795323 0.815205138,19.0235193 1.07324775,19.8164465 C1.33129035,20.6033668 2.19143238,21.032869 3.00242343,20.7895845 L7.06045063,19.5221023 C9.93578255,18.6150416 13.0968045,18.9123893 15.7294535,20.3210366 C17.8183698,21.4413467 20.1591849,22 22.5,22 C24.8408151,22 27.1785582,21.4413467 29.2674746,20.3240401 C31.9001236,18.9123893 35.0580736,18.6120381 37.9364774,19.5221023 L41.9945046,20.7895845 C42.8116396,21.0358725 43.6656377,20.6033668 43.9267523,19.8164465 C44.1847949,19.0235193 43.7393642,18.1795323 42.9314451,17.9272372 Z" id="Shape"></path>
                <path d="M41.9315214,24.9253807 L37.8768558,23.6612578 C34.2000113,22.5022283 30.1699194,22.8805644 26.7941032,24.68817 C23.5350121,26.4357223 19.4742031,26.4387249 16.2089686,24.68817 C12.8423674,22.8835671 8.7999887,22.514239 5.12621593,23.6582552 L1.06847861,24.9253807 C0.260617211,25.1776047 -0.184781662,26.0213542 0.0732425129,26.8140583 C0.331266687,27.6007571 1.19134727,28.0271359 2.00228039,27.7869225 L6.0600177,26.519797 C8.93821594,25.6189968 12.0959404,25.9102555 14.731473,27.3215091 C16.8202401,28.4415039 19.160888,29 21.5015359,29 C23.8421837,29 26.1797599,28.4415039 28.268527,27.3215091 C30.9009879,25.9102555 34.0587123,25.6129915 36.9369106,26.519797 L40.9946479,27.7869225 C41.8117244,28.0331412 42.6656616,27.6007571 42.9267575,26.8140583 C43.1847817,26.0213542 42.7393828,25.1776047 41.9315214,24.9253807 Z" id="Shape"></path>
            </g>
        </g>
    </g>
</svg>