<?xml version="1.0" encoding="UTF-8"?>
<svg width="52px" height="45px" viewBox="0 0 52 45" version="1.1" xmlns="http://www.w3.org/2000/svg" xmlns:xlink="http://www.w3.org/1999/xlink">
    <!-- Generator: Sketch 49 (51002) - http://www.bohemiancoding.com/sketch -->
    <title>heavy drizzle</title>
    <desc>Created with Sketch.</desc>
    <defs></defs>
    <g id="Page-1" stroke="none" stroke-width="1" fill="none" fill-rule="evenodd">
        <g id="Group-32" transform="translate(-13.000000, -1330.000000)" fill="#FFFFFF">
            <g id="heavy-drizzle" transform="translate(13.000000, 1330.000000)">
                <path d="M42,35 C41.662,35 41.33,34.977 41,34.944 L41,31.921 C43.6025836,32.314941 46.2061551,31.2155642 47.7387438,29.0755168 C49.2713326,26.9354694 49.4738254,24.116567 48.2628497,21.7794387 C47.0518741,19.4423103 44.6321684,17.9820917 42,18 C41.6312593,18.0040641 41.2634286,18.0375033 40.9,18.1 C41.5102059,13.1130738 39.3005963,8.19982487 35.1647935,5.34729623 C31.0289908,2.4947676 25.6512519,2.17490209 21.2064714,4.51706146 C16.761691,6.85922084 13.9852454,11.4759015 14,16.5 C14,16.53 14,16.559 14,16.589 C11.0070013,15.3722579 7.57590918,16.0752669 5.30260295,18.3710416 C3.02929673,20.6668163 2.36006564,24.1046564 3.60618435,27.085544 C4.85230306,30.0664316 7.76913697,32.0051669 11,32 L12,32 L12,35 L11,35 C4.92486775,35 0,30.0751322 0,24 C0,17.9248678 4.92486775,13 11,13 C11.127,13 11.25,13.015 11.375,13.019 C13.0980774,5.01895703 20.4275779,-0.507085435 28.59293,0.037622479 C36.7582822,0.582330393 43.2888222,7.03297151 43.934,15.191 C48.9780297,16.1912157 52.4412554,20.8538008 51.9415817,25.9717099 C51.441908,31.0896189 47.1422402,34.9942942 42,35 Z M17,25 L17,42 L15,42 L15,25 L17,25 Z M24,28 L24,45 L22,45 L22,28 L24,28 Z M31,25 L31,42 L29,42 L29,25 L31,25 Z M38,28 L38,45 L36,45 L36,28 L38,28 Z" id="hail"></path>
            </g>
        </g>
    </g>
</svg>