<?xml version="1.0" encoding="UTF-8"?>
<svg width="52px" height="47px" viewBox="0 0 52 47" version="1.1" xmlns="http://www.w3.org/2000/svg" xmlns:xlink="http://www.w3.org/1999/xlink">
    <!-- Generator: Sketch 49 (51002) - http://www.bohemiancoding.com/sketch -->
    <title>heavy snow</title>
    <desc>Created with Sketch.</desc>
    <defs></defs>
    <g id="Page-1" stroke="none" stroke-width="1" fill="none" fill-rule="evenodd">
        <g id="Group-32" transform="translate(-12.000000, -3582.000000)" fill="#FFFFFF">
            <g id="heavy-snow" transform="translate(11.000000, 3582.000000)">
                <path d="M48,33.651 L48,29.889 C50.1772869,27.7545538 50.7056271,24.4486503 49.3020433,21.7419194 C47.8984596,19.0351886 44.8920352,17.5622483 41.893,18.112 C42.5250352,13.1159809 40.3237999,8.18348353 36.1831247,5.31739134 C32.0424495,2.45129915 26.6507412,2.12811342 22.1973499,4.47906653 C17.7439585,6.83001964 14.9692813,11.4642546 15,16.5 C15,16.53 15,16.559 15,16.589 C11.5982245,15.2149217 7.69779915,16.3308581 5.53757619,19.2962593 C3.37735324,22.2616606 3.51108122,26.3163799 5.862,29.133 L3.741,31.254 C0.882259116,28.0123326 0.189675324,23.3957588 1.97134012,19.4579323 C3.75300492,15.5201058 7.67787624,12.992694 12,13 C12.127,13 12.25,13.015 12.375,13.019 C14.0980774,5.01895703 21.4275779,-0.507085435 29.59293,0.037622479 C37.7582822,0.582330393 44.2888222,7.03297151 44.934,15.191 C49.0216304,15.9941086 52.1821015,19.2489409 52.8646407,23.3584233 C53.5471798,27.4679057 51.6085525,31.5696413 48,33.651 Z M9,30 L11,28 L16,33 L18,33 L18,31 L13,26 L15,24 L18,28 L18,22 L21,22 L21,28 L24,24 L26,26 L21,31 L21,33 L23,33 L28,28 L30,30 L26,33 L32,33 L32,36 L26,36 L30,39 L28,41 L23,36 L21,36 L21,38 L26,43 L24,45 L21,41 L21,47 L18,47 L18,41 L15,45 L13,43 L18,38 L18,36 L16,36 L11,41 L9,39 L13,36 L7,36 L7,33 L13,33 L9,30 Z M38,32 L35,32 L35,26 L38,26 L38,32 Z M38,41 L35,41 L35,35 L38,35 L38,41 Z M45,35 L42,35 L42,29 L45,29 L45,35 Z M45,44 L42,44 L42,38 L45,38 L45,44 Z" id="rain_snow"></path>
            </g>
        </g>
    </g>
</svg>