<?xml version="1.0" encoding="UTF-8"?>
<svg width="156px" height="132px" viewBox="0 0 156 132" version="1.1" xmlns="http://www.w3.org/2000/svg" xmlns:xlink="http://www.w3.org/1999/xlink">
    <!-- Generator: Sketch 49.3 (51167) - http://www.bohemiancoding.com/sketch -->
    <title>snow shower copy</title>
    <desc>Created with Sketch.</desc>
    <defs></defs>
    <g id="Page-2" stroke="none" stroke-width="1" fill="none" fill-rule="evenodd">
        <g id="Group-36" transform="translate(-830.000000, -1942.000000)" fill="#FFFFFF">
            <g id="snow-shower-copy" transform="translate(830.000000, 1942.000000)">
                <path d="M141.001347,100.952459 L141.001347,89.6663065 C147.53247,83.2628813 149.117311,73.3450369 144.907036,65.2247346 C140.69676,57.1044324 131.678505,52.6855518 122.682415,54.3348292 C124.578307,39.3465694 117.975346,24.5488774 105.554723,15.9504846 C93.1340999,7.35209191 76.9608011,6.38252162 63.6021353,13.4354762 C50.2434695,20.4884309 41.9203776,34.3913236 42.0125234,49.4987639 C42.0125234,49.5887651 42.0125234,49.6757662 42.0125234,49.7657675 C31.808349,45.6434769 20.1083941,48.9913313 13.6284569,57.8876552 C7.14851964,66.7839792 7.54965829,78.9483014 14.6016184,87.3982759 L8.23933676,93.7613618 C-0.335917655,84.0362281 -2.41343446,70.1863199 2.93095651,58.3726807 C8.27534747,46.5590415 20.0486321,38.9767037 33.0135395,38.998622 C33.3944965,38.998622 33.7634548,39.0436226 34.1384125,39.0556228 C39.307061,15.0551696 61.29308,-1.52318173 85.786371,0.110964084 C110.279662,1.7451099 129.86907,21.0972947 131.804385,45.5717108 C144.065892,47.981069 153.546235,57.7456979 155.593621,70.0743117 C157.641007,82.4029254 151.825782,94.7082987 141.001347,100.952459 Z M22.6547275,84.559311 L27.294222,79.9192299 L38.8929583,91.5194326 L43.5324529,91.5194326 L43.5324529,86.8793515 L31.9337165,75.2791489 L36.5732111,70.6390678 L43.5324529,79.9192299 L43.5324529,65.9989868 L50.4916946,65.9989868 L50.4916946,79.9192299 L57.4509364,70.6390678 L62.090431,75.2791489 L50.4916946,86.8793515 L50.4916946,91.5194326 L55.1311892,91.5194326 L66.7299255,79.9192299 L71.36942,84.559311 L62.090431,91.5194326 L76.0089145,91.5194326 L76.0089145,98.4795542 L62.090431,98.4795542 L71.36942,105.439676 L66.7299255,110.079757 L55.1311892,98.4795542 L50.4916946,98.4795542 L50.4916946,103.119635 L62.090431,114.719838 L57.4509364,119.359919 L50.4916946,110.079757 L50.4916946,124 L43.5324529,124 L43.5324529,110.079757 L36.5732111,119.359919 L31.9337165,114.719838 L43.5324529,103.119635 L43.5324529,98.4795542 L38.8929583,98.4795542 L27.294222,110.079757 L22.6547275,105.439676 L31.9337165,98.4795542 L18.015233,98.4795542 L18.015233,91.5194326 L31.9337165,91.5194326 L22.6547275,84.559311 Z M111.004733,95.9993921 L102.00575,95.9993921 L102.00575,77.9991489 L111.004733,77.9991489 L111.004733,95.9993921 Z M91.0047335,95.9993921 L82.0057495,95.9993921 L82.0057495,77.9991489 L91.0047335,77.9991489 L91.0047335,95.9993921 Z M91.0047335,125.999392 L82.0057495,125.999392 L82.0057495,107.999149 L91.0047335,107.999149 L91.0047335,125.999392 Z M111.004733,122.999757 L102.00575,122.999757 L102.00575,104.999514 L111.004733,104.999514 L111.004733,122.999757 Z M132.002363,104.999514 L123.003379,104.999514 L123.003379,86.9992705 L132.002363,86.9992705 L132.002363,104.999514 Z M132.002363,131.999878 L123.003379,131.999878 L123.003379,113.999635 L132.002363,113.999635 L132.002363,131.999878 Z" id="rain_snow"></path>
            </g>
        </g>
    </g>
</svg>