<?xml version="1.0" encoding="UTF-8"?>
<svg width="52px" height="43px" viewBox="0 0 52 43" version="1.1" xmlns="http://www.w3.org/2000/svg" xmlns:xlink="http://www.w3.org/1999/xlink">
    <!-- Generator: Sketch 49 (51002) - http://www.bohemiancoding.com/sketch -->
    <title>light shower rain</title>
    <desc>Created with Sketch.</desc>
    <defs></defs>
    <g id="Page-1" stroke="none" stroke-width="1" fill="none" fill-rule="evenodd">
        <g id="Group-32" transform="translate(-10.000000, -2078.000000)" fill="#FFFFFF">
            <g id="light-shower-rain" transform="translate(10.000000, 2078.000000)">
                <path d="M42,35 L41,35 L41,32 L42,32 C44.6490285,32.0214354 47.0832091,30.5456255 48.289205,28.1869425 C49.4952008,25.8282595 49.266371,22.990851 47.6979761,20.8559157 C46.1295813,18.7209803 43.4903574,17.6543277 40.879,18.1 C40.9513772,17.5695752 40.9917835,17.035277 41,16.5 C41,9.04415588 34.9558441,3 27.5,3 C20.0441559,3 14,9.04415588 14,16.5 C14,16.53 14,16.559 14,16.589 C11.0070013,15.3722579 7.57590918,16.0752669 5.30260295,18.3710416 C3.02929673,20.6668163 2.36006564,24.1046564 3.60618435,27.085544 C4.85230306,30.0664316 7.76913697,32.0051669 11,32 L11,35 C4.92486775,35 1.13686838e-13,30.0751322 1.13686838e-13,24 C1.13686838e-13,17.9248678 4.92486775,13 11,13 C11.127,13 11.25,13.015 11.375,13.019 C13.0980774,5.01895703 20.4275779,-0.507085435 28.59293,0.037622479 C36.7582822,0.582330393 43.2888222,7.03297151 43.934,15.191 C48.9780297,16.1912157 52.4412554,20.8538008 51.9415817,25.9717099 C51.441908,31.0896189 47.1422402,34.9942942 42,35 Z M17,31 L14,31 L14,25 L17,25 L17,31 Z M17,40 L14,40 L14,34 L17,34 L17,40 Z M24,34 L21,34 L21,28 L24,28 L24,34 Z M24,43 L21,43 L21,37 L24,37 L24,43 Z M31,31 L28,31 L28,25 L31,25 L31,31 Z M31,40 L28,40 L28,34 L31,34 L31,40 Z M38,34 L35,34 L35,28 L38,28 L38,34 Z M38,43 L35,43 L35,37 L38,37 L38,43 Z" id="rain_cloud"></path>
            </g>
        </g>
    </g>
</svg>