<?xml version="1.0" encoding="UTF-8"?>
<svg width="52px" height="43px" viewBox="0 0 52 43" version="1.1" xmlns="http://www.w3.org/2000/svg" xmlns:xlink="http://www.w3.org/1999/xlink">
    <!-- Generator: Sketch 49 (51002) - http://www.bohemiancoding.com/sketch -->
    <title>light rain</title>
    <desc>Created with Sketch.</desc>
    <defs></defs>
    <g id="Page-1" stroke="none" stroke-width="1" fill="none" fill-rule="evenodd">
        <g id="Group-32" transform="translate(-10.000000, -1477.000000)" fill="#FFFFFF">
            <g id="light-rain" transform="translate(9.000000, 1477.000000)">
                <path d="M43,35 C42.779,35 42.563,34.978 42.346,34.964 L43.339,31.983 C47.0797349,31.7314078 49.9580705,28.5772075 49.867203,24.8291227 C49.7763355,21.0810379 46.7485321,18.0700245 43,18 C42.6314426,18.0025889 42.263653,18.0340182 41.9,18.094 C42.5102327,13.1063897 40.2998845,8.19257022 36.1630866,5.34028262 C32.0262888,2.48799501 26.6476571,2.16927609 22.2029586,4.51305421 C17.7582601,6.85683233 14.9830662,11.475226 15,16.5 C15,16.53 15,16.559 15,16.589 C12.0070013,15.3722579 8.57590918,16.0752669 6.30260295,18.3710416 C4.02929673,20.6668163 3.36006564,24.1046564 4.60618435,27.085544 C5.85230306,30.0664316 8.76913697,32.0051669 12,32 C12.117,32 12.227,31.978 12.343,31.973 L11.343,34.967 C5.40568703,34.617519 0.82305922,29.6092886 1.00086319,23.6643573 C1.17866716,17.719426 6.05241339,12.9940214 12,13 C12.127,13 12.25,13.015 12.375,13.019 C14.0980774,5.01895703 21.4275779,-0.507085435 29.59293,0.037622479 C37.7582822,0.582330393 44.2888222,7.03297151 44.934,15.191 C49.9780297,16.1912157 53.4412554,20.8538008 52.9415817,25.9717099 C52.441908,31.0896189 48.1422402,34.9942942 43,35 Z M24,26 L19,41 L16,41 L21,26 L24,26 Z M31,28 L26,43 L23,43 L28,28 L31,28 Z M39,26 L34,41 L31,41 L36,26 L39,26 Z" id="shower"></path>
            </g>
        </g>
    </g>
</svg>