<?xml version="1.0" encoding="UTF-8"?>
<svg width="51px" height="39px" viewBox="0 0 51 39" version="1.1" xmlns="http://www.w3.org/2000/svg" xmlns:xlink="http://www.w3.org/1999/xlink">
    <!-- Generator: Sketch 49 (51002) - http://www.bohemiancoding.com/sketch -->
    <title>mist</title>
    <desc>Created with Sketch.</desc>
    <defs></defs>
    <g id="Page-1" stroke="none" stroke-width="1" fill="none" fill-rule="evenodd">
        <g id="Group-32" transform="translate(-14.000000, -3883.000000)" fill="#FFFFFF" fill-rule="nonzero">
            <g id="mist" transform="translate(14.000000, 3883.000000)">
                <path d="M33,2 C33,0.895466667 32.2346941,0 31.2907104,0 L1.70928956,0 C0.765305911,0 0,0.895466667 0,2 C0,3.10453333 0.765305911,4 1.70928956,4 L31.2907104,4 C32.2346941,4 33,3.10453333 33,2 Z" id="Shape"></path>
                <path d="M49.2862091,9 L14.7137909,9 C13.7673213,9 13,9.89546667 13,11 C13,12.1045333 13.7673213,13 14.7137909,13 L49.2862091,13 C50.2326787,13 51,12.1045333 51,11 C51,9.89546667 50.2326787,9 49.2862091,9 Z" id="Shape"></path>
                <path d="M40.3391587,22 C41.256386,22 42,21.1045333 42,20 C42,18.8954667 41.256386,18 40.3391587,18 L6.66084125,18 C5.74361399,18 5,18.8954667 5,20 C5,21.1045333 5.74361399,22 6.66084125,22 L40.3391587,22 Z" id="Shape"></path>
                <path d="M46.2915922,26 L11.7084078,26 C10.7649111,26 10,26.8954667 10,28 C10,29.1045333 10.7649111,30 11.7084078,30 L46.2915922,30 C47.2350889,30 48,29.1045333 48,28 C48,26.8954667 47.2350889,26 46.2915922,26 Z" id="Shape"></path>
                <path d="M29.3146858,35 L6.68553894,35 C5.75467197,35 5,35.8954667 5,37 C5,38.1045333 5.75467197,39 6.68553894,39 L29.314461,39 C30.245328,39 30.9999999,38.1045333 30.9999999,37 C31.0002247,35.8954667 30.2455527,35 29.3146858,35 Z" id="Shape"></path>
            </g>
        </g>
    </g>
</svg>