<?xml version="1.0" encoding="UTF-8"?>
<svg width="52px" height="47px" viewBox="0 0 52 47" version="1.1" xmlns="http://www.w3.org/2000/svg" xmlns:xlink="http://www.w3.org/1999/xlink">
    <!-- Generator: Sketch 49 (51002) - http://www.bohemiancoding.com/sketch -->
    <title>mix snow/rain</title>
    <desc>Created with Sketch.</desc>
    <defs></defs>
    <g id="Page-1" stroke="none" stroke-width="1" fill="none" fill-rule="evenodd">
        <g id="Group-32" transform="translate(-8.000000, -2957.000000)" fill="#FFFFFF">
            <g id="mix-snow/rain" transform="translate(7.000000, 2957.000000)">
                <path d="M48.1456181,33.5628185 L49.9994075,27.9997433 L49.9994075,25.9997163 L49.8994189,25.9997163 C49.9571574,25.6692728 49.9905766,25.3350377 49.9994075,24.9997028 C50.0406692,22.9381269 49.1530776,20.9672136 47.5820473,19.6319104 C46.011017,18.2966073 43.9230021,17.7383925 41.895328,18.1116097 C42.5211622,13.1184396 40.3182389,8.19157961 36.1799503,5.32911045 C32.0416617,2.46664129 26.6549732,2.14373943 22.2044484,4.49135725 C17.7539236,6.83897506 14.9783597,11.4674026 15.0033827,16.499588 C15.0033827,16.5295884 15.0033827,16.5585887 15.0033827,16.5885892 C11.4785051,15.1624343 7.4369462,16.4150716 5.33616288,19.584839 C3.23537956,22.7546065 3.65604145,26.9653605 6.34236645,29.6567657 L4.22160735,31.7777944 C1.0754899,28.6311366 0.134869181,23.898687 1.83848869,19.7878515 C3.54210821,15.6770159 7.55434252,12.9976588 12.0037234,12.9995407 C12.130709,12.9995407 12.253695,13.0145409 12.3786808,13.0185409 C14.1015625,5.01838987 21.4302305,-0.507727245 29.5946553,0.0369880281 C37.7590801,0.581703301 44.2888783,7.03243157 44.9339829,15.1905703 C48.9909649,15.9867155 52.1382899,19.2001933 52.8503025,23.2732811 C53.5623151,27.3463688 51.6918536,31.4372242 48.1456181,33.5628185 Z M9.00406411,29.9997703 L11.003837,27.9997433 L16.0032691,32.9998109 L18.0030419,32.9998109 L18.0030419,30.9997838 L13.0036098,25.9997163 L15.0033827,23.9996893 L18.0030419,27.9997433 L18.0030419,21.9996623 L21.0027012,21.9996623 L21.0027012,27.9997433 L24.0023605,23.9996893 L26.0021333,25.9997163 L21.0027012,30.9997838 L21.0027012,32.9998109 L23.0024741,32.9998109 L28.0019062,27.9997433 L30.001679,29.9997703 L26.0021333,32.9998109 L32.0014519,32.9998109 L32.0014519,35.9998514 L26.0021333,35.9998514 L30.001679,38.9998919 L28.0019062,40.9999189 L23.0024741,35.9998514 L21.0027012,35.9998514 L21.0027012,37.9998784 L26.0021333,42.999946 L24.0023605,44.999973 L21.0027012,40.9999189 L21.0027012,47 L18.0030419,47 L18.0030419,40.9999189 L15.0033827,44.999973 L13.0036098,42.999946 L18.0030419,37.9998784 L18.0030419,35.9998514 L16.0032691,35.9998514 L11.003837,40.9999189 L9.00406411,38.9998919 L13.0036098,35.9998514 L7.00429126,35.9998514 L7.00429126,32.9998109 L13.0036098,32.9998109 L9.00406411,29.9997703 Z M41.0004297,24.9997028 L36.0009976,39.9999054 L33.0013383,39.9999054 L38.0007704,24.9997028 L41.0004297,24.9997028 Z M46.9997482,27.9997433 L42.0003161,42.999946 L39.0006568,42.999946 L44.000089,27.9997433 L46.9997482,27.9997433 Z" id="shower_snow"></path>
            </g>
        </g>
    </g>
</svg>