<?xml version="1.0" encoding="UTF-8"?>
<svg width="52px" height="47px" viewBox="0 0 52 47" version="1.1" xmlns="http://www.w3.org/2000/svg" xmlns:xlink="http://www.w3.org/1999/xlink">
    <!-- Generator: Sketch 49 (51002) - http://www.bohemiancoding.com/sketch -->
    <title>rain-5 copy</title>
    <desc>Created with Sketch.</desc>
    <defs></defs>
    <g id="Page-1" stroke="none" stroke-width="1" fill="none" fill-rule="evenodd">
        <g id="Group-32" transform="translate(-2.000000, -585.000000)" fill="#FFFFFF">
            <g id="rain-5-copy" transform="translate(1.000000, 585.000000)">
                <path d="M45,34.8 L45,31.676 C48.5933289,30.6817067 50.7664214,27.0340809 49.930022,23.4007535 C49.0936227,19.7674261 45.5443914,17.4370909 41.878,18.114 C42.481329,13.1362865 40.2736172,8.23472346 36.146024,5.38786342 C32.0184307,2.54100337 26.652289,2.21877133 22.2136817,4.55123865 C17.7750745,6.88370597 14.9966731,11.4858573 15,16.5 C15,16.53 15,16.559 15,16.589 C11.8444186,15.305959 8.22241466,16.1638294 5.9775612,18.7259615 C3.73270773,21.2880936 3.35833663,24.99143 5.045,27.951 L2.864,30.132 C0.598528219,26.7580724 0.377871653,22.4099368 2.29014839,18.8239993 C4.20242512,15.2380618 7.93604279,12.9986263 12,13 C12.127,13 12.25,13.015 12.375,13.019 C14.0980774,5.01895703 21.4275779,-0.507085435 29.59293,0.037622479 C37.7582822,0.582330393 44.2888222,7.03297151 44.934,15.191 C49.6084263,16.1126266 52.9835114,20.2040754 52.9995474,24.968464 C53.0155834,29.7328527 49.6681164,33.8469282 45,34.8 Z M22,27 L29,27 L13,47 L13,32 L6,32 L22,13 L22,27 Z M19,21 L12,29 L16,29 L16,39 L23,30 L19,30 L19,21 Z M35,32 L32,32 L32,26 L35,26 L35,32 Z M35,41 L32,41 L32,35 L35,35 L35,41 Z M42,35 L39,35 L39,29 L42,29 L42,35 Z M42,44 L39,44 L39,38 L42,38 L42,44 Z" id="rain_thunder"></path>
            </g>
        </g>
    </g>
</svg>