<?xml version="1.0" encoding="UTF-8"?>
<svg width="56px" height="47px" viewBox="0 0 56 47" version="1.1" xmlns="http://www.w3.org/2000/svg" xmlns:xlink="http://www.w3.org/1999/xlink">
    <!-- Generator: Sketch 49 (51002) - http://www.bohemiancoding.com/sketch -->
    <title>smoke</title>
    <desc>Created with Sketch.</desc>
    <defs></defs>
    <g id="Page-1" stroke="none" stroke-width="1" fill="none" fill-rule="evenodd">
        <g id="Group-32" transform="translate(-12.000000, -4008.000000)">
            <g id="smoke" transform="translate(14.000000, 4008.000000)">
                <path d="M47,34.541 L47,31.3 C50.2096608,29.8579266 51.8372263,26.2463439 50.79152,22.8865826 C49.7458137,19.5268212 46.3561168,17.4768324 42.895,18.111 C43.5209047,13.1177858 41.3176064,8.19090201 37.1786834,5.32851482 C33.0397603,2.46612763 27.6523149,2.14342175 23.2013005,4.49127504 C18.750286,6.83912833 15.9746153,11.4677739 16,16.5 C16,16.53 16,16.559 16,16.589 C13.2007892,15.4441622 9.9949163,15.9802993 7.7205195,17.9736266 C5.44612269,19.9669539 4.49416669,23.074822 5.262,26 L2.19,26 C1.58373101,22.7862538 2.4433739,19.469618 4.53438874,16.954984 C6.62540358,14.4403501 9.72958266,12.9901325 13,13 C13.127,13 13.25,13.015 13.375,13.019 C15.0980774,5.01895703 22.4275779,-0.507085435 30.59293,0.037622479 C38.7582822,0.582330393 45.2888222,7.03297151 45.934,15.191 C50.4183864,16.0755189 53.7322775,19.8880347 53.9837029,24.4519015 C54.2351284,29.0157683 51.3600867,33.1692351 47,34.541 Z" id="rain_hail_wind" fill="#FFFFFF"></path>
                <path d="M7.10134689,30.2693282 L39.505565,30.2693282" id="Path-6" stroke="#FFFFFF" stroke-width="4" stroke-linecap="round"></path>
                <path d="M0.101346894,37.2693282 L32.505565,37.2693282" id="Path-6" stroke="#FFFFFF" stroke-width="4" stroke-linecap="round"></path>
                <path d="M7.10134689,44.2693282 L39.505565,44.2693282" id="Path-6" stroke="#FFFFFF" stroke-width="4" stroke-linecap="round"></path>
            </g>
        </g>
    </g>
</svg>