<?xml version="1.0" encoding="UTF-8"?>
<svg width="52px" height="43px" viewBox="0 0 52 43" version="1.1" xmlns="http://www.w3.org/2000/svg" xmlns:xlink="http://www.w3.org/1999/xlink">
    <!-- Generator: Sketch 49 (51002) - http://www.bohemiancoding.com/sketch -->
    <title>snow</title>
    <desc>Created with Sketch.</desc>
    <defs></defs>
    <g id="Page-1" stroke="none" stroke-width="1" fill="none" fill-rule="evenodd">
        <g id="Group-32" transform="translate(-11.000000, -2675.000000)" fill="#FFFFFF">
            <g id="snow" transform="translate(11.000000, 2675.000000)">
                <path d="M42,35 L42,32 C44.6506993,32.0271991 47.089362,30.5547594 48.2996474,28.1963371 C49.5099328,25.8379148 49.2841828,22.9981627 47.7164812,20.8605804 C46.1487796,18.722998 43.5081093,17.654347 40.895,18.1 C41.5208845,13.105566 39.3162094,8.17770095 35.1754827,5.31579876 C31.0347559,2.45389657 25.6457241,2.13329977 21.1948914,4.48408483 C16.7440587,6.8348699 13.9706783,11.4665874 14,16.5 C14,16.53 14,16.559 14,16.589 C11.0070013,15.3722579 7.57590918,16.0752669 5.30260295,18.3710416 C3.02929673,20.6668163 2.36006564,24.1046564 3.60618435,27.085544 C4.85230306,30.0664316 7.76913697,32.0051669 11,32 L11,35 C4.92486775,35 0,30.0751322 0,24 C0,17.9248678 4.92486775,13 11,13 C11.127,13 11.25,13.015 11.375,13.019 C13.0980774,5.01895703 20.4275779,-0.507085435 28.59293,0.037622479 C36.7582822,0.582330393 43.2888222,7.03297151 43.934,15.191 C48.9780297,16.1912157 52.4412554,20.8538008 51.9415817,25.9717099 C51.441908,31.0896189 47.1422402,34.9942942 42,35 Z M12,32 L11,32 C11.3346752,31.9942068 11.6686604,31.967488 12,31.92 L12,32 Z M16,26 L18,24 L23,29 L25,29 L25,27 L20,22 L22,20 L25,24 L25,18 L28,18 L28,24 L31,20 L33,22 L28,27 L28,29 L30,29 L35,24 L37,26 L33,29 L39,29 L39,32 L33,32 L37,35 L35,37 L30,32 L28,32 L28,34 L33,39 L31,41 L28,37 L28,43 L25,43 L25,37 L22,41 L20,39 L25,34 L25,32 L23,32 L18,37 L16,35 L20,32 L14,32 L14,29 L20,29 L16,26 Z" id="cloud_snow"></path>
            </g>
        </g>
    </g>
</svg>