<?xml version="1.0" encoding="UTF-8"?>
<svg width="156px" height="141px" viewBox="0 0 156 141" version="1.1" xmlns="http://www.w3.org/2000/svg" xmlns:xlink="http://www.w3.org/1999/xlink">
    <!-- Generator: Sketch 49.1 (51147) - http://www.bohemiancoding.com/sketch -->
    <title>thunderstorm with drizzle</title>
    <desc>Created with Sketch.</desc>
    <defs></defs>
    <g id="Page-2" stroke="none" stroke-width="1" fill="none" fill-rule="evenodd">
        <g id="Group-36" transform="translate(-292.000000, -302.000000)" fill="#FFFFFF">
            <g id="thunderstorm-with-drizzle" transform="translate(292.000000, 302.000000)">
                <path d="M132.002728,104.399506 L132.002728,95.0273789 C142.782022,92.0444589 149.30088,81.1014335 146.791844,70.2013041 C144.282807,59.3011747 133.635797,52.3100744 122.63733,54.3408293 C124.447201,39.4074869 117.824491,24.7025992 105.442507,16.1619037 C93.0605231,7.62120823 76.9631324,6.65449904 63.6481664,13.6519955 C50.3332005,20.649492 41.998532,34.4561326 42.0085121,49.4987639 C42.0085121,49.5887651 42.0085121,49.6757662 42.0085121,49.7657675 C32.5423764,45.9165925 21.6770628,48.4902383 14.9429352,56.1767385 C8.20880764,63.8632386 7.08576651,74.973398 12.1454314,83.852228 L5.60285192,90.3953164 C-1.19312663,80.2733967 -1.85505379,67.2288137 3.88140773,56.4708559 C9.61786925,45.712898 20.8180024,38.9945007 33.0090905,38.998622 C33.390066,38.998622 33.7590423,39.0436226 34.1340182,39.0556228 C39.3029181,15.0551696 61.2900064,-1.52318173 85.7844887,0.110964084 C110.278971,1.7451099 129.869332,21.0972947 131.804741,45.5717108 C145.827118,48.3366281 155.951723,60.6111401 155.999828,74.9044992 C156.047933,89.1978583 146.006177,101.540252 132.002728,104.399506 Z M63.0071625,80.9991894 L84.0058129,80.9991894 L36.0088977,141 L36.0088977,95.9993921 L15.0102473,95.9993921 L63.0071625,38.998622 L63.0071625,80.9991894 Z M54.0077409,62.9989462 L33.0090905,86.9992705 L45.0083193,86.9992705 L45.0083193,116.999676 L66.0069697,89.999311 L54.0077409,89.999311 L54.0077409,62.9989462 Z M102.004656,95.9993921 L93.0052345,95.9993921 L93.0052345,77.9991489 L102.004656,77.9991489 L102.004656,95.9993921 Z M102.004656,122.999757 L93.0052345,122.999757 L93.0052345,104.999514 L102.004656,104.999514 L102.004656,122.999757 Z M123.003306,104.999514 L114.003885,104.999514 L114.003885,86.9992705 L123.003306,86.9992705 L123.003306,104.999514 Z M123.003306,131.999878 L114.003885,131.999878 L114.003885,113.999635 L123.003306,113.999635 L123.003306,131.999878 Z" id="rain_thunder"></path>
            </g>
        </g>
    </g>
</svg>