<?xml version="1.0" encoding="UTF-8"?>
<svg width="52px" height="47px" viewBox="0 0 52 47" version="1.1" xmlns="http://www.w3.org/2000/svg" xmlns:xlink="http://www.w3.org/1999/xlink">
    <!-- Generator: Sketch 49 (51002) - http://www.bohemiancoding.com/sketch -->
    <title>thunderstorm with heavy rain</title>
    <desc>Created with Sketch.</desc>
    <defs></defs>
    <g id="Page-1" stroke="none" stroke-width="1" fill="none" fill-rule="evenodd">
        <g id="Group-32" transform="translate(-2.000000, -293.000000)" fill="#FFFFFF">
            <g id="thunderstorm-with-heavy-rain" transform="translate(1.000000, 293.000000)">
                <path d="M45.08,34.78 L46.43,31.067 C49.4412874,29.4443652 50.8241406,25.8718184 49.6901137,22.6446249 C48.5560867,19.4174313 45.2423966,17.495237 41.878,18.113 C42.4813411,13.1351687 40.2735087,8.23350345 36.1457473,5.38667881 C32.0179858,2.53985416 26.6516896,2.2178125 22.2130926,4.55055365 C17.7744955,6.88329479 14.9963034,11.4857392 15,16.5 C15,16.53 15,16.559 15,16.589 C11.8443015,15.3052648 8.22174664,16.1628341 5.97652172,18.7251327 C3.7312968,21.2874314 3.35692774,24.9912371 5.044,27.951 L2.863,30.132 C0.597427963,26.7579234 0.376859155,22.4095669 2.28938337,18.8235578 C4.20190758,15.2375487 7.93586334,12.9982566 12,13 C12.127,13 12.25,13.015 12.375,13.019 C14.0980774,5.01895703 21.4275779,-0.507085435 29.59293,0.037622479 C37.7582822,0.582330393 44.2888222,7.03297151 44.934,15.191 C49.5895571,16.1128992 52.9558571,20.1801668 52.9912285,24.9259922 C53.0265999,29.6718177 49.7212986,33.7888098 45.08,34.78 Z M22,27 L29,27 L13,47 L13,32 L6,32 L22,13 L22,27 Z M19,21 L12,29 L16,29 L16,39 L23,30 L19,30 L19,21 Z M27,37 L25,43 L22,43 L24,37 L27,37 Z M38,25 L33,40 L30,40 L35,25 L38,25 Z M44,28 L39,43 L36,43 L41,28 L44,28 Z" id="shower_thunder"></path>
            </g>
        </g>
    </g>
</svg>