<?xml version="1.0" encoding="UTF-8"?>
<svg width="52px" height="47px" viewBox="0 0 52 47" version="1.1" xmlns="http://www.w3.org/2000/svg" xmlns:xlink="http://www.w3.org/1999/xlink">
    <!-- Generator: Sketch 49 (51002) - http://www.bohemiancoding.com/sketch -->
    <title>unknown precipitation</title>
    <desc>Created with Sketch.</desc>
    <defs></defs>
    <g id="Page-1" stroke="none" stroke-width="1" fill="none" fill-rule="evenodd">
        <g id="Group-32" transform="translate(-15.000000, -5499.000000)" fill="#FFFFFF">
            <g id="unknown-precipitation" transform="translate(15.000000, 5499.000000)">
                <path d="M51.872,26.522 C51.0114481,25.43256 49.9991498,24.4721226 48.866,23.67 C48.5525253,21.8692638 47.531869,20.2686975 46.0314155,19.2248793 C44.5309621,18.1810611 42.6753582,17.7807038 40.878,18.113 C41.4813411,13.1351687 39.2735087,8.23350345 35.1457473,5.38667881 C31.0179858,2.53985416 25.6516896,2.2178125 21.2130926,4.55055365 C16.7744955,6.88329479 13.9963034,11.4857392 14,16.5 C14,16.53 14,16.559 14,16.589 C10.8753718,15.2591216 7.25196313,16.0393784 4.95163804,18.5374541 C2.65131294,21.0355297 2.17184989,24.7108537 3.7543248,27.7154587 C5.33679971,30.7200636 8.63877319,32.4037685 12,31.92 L12,32 L26.443,32 C26.1994731,32.9826953 26.0593779,33.9881632 26.025,35 L12,35 L12,34.943 C11.67,34.973 11.338,35 11,35 C4.92486775,35 0,30.0751322 0,24 C0,17.9248678 4.92486775,13 11,13 C11.127,13 11.25,13.015 11.375,13.019 C13.0980774,5.01895703 20.4275779,-0.507085435 28.59293,0.037622479 C36.7582822,0.582330393 43.2888222,7.03297151 43.934,15.191 C49.2133133,16.1929246 52.7336504,21.2179864 51.872,26.522 Z M40.5,24 C46.8512746,24 52,29.1487254 52,35.5 C52,41.8512746 46.8512746,47 40.5,47 C34.1487254,47 29,41.8512746 29,35.5 C29,29.1487254 34.1487254,24 40.5,24 Z M40.5,44 C45.1944204,44 49,40.1944204 49,35.5 C49,30.8055796 45.1944204,27 40.5,27 C35.8055796,27 32,30.8055796 32,35.5 C32,40.1944204 35.8055796,44 40.5,44 Z M42,37 L39,37 L39,30 L42,30 L42,37 Z M42,41 L39,41 L39,38 L42,38 L42,41 Z" id="cloud_waring"></path>
            </g>
        </g>
    </g>
</svg>